M48
; DRILL file {KiCad 9.0.0} date 2025-03-13T20:09:56-0400
; FORMAT={-:-/ absolute / inch / decimal}
; #@! TF.CreationDate,2025-03-13T20:09:56-04:00
; #@! TF.GenerationSoftware,Kicad,Pcbnew,9.0.0
; #@! TF.FileFunction,Plated,1,2,PTH
FMAT,2
INCH
; #@! TA.AperFunction,Plated,PTH,ComponentDrill
T1C0.0197
; #@! TA.AperFunction,Plated,PTH,ComponentDrill
T2C0.0394
; #@! TA.AperFunction,Plated,PTH,ComponentDrill
T3C0.0400
; #@! TA.AperFunction,Plated,PTH,ComponentDrill
T4C0.1260
%
G90
G05
T1
X6.2055Y-2.3
X6.2055Y-4.0
X6.2332Y-2.2332
X6.2332Y-2.3668
X6.2332Y-3.9332
X6.2332Y-4.0668
X6.3Y-2.2055
X6.3Y-2.3945
X6.3Y-3.9055
X6.3Y-4.0945
X6.3668Y-2.2332
X6.3668Y-2.3668
X6.3668Y-3.9332
X6.3668Y-4.0668
X6.3945Y-2.3
X6.3945Y-4.0
X8.4055Y-2.3
X8.4055Y-4.0
X8.4332Y-2.2332
X8.4332Y-2.3668
X8.4332Y-3.9332
X8.4332Y-4.0668
X8.5Y-2.2055
X8.5Y-2.3945
X8.5Y-3.9055
X8.5Y-4.0945
X8.5668Y-2.2332
X8.5668Y-2.3668
X8.5668Y-3.9332
X8.5668Y-4.0668
X8.5945Y-2.3
X8.5945Y-4.0
T2
X7.6016Y-3.9
X7.7Y-3.9
X8.18Y-2.2
X8.18Y-2.3
X8.18Y-2.4
X8.18Y-2.5
X8.18Y-2.6
X8.18Y-2.7
X8.18Y-2.8
X8.18Y-2.9
X8.18Y-3.0
X8.18Y-3.1
X8.18Y-3.2
X8.18Y-3.3
X8.18Y-3.4
X8.18Y-3.5
X8.18Y-3.6
X8.18Y-3.7
X8.18Y-3.8
X8.18Y-3.9
X8.18Y-4.0
X8.18Y-4.1
X8.28Y-2.2
X8.28Y-2.3
X8.28Y-2.4
X8.28Y-2.5
X8.28Y-2.6
X8.28Y-2.7
X8.28Y-2.8
X8.28Y-2.9
X8.28Y-3.0
X8.28Y-3.1
X8.28Y-3.2
X8.28Y-3.3
X8.28Y-3.4
X8.28Y-3.5
X8.28Y-3.6
X8.28Y-3.7
X8.28Y-3.8
X8.28Y-3.9
X8.28Y-4.0
X8.28Y-4.1
T3
X6.7Y-2.37
X6.7Y-2.47
X6.7Y-2.57
X6.7Y-2.67
X6.7Y-2.77
X6.7Y-2.87
X6.7Y-2.97
X7.899Y-2.47
X7.899Y-2.57
X7.899Y-2.67
X7.899Y-2.77
X7.899Y-2.87
X7.899Y-2.97
X7.899Y-3.07
X7.899Y-3.17
T4
X6.3Y-2.3
X6.3Y-4.0
X8.5Y-2.3
X8.5Y-4.0
M30
