%TF.GenerationSoftware,KiCad,Pcbnew,9.0.0*%
%TF.CreationDate,2025-03-13T20:15:55-04:00*%
%TF.ProjectId,umich_balloons_gps,756d6963-685f-4626-916c-6c6f6f6e735f,rev?*%
%TF.SameCoordinates,Original*%
%TF.FileFunction,Legend,Top*%
%TF.FilePolarity,Positive*%
%FSLAX46Y46*%
G04 Gerber Fmt 4.6, Leading zero omitted, Abs format (unit mm)*
G04 Created by KiCad (PCBNEW 9.0.0) date 2025-03-13 20:15:55*
%MOMM*%
%LPD*%
G01*
G04 APERTURE LIST*
%ADD10C,0.100000*%
%ADD11C,0.120000*%
G04 APERTURE END LIST*
D10*
X187263693Y-96710038D02*
X187168455Y-96662419D01*
X187168455Y-96662419D02*
X187025598Y-96662419D01*
X187025598Y-96662419D02*
X186882741Y-96710038D01*
X186882741Y-96710038D02*
X186787503Y-96805276D01*
X186787503Y-96805276D02*
X186739884Y-96900514D01*
X186739884Y-96900514D02*
X186692265Y-97090990D01*
X186692265Y-97090990D02*
X186692265Y-97233847D01*
X186692265Y-97233847D02*
X186739884Y-97424323D01*
X186739884Y-97424323D02*
X186787503Y-97519561D01*
X186787503Y-97519561D02*
X186882741Y-97614800D01*
X186882741Y-97614800D02*
X187025598Y-97662419D01*
X187025598Y-97662419D02*
X187120836Y-97662419D01*
X187120836Y-97662419D02*
X187263693Y-97614800D01*
X187263693Y-97614800D02*
X187311312Y-97567180D01*
X187311312Y-97567180D02*
X187311312Y-97233847D01*
X187311312Y-97233847D02*
X187120836Y-97233847D01*
X187739884Y-97662419D02*
X187739884Y-96662419D01*
X187739884Y-96662419D02*
X188311312Y-97662419D01*
X188311312Y-97662419D02*
X188311312Y-96662419D01*
X188787503Y-97662419D02*
X188787503Y-96662419D01*
X188787503Y-96662419D02*
X189025598Y-96662419D01*
X189025598Y-96662419D02*
X189168455Y-96710038D01*
X189168455Y-96710038D02*
X189263693Y-96805276D01*
X189263693Y-96805276D02*
X189311312Y-96900514D01*
X189311312Y-96900514D02*
X189358931Y-97090990D01*
X189358931Y-97090990D02*
X189358931Y-97233847D01*
X189358931Y-97233847D02*
X189311312Y-97424323D01*
X189311312Y-97424323D02*
X189263693Y-97519561D01*
X189263693Y-97519561D02*
X189168455Y-97614800D01*
X189168455Y-97614800D02*
X189025598Y-97662419D01*
X189025598Y-97662419D02*
X188787503Y-97662419D01*
X199693884Y-97662419D02*
X199693884Y-96662419D01*
X199693884Y-96662419D02*
X200074836Y-96662419D01*
X200074836Y-96662419D02*
X200170074Y-96710038D01*
X200170074Y-96710038D02*
X200217693Y-96757657D01*
X200217693Y-96757657D02*
X200265312Y-96852895D01*
X200265312Y-96852895D02*
X200265312Y-96995752D01*
X200265312Y-96995752D02*
X200217693Y-97090990D01*
X200217693Y-97090990D02*
X200170074Y-97138609D01*
X200170074Y-97138609D02*
X200074836Y-97186228D01*
X200074836Y-97186228D02*
X199693884Y-97186228D01*
X200693884Y-97662419D02*
X200693884Y-96662419D01*
X200693884Y-96662419D02*
X201074836Y-96662419D01*
X201074836Y-96662419D02*
X201170074Y-96710038D01*
X201170074Y-96710038D02*
X201217693Y-96757657D01*
X201217693Y-96757657D02*
X201265312Y-96852895D01*
X201265312Y-96852895D02*
X201265312Y-96995752D01*
X201265312Y-96995752D02*
X201217693Y-97090990D01*
X201217693Y-97090990D02*
X201170074Y-97138609D01*
X201170074Y-97138609D02*
X201074836Y-97186228D01*
X201074836Y-97186228D02*
X200693884Y-97186228D01*
X201646265Y-97614800D02*
X201789122Y-97662419D01*
X201789122Y-97662419D02*
X202027217Y-97662419D01*
X202027217Y-97662419D02*
X202122455Y-97614800D01*
X202122455Y-97614800D02*
X202170074Y-97567180D01*
X202170074Y-97567180D02*
X202217693Y-97471942D01*
X202217693Y-97471942D02*
X202217693Y-97376704D01*
X202217693Y-97376704D02*
X202170074Y-97281466D01*
X202170074Y-97281466D02*
X202122455Y-97233847D01*
X202122455Y-97233847D02*
X202027217Y-97186228D01*
X202027217Y-97186228D02*
X201836741Y-97138609D01*
X201836741Y-97138609D02*
X201741503Y-97090990D01*
X201741503Y-97090990D02*
X201693884Y-97043371D01*
X201693884Y-97043371D02*
X201646265Y-96948133D01*
X201646265Y-96948133D02*
X201646265Y-96852895D01*
X201646265Y-96852895D02*
X201693884Y-96757657D01*
X201693884Y-96757657D02*
X201741503Y-96710038D01*
X201741503Y-96710038D02*
X201836741Y-96662419D01*
X201836741Y-96662419D02*
X202074836Y-96662419D01*
X202074836Y-96662419D02*
X202217693Y-96710038D01*
X162762019Y-74929904D02*
X163571542Y-74929904D01*
X163571542Y-74929904D02*
X163666780Y-74882285D01*
X163666780Y-74882285D02*
X163714400Y-74834666D01*
X163714400Y-74834666D02*
X163762019Y-74739428D01*
X163762019Y-74739428D02*
X163762019Y-74548952D01*
X163762019Y-74548952D02*
X163714400Y-74453714D01*
X163714400Y-74453714D02*
X163666780Y-74406095D01*
X163666780Y-74406095D02*
X163571542Y-74358476D01*
X163571542Y-74358476D02*
X162762019Y-74358476D01*
X163762019Y-73358476D02*
X163762019Y-73929904D01*
X163762019Y-73644190D02*
X162762019Y-73644190D01*
X162762019Y-73644190D02*
X162904876Y-73739428D01*
X162904876Y-73739428D02*
X163000114Y-73834666D01*
X163000114Y-73834666D02*
X163047733Y-73929904D01*
X199207817Y-62278200D02*
X199064960Y-62230580D01*
X199064960Y-62230580D02*
X198826865Y-62230580D01*
X198826865Y-62230580D02*
X198731627Y-62278200D01*
X198731627Y-62278200D02*
X198684008Y-62325819D01*
X198684008Y-62325819D02*
X198636389Y-62421057D01*
X198636389Y-62421057D02*
X198636389Y-62516295D01*
X198636389Y-62516295D02*
X198684008Y-62611533D01*
X198684008Y-62611533D02*
X198731627Y-62659152D01*
X198731627Y-62659152D02*
X198826865Y-62706771D01*
X198826865Y-62706771D02*
X199017341Y-62754390D01*
X199017341Y-62754390D02*
X199112579Y-62802009D01*
X199112579Y-62802009D02*
X199160198Y-62849628D01*
X199160198Y-62849628D02*
X199207817Y-62944866D01*
X199207817Y-62944866D02*
X199207817Y-63040104D01*
X199207817Y-63040104D02*
X199160198Y-63135342D01*
X199160198Y-63135342D02*
X199112579Y-63182961D01*
X199112579Y-63182961D02*
X199017341Y-63230580D01*
X199017341Y-63230580D02*
X198779246Y-63230580D01*
X198779246Y-63230580D02*
X198636389Y-63182961D01*
X197636389Y-62325819D02*
X197684008Y-62278200D01*
X197684008Y-62278200D02*
X197826865Y-62230580D01*
X197826865Y-62230580D02*
X197922103Y-62230580D01*
X197922103Y-62230580D02*
X198064960Y-62278200D01*
X198064960Y-62278200D02*
X198160198Y-62373438D01*
X198160198Y-62373438D02*
X198207817Y-62468676D01*
X198207817Y-62468676D02*
X198255436Y-62659152D01*
X198255436Y-62659152D02*
X198255436Y-62802009D01*
X198255436Y-62802009D02*
X198207817Y-62992485D01*
X198207817Y-62992485D02*
X198160198Y-63087723D01*
X198160198Y-63087723D02*
X198064960Y-63182961D01*
X198064960Y-63182961D02*
X197922103Y-63230580D01*
X197922103Y-63230580D02*
X197826865Y-63230580D01*
X197826865Y-63230580D02*
X197684008Y-63182961D01*
X197684008Y-63182961D02*
X197636389Y-63135342D01*
X196731627Y-62230580D02*
X197207817Y-62230580D01*
X197207817Y-62230580D02*
X197207817Y-63230580D01*
X199255436Y-68310580D02*
X198636389Y-68310580D01*
X198636389Y-68310580D02*
X198969722Y-67929628D01*
X198969722Y-67929628D02*
X198826865Y-67929628D01*
X198826865Y-67929628D02*
X198731627Y-67882009D01*
X198731627Y-67882009D02*
X198684008Y-67834390D01*
X198684008Y-67834390D02*
X198636389Y-67739152D01*
X198636389Y-67739152D02*
X198636389Y-67501057D01*
X198636389Y-67501057D02*
X198684008Y-67405819D01*
X198684008Y-67405819D02*
X198731627Y-67358200D01*
X198731627Y-67358200D02*
X198826865Y-67310580D01*
X198826865Y-67310580D02*
X199112579Y-67310580D01*
X199112579Y-67310580D02*
X199207817Y-67358200D01*
X199207817Y-67358200D02*
X199255436Y-67405819D01*
X198350674Y-68310580D02*
X198017341Y-67310580D01*
X198017341Y-67310580D02*
X197684008Y-68310580D01*
X197445912Y-68310580D02*
X196826865Y-68310580D01*
X196826865Y-68310580D02*
X197160198Y-67929628D01*
X197160198Y-67929628D02*
X197017341Y-67929628D01*
X197017341Y-67929628D02*
X196922103Y-67882009D01*
X196922103Y-67882009D02*
X196874484Y-67834390D01*
X196874484Y-67834390D02*
X196826865Y-67739152D01*
X196826865Y-67739152D02*
X196826865Y-67501057D01*
X196826865Y-67501057D02*
X196874484Y-67405819D01*
X196874484Y-67405819D02*
X196922103Y-67358200D01*
X196922103Y-67358200D02*
X197017341Y-67310580D01*
X197017341Y-67310580D02*
X197303055Y-67310580D01*
X197303055Y-67310580D02*
X197398293Y-67358200D01*
X197398293Y-67358200D02*
X197445912Y-67405819D01*
X177903102Y-63230580D02*
X177331674Y-63230580D01*
X177617388Y-62230580D02*
X177617388Y-63230580D01*
X177093578Y-63230580D02*
X176426912Y-62230580D01*
X176426912Y-63230580D02*
X177093578Y-62230580D01*
X175331674Y-63278200D02*
X176188816Y-61992485D01*
X174998340Y-62230580D02*
X174998340Y-63230580D01*
X174998340Y-63230580D02*
X174665007Y-62516295D01*
X174665007Y-62516295D02*
X174331674Y-63230580D01*
X174331674Y-63230580D02*
X174331674Y-62230580D01*
X173855483Y-62230580D02*
X173855483Y-63230580D01*
X173426912Y-62278200D02*
X173284055Y-62230580D01*
X173284055Y-62230580D02*
X173045960Y-62230580D01*
X173045960Y-62230580D02*
X172950722Y-62278200D01*
X172950722Y-62278200D02*
X172903103Y-62325819D01*
X172903103Y-62325819D02*
X172855484Y-62421057D01*
X172855484Y-62421057D02*
X172855484Y-62516295D01*
X172855484Y-62516295D02*
X172903103Y-62611533D01*
X172903103Y-62611533D02*
X172950722Y-62659152D01*
X172950722Y-62659152D02*
X173045960Y-62706771D01*
X173045960Y-62706771D02*
X173236436Y-62754390D01*
X173236436Y-62754390D02*
X173331674Y-62802009D01*
X173331674Y-62802009D02*
X173379293Y-62849628D01*
X173379293Y-62849628D02*
X173426912Y-62944866D01*
X173426912Y-62944866D02*
X173426912Y-63040104D01*
X173426912Y-63040104D02*
X173379293Y-63135342D01*
X173379293Y-63135342D02*
X173331674Y-63182961D01*
X173331674Y-63182961D02*
X173236436Y-63230580D01*
X173236436Y-63230580D02*
X172998341Y-63230580D01*
X172998341Y-63230580D02*
X172855484Y-63182961D01*
X172236436Y-63230580D02*
X172045960Y-63230580D01*
X172045960Y-63230580D02*
X171950722Y-63182961D01*
X171950722Y-63182961D02*
X171855484Y-63087723D01*
X171855484Y-63087723D02*
X171807865Y-62897247D01*
X171807865Y-62897247D02*
X171807865Y-62563914D01*
X171807865Y-62563914D02*
X171855484Y-62373438D01*
X171855484Y-62373438D02*
X171950722Y-62278200D01*
X171950722Y-62278200D02*
X172045960Y-62230580D01*
X172045960Y-62230580D02*
X172236436Y-62230580D01*
X172236436Y-62230580D02*
X172331674Y-62278200D01*
X172331674Y-62278200D02*
X172426912Y-62373438D01*
X172426912Y-62373438D02*
X172474531Y-62563914D01*
X172474531Y-62563914D02*
X172474531Y-62897247D01*
X172474531Y-62897247D02*
X172426912Y-63087723D01*
X172426912Y-63087723D02*
X172331674Y-63182961D01*
X172331674Y-63182961D02*
X172236436Y-63230580D01*
X199302912Y-75025819D02*
X199255293Y-74978200D01*
X199255293Y-74978200D02*
X199302912Y-74930580D01*
X199302912Y-74930580D02*
X199350531Y-74978200D01*
X199350531Y-74978200D02*
X199302912Y-75025819D01*
X199302912Y-75025819D02*
X199302912Y-74930580D01*
X199302912Y-75311533D02*
X199350531Y-75882961D01*
X199350531Y-75882961D02*
X199302912Y-75930580D01*
X199302912Y-75930580D02*
X199255293Y-75882961D01*
X199255293Y-75882961D02*
X199302912Y-75311533D01*
X199302912Y-75311533D02*
X199302912Y-75930580D01*
X198874341Y-74978200D02*
X198731484Y-74930580D01*
X198731484Y-74930580D02*
X198493389Y-74930580D01*
X198493389Y-74930580D02*
X198398151Y-74978200D01*
X198398151Y-74978200D02*
X198350532Y-75025819D01*
X198350532Y-75025819D02*
X198302913Y-75121057D01*
X198302913Y-75121057D02*
X198302913Y-75216295D01*
X198302913Y-75216295D02*
X198350532Y-75311533D01*
X198350532Y-75311533D02*
X198398151Y-75359152D01*
X198398151Y-75359152D02*
X198493389Y-75406771D01*
X198493389Y-75406771D02*
X198683865Y-75454390D01*
X198683865Y-75454390D02*
X198779103Y-75502009D01*
X198779103Y-75502009D02*
X198826722Y-75549628D01*
X198826722Y-75549628D02*
X198874341Y-75644866D01*
X198874341Y-75644866D02*
X198874341Y-75740104D01*
X198874341Y-75740104D02*
X198826722Y-75835342D01*
X198826722Y-75835342D02*
X198779103Y-75882961D01*
X198779103Y-75882961D02*
X198683865Y-75930580D01*
X198683865Y-75930580D02*
X198445770Y-75930580D01*
X198445770Y-75930580D02*
X198302913Y-75882961D01*
X197921960Y-75216295D02*
X197445770Y-75216295D01*
X198017198Y-74930580D02*
X197683865Y-75930580D01*
X197683865Y-75930580D02*
X197350532Y-74930580D01*
X196683865Y-75454390D02*
X197017198Y-75454390D01*
X197017198Y-74930580D02*
X197017198Y-75930580D01*
X197017198Y-75930580D02*
X196541008Y-75930580D01*
X196160055Y-75454390D02*
X195826722Y-75454390D01*
X195683865Y-74930580D02*
X196160055Y-74930580D01*
X196160055Y-74930580D02*
X196160055Y-75930580D01*
X196160055Y-75930580D02*
X195683865Y-75930580D01*
X174109436Y-70850580D02*
X173490389Y-70850580D01*
X173490389Y-70850580D02*
X173823722Y-70469628D01*
X173823722Y-70469628D02*
X173680865Y-70469628D01*
X173680865Y-70469628D02*
X173585627Y-70422009D01*
X173585627Y-70422009D02*
X173538008Y-70374390D01*
X173538008Y-70374390D02*
X173490389Y-70279152D01*
X173490389Y-70279152D02*
X173490389Y-70041057D01*
X173490389Y-70041057D02*
X173538008Y-69945819D01*
X173538008Y-69945819D02*
X173585627Y-69898200D01*
X173585627Y-69898200D02*
X173680865Y-69850580D01*
X173680865Y-69850580D02*
X173966579Y-69850580D01*
X173966579Y-69850580D02*
X174061817Y-69898200D01*
X174061817Y-69898200D02*
X174109436Y-69945819D01*
X173204674Y-70850580D02*
X172871341Y-69850580D01*
X172871341Y-69850580D02*
X172538008Y-70850580D01*
X172299912Y-70850580D02*
X171680865Y-70850580D01*
X171680865Y-70850580D02*
X172014198Y-70469628D01*
X172014198Y-70469628D02*
X171871341Y-70469628D01*
X171871341Y-70469628D02*
X171776103Y-70422009D01*
X171776103Y-70422009D02*
X171728484Y-70374390D01*
X171728484Y-70374390D02*
X171680865Y-70279152D01*
X171680865Y-70279152D02*
X171680865Y-70041057D01*
X171680865Y-70041057D02*
X171728484Y-69945819D01*
X171728484Y-69945819D02*
X171776103Y-69898200D01*
X171776103Y-69898200D02*
X171871341Y-69850580D01*
X171871341Y-69850580D02*
X172157055Y-69850580D01*
X172157055Y-69850580D02*
X172252293Y-69898200D01*
X172252293Y-69898200D02*
X172299912Y-69945819D01*
X172712627Y-73390580D02*
X173188817Y-73390580D01*
X173188817Y-73390580D02*
X173236436Y-72914390D01*
X173236436Y-72914390D02*
X173188817Y-72962009D01*
X173188817Y-72962009D02*
X173093579Y-73009628D01*
X173093579Y-73009628D02*
X172855484Y-73009628D01*
X172855484Y-73009628D02*
X172760246Y-72962009D01*
X172760246Y-72962009D02*
X172712627Y-72914390D01*
X172712627Y-72914390D02*
X172665008Y-72819152D01*
X172665008Y-72819152D02*
X172665008Y-72581057D01*
X172665008Y-72581057D02*
X172712627Y-72485819D01*
X172712627Y-72485819D02*
X172760246Y-72438200D01*
X172760246Y-72438200D02*
X172855484Y-72390580D01*
X172855484Y-72390580D02*
X173093579Y-72390580D01*
X173093579Y-72390580D02*
X173188817Y-72438200D01*
X173188817Y-72438200D02*
X173236436Y-72485819D01*
X172379293Y-73390580D02*
X172045960Y-72390580D01*
X172045960Y-72390580D02*
X171712627Y-73390580D01*
X173903103Y-75882961D02*
X173998341Y-75930580D01*
X173998341Y-75930580D02*
X174141198Y-75930580D01*
X174141198Y-75930580D02*
X174284055Y-75882961D01*
X174284055Y-75882961D02*
X174379293Y-75787723D01*
X174379293Y-75787723D02*
X174426912Y-75692485D01*
X174426912Y-75692485D02*
X174474531Y-75502009D01*
X174474531Y-75502009D02*
X174474531Y-75359152D01*
X174474531Y-75359152D02*
X174426912Y-75168676D01*
X174426912Y-75168676D02*
X174379293Y-75073438D01*
X174379293Y-75073438D02*
X174284055Y-74978200D01*
X174284055Y-74978200D02*
X174141198Y-74930580D01*
X174141198Y-74930580D02*
X174045960Y-74930580D01*
X174045960Y-74930580D02*
X173903103Y-74978200D01*
X173903103Y-74978200D02*
X173855484Y-75025819D01*
X173855484Y-75025819D02*
X173855484Y-75359152D01*
X173855484Y-75359152D02*
X174045960Y-75359152D01*
X173426912Y-74930580D02*
X173426912Y-75930580D01*
X173426912Y-75930580D02*
X172855484Y-74930580D01*
X172855484Y-74930580D02*
X172855484Y-75930580D01*
X172379293Y-74930580D02*
X172379293Y-75930580D01*
X172379293Y-75930580D02*
X172141198Y-75930580D01*
X172141198Y-75930580D02*
X171998341Y-75882961D01*
X171998341Y-75882961D02*
X171903103Y-75787723D01*
X171903103Y-75787723D02*
X171855484Y-75692485D01*
X171855484Y-75692485D02*
X171807865Y-75502009D01*
X171807865Y-75502009D02*
X171807865Y-75359152D01*
X171807865Y-75359152D02*
X171855484Y-75168676D01*
X171855484Y-75168676D02*
X171903103Y-75073438D01*
X171903103Y-75073438D02*
X171998341Y-74978200D01*
X171998341Y-74978200D02*
X172141198Y-74930580D01*
X172141198Y-74930580D02*
X172379293Y-74930580D01*
X198795103Y-70802961D02*
X198890341Y-70850580D01*
X198890341Y-70850580D02*
X199033198Y-70850580D01*
X199033198Y-70850580D02*
X199176055Y-70802961D01*
X199176055Y-70802961D02*
X199271293Y-70707723D01*
X199271293Y-70707723D02*
X199318912Y-70612485D01*
X199318912Y-70612485D02*
X199366531Y-70422009D01*
X199366531Y-70422009D02*
X199366531Y-70279152D01*
X199366531Y-70279152D02*
X199318912Y-70088676D01*
X199318912Y-70088676D02*
X199271293Y-69993438D01*
X199271293Y-69993438D02*
X199176055Y-69898200D01*
X199176055Y-69898200D02*
X199033198Y-69850580D01*
X199033198Y-69850580D02*
X198937960Y-69850580D01*
X198937960Y-69850580D02*
X198795103Y-69898200D01*
X198795103Y-69898200D02*
X198747484Y-69945819D01*
X198747484Y-69945819D02*
X198747484Y-70279152D01*
X198747484Y-70279152D02*
X198937960Y-70279152D01*
X198318912Y-69850580D02*
X198318912Y-70850580D01*
X198318912Y-70850580D02*
X197747484Y-69850580D01*
X197747484Y-69850580D02*
X197747484Y-70850580D01*
X197271293Y-69850580D02*
X197271293Y-70850580D01*
X197271293Y-70850580D02*
X197033198Y-70850580D01*
X197033198Y-70850580D02*
X196890341Y-70802961D01*
X196890341Y-70802961D02*
X196795103Y-70707723D01*
X196795103Y-70707723D02*
X196747484Y-70612485D01*
X196747484Y-70612485D02*
X196699865Y-70422009D01*
X196699865Y-70422009D02*
X196699865Y-70279152D01*
X196699865Y-70279152D02*
X196747484Y-70088676D01*
X196747484Y-70088676D02*
X196795103Y-69993438D01*
X196795103Y-69993438D02*
X196890341Y-69898200D01*
X196890341Y-69898200D02*
X197033198Y-69850580D01*
X197033198Y-69850580D02*
X197271293Y-69850580D01*
X173680864Y-67405819D02*
X173633245Y-67358200D01*
X173633245Y-67358200D02*
X173680864Y-67310580D01*
X173680864Y-67310580D02*
X173728483Y-67358200D01*
X173728483Y-67358200D02*
X173680864Y-67405819D01*
X173680864Y-67405819D02*
X173680864Y-67310580D01*
X173680864Y-67691533D02*
X173728483Y-68262961D01*
X173728483Y-68262961D02*
X173680864Y-68310580D01*
X173680864Y-68310580D02*
X173633245Y-68262961D01*
X173633245Y-68262961D02*
X173680864Y-67691533D01*
X173680864Y-67691533D02*
X173680864Y-68310580D01*
X172633246Y-67405819D02*
X172680865Y-67358200D01*
X172680865Y-67358200D02*
X172823722Y-67310580D01*
X172823722Y-67310580D02*
X172918960Y-67310580D01*
X172918960Y-67310580D02*
X173061817Y-67358200D01*
X173061817Y-67358200D02*
X173157055Y-67453438D01*
X173157055Y-67453438D02*
X173204674Y-67548676D01*
X173204674Y-67548676D02*
X173252293Y-67739152D01*
X173252293Y-67739152D02*
X173252293Y-67882009D01*
X173252293Y-67882009D02*
X173204674Y-68072485D01*
X173204674Y-68072485D02*
X173157055Y-68167723D01*
X173157055Y-68167723D02*
X173061817Y-68262961D01*
X173061817Y-68262961D02*
X172918960Y-68310580D01*
X172918960Y-68310580D02*
X172823722Y-68310580D01*
X172823722Y-68310580D02*
X172680865Y-68262961D01*
X172680865Y-68262961D02*
X172633246Y-68215342D01*
X172252293Y-67358200D02*
X172109436Y-67310580D01*
X172109436Y-67310580D02*
X171871341Y-67310580D01*
X171871341Y-67310580D02*
X171776103Y-67358200D01*
X171776103Y-67358200D02*
X171728484Y-67405819D01*
X171728484Y-67405819D02*
X171680865Y-67501057D01*
X171680865Y-67501057D02*
X171680865Y-67596295D01*
X171680865Y-67596295D02*
X171728484Y-67691533D01*
X171728484Y-67691533D02*
X171776103Y-67739152D01*
X171776103Y-67739152D02*
X171871341Y-67786771D01*
X171871341Y-67786771D02*
X172061817Y-67834390D01*
X172061817Y-67834390D02*
X172157055Y-67882009D01*
X172157055Y-67882009D02*
X172204674Y-67929628D01*
X172204674Y-67929628D02*
X172252293Y-68024866D01*
X172252293Y-68024866D02*
X172252293Y-68120104D01*
X172252293Y-68120104D02*
X172204674Y-68215342D01*
X172204674Y-68215342D02*
X172157055Y-68262961D01*
X172157055Y-68262961D02*
X172061817Y-68310580D01*
X172061817Y-68310580D02*
X171823722Y-68310580D01*
X171823722Y-68310580D02*
X171680865Y-68262961D01*
X199192007Y-72390580D02*
X199192007Y-73390580D01*
X198715817Y-72390580D02*
X198715817Y-73390580D01*
X198715817Y-73390580D02*
X198144389Y-72390580D01*
X198144389Y-72390580D02*
X198144389Y-73390580D01*
X197811055Y-73390580D02*
X197239627Y-73390580D01*
X197525341Y-72390580D02*
X197525341Y-73390580D01*
X174379293Y-59738200D02*
X174236436Y-59690580D01*
X174236436Y-59690580D02*
X173998341Y-59690580D01*
X173998341Y-59690580D02*
X173903103Y-59738200D01*
X173903103Y-59738200D02*
X173855484Y-59785819D01*
X173855484Y-59785819D02*
X173807865Y-59881057D01*
X173807865Y-59881057D02*
X173807865Y-59976295D01*
X173807865Y-59976295D02*
X173855484Y-60071533D01*
X173855484Y-60071533D02*
X173903103Y-60119152D01*
X173903103Y-60119152D02*
X173998341Y-60166771D01*
X173998341Y-60166771D02*
X174188817Y-60214390D01*
X174188817Y-60214390D02*
X174284055Y-60262009D01*
X174284055Y-60262009D02*
X174331674Y-60309628D01*
X174331674Y-60309628D02*
X174379293Y-60404866D01*
X174379293Y-60404866D02*
X174379293Y-60500104D01*
X174379293Y-60500104D02*
X174331674Y-60595342D01*
X174331674Y-60595342D02*
X174284055Y-60642961D01*
X174284055Y-60642961D02*
X174188817Y-60690580D01*
X174188817Y-60690580D02*
X173950722Y-60690580D01*
X173950722Y-60690580D02*
X173807865Y-60642961D01*
X172807865Y-59785819D02*
X172855484Y-59738200D01*
X172855484Y-59738200D02*
X172998341Y-59690580D01*
X172998341Y-59690580D02*
X173093579Y-59690580D01*
X173093579Y-59690580D02*
X173236436Y-59738200D01*
X173236436Y-59738200D02*
X173331674Y-59833438D01*
X173331674Y-59833438D02*
X173379293Y-59928676D01*
X173379293Y-59928676D02*
X173426912Y-60119152D01*
X173426912Y-60119152D02*
X173426912Y-60262009D01*
X173426912Y-60262009D02*
X173379293Y-60452485D01*
X173379293Y-60452485D02*
X173331674Y-60547723D01*
X173331674Y-60547723D02*
X173236436Y-60642961D01*
X173236436Y-60642961D02*
X173093579Y-60690580D01*
X173093579Y-60690580D02*
X172998341Y-60690580D01*
X172998341Y-60690580D02*
X172855484Y-60642961D01*
X172855484Y-60642961D02*
X172807865Y-60595342D01*
X172379293Y-59690580D02*
X172379293Y-60690580D01*
X171807865Y-59690580D02*
X172236436Y-60262009D01*
X171807865Y-60690580D02*
X172379293Y-60119152D01*
X177299912Y-64770580D02*
X177633245Y-65246771D01*
X177871340Y-64770580D02*
X177871340Y-65770580D01*
X177871340Y-65770580D02*
X177490388Y-65770580D01*
X177490388Y-65770580D02*
X177395150Y-65722961D01*
X177395150Y-65722961D02*
X177347531Y-65675342D01*
X177347531Y-65675342D02*
X177299912Y-65580104D01*
X177299912Y-65580104D02*
X177299912Y-65437247D01*
X177299912Y-65437247D02*
X177347531Y-65342009D01*
X177347531Y-65342009D02*
X177395150Y-65294390D01*
X177395150Y-65294390D02*
X177490388Y-65246771D01*
X177490388Y-65246771D02*
X177871340Y-65246771D01*
X176966578Y-65770580D02*
X176299912Y-64770580D01*
X176299912Y-65770580D02*
X176966578Y-64770580D01*
X175204674Y-65818200D02*
X176061816Y-64532485D01*
X174871340Y-64770580D02*
X174871340Y-65770580D01*
X174871340Y-65770580D02*
X174538007Y-65056295D01*
X174538007Y-65056295D02*
X174204674Y-65770580D01*
X174204674Y-65770580D02*
X174204674Y-64770580D01*
X173538007Y-65770580D02*
X173347531Y-65770580D01*
X173347531Y-65770580D02*
X173252293Y-65722961D01*
X173252293Y-65722961D02*
X173157055Y-65627723D01*
X173157055Y-65627723D02*
X173109436Y-65437247D01*
X173109436Y-65437247D02*
X173109436Y-65103914D01*
X173109436Y-65103914D02*
X173157055Y-64913438D01*
X173157055Y-64913438D02*
X173252293Y-64818200D01*
X173252293Y-64818200D02*
X173347531Y-64770580D01*
X173347531Y-64770580D02*
X173538007Y-64770580D01*
X173538007Y-64770580D02*
X173633245Y-64818200D01*
X173633245Y-64818200D02*
X173728483Y-64913438D01*
X173728483Y-64913438D02*
X173776102Y-65103914D01*
X173776102Y-65103914D02*
X173776102Y-65437247D01*
X173776102Y-65437247D02*
X173728483Y-65627723D01*
X173728483Y-65627723D02*
X173633245Y-65722961D01*
X173633245Y-65722961D02*
X173538007Y-65770580D01*
X172728483Y-64818200D02*
X172585626Y-64770580D01*
X172585626Y-64770580D02*
X172347531Y-64770580D01*
X172347531Y-64770580D02*
X172252293Y-64818200D01*
X172252293Y-64818200D02*
X172204674Y-64865819D01*
X172204674Y-64865819D02*
X172157055Y-64961057D01*
X172157055Y-64961057D02*
X172157055Y-65056295D01*
X172157055Y-65056295D02*
X172204674Y-65151533D01*
X172204674Y-65151533D02*
X172252293Y-65199152D01*
X172252293Y-65199152D02*
X172347531Y-65246771D01*
X172347531Y-65246771D02*
X172538007Y-65294390D01*
X172538007Y-65294390D02*
X172633245Y-65342009D01*
X172633245Y-65342009D02*
X172680864Y-65389628D01*
X172680864Y-65389628D02*
X172728483Y-65484866D01*
X172728483Y-65484866D02*
X172728483Y-65580104D01*
X172728483Y-65580104D02*
X172680864Y-65675342D01*
X172680864Y-65675342D02*
X172633245Y-65722961D01*
X172633245Y-65722961D02*
X172538007Y-65770580D01*
X172538007Y-65770580D02*
X172299912Y-65770580D01*
X172299912Y-65770580D02*
X172157055Y-65722961D01*
X171728483Y-64770580D02*
X171728483Y-65770580D01*
X199255436Y-64818200D02*
X199112579Y-64770580D01*
X199112579Y-64770580D02*
X198874484Y-64770580D01*
X198874484Y-64770580D02*
X198779246Y-64818200D01*
X198779246Y-64818200D02*
X198731627Y-64865819D01*
X198731627Y-64865819D02*
X198684008Y-64961057D01*
X198684008Y-64961057D02*
X198684008Y-65056295D01*
X198684008Y-65056295D02*
X198731627Y-65151533D01*
X198731627Y-65151533D02*
X198779246Y-65199152D01*
X198779246Y-65199152D02*
X198874484Y-65246771D01*
X198874484Y-65246771D02*
X199064960Y-65294390D01*
X199064960Y-65294390D02*
X199160198Y-65342009D01*
X199160198Y-65342009D02*
X199207817Y-65389628D01*
X199207817Y-65389628D02*
X199255436Y-65484866D01*
X199255436Y-65484866D02*
X199255436Y-65580104D01*
X199255436Y-65580104D02*
X199207817Y-65675342D01*
X199207817Y-65675342D02*
X199160198Y-65722961D01*
X199160198Y-65722961D02*
X199064960Y-65770580D01*
X199064960Y-65770580D02*
X198826865Y-65770580D01*
X198826865Y-65770580D02*
X198684008Y-65722961D01*
X198255436Y-64770580D02*
X198255436Y-65770580D01*
X198255436Y-65770580D02*
X198017341Y-65770580D01*
X198017341Y-65770580D02*
X197874484Y-65722961D01*
X197874484Y-65722961D02*
X197779246Y-65627723D01*
X197779246Y-65627723D02*
X197731627Y-65532485D01*
X197731627Y-65532485D02*
X197684008Y-65342009D01*
X197684008Y-65342009D02*
X197684008Y-65199152D01*
X197684008Y-65199152D02*
X197731627Y-65008676D01*
X197731627Y-65008676D02*
X197779246Y-64913438D01*
X197779246Y-64913438D02*
X197874484Y-64818200D01*
X197874484Y-64818200D02*
X198017341Y-64770580D01*
X198017341Y-64770580D02*
X198255436Y-64770580D01*
X197303055Y-65056295D02*
X196826865Y-65056295D01*
X197398293Y-64770580D02*
X197064960Y-65770580D01*
X197064960Y-65770580D02*
X196731627Y-64770580D01*
X199477674Y-80010580D02*
X199477674Y-81010580D01*
X199477674Y-81010580D02*
X199096722Y-81010580D01*
X199096722Y-81010580D02*
X199001484Y-80962961D01*
X199001484Y-80962961D02*
X198953865Y-80915342D01*
X198953865Y-80915342D02*
X198906246Y-80820104D01*
X198906246Y-80820104D02*
X198906246Y-80677247D01*
X198906246Y-80677247D02*
X198953865Y-80582009D01*
X198953865Y-80582009D02*
X199001484Y-80534390D01*
X199001484Y-80534390D02*
X199096722Y-80486771D01*
X199096722Y-80486771D02*
X199477674Y-80486771D01*
X198477674Y-80010580D02*
X198477674Y-81010580D01*
X198477674Y-81010580D02*
X198096722Y-81010580D01*
X198096722Y-81010580D02*
X198001484Y-80962961D01*
X198001484Y-80962961D02*
X197953865Y-80915342D01*
X197953865Y-80915342D02*
X197906246Y-80820104D01*
X197906246Y-80820104D02*
X197906246Y-80677247D01*
X197906246Y-80677247D02*
X197953865Y-80582009D01*
X197953865Y-80582009D02*
X198001484Y-80534390D01*
X198001484Y-80534390D02*
X198096722Y-80486771D01*
X198096722Y-80486771D02*
X198477674Y-80486771D01*
X197525293Y-80058200D02*
X197382436Y-80010580D01*
X197382436Y-80010580D02*
X197144341Y-80010580D01*
X197144341Y-80010580D02*
X197049103Y-80058200D01*
X197049103Y-80058200D02*
X197001484Y-80105819D01*
X197001484Y-80105819D02*
X196953865Y-80201057D01*
X196953865Y-80201057D02*
X196953865Y-80296295D01*
X196953865Y-80296295D02*
X197001484Y-80391533D01*
X197001484Y-80391533D02*
X197049103Y-80439152D01*
X197049103Y-80439152D02*
X197144341Y-80486771D01*
X197144341Y-80486771D02*
X197334817Y-80534390D01*
X197334817Y-80534390D02*
X197430055Y-80582009D01*
X197430055Y-80582009D02*
X197477674Y-80629628D01*
X197477674Y-80629628D02*
X197525293Y-80724866D01*
X197525293Y-80724866D02*
X197525293Y-80820104D01*
X197525293Y-80820104D02*
X197477674Y-80915342D01*
X197477674Y-80915342D02*
X197430055Y-80962961D01*
X197430055Y-80962961D02*
X197334817Y-81010580D01*
X197334817Y-81010580D02*
X197096722Y-81010580D01*
X197096722Y-81010580D02*
X196953865Y-80962961D01*
X199334769Y-77438819D02*
X199287150Y-77391200D01*
X199287150Y-77391200D02*
X199334769Y-77343580D01*
X199334769Y-77343580D02*
X199382388Y-77391200D01*
X199382388Y-77391200D02*
X199334769Y-77438819D01*
X199334769Y-77438819D02*
X199334769Y-77343580D01*
X199334769Y-77724533D02*
X199382388Y-78295961D01*
X199382388Y-78295961D02*
X199334769Y-78343580D01*
X199334769Y-78343580D02*
X199287150Y-78295961D01*
X199287150Y-78295961D02*
X199334769Y-77724533D01*
X199334769Y-77724533D02*
X199334769Y-78343580D01*
X198287151Y-77343580D02*
X198620484Y-77819771D01*
X198858579Y-77343580D02*
X198858579Y-78343580D01*
X198858579Y-78343580D02*
X198477627Y-78343580D01*
X198477627Y-78343580D02*
X198382389Y-78295961D01*
X198382389Y-78295961D02*
X198334770Y-78248342D01*
X198334770Y-78248342D02*
X198287151Y-78153104D01*
X198287151Y-78153104D02*
X198287151Y-78010247D01*
X198287151Y-78010247D02*
X198334770Y-77915009D01*
X198334770Y-77915009D02*
X198382389Y-77867390D01*
X198382389Y-77867390D02*
X198477627Y-77819771D01*
X198477627Y-77819771D02*
X198858579Y-77819771D01*
X197906198Y-77391200D02*
X197763341Y-77343580D01*
X197763341Y-77343580D02*
X197525246Y-77343580D01*
X197525246Y-77343580D02*
X197430008Y-77391200D01*
X197430008Y-77391200D02*
X197382389Y-77438819D01*
X197382389Y-77438819D02*
X197334770Y-77534057D01*
X197334770Y-77534057D02*
X197334770Y-77629295D01*
X197334770Y-77629295D02*
X197382389Y-77724533D01*
X197382389Y-77724533D02*
X197430008Y-77772152D01*
X197430008Y-77772152D02*
X197525246Y-77819771D01*
X197525246Y-77819771D02*
X197715722Y-77867390D01*
X197715722Y-77867390D02*
X197810960Y-77915009D01*
X197810960Y-77915009D02*
X197858579Y-77962628D01*
X197858579Y-77962628D02*
X197906198Y-78057866D01*
X197906198Y-78057866D02*
X197906198Y-78153104D01*
X197906198Y-78153104D02*
X197858579Y-78248342D01*
X197858579Y-78248342D02*
X197810960Y-78295961D01*
X197810960Y-78295961D02*
X197715722Y-78343580D01*
X197715722Y-78343580D02*
X197477627Y-78343580D01*
X197477627Y-78343580D02*
X197334770Y-78295961D01*
X197049055Y-78343580D02*
X196477627Y-78343580D01*
X196763341Y-77343580D02*
X196763341Y-78343580D01*
%TO.C,U1*%
X201904600Y-53848000D02*
X201904600Y-94488000D01*
X168884600Y-53848000D02*
X201904600Y-53848000D01*
X201904600Y-94488000D02*
X168884600Y-94488000D01*
X168884600Y-94488000D02*
X168884600Y-53848000D01*
D11*
%TO.C,J1*%
X198190000Y-105870000D02*
X190470000Y-105870000D01*
X198190000Y-104650000D02*
X196970000Y-104650000D01*
X198190000Y-97450000D02*
X198190000Y-105870000D01*
X196970000Y-104650000D02*
X196970000Y-99650000D01*
X196970000Y-100650000D02*
X191690000Y-100650000D01*
X196970000Y-99650000D02*
X198190000Y-99650000D01*
X196970000Y-99650000D02*
X196970000Y-97450000D01*
X196970000Y-97450000D02*
X198190000Y-97450000D01*
X195900000Y-104070000D02*
X195580000Y-104150000D01*
X195900000Y-100650000D02*
X195900000Y-104070000D01*
X195880000Y-96960000D02*
X195280000Y-96960000D01*
X195580000Y-104150000D02*
X195260000Y-104070000D01*
X195580000Y-100650000D02*
X195900000Y-100650000D01*
X195580000Y-97560000D02*
X195880000Y-96960000D01*
X195280000Y-96960000D02*
X195580000Y-97560000D01*
X195260000Y-104070000D02*
X195260000Y-100650000D01*
X195260000Y-100650000D02*
X195580000Y-100650000D01*
X194410000Y-99650000D02*
X194250000Y-99650000D01*
X193400000Y-104070000D02*
X193080000Y-104150000D01*
X193400000Y-100650000D02*
X193400000Y-104070000D01*
X193080000Y-104150000D02*
X192760000Y-104070000D01*
X193080000Y-100650000D02*
X193400000Y-100650000D01*
X192760000Y-104070000D02*
X192760000Y-100650000D01*
X192760000Y-100650000D02*
X193080000Y-100650000D01*
X191690000Y-104650000D02*
X191690000Y-99650000D01*
X191690000Y-99650000D02*
X190470000Y-99650000D01*
X191690000Y-97450000D02*
X191690000Y-99650000D01*
X190470000Y-105870000D02*
X190470000Y-97450000D01*
X190470000Y-104650000D02*
X191690000Y-104650000D01*
X190470000Y-97450000D02*
X191690000Y-97450000D01*
%TO.C,J2*%
X206442000Y-54550000D02*
X207772000Y-54550000D01*
X206442000Y-55880000D02*
X206442000Y-54550000D01*
X206442000Y-57150000D02*
X206442000Y-105470000D01*
X206442000Y-57150000D02*
X209042000Y-57150000D01*
X206442000Y-105470000D02*
X211642000Y-105470000D01*
X209042000Y-54550000D02*
X211642000Y-54550000D01*
X209042000Y-57150000D02*
X209042000Y-54550000D01*
X211642000Y-54550000D02*
X211642000Y-105470000D01*
%TD*%
M02*
