<?xml version="1.0" encoding="UTF-8"?>
<svg id="Layer_2" data-name="Layer 2" xmlns="http://www.w3.org/2000/svg" viewBox="0 0 15.68 20.58">
  <defs>
    <style>
      .cls-1 {
        fill: #000;
      }

      .cls-1, .cls-2, .cls-3, .cls-4, .cls-5, .cls-6, .cls-7, .cls-8, .cls-9, .cls-10, .cls-11, .cls-12, .cls-13, .cls-14, .cls-15, .cls-16, .cls-17 {
        stroke-width: 0px;
      }

      .cls-2 {
        fill: #4b4b4b;
      }

      .cls-3 {
        fill: #ffca2a;
      }

      .cls-18 {
        isolation: isolate;
      }

      .cls-4 {
        fill: #7d6c42;
      }

      .cls-5 {
        fill: #eacb7b;
      }

      .cls-6 {
        fill: #575757;
      }

      .cls-19 {
        fill: none;
        stroke: #7f7f7f;
        stroke-miterlimit: 10;
      }

      .cls-7 {
        fill: #6e6e6e;
      }

      .cls-8 {
        fill: red;
      }

      .cls-9 {
        fill: #6b6b6b;
      }

      .cls-10 {
        fill: #404040;
      }

      .cls-11 {
        fill: #727272;
      }

      .cls-12 {
        fill: #b0995d;
      }

      .cls-13 {
        fill: #00c;
      }

      .cls-14 {
        fill: #606060;
      }

      .cls-15 {
        fill: #4a4a4a;
      }

      .cls-16 {
        fill: #efcf7e;
      }

      .cls-17 {
        fill: #4d4d4d;
      }
    </style>
  </defs>
  <g id="new-primary">
    <g id="Ready">
      <g id="Hot_air_balloon" data-name="Hot air balloon">
        <g>
          <polyline class="cls-19" points="6.29 16.25 7.73 18.18 8.47 18.19 9.58 16.25 9.1 15.98 8.3 17.53 8.12 17.53 8.44 16.07 7.75 16.23 7.94 18.02 7.8 18.06 7.01 16.3"/>
          <path class="cls-3" d="M15.68,5.95c-.61-.37-1.63-.55-2.18-.67-1.3-.28-4.12-.31-5.45-.29-1.6.02-4.55.28-6.12.61-.42.09-1.34.43-1.92.83.01,1.61.6,2.9.87,3.34.24.41.5.8.76,1.17.32-.2.7-.42.91-.49.8-.28,2.46-.48,3.3-.55.93-.08,2.82-.07,3.75-.1,1.09-.02,3.34.05,4.35.47.09.04.22.13.36.24.04-.06.08-.12.11-.18.86-1.5,1.31-3.21,1.29-4.39Z"/>
          <path class="cls-8" d="M5.15,2.01c.91-.09,2.74-.16,3.66-.16.77,0,2.3.11,3.06.19.51.05,1.54.15,2.04.29.08.02.2.06.33.11-.63-.7-1.53-1.37-2.82-1.84C9.49-.09,7.15-.21,5.2.38c-1.06.32-2.37.64-3.85,2.18-.05.05-.1.11-.15.16.49-.12,1.09-.27,1.38-.32.64-.12,1.92-.32,2.57-.38Z"/>
          <path class="cls-8" d="M15.67,5.69c-.03-.41-.18-1.27-.69-2.19-.21-.07-.44-.14-.57-.17-.43-.1-1.3-.23-1.73-.29-.77-.1-2.33-.27-3.11-.29-.98-.03-2.94.08-3.91.16-.87.07-2.61.28-3.46.45-.35.07-1.17.3-1.66.44C.21,4.54.02,5.4,0,6.25c0,.06,0,.12,0,.18.58-.4,1.5-.74,1.92-.83,1.57-.33,4.52-.59,6.12-.61,1.33-.02,4.15,0,5.45.29.55.12,1.57.3,2.18.67,0-.09,0-.18-.01-.26Z"/>
          <path class="cls-13" d="M5.66,2.91c.98-.08,2.93-.19,3.91-.16.78.02,2.34.19,3.11.29.44.06,1.3.19,1.73.29.12.03.35.1.57.17-.19-.35-.44-.71-.75-1.06-.13-.05-.24-.09-.33-.11-.49-.14-1.53-.23-2.04-.29-.77-.08-2.29-.19-3.06-.19-.91,0-2.75.07-3.66.16-.65.06-1.93.26-2.57.38-.29.06-.89.2-1.38.32-.26.31-.48.67-.66,1.07.48-.14,1.31-.37,1.66-.44.86-.17,2.59-.37,3.46-.45Z"/>
          <path class="cls-8" d="M5.97,12.08c.61-.08,1.83-.21,2.44-.22.59-.01,1.79.04,2.37.13.38.06,1.14.26,1.51.38.12.04.32.13.52.22.59-.76,1.18-1.57,1.48-2.07-.13-.11-.26-.2-.36-.24-1-.42-3.26-.5-4.35-.47-.93.02-2.82.02-3.75.1-.85.07-2.5.27-3.3.55-.2.07-.59.3-.91.49.44.63.91,1.22,1.4,1.81.31-.12.7-.26.89-.31.5-.13,1.54-.28,2.05-.35Z"/>
          <path class="cls-8" d="M10.2,12.98c-.46-.05-1.4-.05-1.86-.03-.51.02-1.52.09-2.02.16-.32.05-.97.17-1.28.26-.25.07-.74.26-1.15.42.27.32,1.17,1.29,1.74,1.9.32.34.49.62.94.72.41.09,1.19-.09,1.6-.09.55,0,1.3.17,1.46-.02.27-.32,1.13-1.38,1.43-1.67.17-.17.77-.87,1-1.14-.25-.11-.57-.24-.72-.29-.28-.08-.86-.19-1.15-.22Z"/>
          <path class="cls-13" d="M12.28,12.37c-.37-.13-1.12-.33-1.51-.38-.59-.09-1.78-.14-2.37-.13-.61.01-1.83.14-2.44.22-.52.07-1.55.22-2.05.35-.19.05-.58.2-.89.31.28.34.57.68.86,1.03,0,0,0,0,0,0,.4-.16.9-.35,1.15-.42.31-.09.96-.21,1.28-.26.5-.07,1.51-.14,2.02-.16.46-.01,1.4-.02,1.86.03.29.03.87.14,1.15.22.16.05.47.18.72.29.23-.27.48-.58.73-.9-.2-.09-.41-.18-.52-.22Z"/>
          <ellipse class="cls-1" cx="7.96" cy="16.25" rx="1.7" ry=".32"/>
          <g class="cls-18">
            <polygon class="cls-9" points="8.69 19.41 8.42 18.12 8.47 18.12 8.74 19.41 8.69 19.41"/>
            <polygon class="cls-14" points="8.56 19.44 8.29 18.15 8.42 18.12 8.69 19.41 8.56 19.44"/>
            <polygon class="cls-10" points="8.69 19.41 8.74 19.41 8.62 19.44 8.56 19.44 8.69 19.41"/>
          </g>
          <g class="cls-18">
            <polygon class="cls-11" points="7.47 19.42 7.78 18.13 7.89 18.16 7.57 19.45 7.47 19.42"/>
            <polygon class="cls-17" points="7.38 19.4 7.7 18.11 7.78 18.13 7.47 19.42 7.38 19.4"/>
            <polygon class="cls-2" points="7.78 18.13 7.7 18.11 7.8 18.14 7.89 18.16 7.78 18.13"/>
          </g>
          <g class="cls-18">
            <polygon class="cls-16" points="8.91 20.46 8.91 19.23 9 19.24 9 20.47 8.91 20.46"/>
            <polygon class="cls-12" points="7.23 20.47 7.23 19.24 7.32 19.23 7.32 20.46 7.23 20.47"/>
            <rect class="cls-5" x="7.32" y="19.23" width="1.59" height="1.23"/>
            <polygon class="cls-4" points="8.91 20.46 9 20.47 9 20.58 8.91 20.58 7.32 20.58 7.23 20.58 7.23 20.47 7.32 20.46 8.91 20.46"/>
          </g>
          <g class="cls-18">
            <polygon class="cls-7" points="8.52 18.15 7.63 18.15 7.63 18.06 8.52 18.06 8.52 18.15"/>
            <polygon class="cls-6" points="8.52 18.26 7.63 18.26 7.63 18.15 8.52 18.15 8.52 18.26"/>
            <polygon class="cls-15" points="8.52 18.15 8.52 18.06 8.52 18.18 8.52 18.26 8.52 18.15"/>
          </g>
        </g>
      </g>
    </g>
  </g>
</svg>