<?xml version="1.0" encoding="UTF-8"?>
<svg id="Layer_2" data-name="Layer 2" xmlns="http://www.w3.org/2000/svg" viewBox="0 0 20.93 12.67">
  <defs>
    <style>
      .cls-1 {
        fill: #d3d3d3;
      }

      .cls-1, .cls-2, .cls-3, .cls-4 {
        stroke-width: 0px;
      }

      .cls-5 {
        fill: #828282;
        stroke-width: 1.5px;
      }

      .cls-5, .cls-6 {
        stroke: #000;
      }

      .cls-5, .cls-6, .cls-7 {
        stroke-miterlimit: 10;
      }

      .cls-6 {
        fill: #000;
        stroke-width: .75px;
      }

      .cls-2 {
        fill: #2d2429;
      }

      .cls-3 {
        fill: #ea0000;
      }

      .cls-7 {
        fill: #686868;
        stroke: #7f7f7f;
      }

      .cls-4 {
        fill: #ffff24;
      }
    </style>
  </defs>
  <g id="new-primary">
    <g id="Cars">
      <g id="car">
        <g>
          <g>
            <polygon class="cls-1" points="3 6.44 7.54 .61 12.55 .61 15.27 5.84 3 6.44"/>
            <path class="cls-2" d="M3.4,6.83c1.51-1.94,3.02-3.89,4.54-5.83l-.4.16h5.01l-.48-.28c.91,1.75,1.81,3.49,2.72,5.24l.48-.84c-3.57.17-7.15.35-10.72.52l-1.54.07c-.72.03-.72,1.16,0,1.12,3.57-.17,7.15-.35,10.72-.52l1.54-.07c.44-.02.69-.46.48-.84-.91-1.75-1.81-3.49-2.72-5.24-.09-.17-.29-.28-.48-.28h-2.44C9.27.04,8.37-.06,7.55.04c-.57.07-.99.92-1.3,1.32l-2.18,2.8c-.49.63-.97,1.25-1.46,1.88-.44.56.35,1.36.79.79Z"/>
          </g>
          <line class="cls-7" x1=".54" y1="9.47" x2="3.54" y2="9.47"/>
          <g>
            <path class="cls-3" d="M18.82,10.52c-4.44.05-8.47.19-15.58-.15-.68-.03-2.71-1.24-2.71-1.91,0-.78,2.3-1.94,2.99-2.29,2.77-1.41,8.37-.7,12.68-.51,1.19.05,3.77.56,4.16,1.68.24.69-.81,3.17-1.54,3.18Z"/>
            <path class="cls-2" d="M18.82,9.96c-2.59.03-5.17.08-7.76.07-1.56,0-3.12-.04-4.68-.09s-3.12.13-4.47-.76c-.21-.14-.53-.31-.66-.53-.17-.28-.15-.16.03-.42.32-.46,1.08-.8,1.56-1.06.99-.55,1.97-.94,3.1-1.11,3.13-.47,6.37-.03,9.5.13,1.29.07,2.88.13,3.98.92.56.4.4.84.19,1.43-.13.38-.48,1.38-.95,1.46-.71.12-.41,1.2.3,1.08,1.09-.18,1.71-1.91,1.91-2.83.27-1.28-.51-2.01-1.63-2.48-1.46-.61-3-.64-4.56-.73-2.11-.13-4.21-.3-6.32-.26-1.62.03-3.33.13-4.83.8-1.1.48-2.54,1.15-3.26,2.14-.81,1.11.37,2.03,1.28,2.58,1.56.95,3.41.75,5.18.8,4.03.12,8.06.06,12.09.01.72,0,.72-1.13,0-1.12Z"/>
          </g>
          <circle class="cls-5" cx="6.28" cy="9.96" r="1.96"/>
          <circle class="cls-5" cx="15.63" cy="9.96" r="1.96"/>
          <ellipse class="cls-4" cx="19.14" cy="7.44" rx="1.26" ry="1.03"/>
          <line class="cls-6" x1="9.14" y1=".61" x2="8.38" y2="5.34"/>
        </g>
      </g>
    </g>
  </g>
</svg>