<?xml version="1.0" encoding="UTF-8"?>
<svg id="Layer_2" data-name="Layer 2" xmlns="http://www.w3.org/2000/svg" viewBox="0 0 21.01 10.73">
  <defs>
    <style>
      .cls-1 {
        fill: #000;
      }

      .cls-1, .cls-2, .cls-3, .cls-4 {
        stroke-width: 0px;
      }

      .cls-5 {
        stroke-width: .77px;
      }

      .cls-5, .cls-6, .cls-7 {
        stroke-miterlimit: 10;
      }

      .cls-5, .cls-7, .cls-8 {
        fill: none;
        stroke: #0a5100;
        stroke-linecap: round;
      }

      .cls-6 {
        fill: #a8a8a8;
        stroke: #515151;
        stroke-width: .98px;
      }

      .cls-2 {
        fill: #049b00;
      }

      .cls-3 {
        fill: #0a0303;
      }

      .cls-4 {
        fill: #4f0808;
      }

      .cls-7 {
        stroke-width: .38px;
      }

      .cls-8 {
        stroke-linejoin: round;
      }
    </style>
  </defs>
  <g id="new-primary">
    <g id="Cars">
      <g id="Jeep">
        <g>
          <path class="cls-1" d="M6.79,1.83c.1-.02.3.06.37.14.08.09.15.32.18.44.08.29.09.89.18,1.17.16.46.48.87.69,1.4.02.05.24.45.28.48.36.34,1.45-.41,1.93-.35.08.01.25.07.3.14.05.08.04.28.02.37-.05.21-.27.59-.41.76-.07.08-.27.52-.37.55-.52.17-2.12.07-2.12.07l-.69-.48s-.31-2.4-.44-3.13c-.04-.21-.08-.62-.09-.83-.01-.13-.06-.4-.02-.53.02-.07.12-.19.18-.21Z"/>
          <path class="cls-1" d="M12.34,4.92l-1.82-1.04s-.25.41-.32.55c-.08.17-.42.1-.26-.17s.56-.98.76-1.4c.07-.13.29,0,.21.15-.07.12-.22.5-.22.5l1.82,1.08-.17.33Z"/>
          <line class="cls-8" x1="11.02" y1=".5" x2="13.02" y2="5.34"/>
          <line class="cls-5" x1="5.52" y1=".5" x2="6.31" y2="5.15"/>
          <line class="cls-7" x1="1.59" y1="4.85" x2="5.58" y2="1.29"/>
          <path class="cls-2" d="M20,8.09s.23-3.75.08-3.88c-.2-.17-8.03-.27-8.08-.03-.08.44,0,1.79,0,1.79,0,.21,0-.87,0-.87h-4.06c-.21,0-.77.26-.77.05,0,0,.08-1.68,0-1.8-.09-.13-6.54-.26-6.54-.26h-.63v4.41c0,.21.79.59,1,.59"/>
          <path class="cls-3" d="M3.85,5.49c-1.39,0-2.51.13-2.51,1.38,0,.18-.07,1.25-.03,1.25l5.09-.03s.06-1.13.06-1.31c0-1.25-1.23-1.29-2.62-1.29Z"/>
          <path class="cls-3" d="M17.71,5.49c-1.39,0-2.51.42-2.51,1.68,0,.18.03-.07.07-.07h4.89s.07.25.07.07c0-1.25-1.13-1.68-2.51-1.68Z"/>
          <path class="cls-4" d="M20.98,8.05c-.12.09.09.04-.26.04h-.63c-.35,0-.1.4-.1.18v-1.15c0-.21-.25-2.03.1-2.03h.63c.35,0,.27,1.82.27,2.03l-.02.94Z"/>
          <circle class="cls-6" cx="3.88" cy="8.37" r="1.86"/>
          <circle class="cls-6" cx="17.73" cy="8.37" r="1.86"/>
        </g>
      </g>
    </g>
  </g>
</svg>