<?xml version="1.0" standalone="no"?>
<!DOCTYPE svg PUBLIC "-//W3C//DTD SVG 20010904//EN"
 "http://www.w3.org/TR/2001/REC-SVG-20010904/DTD/svg10.dtd">
<svg version="1.0" xmlns="http://www.w3.org/2000/svg"
 width="700.000000pt" height="700.000000pt" viewBox="0 0 700.000000 700.000000"
 preserveAspectRatio="xMidYMid meet">
<metadata>
Created by potrace 1.14, written by Peter Selinger 2001-2017
</metadata>
<g transform="translate(0.000000,700.000000) scale(0.100000,-0.100000)"
fill="#000000" stroke="none">
<path d="M4755 6790 c-348 -29 -678 -179 -932 -423 -164 -159 -265 -304 -351
-505 -171 -402 -157 -869 37 -1267 27 -55 68 -129 92 -165 100 -154 262 -322
405 -419 43 -30 82 -57 87 -61 7 -6 -1 -18 -43 -67 -6 -7 -8 -13 -5 -13 3 0
-4 -9 -15 -20 -11 -11 -27 -20 -35 -20 -47 0 -315 -137 -386 -198 -41 -35 -48
-57 -26 -84 26 -33 51 -30 122 18 83 55 185 108 185 96 0 -5 -9 -18 -19 -29
-11 -12 -17 -24 -14 -27 4 -3 1 -6 -6 -6 -7 0 -9 -4 -6 -10 3 -5 1 -10 -5 -10
-6 0 -8 -5 -4 -12 4 -7 3 -8 -4 -4 -7 4 -17 -3 -24 -18 -6 -14 -14 -26 -18
-26 -4 0 -13 -13 -20 -30 -7 -17 -16 -30 -21 -30 -5 0 -16 -14 -25 -32 -18
-35 -14 -37 -60 26 -7 11 -16 17 -19 14 -3 -3 -21 -61 -41 -129 -35 -122 -77
-208 -101 -209 -7 0 -13 6 -13 14 0 8 -6 16 -12 18 -9 3 -4 36 20 122 19 65
31 120 28 124 -3 3 -37 -25 -75 -61 -69 -67 -88 -80 -77 -52 3 9 0 15 -8 15
-8 0 -16 10 -20 23 -4 17 7 35 56 85 35 34 56 62 48 62 -8 0 -53 -12 -99 -25
-47 -14 -86 -25 -88 -25 -1 0 1 7 4 17 4 10 2 14 -4 10 -5 -3 -16 6 -24 21 -8
15 -22 35 -33 45 -10 9 -16 17 -12 17 4 0 2 6 -4 13 -41 49 -49 61 -43 70 3 5
2 8 -3 5 -5 -3 -15 0 -22 8 -7 8 -9 14 -5 14 4 0 0 5 -10 11 -9 6 -15 14 -12
20 4 5 1 9 -6 9 -7 0 -9 3 -6 6 4 4 -3 15 -15 25 -11 11 -18 19 -14 19 4 0 -4
11 -18 24 -15 13 -26 28 -26 34 0 6 -3 12 -7 14 -12 5 -53 66 -53 78 0 5 -4
10 -10 10 -5 0 -10 6 -10 13 0 6 -15 29 -33 49 -57 65 -67 78 -67 88 0 6 -5
10 -11 10 -5 0 -8 4 -4 10 3 5 -5 20 -17 32 -13 13 -22 27 -20 31 1 4 -5 10
-13 13 -8 4 -15 12 -15 20 0 8 -3 14 -7 14 -5 0 -21 20 -36 45 -16 25 -33 45
-39 45 -5 0 -6 5 -3 10 3 6 1 10 -4 10 -6 0 -11 4 -11 10 0 9 -19 35 -47 65
-7 8 -13 18 -13 23 0 5 -14 23 -30 41 -17 17 -28 31 -24 31 3 0 -1 7 -8 15
-30 33 -38 45 -32 45 4 0 -3 9 -16 20 -13 11 -20 20 -17 20 4 0 -1 9 -11 19
-29 33 -42 50 -42 56 0 3 -9 15 -20 27 -11 12 -20 28 -20 35 0 7 -4 13 -9 13
-5 0 -25 25 -44 55 -19 30 -37 52 -41 48 -3 -3 -6 -2 -6 4 0 6 -11 26 -24 46
-13 19 -21 39 -18 43 4 4 1 4 -5 0 -7 -4 -13 -2 -13 3 0 8 -290 11 -955 11
l-955 0 2 -647 3 -648 105 0 c58 0 111 -4 119 -9 9 -6 12 -5 8 0 -7 11 82 13
99 2 6 -4 14 -4 18 -1 4 4 35 7 70 8 l63 1 -1 -368 0 -368 -78 0 c-59 0 -78
-3 -78 -13 0 -8 13 -76 29 -153 16 -76 34 -165 41 -196 l11 -58 38 0 38 0 -1
-45 0 -45 -43 0 -43 0 -75 -150 c-41 -82 -75 -154 -75 -160 0 -5 49 -11 117
-12 l118 -3 0 -210 0 -210 -43 -1 c-23 -1 -49 -5 -58 -8 -8 -3 -12 -2 -9 4 4
6 -6 7 -24 4 -20 -4 -37 -1 -48 7 -13 10 -15 11 -9 1 6 -9 1 -12 -16 -10 -12
2 -29 7 -37 12 -9 6 -12 5 -7 -2 4 -7 -17 -10 -69 -10 -41 0 -75 5 -75 10 0 5
-7 2 -16 -7 -12 -11 -20 -13 -29 -5 -7 6 -20 8 -29 4 -15 -6 -16 -65 -16 -650
l0 -644 1212 2 c1070 3 1213 5 1214 18 0 8 -4 21 -9 28 -6 8 -5 12 2 12 7 0 9
5 5 12 -11 17 -11 58 -1 65 4 2 3 11 -3 18 -8 10 -8 15 0 20 8 5 8 11 -1 21
-9 11 -9 14 0 14 8 0 9 5 2 18 -7 13 -7 22 0 29 8 8 7 13 0 17 -8 5 -8 13 -1
27 8 14 7 19 -2 19 -8 0 -9 3 -3 8 14 10 17 32 4 32 -8 0 -8 4 0 14 7 8 8 17
4 19 -10 7 -10 48 1 65 4 7 2 12 -6 12 -10 0 -10 2 0 9 19 11 19 15 3 34 -9
12 -10 17 -2 17 8 0 9 5 2 18 -7 13 -7 22 0 29 8 8 7 13 0 17 -8 5 -8 13 -1
27 8 14 7 19 -2 19 -8 0 -9 3 -3 8 14 10 17 32 4 32 -8 0 -8 4 0 14 7 8 8 17
4 19 -10 7 -10 48 1 65 4 7 2 12 -6 12 -10 0 -10 2 0 9 19 11 19 15 3 34 -9
12 -10 17 -2 17 8 0 9 5 2 18 -7 13 -7 22 0 29 8 8 7 13 0 17 -8 5 -8 13 -1
27 8 14 7 19 -2 19 -8 0 -9 3 -3 8 14 10 17 32 4 32 -8 0 -8 4 0 14 7 8 8 17
4 19 -10 7 -10 48 1 65 4 7 2 12 -6 12 -10 0 -10 2 0 9 19 11 19 15 3 34 -9
12 -10 17 -2 17 8 0 9 5 1 19 -7 14 -7 22 0 26 8 5 7 11 -1 21 -6 8 -7 14 -2
14 16 0 11 29 -6 36 -9 4 -52 6 -96 6 -48 -1 -85 4 -94 11 -12 10 -13 9 -7 -1
6 -9 1 -12 -16 -10 -12 2 -29 7 -37 12 -10 6 -12 5 -7 -2 9 -15 -124 -13 -143
2 -11 8 -13 8 -8 0 4 -7 -2 -14 -13 -17 -11 -3 -23 -1 -26 4 -3 5 -19 7 -35 4
-18 -3 -28 -2 -25 4 4 5 2 13 -4 16 -8 5 -8 11 -1 19 6 7 8 16 4 20 -9 9 -11
46 -3 46 9 0 6 32 -4 48 -4 7 -2 12 6 12 8 0 9 3 3 8 -11 7 -16 52 -6 52 8 0
6 58 -2 66 -3 4 -2 15 3 25 7 12 7 20 0 24 -8 5 -8 11 0 20 8 9 8 15 0 20 -7
4 -7 12 0 26 8 13 7 19 0 19 -7 0 -8 6 0 19 7 14 7 20 -2 23 -6 2 13 18 43 35
59 33 119 94 119 119 0 64 -64 73 -124 16 -23 -20 -37 -33 -33 -28 4 5 2 15
-4 23 -9 10 -8 13 2 13 9 0 10 3 4 8 -11 8 -15 52 -5 52 9 0 6 32 -4 48 -4 7
-2 12 4 12 6 0 8 5 4 12 -10 16 -13 48 -4 48 9 0 6 32 -4 48 -4 7 -2 12 6 12
8 0 9 3 3 8 -11 8 -15 52 -5 52 9 0 6 32 -4 48 -4 7 -2 12 4 12 6 0 8 5 4 12
-10 16 -13 48 -4 48 8 0 6 32 -3 47 -4 6 -3 23 3 37 5 14 6 26 2 26 -4 0 -8
25 -8 55 0 40 3 52 11 45 7 -6 15 -7 18 -4 4 4 5 -3 2 -15 -3 -14 1 -21 12
-21 9 0 14 -3 10 -6 -5 -6 0 -15 30 -48 7 -8 9 -16 6 -20 -4 -3 -1 -6 5 -6 7
0 12 -7 12 -15 0 -9 7 -18 15 -21 8 -4 15 -13 15 -21 0 -8 5 -11 10 -8 9 6 14
-8 11 -28 -1 -5 3 -6 8 -2 11 6 34 -29 24 -39 -3 -3 1 -6 9 -6 9 0 22 -14 30
-30 7 -17 16 -30 20 -30 12 0 9 -40 -7 -92 -8 -27 -11 -48 -7 -48 3 0 21 14
38 31 29 28 34 30 48 17 8 -9 13 -18 10 -20 -2 -3 3 -11 11 -18 14 -12 12 -17
-17 -48 l-33 -35 30 7 c17 4 38 9 47 12 11 3 21 -3 29 -18 7 -13 21 -31 32
-41 11 -9 16 -17 11 -17 -5 -1 1 -9 13 -19 12 -10 19 -21 16 -25 -4 -3 -2 -6
4 -6 6 0 16 -13 23 -30 7 -16 17 -30 22 -30 5 0 12 -8 15 -17 4 -10 15 -26 26
-36 11 -9 17 -17 13 -17 -4 0 2 -10 13 -22 12 -12 33 -40 48 -62 16 -23 31
-42 36 -44 4 -2 7 -10 7 -17 0 -7 7 -16 16 -19 8 -3 13 -10 10 -14 -3 -5 4
-15 15 -22 10 -8 19 -18 19 -23 0 -4 9 -17 20 -29 11 -12 20 -28 20 -35 0 -8
5 -11 10 -8 6 3 10 -1 10 -9 0 -9 5 -16 10 -16 6 0 10 -5 10 -10 0 -12 15 -32
43 -58 9 -9 17 -20 17 -25 0 -4 5 -13 10 -20 6 -7 28 -37 50 -67 22 -30 43
-59 48 -65 35 -44 63 -85 58 -85 -4 0 5 -11 20 -25 15 -14 23 -25 18 -25 -5 0
2 -7 14 -16 12 -8 20 -20 17 -25 -4 -5 -2 -9 3 -9 6 0 23 -20 39 -45 15 -25
31 -45 36 -45 4 0 7 -4 7 -10 0 -9 19 -35 48 -65 6 -8 12 -17 12 -22 0 -4 11
-20 24 -35 14 -14 22 -29 18 -34 -4 -4 4 -1 18 8 13 8 27 25 30 37 3 12 8 22
13 22 4 -1 7 2 6 5 0 4 3 10 8 13 4 3 21 25 37 49 16 23 32 42 35 42 3 0 12
12 18 28 7 15 23 38 35 52 13 14 37 45 53 70 17 25 38 51 48 58 9 7 17 20 17
28 0 8 5 14 10 14 6 0 10 5 10 11 0 11 60 92 73 97 4 2 7 9 7 15 0 7 13 26 30
43 16 18 26 35 23 38 -4 3 -1 6 5 6 5 0 21 17 33 38 13 20 31 46 41 57 9 11
17 24 17 28 0 5 8 15 18 23 10 7 14 14 10 14 -4 0 3 10 16 23 13 12 27 32 31
45 4 12 11 20 15 17 4 -2 14 8 22 23 15 30 25 44 51 72 9 10 14 21 10 24 -3 3
0 6 7 6 7 0 9 5 5 12 -4 7 -3 8 5 4 6 -4 14 0 18 11 3 10 12 22 20 26 7 4 13
14 13 21 0 7 9 21 20 31 11 10 18 20 16 23 -3 2 7 15 21 28 14 13 22 24 17 24
-5 0 0 7 10 15 11 8 17 15 13 15 -4 0 2 10 13 23 12 12 28 34 36 50 8 15 19
27 24 27 6 0 10 7 10 15 0 8 4 15 9 15 5 0 13 9 16 20 4 11 11 18 16 15 5 -4
9 0 9 8 0 8 9 25 20 38 25 31 28 35 70 94 19 28 40 57 47 65 7 8 12 17 12 20
-2 5 17 29 69 87 12 14 22 32 22 39 0 8 8 14 19 14 14 0 19 -7 19 -27 0 -16
-5 -31 -12 -35 -8 -6 -7 -8 2 -8 16 0 16 -42 0 -59 -7 -8 -8 -11 -2 -8 8 5 12
-8 12 -39 1 -32 -2 -43 -11 -37 -8 4 -7 1 1 -10 8 -9 11 -21 8 -26 -4 -5 -2
-12 4 -16 6 -4 7 -11 4 -17 -4 -6 -6 -31 -5 -55 1 -33 -2 -42 -11 -37 -10 6
-10 5 -1 -7 14 -17 14 -58 1 -76 -6 -7 -4 -14 3 -19 8 -5 9 -3 4 6 -5 9 -4 11
3 6 7 -4 8 -15 3 -29 -4 -12 -6 -28 -3 -36 3 -10 0 -11 -9 -5 -12 7 -12 5 -1
-9 8 -9 11 -21 8 -26 -4 -5 -2 -12 4 -16 6 -4 7 -11 4 -17 -4 -6 -7 -32 -7
-59 0 -33 -3 -46 -11 -42 -6 4 -3 -2 6 -13 16 -19 16 -22 1 -44 -9 -13 -11
-20 -5 -16 8 5 11 -7 10 -38 0 -31 -4 -43 -12 -39 -6 4 -5 -1 2 -10 8 -9 11
-21 8 -26 -4 -5 -2 -12 4 -16 6 -4 7 -11 4 -17 -4 -6 -6 -28 -6 -50 1 -24 -3
-38 -11 -39 -6 0 -3 -4 8 -9 11 -5 15 -9 9 -9 -7 -1 -10 -15 -7 -37 3 -27 1
-34 -9 -28 -10 6 -10 4 0 -9 8 -9 11 -21 8 -26 -4 -5 -2 -12 3 -15 13 -9 1
-47 -13 -39 -6 3 -6 0 2 -8 15 -16 16 -49 1 -49 -5 0 -7 -6 -3 -12 6 -10 4
-10 -7 -2 -8 6 -29 9 -47 7 -23 -2 -31 1 -26 9 4 6 -3 4 -16 -5 -22 -15 -25
-15 -44 1 -11 9 -16 12 -13 5 5 -8 -10 -11 -53 -11 -33 1 -57 4 -54 9 2 4 -7
2 -22 -6 -27 -14 -47 -11 -73 9 -11 8 -13 8 -7 -2 6 -9 1 -12 -16 -10 -12 2
-29 7 -37 12 -10 6 -12 5 -7 -2 5 -8 -5 -11 -33 -10 -23 1 -44 -2 -48 -6 -11
-11 -9 -176 2 -176 7 0 7 -3 0 -8 -13 -9 -13 -105 0 -114 7 -5 7 -8 0 -8 -5 0
-10 -25 -10 -55 0 -30 5 -55 10 -55 7 0 7 -3 0 -8 -5 -4 -10 -38 -10 -77 0
-38 5 -73 10 -77 7 -5 7 -8 0 -8 -6 0 -10 -72 -10 -195 0 -123 4 -195 10 -195
7 0 7 -3 0 -8 -13 -9 -13 -105 0 -114 7 -5 7 -8 0 -8 -6 0 -10 -35 -9 -87 l1
-88 1206 -3 1207 -2 -2 647 -3 647 -30 0 c-16 1 -36 5 -44 10 -10 6 -12 6 -7
-2 9 -15 -124 -13 -143 2 -11 8 -13 8 -8 0 9 -15 -28 -25 -41 -12 -6 6 -17 6
-30 -1 -15 -8 -23 -8 -28 1 -5 7 -3 8 6 3 9 -5 11 -4 6 4 -6 9 -11 9 -22 0 -8
-6 -17 -9 -20 -6 -3 3 -17 2 -31 -4 -15 -6 -22 -5 -18 1 3 5 -8 7 -29 5 -30
-4 -34 -2 -31 15 2 11 -2 20 -8 20 -7 0 -6 4 3 10 9 6 10 10 3 10 -12 0 -10
30 2 50 3 6 1 10 -5 10 -8 0 -7 6 1 21 8 16 8 20 -1 14 -9 -6 -9 -2 -1 14 8
15 9 21 1 21 -6 0 -8 5 -4 12 10 16 12 58 2 58 -4 0 -3 12 3 27 5 14 6 29 2
32 -10 7 -13 41 -4 41 4 0 7 9 7 20 0 11 -5 20 -11 20 -5 0 -3 5 5 10 10 6 11
10 3 10 -9 0 -10 7 -2 27 5 14 6 29 2 32 -10 7 -13 41 -4 41 4 0 7 9 7 20 0
11 -4 20 -8 20 -5 0 -4 9 2 20 8 14 8 20 0 20 -7 0 -7 7 1 21 8 16 8 20 -1 14
-9 -6 -9 -2 -1 14 8 15 9 21 1 21 -6 0 -8 5 -4 12 9 15 9 76 0 85 -3 3 -1 12
5 20 9 10 8 13 -1 13 -10 0 -10 3 0 15 10 12 10 15 0 15 -10 0 -10 3 0 15 10
12 10 15 0 15 -10 0 -10 3 0 15 9 11 9 15 1 15 -7 0 -9 5 -4 13 11 18 12 37 2
37 -6 0 -7 4 -4 10 12 20 14 50 2 50 -7 0 -6 4 3 10 9 6 10 10 3 10 -12 0 -10
30 2 50 3 6 1 10 -5 10 -8 0 -7 6 1 21 8 16 8 20 -1 14 -9 -6 -9 -2 -1 14 8
15 9 21 1 21 -6 0 -8 5 -4 12 10 16 12 58 2 58 -4 0 -3 12 3 27 5 14 6 29 2
32 -10 7 -13 41 -4 41 4 0 7 9 7 20 0 11 -5 20 -11 20 -5 0 -3 5 5 10 10 6 11
10 3 10 -9 0 -10 7 -2 27 5 14 6 29 2 32 -10 7 -13 41 -4 41 4 0 7 9 7 20 0
11 -5 20 -11 20 -5 0 -3 5 5 10 10 6 11 10 3 10 -9 0 -10 7 -2 27 5 14 6 29 2
32 -10 7 -13 41 -4 41 4 0 7 9 7 20 0 11 -5 20 -11 20 -5 0 -3 5 5 10 10 6 11
10 3 10 -9 0 -10 7 -2 27 5 14 6 29 2 32 -10 7 -13 41 -4 41 4 0 7 9 7 20 0
11 -4 20 -9 20 -5 0 -4 7 3 15 9 11 9 15 1 15 -7 0 -9 5 -5 12 12 18 11 58 -1
58 -5 0 -3 5 5 10 11 7 11 10 2 10 -9 0 -10 5 -3 18 6 11 19 18 33 17 13 -1
29 3 37 9 11 8 13 8 8 0 -4 -7 0 -15 9 -18 8 -3 12 -2 9 3 -6 11 35 8 54 -4 8
-5 12 -4 8 1 -7 13 226 12 235 -1 5 -7 8 -6 8 1 0 5 18 9 40 8 l40 -1 0 648 0
649 -156 0 -156 0 5 28 c33 168 34 476 2 622 -120 547 -498 972 -1017 1145
-127 42 -221 61 -363 75 -119 11 -125 11 -260 0z m-417 -1381 c268 -29 515
-115 729 -254 88 -58 217 -160 262 -209 l24 -26 -59 0 c-56 0 -62 3 -114 46
-438 367 -1050 463 -1580 249 -101 -42 -122 -40 -128 9 -3 24 3 29 60 55 242
110 546 159 806 130z m1232 -132 c76 -63 300 -325 300 -351 0 -3 -22 -6 -49
-6 -48 0 -50 1 -92 58 -24 31 -92 107 -151 168 -59 61 -108 118 -108 127 0 16
26 47 40 47 4 0 31 -19 60 -43z m-1313 -1115 c-10 -10 -17 -24 -17 -31 0 -7
-4 -9 -10 -6 -5 3 -10 -1 -10 -9 0 -9 -5 -16 -12 -16 -6 0 -8 -3 -5 -6 4 -4
-2 -14 -11 -23 -10 -9 -24 -25 -30 -36 -10 -17 -11 -15 -5 15 11 67 61 130
101 130 13 0 13 -3 -1 -18z m558 -1262 c3 -5 -1 -10 -10 -10 -9 0 -13 5 -10
10 3 6 8 10 10 10 2 0 7 -4 10 -10z"/>
<path d="M484 2658 l-68 -137 34 -176 c19 -96 38 -175 42 -175 4 0 37 58 73
129 l65 130 -35 173 c-19 95 -37 178 -39 183 -2 6 -34 -52 -72 -127z"/>
</g>
</svg>
