%TF.GenerationSoftware,KiCad,Pcbnew,9.0.0*%
%TF.CreationDate,2025-02-28T18:55:53-05:00*%
%TF.ProjectId,umich_balloons_aprs,756d6963-685f-4626-916c-6c6f6f6e735f,rev?*%
%TF.SameCoordinates,Original*%
%TF.FileFunction,Copper,L1,Top*%
%TF.FilePolarity,Positive*%
%FSLAX46Y46*%
G04 Gerber Fmt 4.6, Leading zero omitted, Abs format (unit mm)*
G04 Created by KiCad (PCBNEW 9.0.0) date 2025-02-28 18:55:53*
%MOMM*%
%LPD*%
G01*
G04 APERTURE LIST*
G04 Aperture macros list*
%AMRoundRect*
0 Rectangle with rounded corners*
0 $1 Rounding radius*
0 $2 $3 $4 $5 $6 $7 $8 $9 X,Y pos of 4 corners*
0 Add a 4 corners polygon primitive as box body*
4,1,4,$2,$3,$4,$5,$6,$7,$8,$9,$2,$3,0*
0 Add four circle primitives for the rounded corners*
1,1,$1+$1,$2,$3*
1,1,$1+$1,$4,$5*
1,1,$1+$1,$6,$7*
1,1,$1+$1,$8,$9*
0 Add four rect primitives between the rounded corners*
20,1,$1+$1,$2,$3,$4,$5,0*
20,1,$1+$1,$4,$5,$6,$7,0*
20,1,$1+$1,$6,$7,$8,$9,0*
20,1,$1+$1,$8,$9,$2,$3,0*%
G04 Aperture macros list end*
%TA.AperFunction,SMDPad,CuDef*%
%ADD10R,1.880000X2.470000*%
%TD*%
%TA.AperFunction,SMDPad,CuDef*%
%ADD11R,2.470000X1.880000*%
%TD*%
%TA.AperFunction,SMDPad,CuDef*%
%ADD12R,1.800000X6.600000*%
%TD*%
%TA.AperFunction,SMDPad,CuDef*%
%ADD13R,1.800000X8.000000*%
%TD*%
%TA.AperFunction,ComponentPad*%
%ADD14C,0.800000*%
%TD*%
%TA.AperFunction,ComponentPad*%
%ADD15C,6.400000*%
%TD*%
%TA.AperFunction,SMDPad,CuDef*%
%ADD16RoundRect,0.250000X0.362500X0.700000X-0.362500X0.700000X-0.362500X-0.700000X0.362500X-0.700000X0*%
%TD*%
%TA.AperFunction,ComponentPad*%
%ADD17C,2.050000*%
%TD*%
%TA.AperFunction,ComponentPad*%
%ADD18C,2.250000*%
%TD*%
%TA.AperFunction,ComponentPad*%
%ADD19R,1.700000X1.700000*%
%TD*%
%TA.AperFunction,ComponentPad*%
%ADD20O,1.700000X1.700000*%
%TD*%
%TA.AperFunction,SMDPad,CuDef*%
%ADD21RoundRect,0.250000X-0.650000X0.412500X-0.650000X-0.412500X0.650000X-0.412500X0.650000X0.412500X0*%
%TD*%
%TA.AperFunction,ComponentPad*%
%ADD22R,1.600000X1.600000*%
%TD*%
%TA.AperFunction,ComponentPad*%
%ADD23C,1.600000*%
%TD*%
%TA.AperFunction,ViaPad*%
%ADD24C,0.800000*%
%TD*%
%TA.AperFunction,Conductor*%
%ADD25C,0.250000*%
%TD*%
%TA.AperFunction,Conductor*%
%ADD26C,0.750000*%
%TD*%
%TA.AperFunction,Conductor*%
%ADD27C,1.000000*%
%TD*%
%TA.AperFunction,Conductor*%
%ADD28C,2.200000*%
%TD*%
%TA.AperFunction,Conductor*%
%ADD29C,2.500000*%
%TD*%
G04 APERTURE END LIST*
D10*
%TO.P,D1,1,SQ*%
%TO.N,unconnected-(D1-SQ-Pad1)*%
X172199000Y-56362500D03*
%TO.P,D1,2,NC*%
%TO.N,unconnected-(D1-NC-Pad2)*%
X176649000Y-56362500D03*
%TO.P,D1,3,AF_OUT*%
%TO.N,unconnected-(D1-AF_OUT-Pad3)*%
X181099000Y-56362500D03*
%TO.P,D1,4,NC*%
%TO.N,unconnected-(D1-NC-Pad4)*%
X185549000Y-56362500D03*
%TO.P,D1,5,PTT*%
%TO.N,uC_13_DRA818V_PTT*%
X189999000Y-56362500D03*
%TO.P,D1,6,PD*%
%TO.N,uC_12_DRA818V_PD*%
X194449000Y-56362500D03*
%TO.P,D1,7,H/L*%
%TO.N,uC_32_DRA818V_HL*%
X198899000Y-56362500D03*
D11*
%TO.P,D1,8,VIN*%
%TO.N,3V_BUS*%
X202674000Y-58287500D03*
%TO.P,D1,9,GND*%
%TO.N,GND*%
X202674000Y-62887500D03*
%TO.P,D1,10,GND*%
X202674000Y-67487500D03*
%TO.P,D1,11,NC*%
%TO.N,unconnected-(D1-NC-Pad11)*%
X202674000Y-72087500D03*
D10*
%TO.P,D1,12,ANT*%
%TO.N,DRA_ANT*%
X198899000Y-74012500D03*
%TO.P,D1,13,NC*%
%TO.N,unconnected-(D1-NC-Pad13)*%
X194449000Y-74012500D03*
%TO.P,D1,14,NC*%
%TO.N,unconnected-(D1-NC-Pad14)*%
X189999000Y-74012500D03*
%TO.P,D1,15,NC*%
%TO.N,unconnected-(D1-NC-Pad15)*%
X185549000Y-74012500D03*
%TO.P,D1,16,RXD*%
%TO.N,uC_UART1_TX_DRA818V_RX*%
X181099000Y-74012500D03*
%TO.P,D1,17,TXD*%
%TO.N,uC_UART1_RX_DRA818V_TX*%
X176649000Y-74012500D03*
%TO.P,D1,18,MIC_IN*%
%TO.N,uC_27_DRA818V_MIC_IN*%
X172199000Y-74012500D03*
D12*
%TO.P,D1,P2,NC*%
%TO.N,unconnected-(D1-NC-PadP2)*%
X168424000Y-58987500D03*
D13*
%TO.P,D1,P3,NC*%
%TO.N,unconnected-(D1-NC-PadP3)*%
X168424000Y-70687500D03*
%TD*%
D14*
%TO.P,H1,1,1*%
%TO.N,GND*%
X162420000Y-58420000D03*
X161717056Y-60117056D03*
X161717056Y-56722944D03*
X160020000Y-60820000D03*
D15*
X160020000Y-58420000D03*
D14*
X160020000Y-56020000D03*
X158322944Y-60117056D03*
X158322944Y-56722944D03*
X157620000Y-58420000D03*
%TD*%
D16*
%TO.P,L3,1,1*%
%TO.N,Net-(C4-Pad1)*%
X185304500Y-80264000D03*
%TO.P,L3,2,2*%
%TO.N,Net-(J1-In)*%
X181979500Y-80264000D03*
%TD*%
%TO.P,L2,1,1*%
%TO.N,Net-(C3-Pad1)*%
X191908500Y-80264000D03*
%TO.P,L2,2,2*%
%TO.N,Net-(C4-Pad1)*%
X188583500Y-80264000D03*
%TD*%
%TO.P,L1,1,1*%
%TO.N,DRA_ANT*%
X198766500Y-80264000D03*
%TO.P,L1,2,2*%
%TO.N,Net-(C3-Pad1)*%
X195441500Y-80264000D03*
%TD*%
D17*
%TO.P,J1,1,In*%
%TO.N,Net-(J1-In)*%
X160528000Y-71882000D03*
D18*
%TO.P,J1,2,Ext*%
%TO.N,GND*%
X157988000Y-69342000D03*
X157988000Y-74422000D03*
X163068000Y-69342000D03*
X163068000Y-74422000D03*
%TD*%
D19*
%TO.P,J2,1,Pin_1*%
%TO.N,uC_VBAT*%
X207772000Y-55880000D03*
D20*
%TO.P,J2,2,Pin_2*%
%TO.N,3V_BUS*%
X210312000Y-55880000D03*
%TO.P,J2,3,Pin_3*%
%TO.N,uC_VBAT*%
X207772000Y-58420000D03*
%TO.P,J2,4,Pin_4*%
%TO.N,3V_BUS*%
X210312000Y-58420000D03*
%TO.P,J2,5,Pin_5*%
%TO.N,GND*%
X207772000Y-60960000D03*
%TO.P,J2,6,Pin_6*%
X210312000Y-60960000D03*
%TO.P,J2,7,Pin_7*%
%TO.N,uC_EN*%
X207772000Y-63500000D03*
%TO.P,J2,8,Pin_8*%
%TO.N,uC_24*%
X210312000Y-63500000D03*
%TO.P,J2,9,Pin_9*%
%TO.N,uC_VUSB*%
X207772000Y-66040000D03*
%TO.P,J2,10,Pin_10*%
%TO.N,uC_23*%
X210312000Y-66040000D03*
%TO.P,J2,11,Pin_11*%
%TO.N,GND*%
X207772000Y-68580000D03*
%TO.P,J2,12,Pin_12*%
%TO.N,uC_22_IONLY*%
X210312000Y-68580000D03*
%TO.P,J2,13,Pin_13*%
%TO.N,uC_13_DRA818V_PTT*%
X207772000Y-71120000D03*
%TO.P,J2,14,Pin_14*%
%TO.N,uC_21_IONLY*%
X210312000Y-71120000D03*
%TO.P,J2,15,Pin_15*%
%TO.N,uC_12_DRA818V_PD*%
X207772000Y-73660000D03*
%TO.P,J2,16,Pin_16*%
%TO.N,uC_20_IONLY*%
X210312000Y-73660000D03*
%TO.P,J2,17,Pin_17*%
%TO.N,uC_27_DRA818V_MIC_IN*%
X207772000Y-76200000D03*
%TO.P,J2,18,Pin_18*%
%TO.N,uC_19*%
X210312000Y-76200000D03*
%TO.P,J2,19,Pin_19*%
%TO.N,uC_32_DRA818V_HL*%
X207772000Y-78740000D03*
%TO.P,J2,20,Pin_20*%
%TO.N,GND*%
X210312000Y-78740000D03*
%TO.P,J2,21,Pin_21*%
%TO.N,uC_14*%
X207772000Y-81280000D03*
%TO.P,J2,22,Pin_22*%
%TO.N,GND*%
X210312000Y-81280000D03*
%TO.P,J2,23,Pin_23*%
%TO.N,uC_I2C_SCL*%
X207772000Y-83820000D03*
%TO.P,J2,24,Pin_24*%
%TO.N,GND*%
X210312000Y-83820000D03*
%TO.P,J2,25,Pin_25*%
%TO.N,uC_i2C_SDA*%
X207772000Y-86360000D03*
%TO.P,J2,26,Pin_26*%
%TO.N,GND*%
X210312000Y-86360000D03*
%TO.P,J2,27,Pin_27*%
%TO.N,uC_SPI_SCK*%
X207772000Y-88900000D03*
%TO.P,J2,28,Pin_28*%
%TO.N,GND*%
X210312000Y-88900000D03*
%TO.P,J2,29,Pin_29*%
%TO.N,uC_SPI_MO*%
X207772000Y-91440000D03*
%TO.P,J2,30,Pin_30*%
%TO.N,uC_15_ROCKBLOCK_RX*%
X210312000Y-91440000D03*
%TO.P,J2,31,Pin_31*%
%TO.N,uC_SPI_MI*%
X207772000Y-93980000D03*
%TO.P,J2,32,Pin_32*%
%TO.N,uC_32_ROCKBLOCK_TX*%
X210312000Y-93980000D03*
%TO.P,J2,33,Pin_33*%
%TO.N,uC_UART1_RX_DRA818V_TX*%
X207772000Y-96520000D03*
%TO.P,J2,34,Pin_34*%
%TO.N,GND*%
X210312000Y-96520000D03*
%TO.P,J2,35,Pin_35*%
%TO.N,uC_UART1_TX_DRA818V_RX*%
X207772000Y-99060000D03*
%TO.P,J2,36,Pin_36*%
%TO.N,GND*%
X210312000Y-99060000D03*
%TO.P,J2,37,Pin_37*%
%TO.N,uC_37*%
X207772000Y-101600000D03*
%TO.P,J2,38,Pin_38*%
%TO.N,GND*%
X210312000Y-101600000D03*
%TO.P,J2,39,Pin_39*%
X207772000Y-104140000D03*
%TO.P,J2,40,Pin_40*%
X210312000Y-104140000D03*
%TD*%
D14*
%TO.P,H4,1,1*%
%TO.N,GND*%
X213500000Y-101600000D03*
X214202944Y-99902944D03*
X214202944Y-103297056D03*
X215900000Y-99200000D03*
D15*
X215900000Y-101600000D03*
D14*
X215900000Y-104000000D03*
X217597056Y-99902944D03*
X217597056Y-103297056D03*
X218300000Y-101600000D03*
%TD*%
%TO.P,H3,1,1*%
%TO.N,GND*%
X213500000Y-58420000D03*
X214202944Y-56722944D03*
X214202944Y-60117056D03*
X215900000Y-56020000D03*
D15*
X215900000Y-58420000D03*
D14*
X215900000Y-60820000D03*
X217597056Y-56722944D03*
X217597056Y-60117056D03*
X218300000Y-58420000D03*
%TD*%
%TO.P,H2,1,1*%
%TO.N,GND*%
X157620000Y-101600000D03*
X158322944Y-99902944D03*
X158322944Y-103297056D03*
X160020000Y-99200000D03*
D15*
X160020000Y-101600000D03*
D14*
X160020000Y-104000000D03*
X161717056Y-99902944D03*
X161717056Y-103297056D03*
X162420000Y-101600000D03*
%TD*%
D21*
%TO.P,C5,1*%
%TO.N,Net-(J1-In)*%
X179070000Y-83781500D03*
%TO.P,C5,2*%
%TO.N,GND*%
X179070000Y-86906500D03*
%TD*%
%TO.P,C4,1*%
%TO.N,Net-(C4-Pad1)*%
X186944000Y-83781500D03*
%TO.P,C4,2*%
%TO.N,GND*%
X186944000Y-86906500D03*
%TD*%
%TO.P,C3,1*%
%TO.N,Net-(C3-Pad1)*%
X193548000Y-83781500D03*
%TO.P,C3,2*%
%TO.N,GND*%
X193548000Y-86906500D03*
%TD*%
%TO.P,C2,1*%
%TO.N,DRA_ANT*%
X199390000Y-83781500D03*
%TO.P,C2,2*%
%TO.N,GND*%
X199390000Y-86906500D03*
%TD*%
D22*
%TO.P,C1,1*%
%TO.N,3V_BUS*%
X214408000Y-65786000D03*
D23*
%TO.P,C1,2*%
%TO.N,GND*%
X216408000Y-65786000D03*
%TD*%
D24*
%TO.N,uC_27_DRA818V_MIC_IN*%
X201676000Y-90424000D03*
X172212000Y-76200000D03*
%TO.N,uC_UART1_RX_DRA818V_TX*%
X184404000Y-77724000D03*
X184404000Y-88392000D03*
%TO.N,uC_UART1_TX_DRA818V_RX*%
X183388000Y-88646000D03*
X183388000Y-76454000D03*
%TO.N,uC_13_DRA818V_PTT*%
X198374000Y-61037500D03*
X204960000Y-67056000D03*
%TO.N,uC_12_DRA818V_PD*%
X204216000Y-65278000D03*
X199644000Y-60706000D03*
%TD*%
D25*
%TO.N,uC_VBAT*%
X207772000Y-58420000D02*
X207772000Y-55880000D01*
D26*
%TO.N,3V_BUS*%
X214408000Y-62516000D02*
X210312000Y-58420000D01*
X214408000Y-65786000D02*
X214408000Y-62516000D01*
D25*
%TO.N,uC_27_DRA818V_MIC_IN*%
X208948000Y-77376000D02*
X207772000Y-76200000D01*
X201676000Y-85524884D02*
X207284884Y-79916000D01*
X207284884Y-79916000D02*
X208259116Y-79916000D01*
X201676000Y-90424000D02*
X201676000Y-85524884D01*
X208259116Y-79916000D02*
X208948000Y-79227116D01*
X172199000Y-76187000D02*
X172212000Y-76200000D01*
X208948000Y-79227116D02*
X208948000Y-77376000D01*
X172199000Y-74012500D02*
X172199000Y-76187000D01*
%TO.N,uC_UART1_RX_DRA818V_TX*%
X184404000Y-77724000D02*
X180360500Y-77724000D01*
X180360500Y-77724000D02*
X176649000Y-74012500D01*
X191770000Y-96012000D02*
X184404000Y-88646000D01*
X192278000Y-96520000D02*
X191770000Y-96012000D01*
X184404000Y-88646000D02*
X184404000Y-88392000D01*
X207772000Y-96520000D02*
X192278000Y-96520000D01*
%TO.N,uC_UART1_TX_DRA818V_RX*%
X193802000Y-99060000D02*
X207772000Y-99060000D01*
X183388000Y-88646000D02*
X193802000Y-99060000D01*
X183388000Y-76301500D02*
X183388000Y-76454000D01*
X181099000Y-74012500D02*
X183388000Y-76301500D01*
%TO.N,uC_13_DRA818V_PTT*%
X204960000Y-68308000D02*
X207772000Y-71120000D01*
X204960000Y-67056000D02*
X204960000Y-68308000D01*
X194674000Y-61037500D02*
X198374000Y-61037500D01*
X189999000Y-56362500D02*
X194674000Y-61037500D01*
%TO.N,uC_12_DRA818V_PD*%
X204235000Y-70123000D02*
X207772000Y-73660000D01*
X204235000Y-65297000D02*
X204235000Y-70123000D01*
X204216000Y-65278000D02*
X204235000Y-65297000D01*
X195300500Y-56362500D02*
X199644000Y-60706000D01*
X194449000Y-56362500D02*
X195300500Y-56362500D01*
%TO.N,uC_32_DRA818V_HL*%
X200775000Y-73015500D02*
X206499500Y-78740000D01*
X200775000Y-58238500D02*
X200775000Y-73015500D01*
X206499500Y-78740000D02*
X207772000Y-78740000D01*
X198899000Y-56362500D02*
X200775000Y-58238500D01*
D26*
%TO.N,3V_BUS*%
X208648000Y-54216000D02*
X210312000Y-55880000D01*
X206745500Y-54216000D02*
X208648000Y-54216000D01*
X202674000Y-58287500D02*
X206745500Y-54216000D01*
D27*
X210312000Y-55880000D02*
X210312000Y-58420000D01*
D28*
%TO.N,Net-(J1-In)*%
X179070000Y-83781500D02*
X179070000Y-80264000D01*
X179070000Y-80264000D02*
X165251117Y-80264000D01*
X160528000Y-75540883D02*
X160528000Y-71882000D01*
X165251117Y-80264000D02*
X160528000Y-75540883D01*
X181979500Y-80264000D02*
X179070000Y-80264000D01*
D29*
%TO.N,Net-(C4-Pad1)*%
X186944000Y-83781500D02*
X186944000Y-80264000D01*
X186944000Y-80264000D02*
X185304500Y-80264000D01*
X188583500Y-80264000D02*
X186944000Y-80264000D01*
%TO.N,Net-(C3-Pad1)*%
X193548000Y-83781500D02*
X193548000Y-80264000D01*
X193548000Y-80264000D02*
X191908500Y-80264000D01*
X195441500Y-80264000D02*
X193548000Y-80264000D01*
%TO.N,DRA_ANT*%
X199390000Y-83781500D02*
X199390000Y-80887500D01*
X199390000Y-80887500D02*
X198766500Y-80264000D01*
X198899000Y-80131500D02*
X198766500Y-80264000D01*
X198899000Y-74012500D02*
X198899000Y-80131500D01*
%TD*%
%TA.AperFunction,Conductor*%
%TO.N,GND*%
G36*
X205650533Y-53860185D02*
G01*
X205696288Y-53912989D01*
X205706232Y-53982147D01*
X205677207Y-54045703D01*
X205671175Y-54052181D01*
X202912673Y-56810681D01*
X202851350Y-56844166D01*
X202824992Y-56847000D01*
X201391129Y-56847000D01*
X201391123Y-56847001D01*
X201331516Y-56853408D01*
X201196671Y-56903702D01*
X201196664Y-56903706D01*
X201081455Y-56989952D01*
X201081452Y-56989955D01*
X200995206Y-57105164D01*
X200995202Y-57105171D01*
X200944908Y-57240017D01*
X200943126Y-57247562D01*
X200941503Y-57247178D01*
X200918317Y-57303138D01*
X200860920Y-57342980D01*
X200791095Y-57345466D01*
X200734093Y-57313002D01*
X200375818Y-56954727D01*
X200342333Y-56893404D01*
X200339499Y-56867046D01*
X200339499Y-55079629D01*
X200339498Y-55079623D01*
X200339497Y-55079616D01*
X200333091Y-55020017D01*
X200282796Y-54885169D01*
X200282795Y-54885168D01*
X200282793Y-54885164D01*
X200196547Y-54769955D01*
X200196544Y-54769952D01*
X200081335Y-54683706D01*
X200081328Y-54683702D01*
X199946482Y-54633408D01*
X199946483Y-54633408D01*
X199886883Y-54627001D01*
X199886881Y-54627000D01*
X199886873Y-54627000D01*
X199886864Y-54627000D01*
X197911129Y-54627000D01*
X197911123Y-54627001D01*
X197851516Y-54633408D01*
X197716671Y-54683702D01*
X197716664Y-54683706D01*
X197601455Y-54769952D01*
X197601452Y-54769955D01*
X197515206Y-54885164D01*
X197515202Y-54885171D01*
X197464908Y-55020017D01*
X197459405Y-55071207D01*
X197458501Y-55079623D01*
X197458500Y-55079635D01*
X197458500Y-57336548D01*
X197438815Y-57403587D01*
X197386011Y-57449342D01*
X197316853Y-57459286D01*
X197253297Y-57430261D01*
X197246819Y-57424229D01*
X195925818Y-56103228D01*
X195892333Y-56041905D01*
X195889499Y-56015547D01*
X195889499Y-55079629D01*
X195889498Y-55079623D01*
X195889497Y-55079616D01*
X195883091Y-55020017D01*
X195832796Y-54885169D01*
X195832795Y-54885168D01*
X195832793Y-54885164D01*
X195746547Y-54769955D01*
X195746544Y-54769952D01*
X195631335Y-54683706D01*
X195631328Y-54683702D01*
X195496482Y-54633408D01*
X195496483Y-54633408D01*
X195436883Y-54627001D01*
X195436881Y-54627000D01*
X195436873Y-54627000D01*
X195436864Y-54627000D01*
X193461129Y-54627000D01*
X193461123Y-54627001D01*
X193401516Y-54633408D01*
X193266671Y-54683702D01*
X193266664Y-54683706D01*
X193151455Y-54769952D01*
X193151452Y-54769955D01*
X193065206Y-54885164D01*
X193065202Y-54885171D01*
X193014908Y-55020017D01*
X193009405Y-55071207D01*
X193008501Y-55079623D01*
X193008500Y-55079635D01*
X193008500Y-57645370D01*
X193008501Y-57645376D01*
X193014908Y-57704983D01*
X193065202Y-57839828D01*
X193065206Y-57839835D01*
X193151452Y-57955044D01*
X193151455Y-57955047D01*
X193266664Y-58041293D01*
X193266671Y-58041297D01*
X193401517Y-58091591D01*
X193401516Y-58091591D01*
X193408444Y-58092335D01*
X193461127Y-58098000D01*
X195436872Y-58097999D01*
X195496483Y-58091591D01*
X195631331Y-58041296D01*
X195746546Y-57955046D01*
X195772915Y-57919820D01*
X195828848Y-57877951D01*
X195898540Y-57872967D01*
X195959862Y-57906452D01*
X198060494Y-60007084D01*
X198093979Y-60068407D01*
X198088995Y-60138099D01*
X198047123Y-60194032D01*
X198020267Y-60209326D01*
X197947452Y-60239487D01*
X197947446Y-60239490D01*
X197799965Y-60338035D01*
X197799961Y-60338038D01*
X197762321Y-60375680D01*
X197700999Y-60409166D01*
X197674639Y-60412000D01*
X194984453Y-60412000D01*
X194917414Y-60392315D01*
X194896772Y-60375681D01*
X191475818Y-56954727D01*
X191442333Y-56893404D01*
X191439499Y-56867046D01*
X191439499Y-55079629D01*
X191439498Y-55079623D01*
X191439497Y-55079616D01*
X191433091Y-55020017D01*
X191382796Y-54885169D01*
X191382795Y-54885168D01*
X191382793Y-54885164D01*
X191296547Y-54769955D01*
X191296544Y-54769952D01*
X191181335Y-54683706D01*
X191181328Y-54683702D01*
X191046482Y-54633408D01*
X191046483Y-54633408D01*
X190986883Y-54627001D01*
X190986881Y-54627000D01*
X190986873Y-54627000D01*
X190986864Y-54627000D01*
X189011129Y-54627000D01*
X189011123Y-54627001D01*
X188951516Y-54633408D01*
X188816671Y-54683702D01*
X188816664Y-54683706D01*
X188701455Y-54769952D01*
X188701452Y-54769955D01*
X188615206Y-54885164D01*
X188615202Y-54885171D01*
X188564908Y-55020017D01*
X188559405Y-55071207D01*
X188558501Y-55079623D01*
X188558500Y-55079635D01*
X188558500Y-57645370D01*
X188558501Y-57645376D01*
X188564908Y-57704983D01*
X188615202Y-57839828D01*
X188615206Y-57839835D01*
X188701452Y-57955044D01*
X188701455Y-57955047D01*
X188816664Y-58041293D01*
X188816671Y-58041297D01*
X188951517Y-58091591D01*
X188951516Y-58091591D01*
X188958444Y-58092335D01*
X189011127Y-58098000D01*
X190798546Y-58097999D01*
X190865585Y-58117684D01*
X190886227Y-58134318D01*
X193977728Y-61225819D01*
X194011213Y-61287142D01*
X194006229Y-61356834D01*
X193964357Y-61412767D01*
X193898893Y-61437184D01*
X193890047Y-61437500D01*
X192359250Y-61437500D01*
X192359250Y-67691270D01*
X200025500Y-67691270D01*
X200092539Y-67710955D01*
X200138294Y-67763759D01*
X200149500Y-67815270D01*
X200149500Y-72180535D01*
X200129815Y-72247574D01*
X200077011Y-72293329D01*
X200007853Y-72303273D01*
X199982169Y-72296718D01*
X199946481Y-72283408D01*
X199946483Y-72283408D01*
X199886883Y-72277001D01*
X199886881Y-72277000D01*
X199886873Y-72277000D01*
X199886865Y-72277000D01*
X199135797Y-72277000D01*
X199119612Y-72275939D01*
X199013743Y-72262001D01*
X199013740Y-72262000D01*
X199013734Y-72262000D01*
X198784266Y-72262000D01*
X198784265Y-72262000D01*
X198678386Y-72275939D01*
X198662201Y-72277000D01*
X197911129Y-72277000D01*
X197911123Y-72277001D01*
X197851516Y-72283408D01*
X197716671Y-72333702D01*
X197716664Y-72333706D01*
X197601455Y-72419952D01*
X197601452Y-72419955D01*
X197515206Y-72535164D01*
X197515202Y-72535171D01*
X197464908Y-72670017D01*
X197458857Y-72726306D01*
X197458501Y-72729623D01*
X197458500Y-72729635D01*
X197458500Y-72973292D01*
X197441887Y-73035292D01*
X197325657Y-73236608D01*
X197325650Y-73236623D01*
X197237842Y-73448612D01*
X197237842Y-73448613D01*
X197196029Y-73604665D01*
X197178453Y-73670259D01*
X197178451Y-73670270D01*
X197148500Y-73897758D01*
X197148500Y-79256837D01*
X197128815Y-79323876D01*
X197076011Y-79369631D01*
X197006853Y-79379575D01*
X196943297Y-79350550D01*
X196917116Y-79318841D01*
X196900111Y-79289388D01*
X196900107Y-79289383D01*
X196900105Y-79289379D01*
X196760418Y-79107338D01*
X196760411Y-79107330D01*
X196598170Y-78945089D01*
X196598161Y-78945081D01*
X196416117Y-78805392D01*
X196217390Y-78690657D01*
X196217376Y-78690650D01*
X196005387Y-78602842D01*
X195957071Y-78589896D01*
X195783738Y-78543452D01*
X195745715Y-78538446D01*
X195556241Y-78513500D01*
X195556234Y-78513500D01*
X193662734Y-78513500D01*
X191793766Y-78513500D01*
X191793758Y-78513500D01*
X191577215Y-78542009D01*
X191566262Y-78543452D01*
X191472576Y-78568554D01*
X191344612Y-78602842D01*
X191132623Y-78690650D01*
X191132609Y-78690657D01*
X190933882Y-78805392D01*
X190751838Y-78945081D01*
X190589581Y-79107338D01*
X190449892Y-79289382D01*
X190353387Y-79456535D01*
X190302820Y-79504751D01*
X190234213Y-79517974D01*
X190169348Y-79492006D01*
X190138613Y-79456535D01*
X190120496Y-79425155D01*
X190042111Y-79289388D01*
X190042108Y-79289385D01*
X190042107Y-79289382D01*
X189902418Y-79107338D01*
X189902411Y-79107330D01*
X189740170Y-78945089D01*
X189740161Y-78945081D01*
X189558117Y-78805392D01*
X189359390Y-78690657D01*
X189359376Y-78690650D01*
X189147387Y-78602842D01*
X189099071Y-78589896D01*
X188925738Y-78543452D01*
X188887715Y-78538446D01*
X188698241Y-78513500D01*
X188698234Y-78513500D01*
X187058734Y-78513500D01*
X185189766Y-78513500D01*
X185187362Y-78513500D01*
X185120323Y-78493815D01*
X185074568Y-78441011D01*
X185064624Y-78371853D01*
X185093649Y-78308297D01*
X185099681Y-78301819D01*
X185103461Y-78298038D01*
X185103464Y-78298035D01*
X185202013Y-78150547D01*
X185269894Y-77986666D01*
X185304500Y-77812691D01*
X185304500Y-77635309D01*
X185304500Y-77635306D01*
X185304499Y-77635304D01*
X185269896Y-77461341D01*
X185269893Y-77461332D01*
X185202016Y-77297459D01*
X185202009Y-77297446D01*
X185103464Y-77149965D01*
X185103461Y-77149961D01*
X184978038Y-77024538D01*
X184978034Y-77024535D01*
X184830553Y-76925990D01*
X184830540Y-76925983D01*
X184666667Y-76858106D01*
X184666658Y-76858103D01*
X184492694Y-76823500D01*
X184492691Y-76823500D01*
X184383738Y-76823500D01*
X184316699Y-76803815D01*
X184270944Y-76751011D01*
X184261000Y-76681853D01*
X184262121Y-76675309D01*
X184288499Y-76542695D01*
X184288500Y-76542690D01*
X184288500Y-76365306D01*
X184288499Y-76365304D01*
X184253896Y-76191341D01*
X184253893Y-76191332D01*
X184186016Y-76027459D01*
X184186009Y-76027446D01*
X184087464Y-75879965D01*
X184087461Y-75879961D01*
X183962038Y-75754538D01*
X183962034Y-75754535D01*
X183814553Y-75655990D01*
X183814540Y-75655983D01*
X183650670Y-75588107D01*
X183650660Y-75588104D01*
X183573374Y-75572731D01*
X183511463Y-75540346D01*
X183509885Y-75538795D01*
X182575818Y-74604728D01*
X182542333Y-74543405D01*
X182539499Y-74517047D01*
X182539499Y-72729635D01*
X184108500Y-72729635D01*
X184108500Y-75295370D01*
X184108501Y-75295376D01*
X184114908Y-75354983D01*
X184165202Y-75489828D01*
X184165206Y-75489835D01*
X184251452Y-75605044D01*
X184251455Y-75605047D01*
X184366664Y-75691293D01*
X184366671Y-75691297D01*
X184501517Y-75741591D01*
X184501516Y-75741591D01*
X184508444Y-75742335D01*
X184561127Y-75748000D01*
X186536872Y-75747999D01*
X186596483Y-75741591D01*
X186731331Y-75691296D01*
X186846546Y-75605046D01*
X186932796Y-75489831D01*
X186983091Y-75354983D01*
X186989500Y-75295373D01*
X186989499Y-72729635D01*
X188558500Y-72729635D01*
X188558500Y-75295370D01*
X188558501Y-75295376D01*
X188564908Y-75354983D01*
X188615202Y-75489828D01*
X188615206Y-75489835D01*
X188701452Y-75605044D01*
X188701455Y-75605047D01*
X188816664Y-75691293D01*
X188816671Y-75691297D01*
X188951517Y-75741591D01*
X188951516Y-75741591D01*
X188958444Y-75742335D01*
X189011127Y-75748000D01*
X190986872Y-75747999D01*
X191046483Y-75741591D01*
X191181331Y-75691296D01*
X191296546Y-75605046D01*
X191382796Y-75489831D01*
X191433091Y-75354983D01*
X191439500Y-75295373D01*
X191439499Y-72729635D01*
X193008500Y-72729635D01*
X193008500Y-75295370D01*
X193008501Y-75295376D01*
X193014908Y-75354983D01*
X193065202Y-75489828D01*
X193065206Y-75489835D01*
X193151452Y-75605044D01*
X193151455Y-75605047D01*
X193266664Y-75691293D01*
X193266671Y-75691297D01*
X193401517Y-75741591D01*
X193401516Y-75741591D01*
X193408444Y-75742335D01*
X193461127Y-75748000D01*
X195436872Y-75747999D01*
X195496483Y-75741591D01*
X195631331Y-75691296D01*
X195746546Y-75605046D01*
X195832796Y-75489831D01*
X195883091Y-75354983D01*
X195889500Y-75295373D01*
X195889499Y-72729628D01*
X195883091Y-72670017D01*
X195832796Y-72535169D01*
X195832795Y-72535168D01*
X195832793Y-72535164D01*
X195746547Y-72419955D01*
X195746544Y-72419952D01*
X195631335Y-72333706D01*
X195631328Y-72333702D01*
X195496482Y-72283408D01*
X195496483Y-72283408D01*
X195436883Y-72277001D01*
X195436881Y-72277000D01*
X195436873Y-72277000D01*
X195436864Y-72277000D01*
X193461129Y-72277000D01*
X193461123Y-72277001D01*
X193401516Y-72283408D01*
X193266671Y-72333702D01*
X193266664Y-72333706D01*
X193151455Y-72419952D01*
X193151452Y-72419955D01*
X193065206Y-72535164D01*
X193065202Y-72535171D01*
X193014908Y-72670017D01*
X193008857Y-72726306D01*
X193008501Y-72729623D01*
X193008500Y-72729635D01*
X191439499Y-72729635D01*
X191439499Y-72729628D01*
X191433091Y-72670017D01*
X191382796Y-72535169D01*
X191382795Y-72535168D01*
X191382793Y-72535164D01*
X191296547Y-72419955D01*
X191296544Y-72419952D01*
X191181335Y-72333706D01*
X191181328Y-72333702D01*
X191046482Y-72283408D01*
X191046483Y-72283408D01*
X190986883Y-72277001D01*
X190986881Y-72277000D01*
X190986873Y-72277000D01*
X190986864Y-72277000D01*
X189011129Y-72277000D01*
X189011123Y-72277001D01*
X188951516Y-72283408D01*
X188816671Y-72333702D01*
X188816664Y-72333706D01*
X188701455Y-72419952D01*
X188701452Y-72419955D01*
X188615206Y-72535164D01*
X188615202Y-72535171D01*
X188564908Y-72670017D01*
X188558857Y-72726306D01*
X188558501Y-72729623D01*
X188558500Y-72729635D01*
X186989499Y-72729635D01*
X186989499Y-72729628D01*
X186983091Y-72670017D01*
X186932796Y-72535169D01*
X186932795Y-72535168D01*
X186932793Y-72535164D01*
X186846547Y-72419955D01*
X186846544Y-72419952D01*
X186731335Y-72333706D01*
X186731328Y-72333702D01*
X186596482Y-72283408D01*
X186596483Y-72283408D01*
X186536883Y-72277001D01*
X186536881Y-72277000D01*
X186536873Y-72277000D01*
X186536864Y-72277000D01*
X184561129Y-72277000D01*
X184561123Y-72277001D01*
X184501516Y-72283408D01*
X184366671Y-72333702D01*
X184366664Y-72333706D01*
X184251455Y-72419952D01*
X184251452Y-72419955D01*
X184165206Y-72535164D01*
X184165202Y-72535171D01*
X184114908Y-72670017D01*
X184108857Y-72726306D01*
X184108501Y-72729623D01*
X184108500Y-72729635D01*
X182539499Y-72729635D01*
X182539499Y-72729630D01*
X182539498Y-72729622D01*
X182539497Y-72729616D01*
X182533091Y-72670017D01*
X182482796Y-72535169D01*
X182482795Y-72535168D01*
X182482793Y-72535164D01*
X182396547Y-72419955D01*
X182396544Y-72419952D01*
X182281335Y-72333706D01*
X182281328Y-72333702D01*
X182146482Y-72283408D01*
X182146483Y-72283408D01*
X182086883Y-72277001D01*
X182086881Y-72277000D01*
X182086873Y-72277000D01*
X182086864Y-72277000D01*
X180111129Y-72277000D01*
X180111123Y-72277001D01*
X180051516Y-72283408D01*
X179916671Y-72333702D01*
X179916664Y-72333706D01*
X179801455Y-72419952D01*
X179801452Y-72419955D01*
X179715206Y-72535164D01*
X179715202Y-72535171D01*
X179664908Y-72670017D01*
X179658857Y-72726306D01*
X179658501Y-72729623D01*
X179658500Y-72729635D01*
X179658500Y-75295370D01*
X179658501Y-75295376D01*
X179664908Y-75354983D01*
X179715202Y-75489828D01*
X179715206Y-75489835D01*
X179801452Y-75605044D01*
X179801455Y-75605047D01*
X179916664Y-75691293D01*
X179916671Y-75691297D01*
X180051517Y-75741591D01*
X180051516Y-75741591D01*
X180058444Y-75742335D01*
X180111127Y-75748000D01*
X181898547Y-75747999D01*
X181965586Y-75767684D01*
X181986228Y-75784318D01*
X182453859Y-76251949D01*
X182487344Y-76313272D01*
X182487755Y-76359212D01*
X182488097Y-76359246D01*
X182487784Y-76362419D01*
X182487797Y-76363814D01*
X182487500Y-76365307D01*
X182487500Y-76542695D01*
X182522103Y-76716658D01*
X182522106Y-76716667D01*
X182589983Y-76880540D01*
X182589989Y-76880551D01*
X182606733Y-76905610D01*
X182627610Y-76972287D01*
X182609125Y-77039667D01*
X182557146Y-77086357D01*
X182503630Y-77098500D01*
X180670953Y-77098500D01*
X180603914Y-77078815D01*
X180583272Y-77062181D01*
X178125818Y-74604727D01*
X178092333Y-74543404D01*
X178089499Y-74517046D01*
X178089499Y-72729629D01*
X178089498Y-72729623D01*
X178089497Y-72729616D01*
X178083091Y-72670017D01*
X178032796Y-72535169D01*
X178032795Y-72535168D01*
X178032793Y-72535164D01*
X177946547Y-72419955D01*
X177946544Y-72419952D01*
X177831335Y-72333706D01*
X177831328Y-72333702D01*
X177696482Y-72283408D01*
X177696483Y-72283408D01*
X177636883Y-72277001D01*
X177636881Y-72277000D01*
X177636873Y-72277000D01*
X177636864Y-72277000D01*
X175661129Y-72277000D01*
X175661123Y-72277001D01*
X175601516Y-72283408D01*
X175466671Y-72333702D01*
X175466664Y-72333706D01*
X175351455Y-72419952D01*
X175351452Y-72419955D01*
X175265206Y-72535164D01*
X175265202Y-72535171D01*
X175214908Y-72670017D01*
X175208857Y-72726306D01*
X175208501Y-72729623D01*
X175208500Y-72729635D01*
X175208500Y-75295370D01*
X175208501Y-75295376D01*
X175214908Y-75354983D01*
X175265202Y-75489828D01*
X175265206Y-75489835D01*
X175351452Y-75605044D01*
X175351455Y-75605047D01*
X175466664Y-75691293D01*
X175466671Y-75691297D01*
X175601517Y-75741591D01*
X175601516Y-75741591D01*
X175608444Y-75742335D01*
X175661127Y-75748000D01*
X177448546Y-75747999D01*
X177515585Y-75767684D01*
X177536227Y-75784318D01*
X179961763Y-78209855D01*
X179961767Y-78209858D01*
X180064210Y-78278309D01*
X180064211Y-78278309D01*
X180064215Y-78278312D01*
X180130897Y-78305932D01*
X180178048Y-78325463D01*
X180198097Y-78329451D01*
X180263124Y-78342385D01*
X180298892Y-78349501D01*
X180298894Y-78349501D01*
X180428221Y-78349501D01*
X180428241Y-78349500D01*
X183704639Y-78349500D01*
X183771678Y-78369185D01*
X183792321Y-78385820D01*
X183829961Y-78423461D01*
X183829965Y-78423464D01*
X183977446Y-78522009D01*
X183977459Y-78522016D01*
X184100363Y-78572923D01*
X184141334Y-78589894D01*
X184141336Y-78589894D01*
X184141341Y-78589896D01*
X184245680Y-78610650D01*
X184307591Y-78643035D01*
X184342165Y-78703750D01*
X184338426Y-78773520D01*
X184297560Y-78830192D01*
X184296976Y-78830642D01*
X184147838Y-78945081D01*
X183985581Y-79107338D01*
X183845892Y-79289382D01*
X183731157Y-79488109D01*
X183731153Y-79488118D01*
X183676828Y-79619271D01*
X183632987Y-79673674D01*
X183566693Y-79695739D01*
X183498994Y-79678460D01*
X183451782Y-79628113D01*
X183348370Y-79425155D01*
X183305028Y-79365500D01*
X183200298Y-79221350D01*
X183200294Y-79221345D01*
X183022154Y-79043205D01*
X183022149Y-79043201D01*
X182818348Y-78895132D01*
X182818347Y-78895131D01*
X182818345Y-78895130D01*
X182748247Y-78859413D01*
X182593883Y-78780760D01*
X182354285Y-78702910D01*
X182172854Y-78674174D01*
X182105462Y-78663500D01*
X182105461Y-78663500D01*
X165965428Y-78663500D01*
X165898389Y-78643815D01*
X165877747Y-78627181D01*
X163447468Y-76196902D01*
X163413983Y-76135579D01*
X163418967Y-76065887D01*
X163460839Y-76009954D01*
X163496832Y-75991290D01*
X163691778Y-75927949D01*
X163691784Y-75927947D01*
X163919685Y-75811825D01*
X164026595Y-75734148D01*
X164026596Y-75734148D01*
X163468562Y-75176114D01*
X163470626Y-75175260D01*
X163609844Y-75082238D01*
X163728238Y-74963844D01*
X163821260Y-74824626D01*
X163822114Y-74822562D01*
X164380148Y-75380596D01*
X164380148Y-75380595D01*
X164457825Y-75273685D01*
X164573947Y-75045784D01*
X164573948Y-75045781D01*
X164652986Y-74802523D01*
X164693000Y-74549889D01*
X164693000Y-74294110D01*
X164652986Y-74041476D01*
X164573948Y-73798218D01*
X164573947Y-73798215D01*
X164457824Y-73570313D01*
X164380148Y-73463403D01*
X164380148Y-73463402D01*
X163822114Y-74021436D01*
X163821260Y-74019374D01*
X163728238Y-73880156D01*
X163609844Y-73761762D01*
X163470626Y-73668740D01*
X163468561Y-73667884D01*
X164026596Y-73109850D01*
X163919686Y-73032175D01*
X163691784Y-72916052D01*
X163691781Y-72916051D01*
X163448523Y-72837013D01*
X163195889Y-72797000D01*
X162940111Y-72797000D01*
X162687476Y-72837013D01*
X162444218Y-72916051D01*
X162444215Y-72916053D01*
X162308795Y-72985053D01*
X162240125Y-72997949D01*
X162175385Y-72971672D01*
X162135128Y-72914566D01*
X162128500Y-72874568D01*
X162128500Y-71756038D01*
X162109870Y-71638414D01*
X162089090Y-71507215D01*
X162011241Y-71267621D01*
X162011239Y-71267618D01*
X162011239Y-71267616D01*
X161967660Y-71182089D01*
X161896870Y-71043155D01*
X161841540Y-70967000D01*
X161748798Y-70839350D01*
X161748794Y-70839345D01*
X161570654Y-70661205D01*
X161570649Y-70661201D01*
X161366848Y-70513132D01*
X161366847Y-70513131D01*
X161366845Y-70513130D01*
X161296747Y-70477413D01*
X161142383Y-70398760D01*
X160902785Y-70320910D01*
X160653962Y-70281500D01*
X160402038Y-70281500D01*
X160281478Y-70300595D01*
X160153214Y-70320910D01*
X159913616Y-70398760D01*
X159689151Y-70513132D01*
X159485350Y-70661201D01*
X159485345Y-70661205D01*
X159307205Y-70839345D01*
X159307201Y-70839350D01*
X159159132Y-71043151D01*
X159044760Y-71267616D01*
X158966910Y-71507214D01*
X158927500Y-71756038D01*
X158927500Y-72874568D01*
X158907815Y-72941607D01*
X158855011Y-72987362D01*
X158785853Y-72997306D01*
X158747205Y-72985053D01*
X158611784Y-72916053D01*
X158611781Y-72916051D01*
X158368523Y-72837013D01*
X158115889Y-72797000D01*
X157860111Y-72797000D01*
X157607476Y-72837013D01*
X157364218Y-72916051D01*
X157364215Y-72916052D01*
X157136310Y-73032177D01*
X157029403Y-73109849D01*
X157029402Y-73109850D01*
X157587437Y-73667885D01*
X157585374Y-73668740D01*
X157446156Y-73761762D01*
X157327762Y-73880156D01*
X157234740Y-74019374D01*
X157233885Y-74021437D01*
X156675850Y-73463402D01*
X156675849Y-73463403D01*
X156598177Y-73570310D01*
X156482052Y-73798215D01*
X156482051Y-73798218D01*
X156403013Y-74041476D01*
X156363000Y-74294110D01*
X156363000Y-74549889D01*
X156403013Y-74802523D01*
X156482051Y-75045781D01*
X156482052Y-75045784D01*
X156598175Y-75273686D01*
X156675850Y-75380595D01*
X156675850Y-75380596D01*
X157233884Y-74822561D01*
X157234740Y-74824626D01*
X157327762Y-74963844D01*
X157446156Y-75082238D01*
X157585374Y-75175260D01*
X157587436Y-75176114D01*
X157029402Y-75734148D01*
X157136313Y-75811824D01*
X157364215Y-75927947D01*
X157364218Y-75927948D01*
X157607476Y-76006986D01*
X157860111Y-76047000D01*
X158115889Y-76047000D01*
X158368523Y-76006986D01*
X158611781Y-75927948D01*
X158611784Y-75927947D01*
X158790681Y-75836794D01*
X158859350Y-75823898D01*
X158924091Y-75850174D01*
X158964348Y-75907281D01*
X158965689Y-75911910D01*
X158966909Y-75915667D01*
X158966910Y-75915668D01*
X159044759Y-76155262D01*
X159151783Y-76365309D01*
X159159132Y-76379731D01*
X159258310Y-76516239D01*
X159277529Y-76542691D01*
X159307207Y-76583539D01*
X159307209Y-76583541D01*
X164208462Y-81484794D01*
X164208467Y-81484798D01*
X164270683Y-81530000D01*
X164412272Y-81632870D01*
X164555301Y-81705747D01*
X164636733Y-81747239D01*
X164636735Y-81747239D01*
X164636738Y-81747241D01*
X164876332Y-81825090D01*
X165125155Y-81864500D01*
X165377079Y-81864500D01*
X177345500Y-81864500D01*
X177412539Y-81884185D01*
X177458294Y-81936989D01*
X177469500Y-81988500D01*
X177469500Y-83907462D01*
X177472482Y-83926287D01*
X177508910Y-84156285D01*
X177586760Y-84395883D01*
X177701132Y-84620348D01*
X177849201Y-84824149D01*
X177849205Y-84824154D01*
X178027345Y-85002294D01*
X178027350Y-85002298D01*
X178155374Y-85095312D01*
X178231155Y-85150370D01*
X178374184Y-85223247D01*
X178455616Y-85264739D01*
X178455618Y-85264739D01*
X178455621Y-85264741D01*
X178695215Y-85342590D01*
X178944038Y-85382000D01*
X178944039Y-85382000D01*
X179195961Y-85382000D01*
X179195962Y-85382000D01*
X179444785Y-85342590D01*
X179684379Y-85264741D01*
X179908845Y-85150370D01*
X180112656Y-85002293D01*
X180290793Y-84824156D01*
X180438870Y-84620345D01*
X180553241Y-84395879D01*
X180631090Y-84156285D01*
X180670500Y-83907462D01*
X180670500Y-81988500D01*
X180690185Y-81921461D01*
X180742989Y-81875706D01*
X180794500Y-81864500D01*
X182105461Y-81864500D01*
X182105462Y-81864500D01*
X182354285Y-81825090D01*
X182593879Y-81747241D01*
X182818345Y-81632870D01*
X183022156Y-81484793D01*
X183200293Y-81306656D01*
X183348370Y-81102845D01*
X183451783Y-80899884D01*
X183499756Y-80849090D01*
X183567577Y-80832295D01*
X183633712Y-80854832D01*
X183676828Y-80908729D01*
X183731150Y-81039876D01*
X183731156Y-81039888D01*
X183845888Y-81238611D01*
X183845892Y-81238617D01*
X183985581Y-81420661D01*
X183985589Y-81420670D01*
X184147830Y-81582911D01*
X184147838Y-81582918D01*
X184147839Y-81582919D01*
X184165203Y-81596243D01*
X184329882Y-81722607D01*
X184329885Y-81722608D01*
X184329888Y-81722611D01*
X184528612Y-81837344D01*
X184528617Y-81837346D01*
X184528623Y-81837349D01*
X184594172Y-81864500D01*
X184740613Y-81925158D01*
X184962262Y-81984548D01*
X185085685Y-82000797D01*
X185149582Y-82029063D01*
X185188053Y-82087388D01*
X185193500Y-82123736D01*
X185193500Y-83896241D01*
X185208872Y-84012993D01*
X185223452Y-84123738D01*
X185276040Y-84320000D01*
X185282842Y-84345387D01*
X185370650Y-84557376D01*
X185370656Y-84557388D01*
X185452680Y-84699459D01*
X185485392Y-84756117D01*
X185625081Y-84938161D01*
X185625089Y-84938170D01*
X185787330Y-85100411D01*
X185787338Y-85100418D01*
X185969382Y-85240107D01*
X185969385Y-85240108D01*
X185969388Y-85240111D01*
X186168112Y-85354844D01*
X186168117Y-85354846D01*
X186168123Y-85354849D01*
X186233672Y-85382000D01*
X186380113Y-85442658D01*
X186594966Y-85500227D01*
X186654623Y-85536590D01*
X186685153Y-85599436D01*
X186676859Y-85668812D01*
X186632374Y-85722690D01*
X186565822Y-85743965D01*
X186562870Y-85744000D01*
X186244029Y-85744000D01*
X186244012Y-85744001D01*
X186141302Y-85754494D01*
X185974880Y-85809641D01*
X185974875Y-85809643D01*
X185825654Y-85901684D01*
X185701684Y-86025654D01*
X185609643Y-86174875D01*
X185609641Y-86174880D01*
X185554494Y-86341302D01*
X185554493Y-86341309D01*
X185544000Y-86444013D01*
X185544000Y-86656500D01*
X188343999Y-86656500D01*
X188343999Y-86444028D01*
X188343998Y-86444013D01*
X188333505Y-86341302D01*
X188278358Y-86174880D01*
X188278356Y-86174875D01*
X188186315Y-86025654D01*
X188062345Y-85901684D01*
X187913124Y-85809643D01*
X187913119Y-85809641D01*
X187746697Y-85754494D01*
X187746690Y-85754493D01*
X187643986Y-85744000D01*
X187325131Y-85744000D01*
X187258092Y-85724315D01*
X187212337Y-85671511D01*
X187202393Y-85602353D01*
X187231418Y-85538797D01*
X187290196Y-85501023D01*
X187292962Y-85500246D01*
X187507887Y-85442658D01*
X187719888Y-85354844D01*
X187918612Y-85240111D01*
X188100661Y-85100419D01*
X188100665Y-85100414D01*
X188100670Y-85100411D01*
X188262911Y-84938170D01*
X188262914Y-84938165D01*
X188262919Y-84938161D01*
X188402611Y-84756112D01*
X188517344Y-84557388D01*
X188605158Y-84345387D01*
X188664548Y-84123738D01*
X188694500Y-83896234D01*
X188694500Y-82123736D01*
X188714185Y-82056697D01*
X188766989Y-82010942D01*
X188802313Y-82000797D01*
X188925738Y-81984548D01*
X189147387Y-81925158D01*
X189359388Y-81837344D01*
X189558112Y-81722611D01*
X189740161Y-81582919D01*
X189740165Y-81582914D01*
X189740170Y-81582911D01*
X189902411Y-81420670D01*
X189902414Y-81420665D01*
X189902419Y-81420661D01*
X190042111Y-81238612D01*
X190138614Y-81071462D01*
X190189180Y-81023248D01*
X190257787Y-81010025D01*
X190322652Y-81035993D01*
X190353385Y-81071461D01*
X190449889Y-81238612D01*
X190449892Y-81238617D01*
X190589581Y-81420661D01*
X190589589Y-81420670D01*
X190751830Y-81582911D01*
X190751838Y-81582918D01*
X190751839Y-81582919D01*
X190769203Y-81596243D01*
X190933882Y-81722607D01*
X190933885Y-81722608D01*
X190933888Y-81722611D01*
X191132612Y-81837344D01*
X191132617Y-81837346D01*
X191132623Y-81837349D01*
X191198172Y-81864500D01*
X191344613Y-81925158D01*
X191566262Y-81984548D01*
X191689685Y-82000797D01*
X191753582Y-82029063D01*
X191792053Y-82087388D01*
X191797500Y-82123736D01*
X191797500Y-83896241D01*
X191812872Y-84012993D01*
X191827452Y-84123738D01*
X191880040Y-84320000D01*
X191886842Y-84345387D01*
X191974650Y-84557376D01*
X191974656Y-84557388D01*
X192056680Y-84699459D01*
X192089392Y-84756117D01*
X192229081Y-84938161D01*
X192229089Y-84938170D01*
X192391330Y-85100411D01*
X192391338Y-85100418D01*
X192573382Y-85240107D01*
X192573385Y-85240108D01*
X192573388Y-85240111D01*
X192772112Y-85354844D01*
X192772117Y-85354846D01*
X192772123Y-85354849D01*
X192837672Y-85382000D01*
X192984113Y-85442658D01*
X193198966Y-85500227D01*
X193258623Y-85536590D01*
X193289153Y-85599436D01*
X193280859Y-85668812D01*
X193236374Y-85722690D01*
X193169822Y-85743965D01*
X193166870Y-85744000D01*
X192848029Y-85744000D01*
X192848012Y-85744001D01*
X192745302Y-85754494D01*
X192578880Y-85809641D01*
X192578875Y-85809643D01*
X192429654Y-85901684D01*
X192305684Y-86025654D01*
X192213643Y-86174875D01*
X192213641Y-86174880D01*
X192158494Y-86341302D01*
X192158493Y-86341309D01*
X192148000Y-86444013D01*
X192148000Y-86656500D01*
X194947999Y-86656500D01*
X194947999Y-86444028D01*
X194947998Y-86444013D01*
X194937505Y-86341302D01*
X194882358Y-86174880D01*
X194882356Y-86174875D01*
X194790315Y-86025654D01*
X194666345Y-85901684D01*
X194517124Y-85809643D01*
X194517119Y-85809641D01*
X194350697Y-85754494D01*
X194350690Y-85754493D01*
X194247986Y-85744000D01*
X193929131Y-85744000D01*
X193862092Y-85724315D01*
X193816337Y-85671511D01*
X193806393Y-85602353D01*
X193835418Y-85538797D01*
X193894196Y-85501023D01*
X193896962Y-85500246D01*
X194111887Y-85442658D01*
X194323888Y-85354844D01*
X194522612Y-85240111D01*
X194704661Y-85100419D01*
X194704665Y-85100414D01*
X194704670Y-85100411D01*
X194866911Y-84938170D01*
X194866914Y-84938165D01*
X194866919Y-84938161D01*
X195006611Y-84756112D01*
X195121344Y-84557388D01*
X195209158Y-84345387D01*
X195268548Y-84123738D01*
X195298500Y-83896234D01*
X195298500Y-82138500D01*
X195318185Y-82071461D01*
X195370989Y-82025706D01*
X195422500Y-82014500D01*
X195556227Y-82014500D01*
X195556234Y-82014500D01*
X195783738Y-81984548D01*
X196005387Y-81925158D01*
X196217388Y-81837344D01*
X196416112Y-81722611D01*
X196598161Y-81582919D01*
X196598165Y-81582914D01*
X196598170Y-81582911D01*
X196760411Y-81420670D01*
X196760414Y-81420665D01*
X196760419Y-81420661D01*
X196900111Y-81238612D01*
X196996614Y-81071462D01*
X197047179Y-81023250D01*
X197115786Y-81010026D01*
X197180650Y-81035994D01*
X197211386Y-81071464D01*
X197256865Y-81150234D01*
X197307890Y-81238612D01*
X197307892Y-81238615D01*
X197307896Y-81238621D01*
X197447577Y-81420658D01*
X197447579Y-81420660D01*
X197447580Y-81420661D01*
X197603182Y-81576262D01*
X197636666Y-81637583D01*
X197639500Y-81663942D01*
X197639500Y-83896241D01*
X197654872Y-84012993D01*
X197669452Y-84123738D01*
X197722040Y-84320000D01*
X197728842Y-84345387D01*
X197816650Y-84557376D01*
X197816656Y-84557388D01*
X197898680Y-84699459D01*
X197931392Y-84756117D01*
X198071081Y-84938161D01*
X198071089Y-84938170D01*
X198233330Y-85100411D01*
X198233338Y-85100418D01*
X198415382Y-85240107D01*
X198415385Y-85240108D01*
X198415388Y-85240111D01*
X198614112Y-85354844D01*
X198614117Y-85354846D01*
X198614123Y-85354849D01*
X198679672Y-85382000D01*
X198826113Y-85442658D01*
X199040966Y-85500227D01*
X199100623Y-85536590D01*
X199131153Y-85599436D01*
X199122859Y-85668812D01*
X199078374Y-85722690D01*
X199011822Y-85743965D01*
X199008870Y-85744000D01*
X198690029Y-85744000D01*
X198690012Y-85744001D01*
X198587302Y-85754494D01*
X198420880Y-85809641D01*
X198420875Y-85809643D01*
X198271654Y-85901684D01*
X198147684Y-86025654D01*
X198055643Y-86174875D01*
X198055641Y-86174880D01*
X198000494Y-86341302D01*
X198000493Y-86341309D01*
X197990000Y-86444013D01*
X197990000Y-86656500D01*
X200789999Y-86656500D01*
X200789999Y-86444028D01*
X200789998Y-86444013D01*
X200779505Y-86341302D01*
X200724358Y-86174880D01*
X200724356Y-86174875D01*
X200632315Y-86025654D01*
X200508345Y-85901684D01*
X200359124Y-85809643D01*
X200359119Y-85809641D01*
X200192697Y-85754494D01*
X200192690Y-85754493D01*
X200089986Y-85744000D01*
X199771131Y-85744000D01*
X199704092Y-85724315D01*
X199658337Y-85671511D01*
X199648393Y-85602353D01*
X199677418Y-85538797D01*
X199736196Y-85501023D01*
X199738962Y-85500246D01*
X199953887Y-85442658D01*
X200165888Y-85354844D01*
X200364612Y-85240111D01*
X200546661Y-85100419D01*
X200546665Y-85100414D01*
X200546670Y-85100411D01*
X200708911Y-84938170D01*
X200708914Y-84938165D01*
X200708919Y-84938161D01*
X200848611Y-84756112D01*
X200963344Y-84557388D01*
X201051158Y-84345387D01*
X201110548Y-84123738D01*
X201140500Y-83896234D01*
X201140500Y-80772766D01*
X201110548Y-80545262D01*
X201108766Y-80538615D01*
X201103104Y-80517477D01*
X201103098Y-80517461D01*
X201091589Y-80474508D01*
X201051158Y-80323613D01*
X200963344Y-80111612D01*
X200955746Y-80098452D01*
X200901614Y-80004692D01*
X200848611Y-79912887D01*
X200728319Y-79756121D01*
X200708919Y-79730839D01*
X200708918Y-79730838D01*
X200708911Y-79730830D01*
X200685819Y-79707738D01*
X200652334Y-79646415D01*
X200649500Y-79620057D01*
X200649500Y-74073952D01*
X200669185Y-74006913D01*
X200721989Y-73961158D01*
X200791147Y-73951214D01*
X200854703Y-73980239D01*
X200861181Y-73986271D01*
X206100763Y-79225855D01*
X206100767Y-79225858D01*
X206203208Y-79294308D01*
X206203212Y-79294310D01*
X206203215Y-79294312D01*
X206252043Y-79314537D01*
X206317048Y-79341463D01*
X206337097Y-79345451D01*
X206396514Y-79357269D01*
X206437892Y-79365501D01*
X206499020Y-79365501D01*
X206506516Y-79367702D01*
X206514227Y-79366437D01*
X206539566Y-79377406D01*
X206566059Y-79385186D01*
X206572799Y-79391793D01*
X206578346Y-79394195D01*
X206589521Y-79408186D01*
X206601984Y-79420404D01*
X206606129Y-79426581D01*
X206616949Y-79447816D01*
X206661895Y-79509680D01*
X206663189Y-79511608D01*
X206673029Y-79542814D01*
X206684023Y-79573628D01*
X206683480Y-79575959D01*
X206684201Y-79578244D01*
X206675607Y-79609817D01*
X206668197Y-79641682D01*
X206666229Y-79644271D01*
X206665851Y-79645661D01*
X206663698Y-79647602D01*
X206647906Y-79668386D01*
X203881673Y-82434620D01*
X201277270Y-85039023D01*
X201277267Y-85039026D01*
X201244736Y-85071557D01*
X201190142Y-85126150D01*
X201164218Y-85164948D01*
X201164215Y-85164952D01*
X201160509Y-85170500D01*
X201121688Y-85228598D01*
X201088347Y-85309091D01*
X201086239Y-85314179D01*
X201086238Y-85314182D01*
X201074537Y-85342429D01*
X201074535Y-85342437D01*
X201050500Y-85463273D01*
X201050500Y-89724638D01*
X201030815Y-89791677D01*
X201014181Y-89812319D01*
X200976538Y-89849961D01*
X200976535Y-89849965D01*
X200877990Y-89997446D01*
X200877983Y-89997459D01*
X200810106Y-90161332D01*
X200810103Y-90161341D01*
X200775500Y-90335304D01*
X200775500Y-90512695D01*
X200810103Y-90686658D01*
X200810106Y-90686667D01*
X200877983Y-90850540D01*
X200877990Y-90850553D01*
X200976535Y-90998034D01*
X200976538Y-90998038D01*
X201101961Y-91123461D01*
X201101965Y-91123464D01*
X201249446Y-91222009D01*
X201249459Y-91222016D01*
X201372363Y-91272923D01*
X201413334Y-91289894D01*
X201413336Y-91289894D01*
X201413341Y-91289896D01*
X201587304Y-91324499D01*
X201587307Y-91324500D01*
X201587309Y-91324500D01*
X201764693Y-91324500D01*
X201764694Y-91324499D01*
X201822682Y-91312964D01*
X201938658Y-91289896D01*
X201938661Y-91289894D01*
X201938666Y-91289894D01*
X202102547Y-91222013D01*
X202250035Y-91123464D01*
X202375464Y-90998035D01*
X202474013Y-90850547D01*
X202541894Y-90686666D01*
X202576500Y-90512691D01*
X202576500Y-90335309D01*
X202576500Y-90335306D01*
X202576499Y-90335304D01*
X202541896Y-90161341D01*
X202541893Y-90161332D01*
X202474016Y-89997459D01*
X202474009Y-89997446D01*
X202375464Y-89849965D01*
X202375461Y-89849961D01*
X202337819Y-89812319D01*
X202304334Y-89750996D01*
X202301500Y-89724638D01*
X202301500Y-85835335D01*
X202321185Y-85768296D01*
X202337814Y-85747659D01*
X206320986Y-81764486D01*
X206382307Y-81731003D01*
X206451999Y-81735987D01*
X206507932Y-81777859D01*
X206519150Y-81795874D01*
X206520442Y-81798411D01*
X206520443Y-81798412D01*
X206585023Y-81925157D01*
X206616951Y-81987820D01*
X206741890Y-82159786D01*
X206892213Y-82310109D01*
X207064182Y-82435050D01*
X207072946Y-82439516D01*
X207123742Y-82487491D01*
X207140536Y-82555312D01*
X207117998Y-82621447D01*
X207072946Y-82660484D01*
X207064182Y-82664949D01*
X206892213Y-82789890D01*
X206741890Y-82940213D01*
X206616951Y-83112179D01*
X206520444Y-83301585D01*
X206454753Y-83503760D01*
X206421500Y-83713713D01*
X206421500Y-83926286D01*
X206454753Y-84136239D01*
X206520444Y-84338414D01*
X206616951Y-84527820D01*
X206741890Y-84699786D01*
X206892213Y-84850109D01*
X207064182Y-84975050D01*
X207072946Y-84979516D01*
X207123742Y-85027491D01*
X207140536Y-85095312D01*
X207117998Y-85161447D01*
X207072946Y-85200484D01*
X207064182Y-85204949D01*
X206892213Y-85329890D01*
X206741890Y-85480213D01*
X206616951Y-85652179D01*
X206520444Y-85841585D01*
X206454753Y-86043760D01*
X206421500Y-86253713D01*
X206421500Y-86466286D01*
X206454753Y-86676239D01*
X206520444Y-86878414D01*
X206616951Y-87067820D01*
X206741890Y-87239786D01*
X206892213Y-87390109D01*
X207064182Y-87515050D01*
X207072946Y-87519516D01*
X207123742Y-87567491D01*
X207140536Y-87635312D01*
X207117998Y-87701447D01*
X207072946Y-87740484D01*
X207064182Y-87744949D01*
X206892213Y-87869890D01*
X206741890Y-88020213D01*
X206616951Y-88192179D01*
X206520444Y-88381585D01*
X206454753Y-88583760D01*
X206421500Y-88793713D01*
X206421500Y-89006286D01*
X206454753Y-89216239D01*
X206520444Y-89418414D01*
X206616951Y-89607820D01*
X206741890Y-89779786D01*
X206892213Y-89930109D01*
X207064182Y-90055050D01*
X207072946Y-90059516D01*
X207123742Y-90107491D01*
X207140536Y-90175312D01*
X207117998Y-90241447D01*
X207072946Y-90280484D01*
X207064182Y-90284949D01*
X206892213Y-90409890D01*
X206741890Y-90560213D01*
X206616951Y-90732179D01*
X206520444Y-90921585D01*
X206454753Y-91123760D01*
X206421500Y-91333713D01*
X206421500Y-91546286D01*
X206454753Y-91756239D01*
X206520444Y-91958414D01*
X206616951Y-92147820D01*
X206741890Y-92319786D01*
X206892213Y-92470109D01*
X207064182Y-92595050D01*
X207072946Y-92599516D01*
X207123742Y-92647491D01*
X207140536Y-92715312D01*
X207117998Y-92781447D01*
X207072946Y-92820484D01*
X207064182Y-92824949D01*
X206892213Y-92949890D01*
X206741890Y-93100213D01*
X206616951Y-93272179D01*
X206520444Y-93461585D01*
X206454753Y-93663760D01*
X206421500Y-93873713D01*
X206421500Y-94086286D01*
X206454753Y-94296239D01*
X206520444Y-94498414D01*
X206616951Y-94687820D01*
X206741890Y-94859786D01*
X206892213Y-95010109D01*
X207064182Y-95135050D01*
X207072946Y-95139516D01*
X207123742Y-95187491D01*
X207140536Y-95255312D01*
X207117998Y-95321447D01*
X207072946Y-95360484D01*
X207064182Y-95364949D01*
X206892213Y-95489890D01*
X206741890Y-95640213D01*
X206616950Y-95812180D01*
X206609503Y-95826797D01*
X206561527Y-95877592D01*
X206499019Y-95894500D01*
X192588453Y-95894500D01*
X192521414Y-95874815D01*
X192500772Y-95858181D01*
X192168733Y-95526143D01*
X185321300Y-88678710D01*
X185287815Y-88617387D01*
X185287364Y-88566837D01*
X185304500Y-88480693D01*
X185304500Y-88303306D01*
X185304499Y-88303304D01*
X185269896Y-88129341D01*
X185269893Y-88129332D01*
X185202016Y-87965459D01*
X185202009Y-87965446D01*
X185103464Y-87817965D01*
X185103461Y-87817961D01*
X184978038Y-87692538D01*
X184978034Y-87692535D01*
X184830553Y-87593990D01*
X184830540Y-87593983D01*
X184666667Y-87526106D01*
X184666658Y-87526103D01*
X184492694Y-87491500D01*
X184492691Y-87491500D01*
X184315309Y-87491500D01*
X184315306Y-87491500D01*
X184141341Y-87526103D01*
X184141332Y-87526106D01*
X183977459Y-87593983D01*
X183977446Y-87593990D01*
X183829965Y-87692535D01*
X183773597Y-87748902D01*
X183712273Y-87782386D01*
X183656866Y-87780161D01*
X183656641Y-87781294D01*
X183476694Y-87745500D01*
X183476691Y-87745500D01*
X183299309Y-87745500D01*
X183299306Y-87745500D01*
X183125341Y-87780103D01*
X183125332Y-87780106D01*
X182961459Y-87847983D01*
X182961446Y-87847990D01*
X182813965Y-87946535D01*
X182813961Y-87946538D01*
X182688538Y-88071961D01*
X182688535Y-88071965D01*
X182589990Y-88219446D01*
X182589983Y-88219459D01*
X182522106Y-88383332D01*
X182522103Y-88383341D01*
X182487500Y-88557304D01*
X182487500Y-88734695D01*
X182522103Y-88908658D01*
X182522106Y-88908667D01*
X182589983Y-89072540D01*
X182589990Y-89072553D01*
X182688535Y-89220034D01*
X182688538Y-89220038D01*
X182813961Y-89345461D01*
X182813965Y-89345464D01*
X182961446Y-89444009D01*
X182961459Y-89444016D01*
X183084363Y-89494923D01*
X183125334Y-89511894D01*
X183125336Y-89511894D01*
X183125341Y-89511896D01*
X183299304Y-89546499D01*
X183299307Y-89546500D01*
X183299309Y-89546500D01*
X183352548Y-89546500D01*
X183419587Y-89566185D01*
X183440229Y-89582819D01*
X193316139Y-99458729D01*
X193316142Y-99458733D01*
X193403267Y-99545858D01*
X193454490Y-99580084D01*
X193505714Y-99614312D01*
X193505715Y-99614312D01*
X193505716Y-99614313D01*
X193579390Y-99644829D01*
X193579394Y-99644830D01*
X193586207Y-99647652D01*
X193619548Y-99661463D01*
X193679971Y-99673481D01*
X193740393Y-99685500D01*
X193740394Y-99685500D01*
X206499019Y-99685500D01*
X206566058Y-99705185D01*
X206609503Y-99753203D01*
X206616950Y-99767819D01*
X206741890Y-99939786D01*
X206892213Y-100090109D01*
X207064182Y-100215050D01*
X207072946Y-100219516D01*
X207123742Y-100267491D01*
X207140536Y-100335312D01*
X207117998Y-100401447D01*
X207072946Y-100440484D01*
X207064182Y-100444949D01*
X206892213Y-100569890D01*
X206741890Y-100720213D01*
X206616951Y-100892179D01*
X206520444Y-101081585D01*
X206454753Y-101283760D01*
X206421500Y-101493713D01*
X206421500Y-101706286D01*
X206454753Y-101916239D01*
X206520444Y-102118414D01*
X206616951Y-102307820D01*
X206741890Y-102479786D01*
X206892213Y-102630109D01*
X207064179Y-102755048D01*
X207064181Y-102755049D01*
X207064184Y-102755051D01*
X207073493Y-102759794D01*
X207124290Y-102807766D01*
X207141087Y-102875587D01*
X207118552Y-102941722D01*
X207073502Y-102980762D01*
X207064443Y-102985378D01*
X206892540Y-103110272D01*
X206892535Y-103110276D01*
X206742276Y-103260535D01*
X206742272Y-103260540D01*
X206617379Y-103432442D01*
X206520904Y-103621782D01*
X206455242Y-103823870D01*
X206455242Y-103823873D01*
X206444769Y-103890000D01*
X207338988Y-103890000D01*
X207306075Y-103947007D01*
X207272000Y-104074174D01*
X207272000Y-104205826D01*
X207306075Y-104332993D01*
X207338988Y-104390000D01*
X206444769Y-104390000D01*
X206455242Y-104456126D01*
X206455242Y-104456129D01*
X206520904Y-104658217D01*
X206617379Y-104847557D01*
X206742272Y-105019459D01*
X206742276Y-105019464D01*
X206892535Y-105169723D01*
X206892540Y-105169727D01*
X207064442Y-105294620D01*
X207253782Y-105391095D01*
X207455871Y-105456757D01*
X207522000Y-105467231D01*
X207522000Y-104573012D01*
X207579007Y-104605925D01*
X207706174Y-104640000D01*
X207837826Y-104640000D01*
X207964993Y-104605925D01*
X208022000Y-104573012D01*
X208022000Y-105467230D01*
X208088126Y-105456757D01*
X208088129Y-105456757D01*
X208290217Y-105391095D01*
X208479557Y-105294620D01*
X208651459Y-105169727D01*
X208651464Y-105169723D01*
X208801723Y-105019464D01*
X208801727Y-105019459D01*
X208926620Y-104847558D01*
X208931514Y-104837954D01*
X208979488Y-104787157D01*
X209047308Y-104770361D01*
X209113444Y-104792897D01*
X209152486Y-104837954D01*
X209157379Y-104847558D01*
X209282272Y-105019459D01*
X209282276Y-105019464D01*
X209432535Y-105169723D01*
X209432540Y-105169727D01*
X209604442Y-105294620D01*
X209793782Y-105391095D01*
X209995871Y-105456757D01*
X210062000Y-105467231D01*
X210062000Y-104573012D01*
X210119007Y-104605925D01*
X210246174Y-104640000D01*
X210377826Y-104640000D01*
X210504993Y-104605925D01*
X210562000Y-104573012D01*
X210562000Y-105467230D01*
X210628126Y-105456757D01*
X210628129Y-105456757D01*
X210830217Y-105391095D01*
X211019557Y-105294620D01*
X211191459Y-105169727D01*
X211191464Y-105169723D01*
X211341723Y-105019464D01*
X211341727Y-105019459D01*
X211466620Y-104847557D01*
X211563095Y-104658217D01*
X211628757Y-104456129D01*
X211628757Y-104456126D01*
X211639231Y-104390000D01*
X210745012Y-104390000D01*
X210777925Y-104332993D01*
X210812000Y-104205826D01*
X210812000Y-104074174D01*
X210777925Y-103947007D01*
X210745012Y-103890000D01*
X211639231Y-103890000D01*
X211628757Y-103823873D01*
X211628757Y-103823870D01*
X211563095Y-103621782D01*
X211466620Y-103432442D01*
X211341727Y-103260540D01*
X211341723Y-103260535D01*
X211191464Y-103110276D01*
X211191459Y-103110272D01*
X211019558Y-102985379D01*
X211009954Y-102980486D01*
X210959157Y-102932512D01*
X210942361Y-102864692D01*
X210964897Y-102798556D01*
X211009954Y-102759514D01*
X211019558Y-102754620D01*
X211191459Y-102629727D01*
X211191464Y-102629723D01*
X211341723Y-102479464D01*
X211341727Y-102479459D01*
X211466620Y-102307557D01*
X211563095Y-102118217D01*
X211628757Y-101916129D01*
X211628757Y-101916126D01*
X211639231Y-101850000D01*
X210745012Y-101850000D01*
X210777925Y-101792993D01*
X210812000Y-101665826D01*
X210812000Y-101534174D01*
X210780933Y-101418234D01*
X212200000Y-101418234D01*
X212200000Y-101781765D01*
X212235632Y-102143556D01*
X212306550Y-102500090D01*
X212306553Y-102500101D01*
X212412086Y-102847997D01*
X212551207Y-103183864D01*
X212551209Y-103183869D01*
X212722570Y-103504462D01*
X212722581Y-103504480D01*
X212924551Y-103806750D01*
X213111678Y-104034765D01*
X213111679Y-104034766D01*
X214605747Y-102540697D01*
X214679588Y-102642330D01*
X214857670Y-102820412D01*
X214959301Y-102894251D01*
X213465232Y-104388319D01*
X213465233Y-104388320D01*
X213693249Y-104575448D01*
X213995519Y-104777418D01*
X213995537Y-104777429D01*
X214316130Y-104948790D01*
X214316135Y-104948792D01*
X214652002Y-105087913D01*
X214999898Y-105193446D01*
X214999909Y-105193449D01*
X215356443Y-105264367D01*
X215718234Y-105300000D01*
X216081766Y-105300000D01*
X216443556Y-105264367D01*
X216800090Y-105193449D01*
X216800101Y-105193446D01*
X217147997Y-105087913D01*
X217483864Y-104948792D01*
X217483869Y-104948790D01*
X217804462Y-104777429D01*
X217804480Y-104777418D01*
X218106736Y-104575457D01*
X218106750Y-104575447D01*
X218334765Y-104388320D01*
X218334766Y-104388319D01*
X216840698Y-102894251D01*
X216942330Y-102820412D01*
X217120412Y-102642330D01*
X217194251Y-102540698D01*
X218688319Y-104034766D01*
X218688320Y-104034765D01*
X218875447Y-103806750D01*
X218875457Y-103806736D01*
X219077418Y-103504480D01*
X219077429Y-103504462D01*
X219248790Y-103183869D01*
X219248792Y-103183864D01*
X219387913Y-102847997D01*
X219493446Y-102500101D01*
X219493449Y-102500090D01*
X219564367Y-102143556D01*
X219600000Y-101781765D01*
X219600000Y-101418234D01*
X219564367Y-101056443D01*
X219493449Y-100699909D01*
X219493446Y-100699898D01*
X219387913Y-100352002D01*
X219248792Y-100016135D01*
X219248790Y-100016130D01*
X219077429Y-99695537D01*
X219077418Y-99695519D01*
X218875448Y-99393249D01*
X218688320Y-99165233D01*
X218688319Y-99165232D01*
X217194251Y-100659300D01*
X217120412Y-100557670D01*
X216942330Y-100379588D01*
X216840698Y-100305748D01*
X218334766Y-98811679D01*
X218334765Y-98811678D01*
X218106750Y-98624551D01*
X217804480Y-98422581D01*
X217804462Y-98422570D01*
X217483869Y-98251209D01*
X217483864Y-98251207D01*
X217147997Y-98112086D01*
X216800101Y-98006553D01*
X216800090Y-98006550D01*
X216443556Y-97935632D01*
X216081766Y-97900000D01*
X215718234Y-97900000D01*
X215356443Y-97935632D01*
X214999909Y-98006550D01*
X214999898Y-98006553D01*
X214652002Y-98112086D01*
X214316135Y-98251207D01*
X214316130Y-98251209D01*
X213995537Y-98422570D01*
X213995519Y-98422581D01*
X213693258Y-98624545D01*
X213693254Y-98624548D01*
X213465233Y-98811679D01*
X213465233Y-98811680D01*
X214959301Y-100305748D01*
X214857670Y-100379588D01*
X214679588Y-100557670D01*
X214605748Y-100659301D01*
X213111680Y-99165233D01*
X213111679Y-99165233D01*
X212924548Y-99393254D01*
X212924545Y-99393258D01*
X212722581Y-99695519D01*
X212722570Y-99695537D01*
X212551209Y-100016130D01*
X212551207Y-100016135D01*
X212412086Y-100352002D01*
X212306553Y-100699898D01*
X212306550Y-100699909D01*
X212235632Y-101056443D01*
X212200000Y-101418234D01*
X210780933Y-101418234D01*
X210777925Y-101407007D01*
X210745012Y-101350000D01*
X211639231Y-101350000D01*
X211639231Y-101349999D01*
X211628757Y-101283873D01*
X211628757Y-101283870D01*
X211563095Y-101081782D01*
X211466620Y-100892442D01*
X211341727Y-100720540D01*
X211341723Y-100720535D01*
X211191464Y-100570276D01*
X211191459Y-100570272D01*
X211019558Y-100445379D01*
X211009954Y-100440486D01*
X210959157Y-100392512D01*
X210942361Y-100324692D01*
X210964897Y-100258556D01*
X211009954Y-100219514D01*
X211019558Y-100214620D01*
X211191459Y-100089727D01*
X211191464Y-100089723D01*
X211341723Y-99939464D01*
X211341727Y-99939459D01*
X211466620Y-99767557D01*
X211563095Y-99578217D01*
X211628757Y-99376129D01*
X211628757Y-99376126D01*
X211639231Y-99310000D01*
X210745012Y-99310000D01*
X210777925Y-99252993D01*
X210812000Y-99125826D01*
X210812000Y-98994174D01*
X210777925Y-98867007D01*
X210745012Y-98810000D01*
X211639231Y-98810000D01*
X211628757Y-98743873D01*
X211628757Y-98743870D01*
X211563095Y-98541782D01*
X211466620Y-98352442D01*
X211341727Y-98180540D01*
X211341723Y-98180535D01*
X211191464Y-98030276D01*
X211191459Y-98030272D01*
X211019558Y-97905379D01*
X211009954Y-97900486D01*
X210959157Y-97852512D01*
X210942361Y-97784692D01*
X210964897Y-97718556D01*
X211009954Y-97679514D01*
X211019558Y-97674620D01*
X211191459Y-97549727D01*
X211191464Y-97549723D01*
X211341723Y-97399464D01*
X211341727Y-97399459D01*
X211466620Y-97227557D01*
X211563095Y-97038217D01*
X211628757Y-96836129D01*
X211628757Y-96836126D01*
X211639231Y-96770000D01*
X210745012Y-96770000D01*
X210777925Y-96712993D01*
X210812000Y-96585826D01*
X210812000Y-96454174D01*
X210777925Y-96327007D01*
X210745012Y-96270000D01*
X211639231Y-96270000D01*
X211628757Y-96203873D01*
X211628757Y-96203870D01*
X211563095Y-96001782D01*
X211466620Y-95812442D01*
X211341727Y-95640540D01*
X211341723Y-95640535D01*
X211191464Y-95490276D01*
X211191459Y-95490272D01*
X211019555Y-95365377D01*
X211010500Y-95360763D01*
X210959706Y-95312788D01*
X210942912Y-95244966D01*
X210965451Y-95178832D01*
X211010508Y-95139793D01*
X211019816Y-95135051D01*
X211099007Y-95077515D01*
X211191786Y-95010109D01*
X211191788Y-95010106D01*
X211191792Y-95010104D01*
X211342104Y-94859792D01*
X211342106Y-94859788D01*
X211342109Y-94859786D01*
X211467048Y-94687820D01*
X211467047Y-94687820D01*
X211467051Y-94687816D01*
X211563557Y-94498412D01*
X211629246Y-94296243D01*
X211662500Y-94086287D01*
X211662500Y-93873713D01*
X211629246Y-93663757D01*
X211563557Y-93461588D01*
X211467051Y-93272184D01*
X211467049Y-93272181D01*
X211467048Y-93272179D01*
X211342109Y-93100213D01*
X211191786Y-92949890D01*
X211019820Y-92824951D01*
X211019115Y-92824591D01*
X211011054Y-92820485D01*
X210960259Y-92772512D01*
X210943463Y-92704692D01*
X210965999Y-92638556D01*
X211011054Y-92599515D01*
X211019816Y-92595051D01*
X211041789Y-92579086D01*
X211191786Y-92470109D01*
X211191788Y-92470106D01*
X211191792Y-92470104D01*
X211342104Y-92319792D01*
X211342106Y-92319788D01*
X211342109Y-92319786D01*
X211467048Y-92147820D01*
X211467047Y-92147820D01*
X211467051Y-92147816D01*
X211563557Y-91958412D01*
X211629246Y-91756243D01*
X211662500Y-91546287D01*
X211662500Y-91333713D01*
X211629246Y-91123757D01*
X211563557Y-90921588D01*
X211467051Y-90732184D01*
X211467049Y-90732181D01*
X211467048Y-90732179D01*
X211342109Y-90560213D01*
X211191786Y-90409890D01*
X211019817Y-90284949D01*
X211010504Y-90280204D01*
X210959707Y-90232230D01*
X210942912Y-90164409D01*
X210965449Y-90098274D01*
X211010507Y-90059232D01*
X211019558Y-90054620D01*
X211191459Y-89929727D01*
X211191464Y-89929723D01*
X211341723Y-89779464D01*
X211341727Y-89779459D01*
X211466620Y-89607557D01*
X211563095Y-89418217D01*
X211628757Y-89216129D01*
X211628757Y-89216126D01*
X211639231Y-89150000D01*
X210745012Y-89150000D01*
X210777925Y-89092993D01*
X210812000Y-88965826D01*
X210812000Y-88834174D01*
X210777925Y-88707007D01*
X210745012Y-88650000D01*
X211639231Y-88650000D01*
X211628757Y-88583873D01*
X211628757Y-88583870D01*
X211563095Y-88381782D01*
X211466620Y-88192442D01*
X211341727Y-88020540D01*
X211341723Y-88020535D01*
X211191464Y-87870276D01*
X211191459Y-87870272D01*
X211019558Y-87745379D01*
X211009954Y-87740486D01*
X210959157Y-87692512D01*
X210942361Y-87624692D01*
X210964897Y-87558556D01*
X211009954Y-87519514D01*
X211019558Y-87514620D01*
X211191459Y-87389727D01*
X211191464Y-87389723D01*
X211341723Y-87239464D01*
X211341727Y-87239459D01*
X211466620Y-87067557D01*
X211563095Y-86878217D01*
X211628757Y-86676129D01*
X211628757Y-86676126D01*
X211639231Y-86610000D01*
X210745012Y-86610000D01*
X210777925Y-86552993D01*
X210812000Y-86425826D01*
X210812000Y-86294174D01*
X210777925Y-86167007D01*
X210745012Y-86110000D01*
X211639231Y-86110000D01*
X211628757Y-86043873D01*
X211628757Y-86043870D01*
X211563095Y-85841782D01*
X211466620Y-85652442D01*
X211341727Y-85480540D01*
X211341723Y-85480535D01*
X211191464Y-85330276D01*
X211191459Y-85330272D01*
X211019558Y-85205379D01*
X211009954Y-85200486D01*
X210959157Y-85152512D01*
X210942361Y-85084692D01*
X210964897Y-85018556D01*
X211009954Y-84979514D01*
X211019558Y-84974620D01*
X211191459Y-84849727D01*
X211191464Y-84849723D01*
X211341723Y-84699464D01*
X211341727Y-84699459D01*
X211466620Y-84527557D01*
X211563095Y-84338217D01*
X211628757Y-84136129D01*
X211628757Y-84136126D01*
X211639231Y-84070000D01*
X210745012Y-84070000D01*
X210777925Y-84012993D01*
X210812000Y-83885826D01*
X210812000Y-83754174D01*
X210777925Y-83627007D01*
X210745012Y-83570000D01*
X211639231Y-83570000D01*
X211628757Y-83503873D01*
X211628757Y-83503870D01*
X211563095Y-83301782D01*
X211466620Y-83112442D01*
X211341727Y-82940540D01*
X211341723Y-82940535D01*
X211191464Y-82790276D01*
X211191459Y-82790272D01*
X211019558Y-82665379D01*
X211009954Y-82660486D01*
X210959157Y-82612512D01*
X210942361Y-82544692D01*
X210964897Y-82478556D01*
X211009954Y-82439514D01*
X211019558Y-82434620D01*
X211191459Y-82309727D01*
X211191464Y-82309723D01*
X211341723Y-82159464D01*
X211341727Y-82159459D01*
X211466620Y-81987557D01*
X211563095Y-81798217D01*
X211628757Y-81596129D01*
X211628757Y-81596126D01*
X211639231Y-81530000D01*
X210745012Y-81530000D01*
X210777925Y-81472993D01*
X210812000Y-81345826D01*
X210812000Y-81214174D01*
X210777925Y-81087007D01*
X210745012Y-81030000D01*
X211639231Y-81030000D01*
X211628757Y-80963873D01*
X211628757Y-80963870D01*
X211563095Y-80761782D01*
X211466620Y-80572442D01*
X211341727Y-80400540D01*
X211341723Y-80400535D01*
X211191464Y-80250276D01*
X211191459Y-80250272D01*
X211019558Y-80125379D01*
X211009954Y-80120486D01*
X210959157Y-80072512D01*
X210942361Y-80004692D01*
X210964897Y-79938556D01*
X211009954Y-79899514D01*
X211019558Y-79894620D01*
X211191459Y-79769727D01*
X211191464Y-79769723D01*
X211341723Y-79619464D01*
X211341727Y-79619459D01*
X211466620Y-79447557D01*
X211563095Y-79258217D01*
X211628757Y-79056129D01*
X211628757Y-79056126D01*
X211639231Y-78990000D01*
X210745012Y-78990000D01*
X210777925Y-78932993D01*
X210812000Y-78805826D01*
X210812000Y-78674174D01*
X210777925Y-78547007D01*
X210745012Y-78490000D01*
X211639231Y-78490000D01*
X211628757Y-78423873D01*
X211628757Y-78423870D01*
X211563095Y-78221782D01*
X211466620Y-78032442D01*
X211341727Y-77860540D01*
X211341723Y-77860535D01*
X211191464Y-77710276D01*
X211191459Y-77710272D01*
X211019555Y-77585377D01*
X211010500Y-77580763D01*
X210959706Y-77532788D01*
X210942912Y-77464966D01*
X210965451Y-77398832D01*
X211010508Y-77359793D01*
X211019816Y-77355051D01*
X211099103Y-77297446D01*
X211191786Y-77230109D01*
X211191788Y-77230106D01*
X211191792Y-77230104D01*
X211342104Y-77079792D01*
X211342106Y-77079788D01*
X211342109Y-77079786D01*
X211467048Y-76907820D01*
X211467047Y-76907820D01*
X211467051Y-76907816D01*
X211563557Y-76718412D01*
X211629246Y-76516243D01*
X211662500Y-76306287D01*
X211662500Y-76093713D01*
X211629246Y-75883757D01*
X211563557Y-75681588D01*
X211467051Y-75492184D01*
X211467049Y-75492181D01*
X211467048Y-75492179D01*
X211342109Y-75320213D01*
X211191786Y-75169890D01*
X211019820Y-75044951D01*
X211019115Y-75044591D01*
X211011054Y-75040485D01*
X210960259Y-74992512D01*
X210943463Y-74924692D01*
X210965999Y-74858556D01*
X211011054Y-74819515D01*
X211019816Y-74815051D01*
X211047439Y-74794982D01*
X211191786Y-74690109D01*
X211191788Y-74690106D01*
X211191792Y-74690104D01*
X211342104Y-74539792D01*
X211342106Y-74539788D01*
X211342109Y-74539786D01*
X211467048Y-74367820D01*
X211467047Y-74367820D01*
X211467051Y-74367816D01*
X211563557Y-74178412D01*
X211629246Y-73976243D01*
X211662500Y-73766287D01*
X211662500Y-73553713D01*
X211629246Y-73343757D01*
X211563557Y-73141588D01*
X211467051Y-72952184D01*
X211467049Y-72952181D01*
X211467048Y-72952179D01*
X211342109Y-72780213D01*
X211191786Y-72629890D01*
X211019820Y-72504951D01*
X211019115Y-72504591D01*
X211011054Y-72500485D01*
X210960259Y-72452512D01*
X210943463Y-72384692D01*
X210965999Y-72318556D01*
X211011054Y-72279515D01*
X211019816Y-72275051D01*
X211057635Y-72247574D01*
X211191786Y-72150109D01*
X211191788Y-72150106D01*
X211191792Y-72150104D01*
X211342104Y-71999792D01*
X211342106Y-71999788D01*
X211342109Y-71999786D01*
X211467048Y-71827820D01*
X211467047Y-71827820D01*
X211467051Y-71827816D01*
X211563557Y-71638412D01*
X211629246Y-71436243D01*
X211662500Y-71226287D01*
X211662500Y-71013713D01*
X211629246Y-70803757D01*
X211563557Y-70601588D01*
X211467051Y-70412184D01*
X211467049Y-70412181D01*
X211467048Y-70412179D01*
X211342109Y-70240213D01*
X211191786Y-70089890D01*
X211019820Y-69964951D01*
X211019115Y-69964591D01*
X211011054Y-69960485D01*
X210960259Y-69912512D01*
X210943463Y-69844692D01*
X210965999Y-69778556D01*
X211011054Y-69739515D01*
X211019816Y-69735051D01*
X211074181Y-69695553D01*
X211191786Y-69610109D01*
X211191788Y-69610106D01*
X211191792Y-69610104D01*
X211342104Y-69459792D01*
X211342106Y-69459788D01*
X211342109Y-69459786D01*
X211467048Y-69287820D01*
X211467050Y-69287817D01*
X211467051Y-69287816D01*
X211563557Y-69098412D01*
X211629246Y-68896243D01*
X211662500Y-68686287D01*
X211662500Y-68473713D01*
X211629246Y-68263757D01*
X211563557Y-68061588D01*
X211467051Y-67872184D01*
X211467049Y-67872181D01*
X211467048Y-67872179D01*
X211342109Y-67700213D01*
X211191786Y-67549890D01*
X211019820Y-67424951D01*
X211011600Y-67420763D01*
X211011054Y-67420485D01*
X210960259Y-67372512D01*
X210943463Y-67304692D01*
X210965999Y-67238556D01*
X211011054Y-67199515D01*
X211019816Y-67195051D01*
X211089126Y-67144695D01*
X211191786Y-67070109D01*
X211191788Y-67070106D01*
X211191792Y-67070104D01*
X211342104Y-66919792D01*
X211342106Y-66919788D01*
X211342109Y-66919786D01*
X211467048Y-66747820D01*
X211467047Y-66747820D01*
X211467051Y-66747816D01*
X211563557Y-66558412D01*
X211629246Y-66356243D01*
X211662500Y-66146287D01*
X211662500Y-65933713D01*
X211629246Y-65723757D01*
X211563557Y-65521588D01*
X211467051Y-65332184D01*
X211467049Y-65332181D01*
X211467048Y-65332179D01*
X211342109Y-65160213D01*
X211191786Y-65009890D01*
X211019820Y-64884951D01*
X211019115Y-64884591D01*
X211011054Y-64880485D01*
X210960259Y-64832512D01*
X210943463Y-64764692D01*
X210965999Y-64698556D01*
X211011054Y-64659515D01*
X211019816Y-64655051D01*
X211121402Y-64581245D01*
X211191786Y-64530109D01*
X211191788Y-64530106D01*
X211191792Y-64530104D01*
X211342104Y-64379792D01*
X211342106Y-64379788D01*
X211342109Y-64379786D01*
X211467048Y-64207820D01*
X211467047Y-64207820D01*
X211467051Y-64207816D01*
X211563557Y-64018412D01*
X211629246Y-63816243D01*
X211662500Y-63606287D01*
X211662500Y-63393713D01*
X211629246Y-63183757D01*
X211563557Y-62981588D01*
X211467051Y-62792184D01*
X211467049Y-62792181D01*
X211467048Y-62792179D01*
X211342109Y-62620213D01*
X211191786Y-62469890D01*
X211019817Y-62344949D01*
X211010504Y-62340204D01*
X210959707Y-62292230D01*
X210942912Y-62224409D01*
X210965449Y-62158274D01*
X211010507Y-62119232D01*
X211019558Y-62114620D01*
X211191459Y-61989727D01*
X211191464Y-61989723D01*
X211341723Y-61839464D01*
X211341727Y-61839459D01*
X211466620Y-61667557D01*
X211563095Y-61478217D01*
X211628756Y-61276132D01*
X211631872Y-61256458D01*
X211661799Y-61193323D01*
X211721109Y-61156389D01*
X211790972Y-61157385D01*
X211842027Y-61188171D01*
X213496181Y-62842325D01*
X213529666Y-62903648D01*
X213532500Y-62930006D01*
X213532500Y-64393884D01*
X213512815Y-64460923D01*
X213460011Y-64506678D01*
X213451834Y-64510066D01*
X213365669Y-64542203D01*
X213365664Y-64542206D01*
X213250455Y-64628452D01*
X213250452Y-64628455D01*
X213164206Y-64743664D01*
X213164202Y-64743671D01*
X213113908Y-64878517D01*
X213107501Y-64938116D01*
X213107500Y-64938135D01*
X213107500Y-66633870D01*
X213107501Y-66633876D01*
X213113908Y-66693483D01*
X213164202Y-66828328D01*
X213164206Y-66828335D01*
X213250452Y-66943544D01*
X213250455Y-66943547D01*
X213365664Y-67029793D01*
X213365671Y-67029797D01*
X213500517Y-67080091D01*
X213500516Y-67080091D01*
X213507444Y-67080835D01*
X213560127Y-67086500D01*
X215255872Y-67086499D01*
X215315483Y-67080091D01*
X215450331Y-67029796D01*
X215565546Y-66943546D01*
X215572230Y-66934616D01*
X215628159Y-66892746D01*
X215697851Y-66887759D01*
X215727792Y-66898441D01*
X215908968Y-66990755D01*
X216103582Y-67053990D01*
X216305683Y-67086000D01*
X216510317Y-67086000D01*
X216712417Y-67053990D01*
X216907031Y-66990755D01*
X217089349Y-66897859D01*
X217133921Y-66865474D01*
X216454447Y-66186000D01*
X216460661Y-66186000D01*
X216562394Y-66158741D01*
X216653606Y-66106080D01*
X216728080Y-66031606D01*
X216780741Y-65940394D01*
X216808000Y-65838661D01*
X216808000Y-65832447D01*
X217487474Y-66511921D01*
X217519859Y-66467349D01*
X217612755Y-66285031D01*
X217675990Y-66090417D01*
X217708000Y-65888317D01*
X217708000Y-65683682D01*
X217675990Y-65481582D01*
X217612755Y-65286968D01*
X217519859Y-65104650D01*
X217487474Y-65060077D01*
X217487474Y-65060076D01*
X216808000Y-65739551D01*
X216808000Y-65733339D01*
X216780741Y-65631606D01*
X216728080Y-65540394D01*
X216653606Y-65465920D01*
X216562394Y-65413259D01*
X216460661Y-65386000D01*
X216454446Y-65386000D01*
X217133922Y-64706524D01*
X217133921Y-64706523D01*
X217089359Y-64674147D01*
X217089350Y-64674141D01*
X216907031Y-64581244D01*
X216712417Y-64518009D01*
X216510317Y-64486000D01*
X216305683Y-64486000D01*
X216103582Y-64518009D01*
X215908965Y-64581245D01*
X215727791Y-64673558D01*
X215659122Y-64686454D01*
X215594382Y-64660177D01*
X215572234Y-64637388D01*
X215565546Y-64628454D01*
X215565542Y-64628451D01*
X215450335Y-64542206D01*
X215450330Y-64542203D01*
X215364166Y-64510066D01*
X215308233Y-64468194D01*
X215283816Y-64402730D01*
X215283500Y-64393884D01*
X215283500Y-62429768D01*
X215283499Y-62429766D01*
X215265684Y-62340204D01*
X215249855Y-62260626D01*
X215248379Y-62257064D01*
X215248162Y-62255049D01*
X215248087Y-62254799D01*
X215248134Y-62254784D01*
X215240907Y-62187599D01*
X215272177Y-62125117D01*
X215332264Y-62089461D01*
X215375092Y-62086204D01*
X215718234Y-62120000D01*
X216081766Y-62120000D01*
X216443556Y-62084367D01*
X216800090Y-62013449D01*
X216800101Y-62013446D01*
X217147997Y-61907913D01*
X217483864Y-61768792D01*
X217483869Y-61768790D01*
X217804462Y-61597429D01*
X217804480Y-61597418D01*
X218106736Y-61395457D01*
X218106750Y-61395447D01*
X218334765Y-61208320D01*
X218334766Y-61208319D01*
X216840698Y-59714251D01*
X216942330Y-59640412D01*
X217120412Y-59462330D01*
X217194251Y-59360698D01*
X218688319Y-60854766D01*
X218688320Y-60854765D01*
X218875447Y-60626750D01*
X218875457Y-60626736D01*
X219077418Y-60324480D01*
X219077429Y-60324462D01*
X219248790Y-60003869D01*
X219248792Y-60003864D01*
X219387913Y-59667997D01*
X219493446Y-59320101D01*
X219493449Y-59320090D01*
X219564367Y-58963556D01*
X219600000Y-58601765D01*
X219600000Y-58238234D01*
X219564367Y-57876443D01*
X219493449Y-57519909D01*
X219493446Y-57519898D01*
X219387913Y-57172002D01*
X219248792Y-56836135D01*
X219248790Y-56836130D01*
X219077429Y-56515537D01*
X219077418Y-56515519D01*
X218875448Y-56213249D01*
X218688320Y-55985233D01*
X218688319Y-55985232D01*
X217194251Y-57479300D01*
X217120412Y-57377670D01*
X216942330Y-57199588D01*
X216840698Y-57125748D01*
X218334766Y-55631679D01*
X218334765Y-55631678D01*
X218106750Y-55444551D01*
X217804480Y-55242581D01*
X217804462Y-55242570D01*
X217483869Y-55071209D01*
X217483864Y-55071207D01*
X217147997Y-54932086D01*
X216800101Y-54826553D01*
X216800090Y-54826550D01*
X216443556Y-54755632D01*
X216081766Y-54720000D01*
X215718234Y-54720000D01*
X215356443Y-54755632D01*
X214999909Y-54826550D01*
X214999898Y-54826553D01*
X214652002Y-54932086D01*
X214316135Y-55071207D01*
X214316130Y-55071209D01*
X213995537Y-55242570D01*
X213995519Y-55242581D01*
X213693258Y-55444545D01*
X213693254Y-55444548D01*
X213465233Y-55631679D01*
X213465233Y-55631680D01*
X214959301Y-57125748D01*
X214857670Y-57199588D01*
X214679588Y-57377670D01*
X214605748Y-57479301D01*
X213111680Y-55985233D01*
X213111679Y-55985233D01*
X212924548Y-56213254D01*
X212924545Y-56213258D01*
X212722581Y-56515519D01*
X212722570Y-56515537D01*
X212551209Y-56836130D01*
X212551207Y-56836135D01*
X212412086Y-57172002D01*
X212306553Y-57519898D01*
X212306550Y-57519909D01*
X212235632Y-57876443D01*
X212200000Y-58238234D01*
X212200000Y-58601766D01*
X212217170Y-58776108D01*
X212204151Y-58844754D01*
X212156086Y-58895464D01*
X212088235Y-58912138D01*
X212022140Y-58889482D01*
X212006086Y-58875942D01*
X211698819Y-58568675D01*
X211665334Y-58507352D01*
X211662500Y-58480994D01*
X211662500Y-58313713D01*
X211659390Y-58294077D01*
X211629246Y-58103757D01*
X211563557Y-57901588D01*
X211467051Y-57712184D01*
X211467049Y-57712181D01*
X211467048Y-57712179D01*
X211339241Y-57536266D01*
X211340108Y-57535635D01*
X211313641Y-57476581D01*
X211312500Y-57459800D01*
X211312500Y-56840199D01*
X211332185Y-56773160D01*
X211341471Y-56760664D01*
X211467048Y-56587820D01*
X211467047Y-56587820D01*
X211467051Y-56587816D01*
X211563557Y-56398412D01*
X211629246Y-56196243D01*
X211662500Y-55986287D01*
X211662500Y-55773713D01*
X211629246Y-55563757D01*
X211563557Y-55361588D01*
X211467051Y-55172184D01*
X211467049Y-55172181D01*
X211467048Y-55172179D01*
X211342109Y-55000213D01*
X211191786Y-54849890D01*
X211019820Y-54724951D01*
X210830414Y-54628444D01*
X210830413Y-54628443D01*
X210830412Y-54628443D01*
X210628243Y-54562754D01*
X210628241Y-54562753D01*
X210628240Y-54562753D01*
X210466957Y-54537208D01*
X210418287Y-54529500D01*
X210251006Y-54529500D01*
X210183967Y-54509815D01*
X210163325Y-54493181D01*
X209722325Y-54052181D01*
X209688840Y-53990858D01*
X209693824Y-53921166D01*
X209735696Y-53865233D01*
X209801160Y-53840816D01*
X209810006Y-53840500D01*
X220355500Y-53840500D01*
X220422539Y-53860185D01*
X220468294Y-53912989D01*
X220479500Y-53964500D01*
X220479500Y-106055500D01*
X220459815Y-106122539D01*
X220407011Y-106168294D01*
X220355500Y-106179500D01*
X155564500Y-106179500D01*
X155497461Y-106159815D01*
X155451706Y-106107011D01*
X155440500Y-106055500D01*
X155440500Y-101418234D01*
X156320000Y-101418234D01*
X156320000Y-101781765D01*
X156355632Y-102143556D01*
X156426550Y-102500090D01*
X156426553Y-102500101D01*
X156532086Y-102847997D01*
X156671207Y-103183864D01*
X156671209Y-103183869D01*
X156842570Y-103504462D01*
X156842581Y-103504480D01*
X157044551Y-103806750D01*
X157231678Y-104034765D01*
X157231679Y-104034766D01*
X158725747Y-102540697D01*
X158799588Y-102642330D01*
X158977670Y-102820412D01*
X159079301Y-102894251D01*
X157585232Y-104388319D01*
X157585233Y-104388320D01*
X157813249Y-104575448D01*
X158115519Y-104777418D01*
X158115537Y-104777429D01*
X158436130Y-104948790D01*
X158436135Y-104948792D01*
X158772002Y-105087913D01*
X159119898Y-105193446D01*
X159119909Y-105193449D01*
X159476443Y-105264367D01*
X159838234Y-105300000D01*
X160201766Y-105300000D01*
X160563556Y-105264367D01*
X160920090Y-105193449D01*
X160920101Y-105193446D01*
X161267997Y-105087913D01*
X161603864Y-104948792D01*
X161603869Y-104948790D01*
X161924462Y-104777429D01*
X161924480Y-104777418D01*
X162226736Y-104575457D01*
X162226750Y-104575447D01*
X162454765Y-104388320D01*
X162454765Y-104388318D01*
X160960698Y-102894251D01*
X161062330Y-102820412D01*
X161240412Y-102642330D01*
X161314251Y-102540698D01*
X162808319Y-104034766D01*
X162808320Y-104034765D01*
X162995447Y-103806750D01*
X162995457Y-103806736D01*
X163197418Y-103504480D01*
X163197429Y-103504462D01*
X163368790Y-103183869D01*
X163368792Y-103183864D01*
X163507913Y-102847997D01*
X163613446Y-102500101D01*
X163613449Y-102500090D01*
X163684367Y-102143556D01*
X163720000Y-101781765D01*
X163720000Y-101418234D01*
X163684367Y-101056443D01*
X163613449Y-100699909D01*
X163613446Y-100699898D01*
X163507913Y-100352002D01*
X163368792Y-100016135D01*
X163368790Y-100016130D01*
X163197429Y-99695537D01*
X163197418Y-99695519D01*
X162995448Y-99393249D01*
X162808320Y-99165233D01*
X162808319Y-99165232D01*
X161314251Y-100659300D01*
X161240412Y-100557670D01*
X161062330Y-100379588D01*
X160960698Y-100305748D01*
X162454766Y-98811679D01*
X162454765Y-98811678D01*
X162226750Y-98624551D01*
X161924480Y-98422581D01*
X161924462Y-98422570D01*
X161603869Y-98251209D01*
X161603864Y-98251207D01*
X161267997Y-98112086D01*
X160920101Y-98006553D01*
X160920090Y-98006550D01*
X160563556Y-97935632D01*
X160201766Y-97900000D01*
X159838234Y-97900000D01*
X159476443Y-97935632D01*
X159119909Y-98006550D01*
X159119898Y-98006553D01*
X158772002Y-98112086D01*
X158436135Y-98251207D01*
X158436130Y-98251209D01*
X158115537Y-98422570D01*
X158115519Y-98422581D01*
X157813258Y-98624545D01*
X157813254Y-98624548D01*
X157585233Y-98811679D01*
X157585233Y-98811680D01*
X159079301Y-100305748D01*
X158977670Y-100379588D01*
X158799588Y-100557670D01*
X158725748Y-100659301D01*
X157231680Y-99165233D01*
X157231679Y-99165233D01*
X157044548Y-99393254D01*
X157044545Y-99393258D01*
X156842581Y-99695519D01*
X156842570Y-99695537D01*
X156671209Y-100016130D01*
X156671207Y-100016135D01*
X156532086Y-100352002D01*
X156426553Y-100699898D01*
X156426550Y-100699909D01*
X156355632Y-101056443D01*
X156320000Y-101418234D01*
X155440500Y-101418234D01*
X155440500Y-87368986D01*
X177670001Y-87368986D01*
X177680494Y-87471697D01*
X177735641Y-87638119D01*
X177735643Y-87638124D01*
X177827684Y-87787345D01*
X177951654Y-87911315D01*
X178100875Y-88003356D01*
X178100880Y-88003358D01*
X178267302Y-88058505D01*
X178267309Y-88058506D01*
X178370019Y-88068999D01*
X178819999Y-88068999D01*
X179320000Y-88068999D01*
X179769972Y-88068999D01*
X179769986Y-88068998D01*
X179872697Y-88058505D01*
X180039119Y-88003358D01*
X180039124Y-88003356D01*
X180188345Y-87911315D01*
X180312315Y-87787345D01*
X180404356Y-87638124D01*
X180404358Y-87638119D01*
X180459505Y-87471697D01*
X180459506Y-87471690D01*
X180469999Y-87368986D01*
X185544001Y-87368986D01*
X185554494Y-87471697D01*
X185609641Y-87638119D01*
X185609643Y-87638124D01*
X185701684Y-87787345D01*
X185825654Y-87911315D01*
X185974875Y-88003356D01*
X185974880Y-88003358D01*
X186141302Y-88058505D01*
X186141309Y-88058506D01*
X186244019Y-88068999D01*
X186693999Y-88068999D01*
X187194000Y-88068999D01*
X187643972Y-88068999D01*
X187643986Y-88068998D01*
X187746697Y-88058505D01*
X187913119Y-88003358D01*
X187913124Y-88003356D01*
X188062345Y-87911315D01*
X188186315Y-87787345D01*
X188278356Y-87638124D01*
X188278358Y-87638119D01*
X188333505Y-87471697D01*
X188333506Y-87471690D01*
X188343999Y-87368986D01*
X192148001Y-87368986D01*
X192158494Y-87471697D01*
X192213641Y-87638119D01*
X192213643Y-87638124D01*
X192305684Y-87787345D01*
X192429654Y-87911315D01*
X192578875Y-88003356D01*
X192578880Y-88003358D01*
X192745302Y-88058505D01*
X192745309Y-88058506D01*
X192848019Y-88068999D01*
X193297999Y-88068999D01*
X193798000Y-88068999D01*
X194247972Y-88068999D01*
X194247986Y-88068998D01*
X194350697Y-88058505D01*
X194517119Y-88003358D01*
X194517124Y-88003356D01*
X194666345Y-87911315D01*
X194790315Y-87787345D01*
X194882356Y-87638124D01*
X194882358Y-87638119D01*
X194937505Y-87471697D01*
X194937506Y-87471690D01*
X194947999Y-87368986D01*
X197990001Y-87368986D01*
X198000494Y-87471697D01*
X198055641Y-87638119D01*
X198055643Y-87638124D01*
X198147684Y-87787345D01*
X198271654Y-87911315D01*
X198420875Y-88003356D01*
X198420880Y-88003358D01*
X198587302Y-88058505D01*
X198587309Y-88058506D01*
X198690019Y-88068999D01*
X199139999Y-88068999D01*
X199640000Y-88068999D01*
X200089972Y-88068999D01*
X200089986Y-88068998D01*
X200192697Y-88058505D01*
X200359119Y-88003358D01*
X200359124Y-88003356D01*
X200508345Y-87911315D01*
X200632315Y-87787345D01*
X200724356Y-87638124D01*
X200724358Y-87638119D01*
X200779505Y-87471697D01*
X200779506Y-87471690D01*
X200789999Y-87368986D01*
X200790000Y-87368973D01*
X200790000Y-87156500D01*
X199640000Y-87156500D01*
X199640000Y-88068999D01*
X199139999Y-88068999D01*
X199140000Y-88068998D01*
X199140000Y-87156500D01*
X197990001Y-87156500D01*
X197990001Y-87368986D01*
X194947999Y-87368986D01*
X194948000Y-87368973D01*
X194948000Y-87156500D01*
X193798000Y-87156500D01*
X193798000Y-88068999D01*
X193297999Y-88068999D01*
X193298000Y-88068998D01*
X193298000Y-87156500D01*
X192148001Y-87156500D01*
X192148001Y-87368986D01*
X188343999Y-87368986D01*
X188344000Y-87368973D01*
X188344000Y-87156500D01*
X187194000Y-87156500D01*
X187194000Y-88068999D01*
X186693999Y-88068999D01*
X186694000Y-88068998D01*
X186694000Y-87156500D01*
X185544001Y-87156500D01*
X185544001Y-87368986D01*
X180469999Y-87368986D01*
X180470000Y-87368973D01*
X180470000Y-87156500D01*
X179320000Y-87156500D01*
X179320000Y-88068999D01*
X178819999Y-88068999D01*
X178820000Y-88068998D01*
X178820000Y-87156500D01*
X177670001Y-87156500D01*
X177670001Y-87368986D01*
X155440500Y-87368986D01*
X155440500Y-86444013D01*
X177670000Y-86444013D01*
X177670000Y-86656500D01*
X178820000Y-86656500D01*
X179320000Y-86656500D01*
X180469999Y-86656500D01*
X180469999Y-86444028D01*
X180469998Y-86444013D01*
X180459505Y-86341302D01*
X180404358Y-86174880D01*
X180404356Y-86174875D01*
X180312315Y-86025654D01*
X180188345Y-85901684D01*
X180039124Y-85809643D01*
X180039119Y-85809641D01*
X179872697Y-85754494D01*
X179872690Y-85754493D01*
X179769986Y-85744000D01*
X179320000Y-85744000D01*
X179320000Y-86656500D01*
X178820000Y-86656500D01*
X178820000Y-85744000D01*
X178370028Y-85744000D01*
X178370012Y-85744001D01*
X178267302Y-85754494D01*
X178100880Y-85809641D01*
X178100875Y-85809643D01*
X177951654Y-85901684D01*
X177827684Y-86025654D01*
X177735643Y-86174875D01*
X177735641Y-86174880D01*
X177680494Y-86341302D01*
X177680493Y-86341309D01*
X177670000Y-86444013D01*
X155440500Y-86444013D01*
X155440500Y-69214110D01*
X156363000Y-69214110D01*
X156363000Y-69469889D01*
X156403013Y-69722523D01*
X156482051Y-69965781D01*
X156482052Y-69965784D01*
X156598175Y-70193686D01*
X156675850Y-70300595D01*
X156675850Y-70300596D01*
X157233884Y-69742561D01*
X157234740Y-69744626D01*
X157327762Y-69883844D01*
X157446156Y-70002238D01*
X157585374Y-70095260D01*
X157587437Y-70096114D01*
X157029402Y-70654148D01*
X157136313Y-70731824D01*
X157364215Y-70847947D01*
X157364218Y-70847948D01*
X157607476Y-70926986D01*
X157860111Y-70967000D01*
X158115889Y-70967000D01*
X158368523Y-70926986D01*
X158611781Y-70847948D01*
X158611784Y-70847947D01*
X158839685Y-70731825D01*
X158946595Y-70654148D01*
X158946596Y-70654148D01*
X158388562Y-70096114D01*
X158390626Y-70095260D01*
X158529844Y-70002238D01*
X158648238Y-69883844D01*
X158741260Y-69744626D01*
X158742114Y-69742562D01*
X159300148Y-70300596D01*
X159300148Y-70300595D01*
X159377825Y-70193685D01*
X159493947Y-69965784D01*
X159493948Y-69965781D01*
X159572986Y-69722523D01*
X159613000Y-69469889D01*
X159613000Y-69214110D01*
X161443000Y-69214110D01*
X161443000Y-69469889D01*
X161483013Y-69722523D01*
X161562051Y-69965781D01*
X161562052Y-69965784D01*
X161678175Y-70193686D01*
X161755850Y-70300595D01*
X161755850Y-70300596D01*
X162313884Y-69742561D01*
X162314740Y-69744626D01*
X162407762Y-69883844D01*
X162526156Y-70002238D01*
X162665374Y-70095260D01*
X162667437Y-70096114D01*
X162109402Y-70654148D01*
X162216313Y-70731824D01*
X162444215Y-70847947D01*
X162444218Y-70847948D01*
X162687476Y-70926986D01*
X162940111Y-70967000D01*
X163195889Y-70967000D01*
X163448523Y-70926986D01*
X163691781Y-70847948D01*
X163691784Y-70847947D01*
X163919685Y-70731825D01*
X164026595Y-70654148D01*
X164026596Y-70654148D01*
X163468562Y-70096114D01*
X163470626Y-70095260D01*
X163609844Y-70002238D01*
X163728238Y-69883844D01*
X163821260Y-69744626D01*
X163822114Y-69742562D01*
X164380148Y-70300596D01*
X164380148Y-70300595D01*
X164457825Y-70193685D01*
X164573947Y-69965784D01*
X164573948Y-69965781D01*
X164652986Y-69722523D01*
X164693000Y-69469889D01*
X164693000Y-69214110D01*
X164652986Y-68961476D01*
X164573948Y-68718218D01*
X164573947Y-68718215D01*
X164457824Y-68490313D01*
X164380148Y-68383403D01*
X164380148Y-68383402D01*
X163822114Y-68941436D01*
X163821260Y-68939374D01*
X163728238Y-68800156D01*
X163609844Y-68681762D01*
X163470626Y-68588740D01*
X163468560Y-68587884D01*
X164026596Y-68029850D01*
X163919686Y-67952175D01*
X163691784Y-67836052D01*
X163691781Y-67836051D01*
X163448523Y-67757013D01*
X163195889Y-67717000D01*
X162940111Y-67717000D01*
X162687476Y-67757013D01*
X162444218Y-67836051D01*
X162444215Y-67836052D01*
X162216310Y-67952177D01*
X162109403Y-68029849D01*
X162109402Y-68029850D01*
X162667437Y-68587885D01*
X162665374Y-68588740D01*
X162526156Y-68681762D01*
X162407762Y-68800156D01*
X162314740Y-68939374D01*
X162313885Y-68941437D01*
X161755850Y-68383402D01*
X161755849Y-68383403D01*
X161678177Y-68490310D01*
X161562052Y-68718215D01*
X161562051Y-68718218D01*
X161483013Y-68961476D01*
X161443000Y-69214110D01*
X159613000Y-69214110D01*
X159572986Y-68961476D01*
X159493948Y-68718218D01*
X159493947Y-68718215D01*
X159377824Y-68490313D01*
X159300148Y-68383403D01*
X159300148Y-68383402D01*
X158742114Y-68941436D01*
X158741260Y-68939374D01*
X158648238Y-68800156D01*
X158529844Y-68681762D01*
X158390626Y-68588740D01*
X158388560Y-68587884D01*
X158946596Y-68029850D01*
X158839686Y-67952175D01*
X158611784Y-67836052D01*
X158611781Y-67836051D01*
X158368523Y-67757013D01*
X158115889Y-67717000D01*
X157860111Y-67717000D01*
X157607476Y-67757013D01*
X157364218Y-67836051D01*
X157364215Y-67836052D01*
X157136310Y-67952177D01*
X157029403Y-68029849D01*
X157029402Y-68029850D01*
X157587437Y-68587885D01*
X157585374Y-68588740D01*
X157446156Y-68681762D01*
X157327762Y-68800156D01*
X157234740Y-68939374D01*
X157233885Y-68941437D01*
X156675850Y-68383402D01*
X156675849Y-68383403D01*
X156598177Y-68490310D01*
X156482052Y-68718215D01*
X156482051Y-68718218D01*
X156403013Y-68961476D01*
X156363000Y-69214110D01*
X155440500Y-69214110D01*
X155440500Y-66639635D01*
X167023500Y-66639635D01*
X167023500Y-74735370D01*
X167023501Y-74735376D01*
X167029908Y-74794983D01*
X167080202Y-74929828D01*
X167080206Y-74929835D01*
X167166452Y-75045044D01*
X167166455Y-75045047D01*
X167281664Y-75131293D01*
X167281671Y-75131297D01*
X167416517Y-75181591D01*
X167416516Y-75181591D01*
X167423444Y-75182335D01*
X167476127Y-75188000D01*
X169371872Y-75187999D01*
X169431483Y-75181591D01*
X169566331Y-75131296D01*
X169681546Y-75045046D01*
X169767796Y-74929831D01*
X169818091Y-74794983D01*
X169824500Y-74735373D01*
X169824500Y-72729635D01*
X170758500Y-72729635D01*
X170758500Y-75295370D01*
X170758501Y-75295376D01*
X170764908Y-75354983D01*
X170815202Y-75489828D01*
X170815206Y-75489835D01*
X170901452Y-75605044D01*
X170901455Y-75605047D01*
X171016664Y-75691293D01*
X171016671Y-75691297D01*
X171061618Y-75708061D01*
X171151517Y-75741591D01*
X171211127Y-75748000D01*
X171238950Y-75747999D01*
X171305988Y-75767681D01*
X171351745Y-75820484D01*
X171361690Y-75889642D01*
X171353514Y-75919449D01*
X171346106Y-75937333D01*
X171346103Y-75937341D01*
X171311500Y-76111304D01*
X171311500Y-76288695D01*
X171346103Y-76462658D01*
X171346106Y-76462667D01*
X171413983Y-76626540D01*
X171413990Y-76626553D01*
X171512535Y-76774034D01*
X171512538Y-76774038D01*
X171637961Y-76899461D01*
X171637965Y-76899464D01*
X171785446Y-76998009D01*
X171785459Y-76998016D01*
X171857933Y-77028035D01*
X171949334Y-77065894D01*
X171949336Y-77065894D01*
X171949341Y-77065896D01*
X172123304Y-77100499D01*
X172123307Y-77100500D01*
X172123309Y-77100500D01*
X172300693Y-77100500D01*
X172300694Y-77100499D01*
X172371792Y-77086357D01*
X172474658Y-77065896D01*
X172474661Y-77065894D01*
X172474666Y-77065894D01*
X172638547Y-76998013D01*
X172786035Y-76899464D01*
X172911464Y-76774035D01*
X173010013Y-76626547D01*
X173077894Y-76462666D01*
X173094392Y-76379728D01*
X173100964Y-76346682D01*
X173112500Y-76288691D01*
X173112500Y-76111309D01*
X173112500Y-76111306D01*
X173112499Y-76111304D01*
X173077896Y-75937341D01*
X173077894Y-75937337D01*
X173077894Y-75937334D01*
X173070486Y-75919449D01*
X173063019Y-75849980D01*
X173094295Y-75787501D01*
X173154385Y-75751850D01*
X173183564Y-75748185D01*
X173183564Y-75748176D01*
X173183694Y-75748169D01*
X173185048Y-75747999D01*
X173186871Y-75747999D01*
X173186872Y-75747999D01*
X173246483Y-75741591D01*
X173381331Y-75691296D01*
X173496546Y-75605046D01*
X173582796Y-75489831D01*
X173633091Y-75354983D01*
X173639500Y-75295373D01*
X173639499Y-72729628D01*
X173633091Y-72670017D01*
X173582796Y-72535169D01*
X173582795Y-72535168D01*
X173582793Y-72535164D01*
X173496547Y-72419955D01*
X173496544Y-72419952D01*
X173381335Y-72333706D01*
X173381328Y-72333702D01*
X173246482Y-72283408D01*
X173246483Y-72283408D01*
X173186883Y-72277001D01*
X173186881Y-72277000D01*
X173186873Y-72277000D01*
X173186864Y-72277000D01*
X171211129Y-72277000D01*
X171211123Y-72277001D01*
X171151516Y-72283408D01*
X171016671Y-72333702D01*
X171016664Y-72333706D01*
X170901455Y-72419952D01*
X170901452Y-72419955D01*
X170815206Y-72535164D01*
X170815202Y-72535171D01*
X170764908Y-72670017D01*
X170758857Y-72726306D01*
X170758501Y-72729623D01*
X170758500Y-72729635D01*
X169824500Y-72729635D01*
X169824499Y-70662162D01*
X169824499Y-66639629D01*
X169824498Y-66639623D01*
X169824497Y-66639616D01*
X169818091Y-66580017D01*
X169767796Y-66445169D01*
X169767795Y-66445168D01*
X169767793Y-66445164D01*
X169681547Y-66329955D01*
X169681544Y-66329952D01*
X169566335Y-66243706D01*
X169566328Y-66243702D01*
X169431482Y-66193408D01*
X169431483Y-66193408D01*
X169371883Y-66187001D01*
X169371881Y-66187000D01*
X169371873Y-66187000D01*
X169371864Y-66187000D01*
X167476129Y-66187000D01*
X167476123Y-66187001D01*
X167416516Y-66193408D01*
X167281671Y-66243702D01*
X167281664Y-66243706D01*
X167166455Y-66329952D01*
X167166452Y-66329955D01*
X167080206Y-66445164D01*
X167080202Y-66445171D01*
X167029908Y-66580017D01*
X167024118Y-66633876D01*
X167023501Y-66639623D01*
X167023500Y-66639635D01*
X155440500Y-66639635D01*
X155440500Y-58238234D01*
X156320000Y-58238234D01*
X156320000Y-58601765D01*
X156355632Y-58963556D01*
X156426550Y-59320090D01*
X156426553Y-59320101D01*
X156532086Y-59667997D01*
X156671207Y-60003864D01*
X156671209Y-60003869D01*
X156842570Y-60324462D01*
X156842581Y-60324480D01*
X157044551Y-60626750D01*
X157231678Y-60854765D01*
X157231679Y-60854766D01*
X158725747Y-59360697D01*
X158799588Y-59462330D01*
X158977670Y-59640412D01*
X159079301Y-59714251D01*
X157585232Y-61208319D01*
X157585233Y-61208320D01*
X157813249Y-61395448D01*
X158115519Y-61597418D01*
X158115537Y-61597429D01*
X158436130Y-61768790D01*
X158436135Y-61768792D01*
X158772002Y-61907913D01*
X159119898Y-62013446D01*
X159119909Y-62013449D01*
X159476443Y-62084367D01*
X159838234Y-62120000D01*
X160201766Y-62120000D01*
X160563556Y-62084367D01*
X160920090Y-62013449D01*
X160920101Y-62013446D01*
X161267997Y-61907913D01*
X161603864Y-61768792D01*
X161603869Y-61768790D01*
X161924462Y-61597429D01*
X161924480Y-61597418D01*
X162226736Y-61395457D01*
X162226750Y-61395447D01*
X162454765Y-61208320D01*
X162454766Y-61208319D01*
X160960698Y-59714251D01*
X161062330Y-59640412D01*
X161240412Y-59462330D01*
X161314251Y-59360698D01*
X162808319Y-60854766D01*
X162808320Y-60854765D01*
X162995447Y-60626750D01*
X162995457Y-60626736D01*
X163197418Y-60324480D01*
X163197429Y-60324462D01*
X163368790Y-60003869D01*
X163368792Y-60003864D01*
X163507913Y-59667997D01*
X163613446Y-59320101D01*
X163613449Y-59320090D01*
X163684367Y-58963556D01*
X163720000Y-58601765D01*
X163720000Y-58238234D01*
X163684367Y-57876443D01*
X163613449Y-57519909D01*
X163613446Y-57519898D01*
X163507913Y-57172002D01*
X163368792Y-56836135D01*
X163368790Y-56836130D01*
X163197429Y-56515537D01*
X163197418Y-56515519D01*
X162995448Y-56213249D01*
X162808320Y-55985233D01*
X162808319Y-55985232D01*
X161314251Y-57479300D01*
X161240412Y-57377670D01*
X161062330Y-57199588D01*
X160960698Y-57125748D01*
X162446810Y-55639635D01*
X167023500Y-55639635D01*
X167023500Y-62335370D01*
X167023501Y-62335376D01*
X167029908Y-62394983D01*
X167080202Y-62529828D01*
X167080206Y-62529835D01*
X167166452Y-62645044D01*
X167166455Y-62645047D01*
X167281664Y-62731293D01*
X167281671Y-62731297D01*
X167416517Y-62781591D01*
X167416516Y-62781591D01*
X167423444Y-62782335D01*
X167476127Y-62788000D01*
X169371872Y-62787999D01*
X169431483Y-62781591D01*
X169566331Y-62731296D01*
X169681546Y-62645046D01*
X169767796Y-62529831D01*
X169818091Y-62394983D01*
X169824500Y-62335373D01*
X169824499Y-55639628D01*
X169818091Y-55580017D01*
X169812026Y-55563757D01*
X169767797Y-55445171D01*
X169767793Y-55445164D01*
X169681547Y-55329955D01*
X169681544Y-55329952D01*
X169566335Y-55243706D01*
X169566328Y-55243702D01*
X169431481Y-55193408D01*
X169431483Y-55193408D01*
X169371883Y-55187001D01*
X169371881Y-55187000D01*
X169371873Y-55187000D01*
X169371864Y-55187000D01*
X167476129Y-55187000D01*
X167476123Y-55187001D01*
X167416516Y-55193408D01*
X167281671Y-55243702D01*
X167281664Y-55243706D01*
X167166455Y-55329952D01*
X167166452Y-55329955D01*
X167080206Y-55445164D01*
X167080202Y-55445171D01*
X167029908Y-55580017D01*
X167024354Y-55631680D01*
X167023501Y-55639623D01*
X167023500Y-55639635D01*
X162446810Y-55639635D01*
X162454765Y-55631680D01*
X162454765Y-55631678D01*
X162226750Y-55444551D01*
X161924480Y-55242581D01*
X161924462Y-55242570D01*
X161619633Y-55079635D01*
X170758500Y-55079635D01*
X170758500Y-57645370D01*
X170758501Y-57645376D01*
X170764908Y-57704983D01*
X170815202Y-57839828D01*
X170815206Y-57839835D01*
X170901452Y-57955044D01*
X170901455Y-57955047D01*
X171016664Y-58041293D01*
X171016671Y-58041297D01*
X171151517Y-58091591D01*
X171151516Y-58091591D01*
X171158444Y-58092335D01*
X171211127Y-58098000D01*
X173186872Y-58097999D01*
X173246483Y-58091591D01*
X173381331Y-58041296D01*
X173496546Y-57955046D01*
X173582796Y-57839831D01*
X173633091Y-57704983D01*
X173639500Y-57645373D01*
X173639499Y-55079635D01*
X175208500Y-55079635D01*
X175208500Y-57645370D01*
X175208501Y-57645376D01*
X175214908Y-57704983D01*
X175265202Y-57839828D01*
X175265206Y-57839835D01*
X175351452Y-57955044D01*
X175351455Y-57955047D01*
X175466664Y-58041293D01*
X175466671Y-58041297D01*
X175601517Y-58091591D01*
X175601516Y-58091591D01*
X175608444Y-58092335D01*
X175661127Y-58098000D01*
X177636872Y-58097999D01*
X177696483Y-58091591D01*
X177831331Y-58041296D01*
X177946546Y-57955046D01*
X178032796Y-57839831D01*
X178083091Y-57704983D01*
X178089500Y-57645373D01*
X178089499Y-55079635D01*
X179658500Y-55079635D01*
X179658500Y-57645370D01*
X179658501Y-57645376D01*
X179664908Y-57704983D01*
X179715202Y-57839828D01*
X179715206Y-57839835D01*
X179801452Y-57955044D01*
X179801455Y-57955047D01*
X179916664Y-58041293D01*
X179916671Y-58041297D01*
X180051517Y-58091591D01*
X180051516Y-58091591D01*
X180058444Y-58092335D01*
X180111127Y-58098000D01*
X182086872Y-58097999D01*
X182146483Y-58091591D01*
X182281331Y-58041296D01*
X182396546Y-57955046D01*
X182482796Y-57839831D01*
X182533091Y-57704983D01*
X182539500Y-57645373D01*
X182539499Y-55079635D01*
X184108500Y-55079635D01*
X184108500Y-57645370D01*
X184108501Y-57645376D01*
X184114908Y-57704983D01*
X184165202Y-57839828D01*
X184165206Y-57839835D01*
X184251452Y-57955044D01*
X184251455Y-57955047D01*
X184366664Y-58041293D01*
X184366671Y-58041297D01*
X184501517Y-58091591D01*
X184501516Y-58091591D01*
X184508444Y-58092335D01*
X184561127Y-58098000D01*
X186536872Y-58097999D01*
X186596483Y-58091591D01*
X186731331Y-58041296D01*
X186846546Y-57955046D01*
X186932796Y-57839831D01*
X186983091Y-57704983D01*
X186989500Y-57645373D01*
X186989499Y-55079628D01*
X186983091Y-55020017D01*
X186932796Y-54885169D01*
X186932795Y-54885168D01*
X186932793Y-54885164D01*
X186846547Y-54769955D01*
X186846544Y-54769952D01*
X186731335Y-54683706D01*
X186731328Y-54683702D01*
X186596482Y-54633408D01*
X186596483Y-54633408D01*
X186536883Y-54627001D01*
X186536881Y-54627000D01*
X186536873Y-54627000D01*
X186536864Y-54627000D01*
X184561129Y-54627000D01*
X184561123Y-54627001D01*
X184501516Y-54633408D01*
X184366671Y-54683702D01*
X184366664Y-54683706D01*
X184251455Y-54769952D01*
X184251452Y-54769955D01*
X184165206Y-54885164D01*
X184165202Y-54885171D01*
X184114908Y-55020017D01*
X184109405Y-55071207D01*
X184108501Y-55079623D01*
X184108500Y-55079635D01*
X182539499Y-55079635D01*
X182539499Y-55079628D01*
X182533091Y-55020017D01*
X182482796Y-54885169D01*
X182482795Y-54885168D01*
X182482793Y-54885164D01*
X182396547Y-54769955D01*
X182396544Y-54769952D01*
X182281335Y-54683706D01*
X182281328Y-54683702D01*
X182146482Y-54633408D01*
X182146483Y-54633408D01*
X182086883Y-54627001D01*
X182086881Y-54627000D01*
X182086873Y-54627000D01*
X182086864Y-54627000D01*
X180111129Y-54627000D01*
X180111123Y-54627001D01*
X180051516Y-54633408D01*
X179916671Y-54683702D01*
X179916664Y-54683706D01*
X179801455Y-54769952D01*
X179801452Y-54769955D01*
X179715206Y-54885164D01*
X179715202Y-54885171D01*
X179664908Y-55020017D01*
X179659405Y-55071207D01*
X179658501Y-55079623D01*
X179658500Y-55079635D01*
X178089499Y-55079635D01*
X178089499Y-55079628D01*
X178083091Y-55020017D01*
X178032796Y-54885169D01*
X178032795Y-54885168D01*
X178032793Y-54885164D01*
X177946547Y-54769955D01*
X177946544Y-54769952D01*
X177831335Y-54683706D01*
X177831328Y-54683702D01*
X177696482Y-54633408D01*
X177696483Y-54633408D01*
X177636883Y-54627001D01*
X177636881Y-54627000D01*
X177636873Y-54627000D01*
X177636864Y-54627000D01*
X175661129Y-54627000D01*
X175661123Y-54627001D01*
X175601516Y-54633408D01*
X175466671Y-54683702D01*
X175466664Y-54683706D01*
X175351455Y-54769952D01*
X175351452Y-54769955D01*
X175265206Y-54885164D01*
X175265202Y-54885171D01*
X175214908Y-55020017D01*
X175209405Y-55071207D01*
X175208501Y-55079623D01*
X175208500Y-55079635D01*
X173639499Y-55079635D01*
X173639499Y-55079628D01*
X173633091Y-55020017D01*
X173582796Y-54885169D01*
X173582795Y-54885168D01*
X173582793Y-54885164D01*
X173496547Y-54769955D01*
X173496544Y-54769952D01*
X173381335Y-54683706D01*
X173381328Y-54683702D01*
X173246482Y-54633408D01*
X173246483Y-54633408D01*
X173186883Y-54627001D01*
X173186881Y-54627000D01*
X173186873Y-54627000D01*
X173186864Y-54627000D01*
X171211129Y-54627000D01*
X171211123Y-54627001D01*
X171151516Y-54633408D01*
X171016671Y-54683702D01*
X171016664Y-54683706D01*
X170901455Y-54769952D01*
X170901452Y-54769955D01*
X170815206Y-54885164D01*
X170815202Y-54885171D01*
X170764908Y-55020017D01*
X170759405Y-55071207D01*
X170758501Y-55079623D01*
X170758500Y-55079635D01*
X161619633Y-55079635D01*
X161603869Y-55071209D01*
X161603864Y-55071207D01*
X161267997Y-54932086D01*
X160920101Y-54826553D01*
X160920090Y-54826550D01*
X160563556Y-54755632D01*
X160201766Y-54720000D01*
X159838234Y-54720000D01*
X159476443Y-54755632D01*
X159119909Y-54826550D01*
X159119898Y-54826553D01*
X158772002Y-54932086D01*
X158436135Y-55071207D01*
X158436130Y-55071209D01*
X158115537Y-55242570D01*
X158115519Y-55242581D01*
X157813258Y-55444545D01*
X157813254Y-55444548D01*
X157585233Y-55631679D01*
X157585233Y-55631680D01*
X159079301Y-57125748D01*
X158977670Y-57199588D01*
X158799588Y-57377670D01*
X158725748Y-57479301D01*
X157231680Y-55985233D01*
X157231679Y-55985233D01*
X157044548Y-56213254D01*
X157044545Y-56213258D01*
X156842581Y-56515519D01*
X156842570Y-56515537D01*
X156671209Y-56836130D01*
X156671207Y-56836135D01*
X156532086Y-57172002D01*
X156426553Y-57519898D01*
X156426550Y-57519909D01*
X156355632Y-57876443D01*
X156320000Y-58238234D01*
X155440500Y-58238234D01*
X155440500Y-53964500D01*
X155460185Y-53897461D01*
X155512989Y-53851706D01*
X155564500Y-53840500D01*
X205583494Y-53840500D01*
X205650533Y-53860185D01*
G37*
%TD.AperFunction*%
%TA.AperFunction,Conductor*%
G36*
X209846075Y-103947007D02*
G01*
X209812000Y-104074174D01*
X209812000Y-104205826D01*
X209846075Y-104332993D01*
X209878988Y-104390000D01*
X208205012Y-104390000D01*
X208237925Y-104332993D01*
X208272000Y-104205826D01*
X208272000Y-104074174D01*
X208237925Y-103947007D01*
X208205012Y-103890000D01*
X209878988Y-103890000D01*
X209846075Y-103947007D01*
G37*
%TD.AperFunction*%
%TA.AperFunction,Conductor*%
G36*
X210562000Y-103706988D02*
G01*
X210504993Y-103674075D01*
X210377826Y-103640000D01*
X210246174Y-103640000D01*
X210119007Y-103674075D01*
X210062000Y-103706988D01*
X210062000Y-102033012D01*
X210119007Y-102065925D01*
X210246174Y-102100000D01*
X210377826Y-102100000D01*
X210504993Y-102065925D01*
X210562000Y-102033012D01*
X210562000Y-103706988D01*
G37*
%TD.AperFunction*%
%TA.AperFunction,Conductor*%
G36*
X210562000Y-101166988D02*
G01*
X210504993Y-101134075D01*
X210377826Y-101100000D01*
X210246174Y-101100000D01*
X210119007Y-101134075D01*
X210062000Y-101166988D01*
X210062000Y-99493012D01*
X210119007Y-99525925D01*
X210246174Y-99560000D01*
X210377826Y-99560000D01*
X210504993Y-99525925D01*
X210562000Y-99493012D01*
X210562000Y-101166988D01*
G37*
%TD.AperFunction*%
%TA.AperFunction,Conductor*%
G36*
X210562000Y-98626988D02*
G01*
X210504993Y-98594075D01*
X210377826Y-98560000D01*
X210246174Y-98560000D01*
X210119007Y-98594075D01*
X210062000Y-98626988D01*
X210062000Y-96953012D01*
X210119007Y-96985925D01*
X210246174Y-97020000D01*
X210377826Y-97020000D01*
X210504993Y-96985925D01*
X210562000Y-96953012D01*
X210562000Y-98626988D01*
G37*
%TD.AperFunction*%
%TA.AperFunction,Conductor*%
G36*
X210562000Y-88466988D02*
G01*
X210504993Y-88434075D01*
X210377826Y-88400000D01*
X210246174Y-88400000D01*
X210119007Y-88434075D01*
X210062000Y-88466988D01*
X210062000Y-86793012D01*
X210119007Y-86825925D01*
X210246174Y-86860000D01*
X210377826Y-86860000D01*
X210504993Y-86825925D01*
X210562000Y-86793012D01*
X210562000Y-88466988D01*
G37*
%TD.AperFunction*%
%TA.AperFunction,Conductor*%
G36*
X210562000Y-85926988D02*
G01*
X210504993Y-85894075D01*
X210377826Y-85860000D01*
X210246174Y-85860000D01*
X210119007Y-85894075D01*
X210062000Y-85926988D01*
X210062000Y-84253012D01*
X210119007Y-84285925D01*
X210246174Y-84320000D01*
X210377826Y-84320000D01*
X210504993Y-84285925D01*
X210562000Y-84253012D01*
X210562000Y-85926988D01*
G37*
%TD.AperFunction*%
%TA.AperFunction,Conductor*%
G36*
X210562000Y-83386988D02*
G01*
X210504993Y-83354075D01*
X210377826Y-83320000D01*
X210246174Y-83320000D01*
X210119007Y-83354075D01*
X210062000Y-83386988D01*
X210062000Y-81713012D01*
X210119007Y-81745925D01*
X210246174Y-81780000D01*
X210377826Y-81780000D01*
X210504993Y-81745925D01*
X210562000Y-81713012D01*
X210562000Y-83386988D01*
G37*
%TD.AperFunction*%
%TA.AperFunction,Conductor*%
G36*
X210562000Y-80846988D02*
G01*
X210504993Y-80814075D01*
X210377826Y-80780000D01*
X210246174Y-80780000D01*
X210119007Y-80814075D01*
X210062000Y-80846988D01*
X210062000Y-79173012D01*
X210119007Y-79205925D01*
X210246174Y-79240000D01*
X210377826Y-79240000D01*
X210504993Y-79205925D01*
X210562000Y-79173012D01*
X210562000Y-80846988D01*
G37*
%TD.AperFunction*%
%TA.AperFunction,Conductor*%
G36*
X206340834Y-55961322D02*
G01*
X206396767Y-56003194D01*
X206421184Y-56068658D01*
X206421500Y-56077504D01*
X206421500Y-56777870D01*
X206421501Y-56777876D01*
X206427908Y-56837483D01*
X206478202Y-56972328D01*
X206478206Y-56972335D01*
X206564452Y-57087544D01*
X206564455Y-57087547D01*
X206679664Y-57173793D01*
X206679671Y-57173797D01*
X206811082Y-57222810D01*
X206867016Y-57264681D01*
X206891433Y-57330145D01*
X206876582Y-57398418D01*
X206855431Y-57426673D01*
X206741889Y-57540215D01*
X206616951Y-57712179D01*
X206520444Y-57901585D01*
X206454753Y-58103760D01*
X206433455Y-58238234D01*
X206421500Y-58313713D01*
X206421500Y-58526287D01*
X206454754Y-58736243D01*
X206506488Y-58895464D01*
X206520444Y-58938414D01*
X206616951Y-59127820D01*
X206741890Y-59299786D01*
X206892213Y-59450109D01*
X207064179Y-59575048D01*
X207064181Y-59575049D01*
X207064184Y-59575051D01*
X207073493Y-59579794D01*
X207124290Y-59627766D01*
X207141087Y-59695587D01*
X207118552Y-59761722D01*
X207073502Y-59800762D01*
X207064443Y-59805378D01*
X206892540Y-59930272D01*
X206892535Y-59930276D01*
X206742276Y-60080535D01*
X206742272Y-60080540D01*
X206617379Y-60252442D01*
X206520904Y-60441782D01*
X206455242Y-60643870D01*
X206455242Y-60643873D01*
X206444769Y-60710000D01*
X207338988Y-60710000D01*
X207306075Y-60767007D01*
X207272000Y-60894174D01*
X207272000Y-61025826D01*
X207306075Y-61152993D01*
X207338988Y-61210000D01*
X206444769Y-61210000D01*
X206455242Y-61276126D01*
X206455242Y-61276129D01*
X206520904Y-61478217D01*
X206617379Y-61667557D01*
X206742272Y-61839459D01*
X206742276Y-61839464D01*
X206892535Y-61989723D01*
X206892540Y-61989727D01*
X207064444Y-62114622D01*
X207073495Y-62119234D01*
X207124292Y-62167208D01*
X207141087Y-62235029D01*
X207118550Y-62301164D01*
X207073499Y-62340202D01*
X207064182Y-62344949D01*
X206892213Y-62469890D01*
X206741890Y-62620213D01*
X206616951Y-62792179D01*
X206520444Y-62981585D01*
X206454753Y-63183760D01*
X206421500Y-63393713D01*
X206421500Y-63606287D01*
X206454754Y-63816243D01*
X206493301Y-63934879D01*
X206520444Y-64018414D01*
X206616951Y-64207820D01*
X206741890Y-64379786D01*
X206892213Y-64530109D01*
X207064182Y-64655050D01*
X207072946Y-64659516D01*
X207123742Y-64707491D01*
X207140536Y-64775312D01*
X207117998Y-64841447D01*
X207072946Y-64880484D01*
X207064182Y-64884949D01*
X206892213Y-65009890D01*
X206741890Y-65160213D01*
X206616951Y-65332179D01*
X206520444Y-65521585D01*
X206454753Y-65723760D01*
X206434436Y-65852037D01*
X206421500Y-65933713D01*
X206421500Y-66146287D01*
X206454754Y-66356243D01*
X206495602Y-66481961D01*
X206520444Y-66558414D01*
X206616951Y-66747820D01*
X206741890Y-66919786D01*
X206892213Y-67070109D01*
X207064179Y-67195048D01*
X207064181Y-67195049D01*
X207064184Y-67195051D01*
X207073493Y-67199794D01*
X207124290Y-67247766D01*
X207141087Y-67315587D01*
X207118552Y-67381722D01*
X207073502Y-67420762D01*
X207064443Y-67425378D01*
X206892540Y-67550272D01*
X206892535Y-67550276D01*
X206742276Y-67700535D01*
X206742272Y-67700540D01*
X206617379Y-67872442D01*
X206520904Y-68061782D01*
X206455242Y-68263870D01*
X206455242Y-68263873D01*
X206444769Y-68330000D01*
X207338988Y-68330000D01*
X207306075Y-68387007D01*
X207272000Y-68514174D01*
X207272000Y-68645826D01*
X207306075Y-68772993D01*
X207338988Y-68830000D01*
X206417953Y-68830000D01*
X206350914Y-68810315D01*
X206330272Y-68793681D01*
X205621819Y-68085228D01*
X205607115Y-68058300D01*
X205590523Y-68032482D01*
X205589631Y-68026281D01*
X205588334Y-68023905D01*
X205585500Y-67997547D01*
X205585500Y-67755361D01*
X205605185Y-67688322D01*
X205621820Y-67667679D01*
X205659461Y-67630038D01*
X205659464Y-67630035D01*
X205758013Y-67482547D01*
X205825894Y-67318666D01*
X205826507Y-67315587D01*
X205860499Y-67144695D01*
X205860500Y-67144693D01*
X205860500Y-66967306D01*
X205860499Y-66967304D01*
X205825896Y-66793341D01*
X205825893Y-66793332D01*
X205758016Y-66629459D01*
X205758009Y-66629446D01*
X205659464Y-66481965D01*
X205659461Y-66481961D01*
X205534038Y-66356538D01*
X205534034Y-66356535D01*
X205386553Y-66257990D01*
X205386540Y-66257983D01*
X205222667Y-66190106D01*
X205222658Y-66190103D01*
X205048694Y-66155500D01*
X205048691Y-66155500D01*
X204984500Y-66155500D01*
X204975814Y-66152949D01*
X204966853Y-66154238D01*
X204942812Y-66143259D01*
X204917461Y-66135815D01*
X204911533Y-66128974D01*
X204903297Y-66125213D01*
X204889007Y-66102978D01*
X204871706Y-66083011D01*
X204869418Y-66072496D01*
X204865523Y-66066435D01*
X204860500Y-66031500D01*
X204860500Y-65958361D01*
X204880185Y-65891322D01*
X204896821Y-65870678D01*
X204915462Y-65852037D01*
X204915464Y-65852035D01*
X205014013Y-65704547D01*
X205081894Y-65540666D01*
X205081949Y-65540394D01*
X205112659Y-65386000D01*
X205116500Y-65366691D01*
X205116500Y-65189309D01*
X205116500Y-65189306D01*
X205116499Y-65189304D01*
X205081896Y-65015341D01*
X205081893Y-65015332D01*
X205079641Y-65009896D01*
X205064923Y-64974363D01*
X205014016Y-64851459D01*
X205014009Y-64851446D01*
X204915464Y-64703965D01*
X204915461Y-64703961D01*
X204790038Y-64578538D01*
X204790034Y-64578535D01*
X204642553Y-64479990D01*
X204642540Y-64479983D01*
X204478667Y-64412106D01*
X204478659Y-64412104D01*
X204338554Y-64384235D01*
X204276643Y-64351850D01*
X204242069Y-64291134D01*
X204245809Y-64221365D01*
X204263480Y-64188306D01*
X204352352Y-64069589D01*
X204352354Y-64069586D01*
X204402596Y-63934879D01*
X204402598Y-63934872D01*
X204408999Y-63875344D01*
X204409000Y-63875327D01*
X204409000Y-63137500D01*
X202924000Y-63137500D01*
X202924000Y-64327500D01*
X203608893Y-64327500D01*
X203675932Y-64347185D01*
X203721687Y-64399989D01*
X203731631Y-64469147D01*
X203702606Y-64532703D01*
X203677784Y-64554602D01*
X203641965Y-64578535D01*
X203641961Y-64578538D01*
X203516538Y-64703961D01*
X203516535Y-64703965D01*
X203417990Y-64851446D01*
X203417983Y-64851459D01*
X203350106Y-65015332D01*
X203350103Y-65015341D01*
X203315500Y-65189304D01*
X203315500Y-65366695D01*
X203350103Y-65540658D01*
X203350106Y-65540667D01*
X203417983Y-65704540D01*
X203417990Y-65704552D01*
X203518256Y-65854609D01*
X203539134Y-65921286D01*
X203520650Y-65988666D01*
X203468671Y-66035357D01*
X203415154Y-66047500D01*
X202924000Y-66047500D01*
X202924000Y-68927500D01*
X203485500Y-68927500D01*
X203552539Y-68947185D01*
X203598294Y-68999989D01*
X203609500Y-69051500D01*
X203609500Y-70184611D01*
X203633535Y-70305444D01*
X203633540Y-70305461D01*
X203680685Y-70419281D01*
X203680687Y-70419284D01*
X203680688Y-70419286D01*
X203703956Y-70454108D01*
X203724835Y-70520784D01*
X203706352Y-70588164D01*
X203654374Y-70634856D01*
X203600855Y-70647000D01*
X201524500Y-70647000D01*
X201457461Y-70627315D01*
X201411706Y-70574511D01*
X201400500Y-70523000D01*
X201400500Y-69051500D01*
X201420185Y-68984461D01*
X201472989Y-68938706D01*
X201524500Y-68927500D01*
X202424000Y-68927500D01*
X202424000Y-66047500D01*
X201524500Y-66047500D01*
X201457461Y-66027815D01*
X201411706Y-65975011D01*
X201400500Y-65923500D01*
X201400500Y-64451500D01*
X201420185Y-64384461D01*
X201472989Y-64338706D01*
X201524500Y-64327500D01*
X202424000Y-64327500D01*
X202424000Y-62637500D01*
X202924000Y-62637500D01*
X204409000Y-62637500D01*
X204409000Y-61899672D01*
X204408999Y-61899655D01*
X204402598Y-61840127D01*
X204402596Y-61840120D01*
X204352354Y-61705413D01*
X204352350Y-61705406D01*
X204266190Y-61590312D01*
X204266187Y-61590309D01*
X204151093Y-61504149D01*
X204151086Y-61504145D01*
X204016379Y-61453903D01*
X204016372Y-61453901D01*
X203956844Y-61447500D01*
X202924000Y-61447500D01*
X202924000Y-62637500D01*
X202424000Y-62637500D01*
X202424000Y-61447500D01*
X201524500Y-61447500D01*
X201457461Y-61427815D01*
X201411706Y-61375011D01*
X201400500Y-61323500D01*
X201400500Y-59851999D01*
X201420185Y-59784960D01*
X201472989Y-59739205D01*
X201524500Y-59727999D01*
X203956871Y-59727999D01*
X203956872Y-59727999D01*
X204016483Y-59721591D01*
X204151331Y-59671296D01*
X204266546Y-59585046D01*
X204352796Y-59469831D01*
X204403091Y-59334983D01*
X204409500Y-59275373D01*
X204409499Y-57841504D01*
X204429184Y-57774466D01*
X204445813Y-57753829D01*
X206209821Y-55989821D01*
X206271142Y-55956338D01*
X206340834Y-55961322D01*
G37*
%TD.AperFunction*%
%TA.AperFunction,Conductor*%
G36*
X209846075Y-60767007D02*
G01*
X209812000Y-60894174D01*
X209812000Y-61025826D01*
X209846075Y-61152993D01*
X209878988Y-61210000D01*
X208205012Y-61210000D01*
X208237925Y-61152993D01*
X208272000Y-61025826D01*
X208272000Y-60894174D01*
X208237925Y-60767007D01*
X208205012Y-60710000D01*
X209878988Y-60710000D01*
X209846075Y-60767007D01*
G37*
%TD.AperFunction*%
%TD*%
M02*
