M48
; DRILL file {KiCad 9.0.0} date 2025-02-28T18:55:50-0500
; FORMAT={-:-/ absolute / inch / decimal}
; #@! TF.CreationDate,2025-02-28T18:55:50-05:00
; #@! TF.GenerationSoftware,Kicad,Pcbnew,9.0.0
; #@! TF.FileFunction,Plated,1,2,PTH
FMAT,2
INCH
; #@! TA.AperFunction,Plated,PTH,ViaDrill
T1C0.0157
; #@! TA.AperFunction,Plated,PTH,ComponentDrill
T2C0.0197
; #@! TA.AperFunction,Plated,PTH,ComponentDrill
T3C0.0315
; #@! TA.AperFunction,Plated,PTH,ComponentDrill
T4C0.0394
; #@! TA.AperFunction,Plated,PTH,ComponentDrill
T5C0.0591
; #@! TA.AperFunction,Plated,PTH,ComponentDrill
T6C0.0669
; #@! TA.AperFunction,Plated,PTH,ComponentDrill
T7C0.1260
%
G90
G05
T1
X6.78Y-3.0
X7.22Y-3.01
X7.22Y-3.49
X7.26Y-3.06
X7.26Y-3.48
X7.81Y-2.4031
X7.86Y-2.39
X7.94Y-3.56
X8.04Y-2.57
X8.0693Y-2.64
T2
X6.2055Y-2.3
X6.2055Y-4.0
X6.2332Y-2.2332
X6.2332Y-2.3668
X6.2332Y-3.9332
X6.2332Y-4.0668
X6.3Y-2.2055
X6.3Y-2.3945
X6.3Y-3.9055
X6.3Y-4.0945
X6.3668Y-2.2332
X6.3668Y-2.3668
X6.3668Y-3.9332
X6.3668Y-4.0668
X6.3945Y-2.3
X6.3945Y-4.0
X8.4055Y-2.3
X8.4055Y-4.0
X8.4332Y-2.2332
X8.4332Y-2.3668
X8.4332Y-3.9332
X8.4332Y-4.0668
X8.5Y-2.2055
X8.5Y-2.3945
X8.5Y-3.9055
X8.5Y-4.0945
X8.5668Y-2.2332
X8.5668Y-2.3668
X8.5668Y-3.9332
X8.5668Y-4.0668
X8.5945Y-2.3
X8.5945Y-4.0
T3
X8.4413Y-2.59
X8.52Y-2.59
T4
X8.18Y-2.2
X8.18Y-2.3
X8.18Y-2.4
X8.18Y-2.5
X8.18Y-2.6
X8.18Y-2.7
X8.18Y-2.8
X8.18Y-2.9
X8.18Y-3.0
X8.18Y-3.1
X8.18Y-3.2
X8.18Y-3.3
X8.18Y-3.4
X8.18Y-3.5
X8.18Y-3.6
X8.18Y-3.7
X8.18Y-3.8
X8.18Y-3.9
X8.18Y-4.0
X8.18Y-4.1
X8.28Y-2.2
X8.28Y-2.3
X8.28Y-2.4
X8.28Y-2.5
X8.28Y-2.6
X8.28Y-2.7
X8.28Y-2.8
X8.28Y-2.9
X8.28Y-3.0
X8.28Y-3.1
X8.28Y-3.2
X8.28Y-3.3
X8.28Y-3.4
X8.28Y-3.5
X8.28Y-3.6
X8.28Y-3.7
X8.28Y-3.8
X8.28Y-3.9
X8.28Y-4.0
X8.28Y-4.1
T5
X6.32Y-2.83
T6
X6.22Y-2.73
X6.22Y-2.93
X6.42Y-2.73
X6.42Y-2.93
T7
X6.3Y-2.3
X6.3Y-4.0
X8.5Y-2.3
X8.5Y-4.0
M30
