%TF.GenerationSoftware,KiCad,Pcbnew,9.0.0*%
%TF.CreationDate,2025-02-28T18:30:32-05:00*%
%TF.ProjectId,umich_balloons_processor,756d6963-685f-4626-916c-6c6f6f6e735f,rev?*%
%TF.SameCoordinates,Original*%
%TF.FileFunction,Copper,L1,Top*%
%TF.FilePolarity,Positive*%
%FSLAX46Y46*%
G04 Gerber Fmt 4.6, Leading zero omitted, Abs format (unit mm)*
G04 Created by KiCad (PCBNEW 9.0.0) date 2025-02-28 18:30:32*
%MOMM*%
%LPD*%
G01*
G04 APERTURE LIST*
G04 Aperture macros list*
%AMRoundRect*
0 Rectangle with rounded corners*
0 $1 Rounding radius*
0 $2 $3 $4 $5 $6 $7 $8 $9 X,Y pos of 4 corners*
0 Add a 4 corners polygon primitive as box body*
4,1,4,$2,$3,$4,$5,$6,$7,$8,$9,$2,$3,0*
0 Add four circle primitives for the rounded corners*
1,1,$1+$1,$2,$3*
1,1,$1+$1,$4,$5*
1,1,$1+$1,$6,$7*
1,1,$1+$1,$8,$9*
0 Add four rect primitives between the rounded corners*
20,1,$1+$1,$2,$3,$4,$5,0*
20,1,$1+$1,$4,$5,$6,$7,0*
20,1,$1+$1,$6,$7,$8,$9,0*
20,1,$1+$1,$8,$9,$2,$3,0*%
G04 Aperture macros list end*
%ADD10C,0.300000*%
%TA.AperFunction,NonConductor*%
%ADD11C,0.300000*%
%TD*%
%TA.AperFunction,ComponentPad*%
%ADD12O,1.700000X1.700000*%
%TD*%
%TA.AperFunction,ComponentPad*%
%ADD13R,1.700000X1.700000*%
%TD*%
%TA.AperFunction,ComponentPad*%
%ADD14C,1.676400*%
%TD*%
%TA.AperFunction,ComponentPad*%
%ADD15C,0.800000*%
%TD*%
%TA.AperFunction,ComponentPad*%
%ADD16C,6.400000*%
%TD*%
%TA.AperFunction,ComponentPad*%
%ADD17RoundRect,0.250000X-0.600000X-0.750000X0.600000X-0.750000X0.600000X0.750000X-0.600000X0.750000X0*%
%TD*%
%TA.AperFunction,ComponentPad*%
%ADD18O,1.700000X2.000000*%
%TD*%
%TA.AperFunction,ComponentPad*%
%ADD19R,1.600000X1.600000*%
%TD*%
%TA.AperFunction,ComponentPad*%
%ADD20C,1.600000*%
%TD*%
%TA.AperFunction,ViaPad*%
%ADD21C,0.600000*%
%TD*%
%TA.AperFunction,Conductor*%
%ADD22C,1.000000*%
%TD*%
%TA.AperFunction,Conductor*%
%ADD23C,0.254000*%
%TD*%
G04 APERTURE END LIST*
D10*
D11*
X157679171Y-69134510D02*
X159179171Y-69134510D01*
X159179171Y-69134510D02*
X159179171Y-69705939D01*
X159179171Y-69705939D02*
X159107742Y-69848796D01*
X159107742Y-69848796D02*
X159036314Y-69920225D01*
X159036314Y-69920225D02*
X158893457Y-69991653D01*
X158893457Y-69991653D02*
X158679171Y-69991653D01*
X158679171Y-69991653D02*
X158536314Y-69920225D01*
X158536314Y-69920225D02*
X158464885Y-69848796D01*
X158464885Y-69848796D02*
X158393457Y-69705939D01*
X158393457Y-69705939D02*
X158393457Y-69134510D01*
X157679171Y-71491653D02*
X158393457Y-70991653D01*
X157679171Y-70634510D02*
X159179171Y-70634510D01*
X159179171Y-70634510D02*
X159179171Y-71205939D01*
X159179171Y-71205939D02*
X159107742Y-71348796D01*
X159107742Y-71348796D02*
X159036314Y-71420225D01*
X159036314Y-71420225D02*
X158893457Y-71491653D01*
X158893457Y-71491653D02*
X158679171Y-71491653D01*
X158679171Y-71491653D02*
X158536314Y-71420225D01*
X158536314Y-71420225D02*
X158464885Y-71348796D01*
X158464885Y-71348796D02*
X158393457Y-71205939D01*
X158393457Y-71205939D02*
X158393457Y-70634510D01*
X159179171Y-72420225D02*
X159179171Y-72705939D01*
X159179171Y-72705939D02*
X159107742Y-72848796D01*
X159107742Y-72848796D02*
X158964885Y-72991653D01*
X158964885Y-72991653D02*
X158679171Y-73063082D01*
X158679171Y-73063082D02*
X158179171Y-73063082D01*
X158179171Y-73063082D02*
X157893457Y-72991653D01*
X157893457Y-72991653D02*
X157750600Y-72848796D01*
X157750600Y-72848796D02*
X157679171Y-72705939D01*
X157679171Y-72705939D02*
X157679171Y-72420225D01*
X157679171Y-72420225D02*
X157750600Y-72277368D01*
X157750600Y-72277368D02*
X157893457Y-72134510D01*
X157893457Y-72134510D02*
X158179171Y-72063082D01*
X158179171Y-72063082D02*
X158679171Y-72063082D01*
X158679171Y-72063082D02*
X158964885Y-72134510D01*
X158964885Y-72134510D02*
X159107742Y-72277368D01*
X159107742Y-72277368D02*
X159179171Y-72420225D01*
X157822028Y-74563082D02*
X157750600Y-74491654D01*
X157750600Y-74491654D02*
X157679171Y-74277368D01*
X157679171Y-74277368D02*
X157679171Y-74134511D01*
X157679171Y-74134511D02*
X157750600Y-73920225D01*
X157750600Y-73920225D02*
X157893457Y-73777368D01*
X157893457Y-73777368D02*
X158036314Y-73705939D01*
X158036314Y-73705939D02*
X158322028Y-73634511D01*
X158322028Y-73634511D02*
X158536314Y-73634511D01*
X158536314Y-73634511D02*
X158822028Y-73705939D01*
X158822028Y-73705939D02*
X158964885Y-73777368D01*
X158964885Y-73777368D02*
X159107742Y-73920225D01*
X159107742Y-73920225D02*
X159179171Y-74134511D01*
X159179171Y-74134511D02*
X159179171Y-74277368D01*
X159179171Y-74277368D02*
X159107742Y-74491654D01*
X159107742Y-74491654D02*
X159036314Y-74563082D01*
X158464885Y-75205939D02*
X158464885Y-75705939D01*
X157679171Y-75920225D02*
X157679171Y-75205939D01*
X157679171Y-75205939D02*
X159179171Y-75205939D01*
X159179171Y-75205939D02*
X159179171Y-75920225D01*
X157750600Y-76491654D02*
X157679171Y-76705940D01*
X157679171Y-76705940D02*
X157679171Y-77063082D01*
X157679171Y-77063082D02*
X157750600Y-77205940D01*
X157750600Y-77205940D02*
X157822028Y-77277368D01*
X157822028Y-77277368D02*
X157964885Y-77348797D01*
X157964885Y-77348797D02*
X158107742Y-77348797D01*
X158107742Y-77348797D02*
X158250600Y-77277368D01*
X158250600Y-77277368D02*
X158322028Y-77205940D01*
X158322028Y-77205940D02*
X158393457Y-77063082D01*
X158393457Y-77063082D02*
X158464885Y-76777368D01*
X158464885Y-76777368D02*
X158536314Y-76634511D01*
X158536314Y-76634511D02*
X158607742Y-76563082D01*
X158607742Y-76563082D02*
X158750600Y-76491654D01*
X158750600Y-76491654D02*
X158893457Y-76491654D01*
X158893457Y-76491654D02*
X159036314Y-76563082D01*
X159036314Y-76563082D02*
X159107742Y-76634511D01*
X159107742Y-76634511D02*
X159179171Y-76777368D01*
X159179171Y-76777368D02*
X159179171Y-77134511D01*
X159179171Y-77134511D02*
X159107742Y-77348797D01*
X157750600Y-77920225D02*
X157679171Y-78134511D01*
X157679171Y-78134511D02*
X157679171Y-78491653D01*
X157679171Y-78491653D02*
X157750600Y-78634511D01*
X157750600Y-78634511D02*
X157822028Y-78705939D01*
X157822028Y-78705939D02*
X157964885Y-78777368D01*
X157964885Y-78777368D02*
X158107742Y-78777368D01*
X158107742Y-78777368D02*
X158250600Y-78705939D01*
X158250600Y-78705939D02*
X158322028Y-78634511D01*
X158322028Y-78634511D02*
X158393457Y-78491653D01*
X158393457Y-78491653D02*
X158464885Y-78205939D01*
X158464885Y-78205939D02*
X158536314Y-78063082D01*
X158536314Y-78063082D02*
X158607742Y-77991653D01*
X158607742Y-77991653D02*
X158750600Y-77920225D01*
X158750600Y-77920225D02*
X158893457Y-77920225D01*
X158893457Y-77920225D02*
X159036314Y-77991653D01*
X159036314Y-77991653D02*
X159107742Y-78063082D01*
X159107742Y-78063082D02*
X159179171Y-78205939D01*
X159179171Y-78205939D02*
X159179171Y-78563082D01*
X159179171Y-78563082D02*
X159107742Y-78777368D01*
X159179171Y-79705939D02*
X159179171Y-79991653D01*
X159179171Y-79991653D02*
X159107742Y-80134510D01*
X159107742Y-80134510D02*
X158964885Y-80277367D01*
X158964885Y-80277367D02*
X158679171Y-80348796D01*
X158679171Y-80348796D02*
X158179171Y-80348796D01*
X158179171Y-80348796D02*
X157893457Y-80277367D01*
X157893457Y-80277367D02*
X157750600Y-80134510D01*
X157750600Y-80134510D02*
X157679171Y-79991653D01*
X157679171Y-79991653D02*
X157679171Y-79705939D01*
X157679171Y-79705939D02*
X157750600Y-79563082D01*
X157750600Y-79563082D02*
X157893457Y-79420224D01*
X157893457Y-79420224D02*
X158179171Y-79348796D01*
X158179171Y-79348796D02*
X158679171Y-79348796D01*
X158679171Y-79348796D02*
X158964885Y-79420224D01*
X158964885Y-79420224D02*
X159107742Y-79563082D01*
X159107742Y-79563082D02*
X159179171Y-79705939D01*
X157679171Y-81848796D02*
X158393457Y-81348796D01*
X157679171Y-80991653D02*
X159179171Y-80991653D01*
X159179171Y-80991653D02*
X159179171Y-81563082D01*
X159179171Y-81563082D02*
X159107742Y-81705939D01*
X159107742Y-81705939D02*
X159036314Y-81777368D01*
X159036314Y-81777368D02*
X158893457Y-81848796D01*
X158893457Y-81848796D02*
X158679171Y-81848796D01*
X158679171Y-81848796D02*
X158536314Y-81777368D01*
X158536314Y-81777368D02*
X158464885Y-81705939D01*
X158464885Y-81705939D02*
X158393457Y-81563082D01*
X158393457Y-81563082D02*
X158393457Y-80991653D01*
X158464885Y-84134510D02*
X158393457Y-84348796D01*
X158393457Y-84348796D02*
X158322028Y-84420225D01*
X158322028Y-84420225D02*
X158179171Y-84491653D01*
X158179171Y-84491653D02*
X157964885Y-84491653D01*
X157964885Y-84491653D02*
X157822028Y-84420225D01*
X157822028Y-84420225D02*
X157750600Y-84348796D01*
X157750600Y-84348796D02*
X157679171Y-84205939D01*
X157679171Y-84205939D02*
X157679171Y-83634510D01*
X157679171Y-83634510D02*
X159179171Y-83634510D01*
X159179171Y-83634510D02*
X159179171Y-84134510D01*
X159179171Y-84134510D02*
X159107742Y-84277368D01*
X159107742Y-84277368D02*
X159036314Y-84348796D01*
X159036314Y-84348796D02*
X158893457Y-84420225D01*
X158893457Y-84420225D02*
X158750600Y-84420225D01*
X158750600Y-84420225D02*
X158607742Y-84348796D01*
X158607742Y-84348796D02*
X158536314Y-84277368D01*
X158536314Y-84277368D02*
X158464885Y-84134510D01*
X158464885Y-84134510D02*
X158464885Y-83634510D01*
X159179171Y-85420225D02*
X159179171Y-85705939D01*
X159179171Y-85705939D02*
X159107742Y-85848796D01*
X159107742Y-85848796D02*
X158964885Y-85991653D01*
X158964885Y-85991653D02*
X158679171Y-86063082D01*
X158679171Y-86063082D02*
X158179171Y-86063082D01*
X158179171Y-86063082D02*
X157893457Y-85991653D01*
X157893457Y-85991653D02*
X157750600Y-85848796D01*
X157750600Y-85848796D02*
X157679171Y-85705939D01*
X157679171Y-85705939D02*
X157679171Y-85420225D01*
X157679171Y-85420225D02*
X157750600Y-85277368D01*
X157750600Y-85277368D02*
X157893457Y-85134510D01*
X157893457Y-85134510D02*
X158179171Y-85063082D01*
X158179171Y-85063082D02*
X158679171Y-85063082D01*
X158679171Y-85063082D02*
X158964885Y-85134510D01*
X158964885Y-85134510D02*
X159107742Y-85277368D01*
X159107742Y-85277368D02*
X159179171Y-85420225D01*
X158107742Y-86634511D02*
X158107742Y-87348797D01*
X157679171Y-86491654D02*
X159179171Y-86991654D01*
X159179171Y-86991654D02*
X157679171Y-87491654D01*
X157679171Y-88848796D02*
X158393457Y-88348796D01*
X157679171Y-87991653D02*
X159179171Y-87991653D01*
X159179171Y-87991653D02*
X159179171Y-88563082D01*
X159179171Y-88563082D02*
X159107742Y-88705939D01*
X159107742Y-88705939D02*
X159036314Y-88777368D01*
X159036314Y-88777368D02*
X158893457Y-88848796D01*
X158893457Y-88848796D02*
X158679171Y-88848796D01*
X158679171Y-88848796D02*
X158536314Y-88777368D01*
X158536314Y-88777368D02*
X158464885Y-88705939D01*
X158464885Y-88705939D02*
X158393457Y-88563082D01*
X158393457Y-88563082D02*
X158393457Y-87991653D01*
X157679171Y-89491653D02*
X159179171Y-89491653D01*
X159179171Y-89491653D02*
X159179171Y-89848796D01*
X159179171Y-89848796D02*
X159107742Y-90063082D01*
X159107742Y-90063082D02*
X158964885Y-90205939D01*
X158964885Y-90205939D02*
X158822028Y-90277368D01*
X158822028Y-90277368D02*
X158536314Y-90348796D01*
X158536314Y-90348796D02*
X158322028Y-90348796D01*
X158322028Y-90348796D02*
X158036314Y-90277368D01*
X158036314Y-90277368D02*
X157893457Y-90205939D01*
X157893457Y-90205939D02*
X157750600Y-90063082D01*
X157750600Y-90063082D02*
X157679171Y-89848796D01*
X157679171Y-89848796D02*
X157679171Y-89491653D01*
X159036314Y-92063082D02*
X159107742Y-92134510D01*
X159107742Y-92134510D02*
X159179171Y-92277368D01*
X159179171Y-92277368D02*
X159179171Y-92634510D01*
X159179171Y-92634510D02*
X159107742Y-92777368D01*
X159107742Y-92777368D02*
X159036314Y-92848796D01*
X159036314Y-92848796D02*
X158893457Y-92920225D01*
X158893457Y-92920225D02*
X158750600Y-92920225D01*
X158750600Y-92920225D02*
X158536314Y-92848796D01*
X158536314Y-92848796D02*
X157679171Y-91991653D01*
X157679171Y-91991653D02*
X157679171Y-92920225D01*
X159179171Y-93848796D02*
X159179171Y-93991653D01*
X159179171Y-93991653D02*
X159107742Y-94134510D01*
X159107742Y-94134510D02*
X159036314Y-94205939D01*
X159036314Y-94205939D02*
X158893457Y-94277367D01*
X158893457Y-94277367D02*
X158607742Y-94348796D01*
X158607742Y-94348796D02*
X158250600Y-94348796D01*
X158250600Y-94348796D02*
X157964885Y-94277367D01*
X157964885Y-94277367D02*
X157822028Y-94205939D01*
X157822028Y-94205939D02*
X157750600Y-94134510D01*
X157750600Y-94134510D02*
X157679171Y-93991653D01*
X157679171Y-93991653D02*
X157679171Y-93848796D01*
X157679171Y-93848796D02*
X157750600Y-93705939D01*
X157750600Y-93705939D02*
X157822028Y-93634510D01*
X157822028Y-93634510D02*
X157964885Y-93563081D01*
X157964885Y-93563081D02*
X158250600Y-93491653D01*
X158250600Y-93491653D02*
X158607742Y-93491653D01*
X158607742Y-93491653D02*
X158893457Y-93563081D01*
X158893457Y-93563081D02*
X159036314Y-93634510D01*
X159036314Y-93634510D02*
X159107742Y-93705939D01*
X159107742Y-93705939D02*
X159179171Y-93848796D01*
X159036314Y-94920224D02*
X159107742Y-94991652D01*
X159107742Y-94991652D02*
X159179171Y-95134510D01*
X159179171Y-95134510D02*
X159179171Y-95491652D01*
X159179171Y-95491652D02*
X159107742Y-95634510D01*
X159107742Y-95634510D02*
X159036314Y-95705938D01*
X159036314Y-95705938D02*
X158893457Y-95777367D01*
X158893457Y-95777367D02*
X158750600Y-95777367D01*
X158750600Y-95777367D02*
X158536314Y-95705938D01*
X158536314Y-95705938D02*
X157679171Y-94848795D01*
X157679171Y-94848795D02*
X157679171Y-95777367D01*
X159179171Y-97134509D02*
X159179171Y-96420223D01*
X159179171Y-96420223D02*
X158464885Y-96348795D01*
X158464885Y-96348795D02*
X158536314Y-96420223D01*
X158536314Y-96420223D02*
X158607742Y-96563081D01*
X158607742Y-96563081D02*
X158607742Y-96920223D01*
X158607742Y-96920223D02*
X158536314Y-97063081D01*
X158536314Y-97063081D02*
X158464885Y-97134509D01*
X158464885Y-97134509D02*
X158322028Y-97205938D01*
X158322028Y-97205938D02*
X157964885Y-97205938D01*
X157964885Y-97205938D02*
X157822028Y-97134509D01*
X157822028Y-97134509D02*
X157750600Y-97063081D01*
X157750600Y-97063081D02*
X157679171Y-96920223D01*
X157679171Y-96920223D02*
X157679171Y-96563081D01*
X157679171Y-96563081D02*
X157750600Y-96420223D01*
X157750600Y-96420223D02*
X157822028Y-96348795D01*
D10*
D11*
X161719171Y-74214510D02*
X160504885Y-74214510D01*
X160504885Y-74214510D02*
X160362028Y-74285939D01*
X160362028Y-74285939D02*
X160290600Y-74357368D01*
X160290600Y-74357368D02*
X160219171Y-74500225D01*
X160219171Y-74500225D02*
X160219171Y-74785939D01*
X160219171Y-74785939D02*
X160290600Y-74928796D01*
X160290600Y-74928796D02*
X160362028Y-75000225D01*
X160362028Y-75000225D02*
X160504885Y-75071653D01*
X160504885Y-75071653D02*
X161719171Y-75071653D01*
X160219171Y-75785939D02*
X161719171Y-75785939D01*
X161719171Y-75785939D02*
X160647742Y-76285939D01*
X160647742Y-76285939D02*
X161719171Y-76785939D01*
X161719171Y-76785939D02*
X160219171Y-76785939D01*
X160219171Y-77500225D02*
X161719171Y-77500225D01*
X160362028Y-79071654D02*
X160290600Y-79000226D01*
X160290600Y-79000226D02*
X160219171Y-78785940D01*
X160219171Y-78785940D02*
X160219171Y-78643083D01*
X160219171Y-78643083D02*
X160290600Y-78428797D01*
X160290600Y-78428797D02*
X160433457Y-78285940D01*
X160433457Y-78285940D02*
X160576314Y-78214511D01*
X160576314Y-78214511D02*
X160862028Y-78143083D01*
X160862028Y-78143083D02*
X161076314Y-78143083D01*
X161076314Y-78143083D02*
X161362028Y-78214511D01*
X161362028Y-78214511D02*
X161504885Y-78285940D01*
X161504885Y-78285940D02*
X161647742Y-78428797D01*
X161647742Y-78428797D02*
X161719171Y-78643083D01*
X161719171Y-78643083D02*
X161719171Y-78785940D01*
X161719171Y-78785940D02*
X161647742Y-79000226D01*
X161647742Y-79000226D02*
X161576314Y-79071654D01*
X160219171Y-79714511D02*
X161719171Y-79714511D01*
X161004885Y-79714511D02*
X161004885Y-80571654D01*
X160219171Y-80571654D02*
X161719171Y-80571654D01*
X161004885Y-82928797D02*
X160933457Y-83143083D01*
X160933457Y-83143083D02*
X160862028Y-83214512D01*
X160862028Y-83214512D02*
X160719171Y-83285940D01*
X160719171Y-83285940D02*
X160504885Y-83285940D01*
X160504885Y-83285940D02*
X160362028Y-83214512D01*
X160362028Y-83214512D02*
X160290600Y-83143083D01*
X160290600Y-83143083D02*
X160219171Y-83000226D01*
X160219171Y-83000226D02*
X160219171Y-82428797D01*
X160219171Y-82428797D02*
X161719171Y-82428797D01*
X161719171Y-82428797D02*
X161719171Y-82928797D01*
X161719171Y-82928797D02*
X161647742Y-83071655D01*
X161647742Y-83071655D02*
X161576314Y-83143083D01*
X161576314Y-83143083D02*
X161433457Y-83214512D01*
X161433457Y-83214512D02*
X161290600Y-83214512D01*
X161290600Y-83214512D02*
X161147742Y-83143083D01*
X161147742Y-83143083D02*
X161076314Y-83071655D01*
X161076314Y-83071655D02*
X161004885Y-82928797D01*
X161004885Y-82928797D02*
X161004885Y-82428797D01*
X160647742Y-83857369D02*
X160647742Y-84571655D01*
X160219171Y-83714512D02*
X161719171Y-84214512D01*
X161719171Y-84214512D02*
X160219171Y-84714512D01*
X160219171Y-85928797D02*
X160219171Y-85214511D01*
X160219171Y-85214511D02*
X161719171Y-85214511D01*
X160219171Y-87143083D02*
X160219171Y-86428797D01*
X160219171Y-86428797D02*
X161719171Y-86428797D01*
X161719171Y-87928798D02*
X161719171Y-88214512D01*
X161719171Y-88214512D02*
X161647742Y-88357369D01*
X161647742Y-88357369D02*
X161504885Y-88500226D01*
X161504885Y-88500226D02*
X161219171Y-88571655D01*
X161219171Y-88571655D02*
X160719171Y-88571655D01*
X160719171Y-88571655D02*
X160433457Y-88500226D01*
X160433457Y-88500226D02*
X160290600Y-88357369D01*
X160290600Y-88357369D02*
X160219171Y-88214512D01*
X160219171Y-88214512D02*
X160219171Y-87928798D01*
X160219171Y-87928798D02*
X160290600Y-87785941D01*
X160290600Y-87785941D02*
X160433457Y-87643083D01*
X160433457Y-87643083D02*
X160719171Y-87571655D01*
X160719171Y-87571655D02*
X161219171Y-87571655D01*
X161219171Y-87571655D02*
X161504885Y-87643083D01*
X161504885Y-87643083D02*
X161647742Y-87785941D01*
X161647742Y-87785941D02*
X161719171Y-87928798D01*
X161719171Y-89500227D02*
X161719171Y-89785941D01*
X161719171Y-89785941D02*
X161647742Y-89928798D01*
X161647742Y-89928798D02*
X161504885Y-90071655D01*
X161504885Y-90071655D02*
X161219171Y-90143084D01*
X161219171Y-90143084D02*
X160719171Y-90143084D01*
X160719171Y-90143084D02*
X160433457Y-90071655D01*
X160433457Y-90071655D02*
X160290600Y-89928798D01*
X160290600Y-89928798D02*
X160219171Y-89785941D01*
X160219171Y-89785941D02*
X160219171Y-89500227D01*
X160219171Y-89500227D02*
X160290600Y-89357370D01*
X160290600Y-89357370D02*
X160433457Y-89214512D01*
X160433457Y-89214512D02*
X160719171Y-89143084D01*
X160719171Y-89143084D02*
X161219171Y-89143084D01*
X161219171Y-89143084D02*
X161504885Y-89214512D01*
X161504885Y-89214512D02*
X161647742Y-89357370D01*
X161647742Y-89357370D02*
X161719171Y-89500227D01*
X160219171Y-90785941D02*
X161719171Y-90785941D01*
X161719171Y-90785941D02*
X160219171Y-91643084D01*
X160219171Y-91643084D02*
X161719171Y-91643084D01*
X160290600Y-92285942D02*
X160219171Y-92500228D01*
X160219171Y-92500228D02*
X160219171Y-92857370D01*
X160219171Y-92857370D02*
X160290600Y-93000228D01*
X160290600Y-93000228D02*
X160362028Y-93071656D01*
X160362028Y-93071656D02*
X160504885Y-93143085D01*
X160504885Y-93143085D02*
X160647742Y-93143085D01*
X160647742Y-93143085D02*
X160790600Y-93071656D01*
X160790600Y-93071656D02*
X160862028Y-93000228D01*
X160862028Y-93000228D02*
X160933457Y-92857370D01*
X160933457Y-92857370D02*
X161004885Y-92571656D01*
X161004885Y-92571656D02*
X161076314Y-92428799D01*
X161076314Y-92428799D02*
X161147742Y-92357370D01*
X161147742Y-92357370D02*
X161290600Y-92285942D01*
X161290600Y-92285942D02*
X161433457Y-92285942D01*
X161433457Y-92285942D02*
X161576314Y-92357370D01*
X161576314Y-92357370D02*
X161647742Y-92428799D01*
X161647742Y-92428799D02*
X161719171Y-92571656D01*
X161719171Y-92571656D02*
X161719171Y-92928799D01*
X161719171Y-92928799D02*
X161647742Y-93143085D01*
D12*
%TO.P,J2,40,Pin_40*%
%TO.N,GND*%
X210312000Y-104140000D03*
%TO.P,J2,39,Pin_39*%
X207772000Y-104140000D03*
%TO.P,J2,38,Pin_38*%
X210312000Y-101600000D03*
%TO.P,J2,37,Pin_37*%
%TO.N,uC_37*%
X207772000Y-101600000D03*
%TO.P,J2,36,Pin_36*%
%TO.N,GND*%
X210312000Y-99060000D03*
%TO.P,J2,35,Pin_35*%
%TO.N,uC_UART1_TX_DRA818V_RX*%
X207772000Y-99060000D03*
%TO.P,J2,34,Pin_34*%
%TO.N,GND*%
X210312000Y-96520000D03*
%TO.P,J2,33,Pin_33*%
%TO.N,uC_UART1_RX_DRA818V_TX*%
X207772000Y-96520000D03*
%TO.P,J2,32,Pin_32*%
%TO.N,uC_32_ROCKBLOCK_TX*%
X210312000Y-93980000D03*
%TO.P,J2,31,Pin_31*%
%TO.N,uC_SPI_MI*%
X207772000Y-93980000D03*
%TO.P,J2,30,Pin_30*%
%TO.N,uC_15_ROCKBLOCK_RX*%
X210312000Y-91440000D03*
%TO.P,J2,29,Pin_29*%
%TO.N,uC_SPI_MO*%
X207772000Y-91440000D03*
%TO.P,J2,28,Pin_28*%
%TO.N,GND*%
X210312000Y-88900000D03*
%TO.P,J2,27,Pin_27*%
%TO.N,uC_SPI_SCK*%
X207772000Y-88900000D03*
%TO.P,J2,26,Pin_26*%
%TO.N,GND*%
X210312000Y-86360000D03*
%TO.P,J2,25,Pin_25*%
%TO.N,uC_i2C_SDA*%
X207772000Y-86360000D03*
%TO.P,J2,24,Pin_24*%
%TO.N,GND*%
X210312000Y-83820000D03*
%TO.P,J2,23,Pin_23*%
%TO.N,uC_I2C_SCL*%
X207772000Y-83820000D03*
%TO.P,J2,22,Pin_22*%
%TO.N,GND*%
X210312000Y-81280000D03*
%TO.P,J2,21,Pin_21*%
%TO.N,uC_14*%
X207772000Y-81280000D03*
%TO.P,J2,20,Pin_20*%
%TO.N,GND*%
X210312000Y-78740000D03*
%TO.P,J2,19,Pin_19*%
%TO.N,uC_32_DRA818V_HL*%
X207772000Y-78740000D03*
%TO.P,J2,18,Pin_18*%
%TO.N,uC_19*%
X210312000Y-76200000D03*
%TO.P,J2,17,Pin_17*%
%TO.N,uC_27_DRA818V_MIC_IN*%
X207772000Y-76200000D03*
%TO.P,J2,16,Pin_16*%
%TO.N,uC_20_IONLY*%
X210312000Y-73660000D03*
%TO.P,J2,15,Pin_15*%
%TO.N,uC_12_DRA818V_PD*%
X207772000Y-73660000D03*
%TO.P,J2,14,Pin_14*%
%TO.N,uC_21_IONLY*%
X210312000Y-71120000D03*
%TO.P,J2,13,Pin_13*%
%TO.N,uC_13_DRA818V_PTT*%
X207772000Y-71120000D03*
%TO.P,J2,12,Pin_12*%
%TO.N,uC_22_IONLY*%
X210312000Y-68580000D03*
%TO.P,J2,11,Pin_11*%
%TO.N,GND*%
X207772000Y-68580000D03*
%TO.P,J2,10,Pin_10*%
%TO.N,uC_23*%
X210312000Y-66040000D03*
%TO.P,J2,9,Pin_9*%
%TO.N,uC_VUSB*%
X207772000Y-66040000D03*
%TO.P,J2,8,Pin_8*%
%TO.N,uC_24*%
X210312000Y-63500000D03*
%TO.P,J2,7,Pin_7*%
%TO.N,uC_EN*%
X207772000Y-63500000D03*
%TO.P,J2,6,Pin_6*%
%TO.N,GND*%
X210312000Y-60960000D03*
%TO.P,J2,5,Pin_5*%
X207772000Y-60960000D03*
%TO.P,J2,4,Pin_4*%
%TO.N,3V_BUS*%
X210312000Y-58420000D03*
%TO.P,J2,3,Pin_3*%
%TO.N,uC_VBAT*%
X207772000Y-58420000D03*
%TO.P,J2,2,Pin_2*%
%TO.N,3V_BUS*%
X210312000Y-55880000D03*
D13*
%TO.P,J2,1,Pin_1*%
%TO.N,uC_VBAT*%
X207772000Y-55880000D03*
%TD*%
D14*
%TO.P,U1,1,BAT*%
%TO.N,uC_VBAT*%
X190500000Y-71120000D03*
%TO.P,U1,2,EN*%
%TO.N,uC_EN*%
X190500000Y-73660000D03*
%TO.P,U1,3,USB*%
%TO.N,uC_VUSB*%
X190500000Y-76200000D03*
%TO.P,U1,4,13*%
%TO.N,uC_13_DRA818V_PTT*%
X190500000Y-78740000D03*
%TO.P,U1,5,12*%
%TO.N,uC_12_DRA818V_PD*%
X190500000Y-81280000D03*
%TO.P,U1,6,27*%
%TO.N,uC_27_DRA818V_MIC_IN*%
X190500000Y-83820000D03*
%TO.P,U1,7,33*%
%TO.N,uC_15_ROCKBLOCK_RX*%
X190500000Y-86360000D03*
%TO.P,U1,8,15*%
%TO.N,uC_32_ROCKBLOCK_TX*%
X190500000Y-88900000D03*
%TO.P,U1,9,32*%
%TO.N,uC_32_DRA818V_HL*%
X190500000Y-91440000D03*
%TO.P,U1,10,14*%
%TO.N,uC_14*%
X190500000Y-93980000D03*
%TO.P,U1,11,SCL*%
%TO.N,uC_I2C_SCL*%
X190500000Y-96520000D03*
%TO.P,U1,12,SDA*%
%TO.N,uC_i2C_SDA*%
X190500000Y-99060000D03*
%TO.P,U1,13,37*%
%TO.N,uC_37*%
X170180000Y-99060000D03*
%TO.P,U1,14,TX*%
%TO.N,uC_UART1_TX_DRA818V_RX*%
X170180000Y-96520000D03*
%TO.P,U1,15,RX*%
%TO.N,uC_UART1_RX_DRA818V_TX*%
X170180000Y-93980000D03*
%TO.P,U1,16,MI*%
%TO.N,uC_SPI_MI*%
X170180000Y-91440000D03*
%TO.P,U1,17,MO*%
%TO.N,uC_SPI_MO*%
X170180000Y-88900000D03*
%TO.P,U1,18,SCK*%
%TO.N,uC_SPI_SCK*%
X170180000Y-86360000D03*
%TO.P,U1,19,A5*%
%TO.N,uC_19*%
X170180000Y-83820000D03*
%TO.P,U1,20,A4*%
%TO.N,uC_20_IONLY*%
X170180000Y-81280000D03*
%TO.P,U1,21,A3*%
%TO.N,uC_21_IONLY*%
X170180000Y-78740000D03*
%TO.P,U1,22,A2*%
%TO.N,uC_22_IONLY*%
X170180000Y-76200000D03*
%TO.P,U1,23,A1*%
%TO.N,uC_23*%
X170180000Y-73660000D03*
%TO.P,U1,24,A0*%
%TO.N,uC_24*%
X170180000Y-71120000D03*
%TO.P,U1,25,GND*%
%TO.N,GND*%
X170180000Y-68580000D03*
%TO.P,U1,26,NC*%
%TO.N,unconnected-(U1-NC-Pad26)*%
X170180000Y-66040000D03*
%TO.P,U1,27,3V*%
%TO.N,uC_3V*%
X170180000Y-63500000D03*
%TO.P,U1,28,RST*%
%TO.N,uC_RST*%
X170180000Y-60960000D03*
%TD*%
D15*
%TO.P,H4,1,1*%
%TO.N,GND*%
X157620000Y-101600000D03*
X158322944Y-99902944D03*
X158322944Y-103297056D03*
X160020000Y-99200000D03*
D16*
X160020000Y-101600000D03*
D15*
X160020000Y-104000000D03*
X161717056Y-99902944D03*
X161717056Y-103297056D03*
X162420000Y-101600000D03*
%TD*%
%TO.P,H3,1,1*%
%TO.N,GND*%
X213500000Y-101600000D03*
X214202944Y-99902944D03*
X214202944Y-103297056D03*
X215900000Y-99200000D03*
D16*
X215900000Y-101600000D03*
D15*
X215900000Y-104000000D03*
X217597056Y-99902944D03*
X217597056Y-103297056D03*
X218300000Y-101600000D03*
%TD*%
%TO.P,H2,1,1*%
%TO.N,GND*%
X213500000Y-58420000D03*
X214202944Y-56722944D03*
X214202944Y-60117056D03*
X215900000Y-56020000D03*
D16*
X215900000Y-58420000D03*
D15*
X215900000Y-60820000D03*
X217597056Y-56722944D03*
X217597056Y-60117056D03*
X218300000Y-58420000D03*
%TD*%
%TO.P,H1,1,1*%
%TO.N,GND*%
X157620000Y-58420000D03*
X158322944Y-56722944D03*
X158322944Y-60117056D03*
X160020000Y-56020000D03*
D16*
X160020000Y-58420000D03*
D15*
X160020000Y-60820000D03*
X161717056Y-56722944D03*
X161717056Y-60117056D03*
X162420000Y-58420000D03*
%TD*%
D17*
%TO.P,J1,1,Pin_1*%
%TO.N,uC_VBAT*%
X195620000Y-60960000D03*
D18*
%TO.P,J1,2,Pin_2*%
%TO.N,GND*%
X198120000Y-60960000D03*
%TD*%
D19*
%TO.P,C1,1*%
%TO.N,uC_VBAT*%
X195580000Y-66580000D03*
D20*
%TO.P,C1,2*%
%TO.N,GND*%
X197580000Y-66580000D03*
%TD*%
D21*
%TO.N,uC_24*%
X191008000Y-64262000D03*
%TO.N,uC_21_IONLY*%
X203962000Y-71120000D03*
X194056000Y-76200000D03*
X187198000Y-73914000D03*
%TO.N,uC_23*%
X200152000Y-68072000D03*
X190246000Y-69088000D03*
%TO.N,uC_22_IONLY*%
X195834000Y-71882000D03*
X189230000Y-72644000D03*
%TO.N,uC_20_IONLY*%
X189230000Y-75184000D03*
%TO.N,uC_19*%
X198374000Y-76200000D03*
%TO.N,uC_SPI_SCK*%
X188722000Y-99568000D03*
X197358000Y-99314000D03*
%TD*%
D22*
%TO.N,3V_BUS*%
X210312000Y-58420000D02*
X210312000Y-55880000D01*
D23*
%TO.N,uC_i2C_SDA*%
X195072000Y-99060000D02*
X190500000Y-99060000D01*
X207772000Y-86360000D02*
X195072000Y-99060000D01*
%TO.N,uC_SPI_MO*%
X181610000Y-100584000D02*
X170180000Y-89154000D01*
X170180000Y-89154000D02*
X170180000Y-88900000D01*
X198628000Y-100584000D02*
X181610000Y-100584000D01*
X207772000Y-91440000D02*
X198628000Y-100584000D01*
%TO.N,uC_24*%
X177038000Y-64262000D02*
X191008000Y-64262000D01*
X170180000Y-71120000D02*
X177038000Y-64262000D01*
%TO.N,uC_21_IONLY*%
X199136000Y-71120000D02*
X203962000Y-71120000D01*
X194056000Y-76200000D02*
X199136000Y-71120000D01*
X175006000Y-73914000D02*
X187198000Y-73914000D01*
X170180000Y-78740000D02*
X175006000Y-73914000D01*
D22*
%TO.N,uC_VBAT*%
X195580000Y-66580000D02*
X195580000Y-61000000D01*
D23*
%TO.N,uC_23*%
X209134000Y-67218000D02*
X210312000Y-66040000D01*
X201006000Y-67218000D02*
X209134000Y-67218000D01*
X200152000Y-68072000D02*
X201006000Y-67218000D01*
X174752000Y-69088000D02*
X190246000Y-69088000D01*
X170180000Y-73660000D02*
X174752000Y-69088000D01*
%TO.N,uC_22_IONLY*%
X197958000Y-69758000D02*
X209134000Y-69758000D01*
X209134000Y-69758000D02*
X210312000Y-68580000D01*
X195834000Y-71882000D02*
X197958000Y-69758000D01*
X173736000Y-72644000D02*
X189230000Y-72644000D01*
X170180000Y-76200000D02*
X173736000Y-72644000D01*
%TO.N,uC_20_IONLY*%
X176276000Y-75184000D02*
X189230000Y-75184000D01*
X170180000Y-81280000D02*
X176276000Y-75184000D01*
%TO.N,uC_19*%
X197000200Y-77573800D02*
X198374000Y-76200000D01*
X176426200Y-77573800D02*
X197000200Y-77573800D01*
X170180000Y-83820000D02*
X176426200Y-77573800D01*
%TO.N,uC_SPI_SCK*%
X197358000Y-99314000D02*
X207772000Y-88900000D01*
X175260000Y-86106000D02*
X188722000Y-99568000D01*
X170180000Y-86106000D02*
X175260000Y-86106000D01*
X170180000Y-86360000D02*
X170180000Y-86106000D01*
%TO.N,uC_SPI_MI*%
X200660000Y-101092000D02*
X207772000Y-93980000D01*
X179832000Y-101092000D02*
X200660000Y-101092000D01*
X170180000Y-91440000D02*
X179832000Y-101092000D01*
%TO.N,uC_UART1_RX_DRA818V_TX*%
X199591000Y-104701000D02*
X207772000Y-96520000D01*
X180901000Y-104701000D02*
X199591000Y-104701000D01*
X170180000Y-93980000D02*
X180901000Y-104701000D01*
%TO.N,uC_UART1_TX_DRA818V_RX*%
X201676000Y-105156000D02*
X207772000Y-99060000D01*
X170180000Y-96520000D02*
X178816000Y-105156000D01*
X178816000Y-105156000D02*
X201676000Y-105156000D01*
%TO.N,uC_37*%
X203454000Y-105918000D02*
X207772000Y-101600000D01*
X177038000Y-105918000D02*
X203454000Y-105918000D01*
X170180000Y-99060000D02*
X177038000Y-105918000D01*
%TO.N,uC_I2C_SCL*%
X195834000Y-84328000D02*
X196342000Y-83820000D01*
X195834000Y-91186000D02*
X195834000Y-84328000D01*
X190500000Y-96520000D02*
X195834000Y-91186000D01*
X196342000Y-83820000D02*
X207772000Y-83820000D01*
%TO.N,uC_14*%
X195139734Y-84141734D02*
X198001468Y-81280000D01*
X191685393Y-93980000D02*
X195139734Y-90525659D01*
X195139734Y-90525659D02*
X195139734Y-84141734D01*
X190500000Y-93980000D02*
X191685393Y-93980000D01*
X198001468Y-81280000D02*
X207772000Y-81280000D01*
%TO.N,uC_32_DRA818V_HL*%
X199898000Y-78740000D02*
X207772000Y-78740000D01*
X194564000Y-84074000D02*
X199898000Y-78740000D01*
X194564000Y-87376000D02*
X194564000Y-84074000D01*
X190500000Y-91440000D02*
X194564000Y-87376000D01*
%TO.N,uC_27_DRA818V_MIC_IN*%
X201676000Y-76200000D02*
X207772000Y-76200000D01*
X194056000Y-83820000D02*
X201676000Y-76200000D01*
X190500000Y-83820000D02*
X194056000Y-83820000D01*
%TO.N,uC_12_DRA818V_PD*%
X203200000Y-73660000D02*
X207772000Y-73660000D01*
X195580000Y-81280000D02*
X203200000Y-73660000D01*
X190500000Y-81280000D02*
X195580000Y-81280000D01*
%TO.N,uC_13_DRA818V_PTT*%
X204978000Y-71120000D02*
X207772000Y-71120000D01*
X197358000Y-78740000D02*
X204978000Y-71120000D01*
X190500000Y-78740000D02*
X197358000Y-78740000D01*
%TO.N,uC_VUSB*%
X200660000Y-66040000D02*
X207772000Y-66040000D01*
X190500000Y-76200000D02*
X200660000Y-66040000D01*
%TO.N,uC_EN*%
X202438000Y-63500000D02*
X207772000Y-63500000D01*
X202184000Y-63754000D02*
X202438000Y-63500000D01*
X190500000Y-73660000D02*
X192278000Y-73660000D01*
X192278000Y-73660000D02*
X202184000Y-63754000D01*
D22*
%TO.N,uC_VBAT*%
X207772000Y-58420000D02*
X207772000Y-55880000D01*
X200700000Y-55880000D02*
X207772000Y-55880000D01*
D23*
%TO.N,uC_SPI_MI*%
X170180000Y-91440000D02*
X170434000Y-91186000D01*
D22*
%TO.N,uC_VBAT*%
X195040000Y-66580000D02*
X190500000Y-71120000D01*
X200700000Y-55880000D02*
X195620000Y-60960000D01*
%TD*%
%TA.AperFunction,Conductor*%
%TO.N,GND*%
G36*
X220422539Y-53860185D02*
G01*
X220468294Y-53912989D01*
X220479500Y-53964500D01*
X220479500Y-106055500D01*
X220459815Y-106122539D01*
X220407011Y-106168294D01*
X220355500Y-106179500D01*
X204379281Y-106179500D01*
X204312242Y-106159815D01*
X204266487Y-106107011D01*
X204256543Y-106037853D01*
X204285568Y-105974297D01*
X204291600Y-105967819D01*
X204365487Y-105893930D01*
X206333100Y-103926317D01*
X206394421Y-103892834D01*
X206420779Y-103890000D01*
X207338988Y-103890000D01*
X207306075Y-103947007D01*
X207272000Y-104074174D01*
X207272000Y-104205826D01*
X207306075Y-104332993D01*
X207338988Y-104390000D01*
X206444769Y-104390000D01*
X206455242Y-104456126D01*
X206455242Y-104456129D01*
X206520904Y-104658217D01*
X206617379Y-104847557D01*
X206742272Y-105019459D01*
X206742276Y-105019464D01*
X206892535Y-105169723D01*
X206892540Y-105169727D01*
X207064442Y-105294620D01*
X207253782Y-105391095D01*
X207455871Y-105456757D01*
X207522000Y-105467231D01*
X207522000Y-104573012D01*
X207579007Y-104605925D01*
X207706174Y-104640000D01*
X207837826Y-104640000D01*
X207964993Y-104605925D01*
X208022000Y-104573012D01*
X208022000Y-105467230D01*
X208088126Y-105456757D01*
X208088129Y-105456757D01*
X208290217Y-105391095D01*
X208479557Y-105294620D01*
X208651459Y-105169727D01*
X208651464Y-105169723D01*
X208801723Y-105019464D01*
X208801727Y-105019459D01*
X208926620Y-104847558D01*
X208931514Y-104837954D01*
X208979488Y-104787157D01*
X209047308Y-104770361D01*
X209113444Y-104792897D01*
X209152486Y-104837954D01*
X209157379Y-104847558D01*
X209282272Y-105019459D01*
X209282276Y-105019464D01*
X209432535Y-105169723D01*
X209432540Y-105169727D01*
X209604442Y-105294620D01*
X209793782Y-105391095D01*
X209995871Y-105456757D01*
X210062000Y-105467231D01*
X210062000Y-104573012D01*
X210119007Y-104605925D01*
X210246174Y-104640000D01*
X210377826Y-104640000D01*
X210504993Y-104605925D01*
X210562000Y-104573012D01*
X210562000Y-105467230D01*
X210628126Y-105456757D01*
X210628129Y-105456757D01*
X210830217Y-105391095D01*
X211019557Y-105294620D01*
X211191459Y-105169727D01*
X211191464Y-105169723D01*
X211341723Y-105019464D01*
X211341727Y-105019459D01*
X211466620Y-104847557D01*
X211563095Y-104658217D01*
X211628757Y-104456129D01*
X211628757Y-104456126D01*
X211639231Y-104390000D01*
X210745012Y-104390000D01*
X210777925Y-104332993D01*
X210812000Y-104205826D01*
X210812000Y-104074174D01*
X210777925Y-103947007D01*
X210745012Y-103890000D01*
X211639231Y-103890000D01*
X211628757Y-103823873D01*
X211628757Y-103823870D01*
X211563095Y-103621782D01*
X211466620Y-103432442D01*
X211341727Y-103260540D01*
X211341723Y-103260535D01*
X211191464Y-103110276D01*
X211191459Y-103110272D01*
X211019558Y-102985379D01*
X211009954Y-102980486D01*
X210959157Y-102932512D01*
X210942361Y-102864692D01*
X210964897Y-102798556D01*
X211009954Y-102759514D01*
X211019558Y-102754620D01*
X211191459Y-102629727D01*
X211191464Y-102629723D01*
X211341723Y-102479464D01*
X211341727Y-102479459D01*
X211466620Y-102307557D01*
X211563095Y-102118217D01*
X211628757Y-101916129D01*
X211628757Y-101916126D01*
X211639231Y-101850000D01*
X210745012Y-101850000D01*
X210777925Y-101792993D01*
X210812000Y-101665826D01*
X210812000Y-101534174D01*
X210780933Y-101418234D01*
X212200000Y-101418234D01*
X212200000Y-101781765D01*
X212235632Y-102143556D01*
X212306550Y-102500090D01*
X212306553Y-102500101D01*
X212412086Y-102847997D01*
X212551207Y-103183864D01*
X212551209Y-103183869D01*
X212722570Y-103504462D01*
X212722581Y-103504480D01*
X212924551Y-103806750D01*
X213111678Y-104034765D01*
X213111679Y-104034766D01*
X214605747Y-102540697D01*
X214679588Y-102642330D01*
X214857670Y-102820412D01*
X214959301Y-102894251D01*
X213465232Y-104388319D01*
X213465233Y-104388320D01*
X213693249Y-104575448D01*
X213995519Y-104777418D01*
X213995537Y-104777429D01*
X214316130Y-104948790D01*
X214316135Y-104948792D01*
X214652002Y-105087913D01*
X214999898Y-105193446D01*
X214999909Y-105193449D01*
X215356443Y-105264367D01*
X215718234Y-105300000D01*
X216081766Y-105300000D01*
X216443556Y-105264367D01*
X216800090Y-105193449D01*
X216800101Y-105193446D01*
X217147997Y-105087913D01*
X217483864Y-104948792D01*
X217483869Y-104948790D01*
X217804462Y-104777429D01*
X217804480Y-104777418D01*
X218106736Y-104575457D01*
X218106750Y-104575447D01*
X218334765Y-104388320D01*
X218334766Y-104388319D01*
X216840698Y-102894251D01*
X216942330Y-102820412D01*
X217120412Y-102642330D01*
X217194251Y-102540698D01*
X218688319Y-104034766D01*
X218688320Y-104034765D01*
X218875447Y-103806750D01*
X218875457Y-103806736D01*
X219077418Y-103504480D01*
X219077429Y-103504462D01*
X219248790Y-103183869D01*
X219248792Y-103183864D01*
X219387913Y-102847997D01*
X219493446Y-102500101D01*
X219493449Y-102500090D01*
X219564367Y-102143556D01*
X219600000Y-101781765D01*
X219600000Y-101418234D01*
X219564367Y-101056443D01*
X219493449Y-100699909D01*
X219493446Y-100699898D01*
X219387913Y-100352002D01*
X219248792Y-100016135D01*
X219248790Y-100016130D01*
X219077429Y-99695537D01*
X219077418Y-99695519D01*
X218875448Y-99393249D01*
X218688320Y-99165233D01*
X218688319Y-99165232D01*
X217194251Y-100659300D01*
X217120412Y-100557670D01*
X216942330Y-100379588D01*
X216840698Y-100305748D01*
X218334766Y-98811679D01*
X218334765Y-98811678D01*
X218106750Y-98624551D01*
X217804480Y-98422581D01*
X217804462Y-98422570D01*
X217483869Y-98251209D01*
X217483864Y-98251207D01*
X217147997Y-98112086D01*
X216800101Y-98006553D01*
X216800090Y-98006550D01*
X216443556Y-97935632D01*
X216081766Y-97900000D01*
X215718234Y-97900000D01*
X215356443Y-97935632D01*
X214999909Y-98006550D01*
X214999898Y-98006553D01*
X214652002Y-98112086D01*
X214316135Y-98251207D01*
X214316130Y-98251209D01*
X213995537Y-98422570D01*
X213995519Y-98422581D01*
X213693258Y-98624545D01*
X213693254Y-98624548D01*
X213465233Y-98811679D01*
X213465233Y-98811680D01*
X214959301Y-100305748D01*
X214857670Y-100379588D01*
X214679588Y-100557670D01*
X214605748Y-100659301D01*
X213111680Y-99165233D01*
X213111679Y-99165233D01*
X212924548Y-99393254D01*
X212924545Y-99393258D01*
X212722581Y-99695519D01*
X212722570Y-99695537D01*
X212551209Y-100016130D01*
X212551207Y-100016135D01*
X212412086Y-100352002D01*
X212306553Y-100699898D01*
X212306550Y-100699909D01*
X212235632Y-101056443D01*
X212200000Y-101418234D01*
X210780933Y-101418234D01*
X210777925Y-101407007D01*
X210745012Y-101350000D01*
X211639231Y-101350000D01*
X211639231Y-101349999D01*
X211628757Y-101283873D01*
X211628757Y-101283870D01*
X211563095Y-101081782D01*
X211466620Y-100892442D01*
X211341727Y-100720540D01*
X211341723Y-100720535D01*
X211191464Y-100570276D01*
X211191459Y-100570272D01*
X211019558Y-100445379D01*
X211009954Y-100440486D01*
X210959157Y-100392512D01*
X210942361Y-100324692D01*
X210964897Y-100258556D01*
X211009954Y-100219514D01*
X211019558Y-100214620D01*
X211191459Y-100089727D01*
X211191464Y-100089723D01*
X211341723Y-99939464D01*
X211341727Y-99939459D01*
X211466620Y-99767557D01*
X211563095Y-99578217D01*
X211628757Y-99376129D01*
X211628757Y-99376126D01*
X211639231Y-99310000D01*
X210745012Y-99310000D01*
X210777925Y-99252993D01*
X210812000Y-99125826D01*
X210812000Y-98994174D01*
X210777925Y-98867007D01*
X210745012Y-98810000D01*
X211639231Y-98810000D01*
X211628757Y-98743873D01*
X211628757Y-98743870D01*
X211563095Y-98541782D01*
X211466620Y-98352442D01*
X211341727Y-98180540D01*
X211341723Y-98180535D01*
X211191464Y-98030276D01*
X211191459Y-98030272D01*
X211019558Y-97905379D01*
X211009954Y-97900486D01*
X210959157Y-97852512D01*
X210942361Y-97784692D01*
X210964897Y-97718556D01*
X211009954Y-97679514D01*
X211019558Y-97674620D01*
X211191459Y-97549727D01*
X211191464Y-97549723D01*
X211341723Y-97399464D01*
X211341727Y-97399459D01*
X211466620Y-97227557D01*
X211563095Y-97038217D01*
X211628757Y-96836129D01*
X211628757Y-96836126D01*
X211639231Y-96770000D01*
X210745012Y-96770000D01*
X210777925Y-96712993D01*
X210812000Y-96585826D01*
X210812000Y-96454174D01*
X210777925Y-96327007D01*
X210745012Y-96270000D01*
X211639231Y-96270000D01*
X211628757Y-96203873D01*
X211628757Y-96203870D01*
X211563095Y-96001782D01*
X211466620Y-95812442D01*
X211341727Y-95640540D01*
X211341723Y-95640535D01*
X211191464Y-95490276D01*
X211191459Y-95490272D01*
X211019555Y-95365377D01*
X211010500Y-95360763D01*
X210959706Y-95312788D01*
X210942912Y-95244966D01*
X210965451Y-95178832D01*
X211010508Y-95139793D01*
X211019816Y-95135051D01*
X211099007Y-95077515D01*
X211191786Y-95010109D01*
X211191788Y-95010106D01*
X211191792Y-95010104D01*
X211342104Y-94859792D01*
X211342106Y-94859788D01*
X211342109Y-94859786D01*
X211467048Y-94687820D01*
X211467047Y-94687820D01*
X211467051Y-94687816D01*
X211563557Y-94498412D01*
X211629246Y-94296243D01*
X211662500Y-94086287D01*
X211662500Y-93873713D01*
X211629246Y-93663757D01*
X211563557Y-93461588D01*
X211467051Y-93272184D01*
X211467049Y-93272181D01*
X211467048Y-93272179D01*
X211342109Y-93100213D01*
X211191786Y-92949890D01*
X211019820Y-92824951D01*
X211019115Y-92824591D01*
X211011054Y-92820485D01*
X210960259Y-92772512D01*
X210943463Y-92704692D01*
X210965999Y-92638556D01*
X211011054Y-92599515D01*
X211019816Y-92595051D01*
X211041789Y-92579086D01*
X211191786Y-92470109D01*
X211191788Y-92470106D01*
X211191792Y-92470104D01*
X211342104Y-92319792D01*
X211342106Y-92319788D01*
X211342109Y-92319786D01*
X211467048Y-92147820D01*
X211467047Y-92147820D01*
X211467051Y-92147816D01*
X211563557Y-91958412D01*
X211629246Y-91756243D01*
X211662500Y-91546287D01*
X211662500Y-91333713D01*
X211629246Y-91123757D01*
X211563557Y-90921588D01*
X211467051Y-90732184D01*
X211467049Y-90732181D01*
X211467048Y-90732179D01*
X211342109Y-90560213D01*
X211191786Y-90409890D01*
X211019817Y-90284949D01*
X211010504Y-90280204D01*
X210959707Y-90232230D01*
X210942912Y-90164409D01*
X210965449Y-90098274D01*
X211010507Y-90059232D01*
X211019558Y-90054620D01*
X211191459Y-89929727D01*
X211191464Y-89929723D01*
X211341723Y-89779464D01*
X211341727Y-89779459D01*
X211466620Y-89607557D01*
X211563095Y-89418217D01*
X211628757Y-89216129D01*
X211628757Y-89216126D01*
X211639231Y-89150000D01*
X210745012Y-89150000D01*
X210777925Y-89092993D01*
X210812000Y-88965826D01*
X210812000Y-88834174D01*
X210777925Y-88707007D01*
X210745012Y-88650000D01*
X211639231Y-88650000D01*
X211628757Y-88583873D01*
X211628757Y-88583870D01*
X211563095Y-88381782D01*
X211466620Y-88192442D01*
X211341727Y-88020540D01*
X211341723Y-88020535D01*
X211191464Y-87870276D01*
X211191459Y-87870272D01*
X211019558Y-87745379D01*
X211009954Y-87740486D01*
X210959157Y-87692512D01*
X210942361Y-87624692D01*
X210964897Y-87558556D01*
X211009954Y-87519514D01*
X211019558Y-87514620D01*
X211191459Y-87389727D01*
X211191464Y-87389723D01*
X211341723Y-87239464D01*
X211341727Y-87239459D01*
X211466620Y-87067557D01*
X211563095Y-86878217D01*
X211628757Y-86676129D01*
X211628757Y-86676126D01*
X211639231Y-86610000D01*
X210745012Y-86610000D01*
X210777925Y-86552993D01*
X210812000Y-86425826D01*
X210812000Y-86294174D01*
X210777925Y-86167007D01*
X210745012Y-86110000D01*
X211639231Y-86110000D01*
X211628757Y-86043873D01*
X211628757Y-86043870D01*
X211563095Y-85841782D01*
X211466620Y-85652442D01*
X211341727Y-85480540D01*
X211341723Y-85480535D01*
X211191464Y-85330276D01*
X211191459Y-85330272D01*
X211019558Y-85205379D01*
X211009954Y-85200486D01*
X210959157Y-85152512D01*
X210942361Y-85084692D01*
X210964897Y-85018556D01*
X211009954Y-84979514D01*
X211019558Y-84974620D01*
X211191459Y-84849727D01*
X211191464Y-84849723D01*
X211341723Y-84699464D01*
X211341727Y-84699459D01*
X211466620Y-84527557D01*
X211563095Y-84338217D01*
X211628757Y-84136129D01*
X211628757Y-84136126D01*
X211639231Y-84070000D01*
X210745012Y-84070000D01*
X210777925Y-84012993D01*
X210812000Y-83885826D01*
X210812000Y-83754174D01*
X210777925Y-83627007D01*
X210745012Y-83570000D01*
X211639231Y-83570000D01*
X211628757Y-83503873D01*
X211628757Y-83503870D01*
X211563095Y-83301782D01*
X211466620Y-83112442D01*
X211341727Y-82940540D01*
X211341723Y-82940535D01*
X211191464Y-82790276D01*
X211191459Y-82790272D01*
X211019558Y-82665379D01*
X211009954Y-82660486D01*
X210959157Y-82612512D01*
X210942361Y-82544692D01*
X210964897Y-82478556D01*
X211009954Y-82439514D01*
X211019558Y-82434620D01*
X211191459Y-82309727D01*
X211191464Y-82309723D01*
X211341723Y-82159464D01*
X211341727Y-82159459D01*
X211466620Y-81987557D01*
X211563095Y-81798217D01*
X211628757Y-81596129D01*
X211628757Y-81596126D01*
X211639231Y-81530000D01*
X210745012Y-81530000D01*
X210777925Y-81472993D01*
X210812000Y-81345826D01*
X210812000Y-81214174D01*
X210777925Y-81087007D01*
X210745012Y-81030000D01*
X211639231Y-81030000D01*
X211628757Y-80963873D01*
X211628757Y-80963870D01*
X211563095Y-80761782D01*
X211466620Y-80572442D01*
X211341727Y-80400540D01*
X211341723Y-80400535D01*
X211191464Y-80250276D01*
X211191459Y-80250272D01*
X211019558Y-80125379D01*
X211009954Y-80120486D01*
X210959157Y-80072512D01*
X210942361Y-80004692D01*
X210964897Y-79938556D01*
X211009954Y-79899514D01*
X211019558Y-79894620D01*
X211191459Y-79769727D01*
X211191464Y-79769723D01*
X211341723Y-79619464D01*
X211341727Y-79619459D01*
X211466620Y-79447557D01*
X211563095Y-79258217D01*
X211628757Y-79056129D01*
X211628757Y-79056126D01*
X211639231Y-78990000D01*
X210745012Y-78990000D01*
X210777925Y-78932993D01*
X210812000Y-78805826D01*
X210812000Y-78674174D01*
X210777925Y-78547007D01*
X210745012Y-78490000D01*
X211639231Y-78490000D01*
X211628757Y-78423873D01*
X211628757Y-78423870D01*
X211563095Y-78221782D01*
X211466620Y-78032442D01*
X211341727Y-77860540D01*
X211341723Y-77860535D01*
X211191464Y-77710276D01*
X211191459Y-77710272D01*
X211019555Y-77585377D01*
X211010500Y-77580763D01*
X210959706Y-77532788D01*
X210942912Y-77464966D01*
X210965451Y-77398832D01*
X211010508Y-77359793D01*
X211019816Y-77355051D01*
X211099007Y-77297515D01*
X211191786Y-77230109D01*
X211191788Y-77230106D01*
X211191792Y-77230104D01*
X211342104Y-77079792D01*
X211342106Y-77079788D01*
X211342109Y-77079786D01*
X211465478Y-76909981D01*
X211467051Y-76907816D01*
X211563557Y-76718412D01*
X211629246Y-76516243D01*
X211662500Y-76306287D01*
X211662500Y-76093713D01*
X211629246Y-75883757D01*
X211563557Y-75681588D01*
X211467051Y-75492184D01*
X211467049Y-75492181D01*
X211467048Y-75492179D01*
X211342109Y-75320213D01*
X211191786Y-75169890D01*
X211019820Y-75044951D01*
X211019115Y-75044591D01*
X211011054Y-75040485D01*
X210960259Y-74992512D01*
X210943463Y-74924692D01*
X210965999Y-74858556D01*
X211011054Y-74819515D01*
X211019816Y-74815051D01*
X211041789Y-74799086D01*
X211191786Y-74690109D01*
X211191788Y-74690106D01*
X211191792Y-74690104D01*
X211342104Y-74539792D01*
X211342106Y-74539788D01*
X211342109Y-74539786D01*
X211467048Y-74367820D01*
X211467047Y-74367820D01*
X211467051Y-74367816D01*
X211563557Y-74178412D01*
X211629246Y-73976243D01*
X211662500Y-73766287D01*
X211662500Y-73553713D01*
X211629246Y-73343757D01*
X211563557Y-73141588D01*
X211467051Y-72952184D01*
X211467049Y-72952181D01*
X211467048Y-72952179D01*
X211342109Y-72780213D01*
X211191786Y-72629890D01*
X211019820Y-72504951D01*
X211017533Y-72503786D01*
X211011054Y-72500485D01*
X210960259Y-72452512D01*
X210943463Y-72384692D01*
X210965999Y-72318556D01*
X211011054Y-72279515D01*
X211019816Y-72275051D01*
X211041789Y-72259086D01*
X211191786Y-72150109D01*
X211191788Y-72150106D01*
X211191792Y-72150104D01*
X211342104Y-71999792D01*
X211342106Y-71999788D01*
X211342109Y-71999786D01*
X211467048Y-71827820D01*
X211467047Y-71827820D01*
X211467051Y-71827816D01*
X211563557Y-71638412D01*
X211629246Y-71436243D01*
X211662500Y-71226287D01*
X211662500Y-71013713D01*
X211629246Y-70803757D01*
X211563557Y-70601588D01*
X211467051Y-70412184D01*
X211467049Y-70412181D01*
X211467048Y-70412179D01*
X211342109Y-70240213D01*
X211191786Y-70089890D01*
X211019820Y-69964951D01*
X211019115Y-69964591D01*
X211011054Y-69960485D01*
X210960259Y-69912512D01*
X210943463Y-69844692D01*
X210965999Y-69778556D01*
X211011054Y-69739515D01*
X211019816Y-69735051D01*
X211046726Y-69715500D01*
X211191786Y-69610109D01*
X211191788Y-69610106D01*
X211191792Y-69610104D01*
X211342104Y-69459792D01*
X211342106Y-69459788D01*
X211342109Y-69459786D01*
X211467048Y-69287820D01*
X211467047Y-69287820D01*
X211467051Y-69287816D01*
X211563557Y-69098412D01*
X211629246Y-68896243D01*
X211662500Y-68686287D01*
X211662500Y-68473713D01*
X211629246Y-68263757D01*
X211563557Y-68061588D01*
X211467051Y-67872184D01*
X211467049Y-67872181D01*
X211467048Y-67872179D01*
X211342109Y-67700213D01*
X211191786Y-67549890D01*
X211019820Y-67424951D01*
X211011600Y-67420763D01*
X211011054Y-67420485D01*
X210960259Y-67372512D01*
X210943463Y-67304692D01*
X210965999Y-67238556D01*
X211011054Y-67199515D01*
X211019816Y-67195051D01*
X211041789Y-67179086D01*
X211191786Y-67070109D01*
X211191788Y-67070106D01*
X211191792Y-67070104D01*
X211342104Y-66919792D01*
X211342106Y-66919788D01*
X211342109Y-66919786D01*
X211467048Y-66747820D01*
X211467047Y-66747820D01*
X211467051Y-66747816D01*
X211563557Y-66558412D01*
X211629246Y-66356243D01*
X211662500Y-66146287D01*
X211662500Y-65933713D01*
X211629246Y-65723757D01*
X211563557Y-65521588D01*
X211467051Y-65332184D01*
X211467049Y-65332181D01*
X211467048Y-65332179D01*
X211342109Y-65160213D01*
X211191786Y-65009890D01*
X211019820Y-64884951D01*
X211017533Y-64883786D01*
X211011054Y-64880485D01*
X210960259Y-64832512D01*
X210943463Y-64764692D01*
X210965999Y-64698556D01*
X211011054Y-64659515D01*
X211019816Y-64655051D01*
X211041789Y-64639086D01*
X211191786Y-64530109D01*
X211191788Y-64530106D01*
X211191792Y-64530104D01*
X211342104Y-64379792D01*
X211342106Y-64379788D01*
X211342109Y-64379786D01*
X211467048Y-64207820D01*
X211467047Y-64207820D01*
X211467051Y-64207816D01*
X211563557Y-64018412D01*
X211629246Y-63816243D01*
X211662500Y-63606287D01*
X211662500Y-63393713D01*
X211629246Y-63183757D01*
X211563557Y-62981588D01*
X211467051Y-62792184D01*
X211467049Y-62792181D01*
X211467048Y-62792179D01*
X211342109Y-62620213D01*
X211191786Y-62469890D01*
X211019817Y-62344949D01*
X211010504Y-62340204D01*
X210959707Y-62292230D01*
X210942912Y-62224409D01*
X210965449Y-62158274D01*
X211010507Y-62119232D01*
X211019558Y-62114620D01*
X211191459Y-61989727D01*
X211191464Y-61989723D01*
X211341723Y-61839464D01*
X211341727Y-61839459D01*
X211466620Y-61667557D01*
X211563095Y-61478217D01*
X211628757Y-61276129D01*
X211628757Y-61276126D01*
X211639231Y-61210000D01*
X210745012Y-61210000D01*
X210777925Y-61152993D01*
X210812000Y-61025826D01*
X210812000Y-60894174D01*
X210777925Y-60767007D01*
X210745012Y-60710000D01*
X211639231Y-60710000D01*
X211628757Y-60643873D01*
X211628757Y-60643870D01*
X211563095Y-60441782D01*
X211466620Y-60252442D01*
X211341727Y-60080540D01*
X211341723Y-60080535D01*
X211191464Y-59930276D01*
X211191459Y-59930272D01*
X211019555Y-59805377D01*
X211010500Y-59800763D01*
X210959706Y-59752788D01*
X210942912Y-59684966D01*
X210965451Y-59618832D01*
X211010508Y-59579793D01*
X211019816Y-59575051D01*
X211099007Y-59517515D01*
X211191786Y-59450109D01*
X211191788Y-59450106D01*
X211191792Y-59450104D01*
X211342104Y-59299792D01*
X211342106Y-59299788D01*
X211342109Y-59299786D01*
X211467048Y-59127820D01*
X211467047Y-59127820D01*
X211467051Y-59127816D01*
X211563557Y-58938412D01*
X211629246Y-58736243D01*
X211662500Y-58526287D01*
X211662500Y-58313713D01*
X211650545Y-58238234D01*
X212200000Y-58238234D01*
X212200000Y-58601765D01*
X212235632Y-58963556D01*
X212306550Y-59320090D01*
X212306553Y-59320101D01*
X212412086Y-59667997D01*
X212551207Y-60003864D01*
X212551209Y-60003869D01*
X212722570Y-60324462D01*
X212722581Y-60324480D01*
X212924551Y-60626750D01*
X213111678Y-60854765D01*
X213111679Y-60854766D01*
X214605747Y-59360697D01*
X214679588Y-59462330D01*
X214857670Y-59640412D01*
X214959301Y-59714251D01*
X213465232Y-61208319D01*
X213465233Y-61208320D01*
X213693249Y-61395448D01*
X213995519Y-61597418D01*
X213995537Y-61597429D01*
X214316130Y-61768790D01*
X214316135Y-61768792D01*
X214652002Y-61907913D01*
X214999898Y-62013446D01*
X214999909Y-62013449D01*
X215356443Y-62084367D01*
X215718234Y-62120000D01*
X216081766Y-62120000D01*
X216443556Y-62084367D01*
X216800090Y-62013449D01*
X216800101Y-62013446D01*
X217147997Y-61907913D01*
X217483864Y-61768792D01*
X217483869Y-61768790D01*
X217804462Y-61597429D01*
X217804480Y-61597418D01*
X218106736Y-61395457D01*
X218106750Y-61395447D01*
X218334765Y-61208320D01*
X218334766Y-61208319D01*
X216840698Y-59714251D01*
X216942330Y-59640412D01*
X217120412Y-59462330D01*
X217194251Y-59360698D01*
X218688319Y-60854766D01*
X218688320Y-60854765D01*
X218875447Y-60626750D01*
X218875457Y-60626736D01*
X219077418Y-60324480D01*
X219077429Y-60324462D01*
X219248790Y-60003869D01*
X219248792Y-60003864D01*
X219387913Y-59667997D01*
X219493446Y-59320101D01*
X219493449Y-59320090D01*
X219564367Y-58963556D01*
X219600000Y-58601765D01*
X219600000Y-58238234D01*
X219564367Y-57876443D01*
X219493449Y-57519909D01*
X219493446Y-57519898D01*
X219387913Y-57172002D01*
X219248792Y-56836135D01*
X219248790Y-56836130D01*
X219077429Y-56515537D01*
X219077418Y-56515519D01*
X218875448Y-56213249D01*
X218688320Y-55985233D01*
X218688319Y-55985232D01*
X217194251Y-57479300D01*
X217120412Y-57377670D01*
X216942330Y-57199588D01*
X216840698Y-57125748D01*
X218334766Y-55631679D01*
X218334765Y-55631678D01*
X218106750Y-55444551D01*
X217804480Y-55242581D01*
X217804462Y-55242570D01*
X217483869Y-55071209D01*
X217483864Y-55071207D01*
X217147997Y-54932086D01*
X216800101Y-54826553D01*
X216800090Y-54826550D01*
X216443556Y-54755632D01*
X216081766Y-54720000D01*
X215718234Y-54720000D01*
X215356443Y-54755632D01*
X214999909Y-54826550D01*
X214999898Y-54826553D01*
X214652002Y-54932086D01*
X214316135Y-55071207D01*
X214316130Y-55071209D01*
X213995537Y-55242570D01*
X213995519Y-55242581D01*
X213693258Y-55444545D01*
X213693254Y-55444548D01*
X213465233Y-55631679D01*
X213465233Y-55631680D01*
X214959301Y-57125748D01*
X214857670Y-57199588D01*
X214679588Y-57377670D01*
X214605748Y-57479301D01*
X213111680Y-55985233D01*
X213111679Y-55985233D01*
X212924548Y-56213254D01*
X212924545Y-56213258D01*
X212722581Y-56515519D01*
X212722570Y-56515537D01*
X212551209Y-56836130D01*
X212551207Y-56836135D01*
X212412086Y-57172002D01*
X212306553Y-57519898D01*
X212306550Y-57519909D01*
X212235632Y-57876443D01*
X212200000Y-58238234D01*
X211650545Y-58238234D01*
X211629246Y-58103757D01*
X211563557Y-57901588D01*
X211467051Y-57712184D01*
X211467049Y-57712181D01*
X211467048Y-57712179D01*
X211339241Y-57536266D01*
X211340108Y-57535635D01*
X211313641Y-57476581D01*
X211312500Y-57459800D01*
X211312500Y-56840199D01*
X211332185Y-56773160D01*
X211341471Y-56760664D01*
X211467048Y-56587820D01*
X211467047Y-56587820D01*
X211467051Y-56587816D01*
X211563557Y-56398412D01*
X211629246Y-56196243D01*
X211662500Y-55986287D01*
X211662500Y-55773713D01*
X211629246Y-55563757D01*
X211563557Y-55361588D01*
X211467051Y-55172184D01*
X211467049Y-55172181D01*
X211467048Y-55172179D01*
X211342109Y-55000213D01*
X211191786Y-54849890D01*
X211019820Y-54724951D01*
X210830414Y-54628444D01*
X210830413Y-54628443D01*
X210830412Y-54628443D01*
X210628243Y-54562754D01*
X210628241Y-54562753D01*
X210628240Y-54562753D01*
X210466957Y-54537208D01*
X210418287Y-54529500D01*
X210205713Y-54529500D01*
X210157042Y-54537208D01*
X209995760Y-54562753D01*
X209793585Y-54628444D01*
X209604179Y-54724951D01*
X209432215Y-54849889D01*
X209318673Y-54963431D01*
X209257350Y-54996915D01*
X209187658Y-54991931D01*
X209131725Y-54950059D01*
X209114810Y-54919082D01*
X209065797Y-54787671D01*
X209065793Y-54787664D01*
X208979547Y-54672455D01*
X208979544Y-54672452D01*
X208864335Y-54586206D01*
X208864328Y-54586202D01*
X208729482Y-54535908D01*
X208729483Y-54535908D01*
X208669883Y-54529501D01*
X208669881Y-54529500D01*
X208669873Y-54529500D01*
X208669864Y-54529500D01*
X206874129Y-54529500D01*
X206874123Y-54529501D01*
X206814516Y-54535908D01*
X206679671Y-54586202D01*
X206679664Y-54586206D01*
X206564455Y-54672452D01*
X206564452Y-54672455D01*
X206478206Y-54787664D01*
X206478204Y-54787668D01*
X206478204Y-54787669D01*
X206474039Y-54798834D01*
X206432171Y-54854766D01*
X206366707Y-54879184D01*
X206357859Y-54879500D01*
X200601455Y-54879500D01*
X200504812Y-54898724D01*
X200408167Y-54917947D01*
X200408161Y-54917949D01*
X200354834Y-54940037D01*
X200354834Y-54940038D01*
X200330642Y-54950059D01*
X200226089Y-54993366D01*
X200226079Y-54993371D01*
X200062219Y-55102859D01*
X199992900Y-55172179D01*
X199922861Y-55242218D01*
X199922858Y-55242221D01*
X195741897Y-59423181D01*
X195680574Y-59456666D01*
X195654216Y-59459500D01*
X194969998Y-59459500D01*
X194969980Y-59459501D01*
X194867203Y-59470000D01*
X194867200Y-59470001D01*
X194700668Y-59525185D01*
X194700663Y-59525187D01*
X194551342Y-59617289D01*
X194427289Y-59741342D01*
X194335187Y-59890663D01*
X194335185Y-59890668D01*
X194321975Y-59930535D01*
X194280001Y-60057203D01*
X194280001Y-60057204D01*
X194280000Y-60057204D01*
X194269500Y-60159983D01*
X194269500Y-61760001D01*
X194269501Y-61760018D01*
X194280000Y-61862796D01*
X194280001Y-61862799D01*
X194323257Y-61993336D01*
X194335186Y-62029334D01*
X194427287Y-62178655D01*
X194427289Y-62178657D01*
X194543181Y-62294549D01*
X194576666Y-62355872D01*
X194579500Y-62382230D01*
X194579500Y-65242819D01*
X194559815Y-65309858D01*
X194529812Y-65342085D01*
X194422452Y-65422455D01*
X194336206Y-65537664D01*
X194336202Y-65537671D01*
X194285908Y-65672517D01*
X194279501Y-65732116D01*
X194279500Y-65732135D01*
X194279500Y-65874216D01*
X194259815Y-65941255D01*
X194243181Y-65961897D01*
X191235330Y-68969748D01*
X191174007Y-69003233D01*
X191104315Y-68998249D01*
X191048382Y-68956377D01*
X191026032Y-68906258D01*
X191019317Y-68872500D01*
X191015737Y-68854503D01*
X190985456Y-68781397D01*
X190955397Y-68708827D01*
X190955390Y-68708814D01*
X190867789Y-68577711D01*
X190867786Y-68577707D01*
X190756292Y-68466213D01*
X190756288Y-68466210D01*
X190625185Y-68378609D01*
X190625172Y-68378602D01*
X190479501Y-68318264D01*
X190479489Y-68318261D01*
X190324845Y-68287500D01*
X190324842Y-68287500D01*
X190167158Y-68287500D01*
X190167155Y-68287500D01*
X190012510Y-68318261D01*
X190012498Y-68318264D01*
X189866827Y-68378602D01*
X189866814Y-68378609D01*
X189775534Y-68439602D01*
X189708857Y-68460480D01*
X189706643Y-68460500D01*
X174690194Y-68460500D01*
X174568970Y-68484613D01*
X174568960Y-68484616D01*
X174454773Y-68531913D01*
X174454760Y-68531920D01*
X174351992Y-68600588D01*
X174351988Y-68600591D01*
X171730381Y-71222199D01*
X171669058Y-71255684D01*
X171599366Y-71250700D01*
X171543433Y-71208828D01*
X171519016Y-71143364D01*
X171518700Y-71134518D01*
X171518700Y-71014636D01*
X171485738Y-70806525D01*
X171485737Y-70806523D01*
X171485737Y-70806520D01*
X171483507Y-70799659D01*
X171481511Y-70729821D01*
X171513755Y-70673662D01*
X177261600Y-64925819D01*
X177322923Y-64892334D01*
X177349281Y-64889500D01*
X190468643Y-64889500D01*
X190535682Y-64909185D01*
X190537534Y-64910398D01*
X190628814Y-64971390D01*
X190628827Y-64971397D01*
X190774498Y-65031735D01*
X190774503Y-65031737D01*
X190929153Y-65062499D01*
X190929156Y-65062500D01*
X190929158Y-65062500D01*
X191086844Y-65062500D01*
X191086845Y-65062499D01*
X191241497Y-65031737D01*
X191387179Y-64971394D01*
X191518289Y-64883789D01*
X191629789Y-64772289D01*
X191717394Y-64641179D01*
X191777737Y-64495497D01*
X191808500Y-64340842D01*
X191808500Y-64183158D01*
X191808500Y-64183155D01*
X191808499Y-64183153D01*
X191798152Y-64131137D01*
X191777737Y-64028503D01*
X191750046Y-63961650D01*
X191717397Y-63882827D01*
X191717390Y-63882814D01*
X191629789Y-63751711D01*
X191629786Y-63751707D01*
X191518292Y-63640213D01*
X191518288Y-63640210D01*
X191387185Y-63552609D01*
X191387172Y-63552602D01*
X191241501Y-63492264D01*
X191241489Y-63492261D01*
X191086845Y-63461500D01*
X191086842Y-63461500D01*
X190929158Y-63461500D01*
X190929155Y-63461500D01*
X190774510Y-63492261D01*
X190774498Y-63492264D01*
X190628827Y-63552602D01*
X190628814Y-63552609D01*
X190537534Y-63613602D01*
X190470857Y-63634480D01*
X190468643Y-63634500D01*
X176976192Y-63634500D01*
X176854973Y-63658612D01*
X176854965Y-63658614D01*
X176802659Y-63680280D01*
X176802655Y-63680281D01*
X176796009Y-63683035D01*
X176740767Y-63705917D01*
X176664729Y-63756724D01*
X176660583Y-63759494D01*
X176660578Y-63759497D01*
X176637989Y-63774590D01*
X176637988Y-63774591D01*
X171618899Y-68793681D01*
X171557576Y-68827166D01*
X171531218Y-68830000D01*
X170613012Y-68830000D01*
X170645925Y-68772993D01*
X170680000Y-68645826D01*
X170680000Y-68514174D01*
X170645925Y-68387007D01*
X170613012Y-68330000D01*
X171495285Y-68330000D01*
X171485248Y-68266635D01*
X171485248Y-68266632D01*
X171420160Y-68066311D01*
X171324528Y-67878626D01*
X171200727Y-67708227D01*
X171200723Y-67708222D01*
X171051777Y-67559276D01*
X171051772Y-67559272D01*
X170881373Y-67435470D01*
X170852511Y-67420764D01*
X170801716Y-67372788D01*
X170784922Y-67304967D01*
X170807461Y-67238833D01*
X170852512Y-67199796D01*
X170881632Y-67184959D01*
X171039711Y-67070109D01*
X171052099Y-67061109D01*
X171052101Y-67061106D01*
X171052105Y-67061104D01*
X171201104Y-66912105D01*
X171201106Y-66912101D01*
X171201109Y-66912099D01*
X171263949Y-66825606D01*
X171324959Y-66741632D01*
X171420622Y-66553883D01*
X171485737Y-66353480D01*
X171491746Y-66315542D01*
X171518700Y-66145363D01*
X171518700Y-65934636D01*
X171485737Y-65726519D01*
X171420620Y-65526112D01*
X171383298Y-65452865D01*
X171324959Y-65338368D01*
X171305766Y-65311951D01*
X171201109Y-65167900D01*
X171052099Y-65018890D01*
X170881636Y-64895043D01*
X170853064Y-64880485D01*
X170802268Y-64832510D01*
X170785473Y-64764689D01*
X170808010Y-64698554D01*
X170853064Y-64659515D01*
X170861827Y-64655050D01*
X170881632Y-64644959D01*
X171039711Y-64530109D01*
X171052099Y-64521109D01*
X171052101Y-64521106D01*
X171052105Y-64521104D01*
X171201104Y-64372105D01*
X171201106Y-64372101D01*
X171201109Y-64372099D01*
X171255420Y-64297344D01*
X171324959Y-64201632D01*
X171420622Y-64013883D01*
X171485737Y-63813480D01*
X171518700Y-63605363D01*
X171518700Y-63394636D01*
X171485737Y-63186519D01*
X171420620Y-62986112D01*
X171360711Y-62868536D01*
X171324959Y-62798368D01*
X171317001Y-62787415D01*
X171201109Y-62627900D01*
X171052099Y-62478890D01*
X170881636Y-62355043D01*
X170853064Y-62340485D01*
X170802268Y-62292510D01*
X170785473Y-62224689D01*
X170808010Y-62158554D01*
X170853064Y-62119515D01*
X170881632Y-62104959D01*
X171024919Y-62000856D01*
X171052099Y-61981109D01*
X171052101Y-61981106D01*
X171052105Y-61981104D01*
X171201104Y-61832105D01*
X171201106Y-61832101D01*
X171201109Y-61832099D01*
X171255420Y-61757344D01*
X171324959Y-61661632D01*
X171420622Y-61473883D01*
X171485737Y-61273480D01*
X171496057Y-61208320D01*
X171518700Y-61065363D01*
X171518700Y-60854636D01*
X171485737Y-60646519D01*
X171455525Y-60553538D01*
X171420622Y-60446117D01*
X171420620Y-60446114D01*
X171420620Y-60446112D01*
X171361273Y-60329638D01*
X171324959Y-60258368D01*
X171317001Y-60247415D01*
X171201109Y-60087900D01*
X171052099Y-59938890D01*
X170881635Y-59815043D01*
X170881634Y-59815042D01*
X170881632Y-59815041D01*
X170813394Y-59780272D01*
X170693887Y-59719379D01*
X170493480Y-59654262D01*
X170285363Y-59621300D01*
X170285358Y-59621300D01*
X170074642Y-59621300D01*
X170074637Y-59621300D01*
X169866519Y-59654262D01*
X169666112Y-59719379D01*
X169478364Y-59815043D01*
X169307900Y-59938890D01*
X169158890Y-60087900D01*
X169035043Y-60258364D01*
X168939379Y-60446112D01*
X168874262Y-60646519D01*
X168841300Y-60854636D01*
X168841300Y-61065363D01*
X168874262Y-61273480D01*
X168939379Y-61473887D01*
X169035043Y-61661635D01*
X169158890Y-61832099D01*
X169307900Y-61981109D01*
X169478366Y-62104958D01*
X169506936Y-62119516D01*
X169557732Y-62167491D01*
X169574526Y-62235312D01*
X169551988Y-62301447D01*
X169506936Y-62340484D01*
X169478366Y-62355041D01*
X169307900Y-62478890D01*
X169158890Y-62627900D01*
X169035043Y-62798364D01*
X168939379Y-62986112D01*
X168874262Y-63186519D01*
X168841300Y-63394636D01*
X168841300Y-63605363D01*
X168874262Y-63813480D01*
X168939379Y-64013887D01*
X168997269Y-64127500D01*
X169033728Y-64199056D01*
X169035043Y-64201635D01*
X169158890Y-64372099D01*
X169307900Y-64521109D01*
X169478366Y-64644958D01*
X169506936Y-64659516D01*
X169557732Y-64707491D01*
X169574526Y-64775312D01*
X169551988Y-64841447D01*
X169506936Y-64880484D01*
X169478366Y-64895041D01*
X169307900Y-65018890D01*
X169158890Y-65167900D01*
X169035043Y-65338364D01*
X168939379Y-65526112D01*
X168874262Y-65726519D01*
X168841300Y-65934636D01*
X168841300Y-66145363D01*
X168874262Y-66353480D01*
X168939379Y-66553887D01*
X169035043Y-66741635D01*
X169158890Y-66912099D01*
X169307900Y-67061109D01*
X169478366Y-67184958D01*
X169507485Y-67199795D01*
X169558282Y-67247769D01*
X169575077Y-67315590D01*
X169552540Y-67381725D01*
X169507489Y-67420763D01*
X169478628Y-67435469D01*
X169308227Y-67559272D01*
X169308222Y-67559276D01*
X169159276Y-67708222D01*
X169159272Y-67708227D01*
X169035471Y-67878626D01*
X168939839Y-68066311D01*
X168874751Y-68266632D01*
X168874751Y-68266635D01*
X168864715Y-68330000D01*
X169746988Y-68330000D01*
X169714075Y-68387007D01*
X169680000Y-68514174D01*
X169680000Y-68645826D01*
X169714075Y-68772993D01*
X169746988Y-68830000D01*
X168864715Y-68830000D01*
X168874751Y-68893364D01*
X168874751Y-68893367D01*
X168939839Y-69093688D01*
X169035471Y-69281373D01*
X169159272Y-69451772D01*
X169159276Y-69451777D01*
X169308222Y-69600723D01*
X169308227Y-69600727D01*
X169478628Y-69724530D01*
X169507487Y-69739235D01*
X169558282Y-69787209D01*
X169575077Y-69855030D01*
X169552539Y-69921165D01*
X169507488Y-69960203D01*
X169478364Y-69975042D01*
X169307900Y-70098890D01*
X169158890Y-70247900D01*
X169035043Y-70418364D01*
X168939379Y-70606112D01*
X168874262Y-70806519D01*
X168841300Y-71014636D01*
X168841300Y-71225363D01*
X168874262Y-71433480D01*
X168939379Y-71633887D01*
X168998713Y-71750334D01*
X169033728Y-71819056D01*
X169035043Y-71821635D01*
X169158890Y-71992099D01*
X169307900Y-72141109D01*
X169478366Y-72264958D01*
X169506936Y-72279516D01*
X169557732Y-72327491D01*
X169574526Y-72395312D01*
X169551988Y-72461447D01*
X169506936Y-72500484D01*
X169478366Y-72515041D01*
X169307900Y-72638890D01*
X169158890Y-72787900D01*
X169035043Y-72958364D01*
X168939379Y-73146112D01*
X168874262Y-73346519D01*
X168841300Y-73554636D01*
X168841300Y-73765363D01*
X168874262Y-73973480D01*
X168939379Y-74173887D01*
X168989307Y-74271875D01*
X169033728Y-74359056D01*
X169035043Y-74361635D01*
X169158890Y-74532099D01*
X169307900Y-74681109D01*
X169478366Y-74804958D01*
X169506936Y-74819516D01*
X169557732Y-74867491D01*
X169574526Y-74935312D01*
X169551988Y-75001447D01*
X169506936Y-75040484D01*
X169478366Y-75055041D01*
X169307900Y-75178890D01*
X169158890Y-75327900D01*
X169035043Y-75498364D01*
X168939379Y-75686112D01*
X168874262Y-75886519D01*
X168841300Y-76094636D01*
X168841300Y-76305363D01*
X168874262Y-76513480D01*
X168939379Y-76713887D01*
X168994359Y-76821789D01*
X169033911Y-76899415D01*
X169035043Y-76901635D01*
X169158890Y-77072099D01*
X169307900Y-77221109D01*
X169478366Y-77344958D01*
X169506936Y-77359516D01*
X169557732Y-77407491D01*
X169574526Y-77475312D01*
X169551988Y-77541447D01*
X169506936Y-77580484D01*
X169478366Y-77595041D01*
X169307900Y-77718890D01*
X169158890Y-77867900D01*
X169035043Y-78038364D01*
X168939379Y-78226112D01*
X168874262Y-78426519D01*
X168841300Y-78634636D01*
X168841300Y-78845363D01*
X168874262Y-79053480D01*
X168939379Y-79253887D01*
X168997269Y-79367500D01*
X169033450Y-79438510D01*
X169035043Y-79441635D01*
X169158890Y-79612099D01*
X169307900Y-79761109D01*
X169478366Y-79884958D01*
X169506936Y-79899516D01*
X169557732Y-79947491D01*
X169574526Y-80015312D01*
X169551988Y-80081447D01*
X169506936Y-80120484D01*
X169478366Y-80135041D01*
X169307900Y-80258890D01*
X169158890Y-80407900D01*
X169035043Y-80578364D01*
X168939379Y-80766112D01*
X168874262Y-80966519D01*
X168841300Y-81174636D01*
X168841300Y-81385363D01*
X168874262Y-81593480D01*
X168939379Y-81793887D01*
X168997269Y-81907500D01*
X169033450Y-81978510D01*
X169035043Y-81981635D01*
X169158890Y-82152099D01*
X169307900Y-82301109D01*
X169478366Y-82424958D01*
X169506936Y-82439516D01*
X169557732Y-82487491D01*
X169574526Y-82555312D01*
X169551988Y-82621447D01*
X169506936Y-82660484D01*
X169478366Y-82675041D01*
X169307900Y-82798890D01*
X169158890Y-82947900D01*
X169035043Y-83118364D01*
X168939379Y-83306112D01*
X168874262Y-83506519D01*
X168841300Y-83714636D01*
X168841300Y-83925363D01*
X168874262Y-84133480D01*
X168939379Y-84333887D01*
X168997269Y-84447500D01*
X169033450Y-84518510D01*
X169035043Y-84521635D01*
X169158890Y-84692099D01*
X169307900Y-84841109D01*
X169478366Y-84964958D01*
X169506936Y-84979516D01*
X169557732Y-85027491D01*
X169574526Y-85095312D01*
X169551988Y-85161447D01*
X169506936Y-85200484D01*
X169478366Y-85215041D01*
X169307900Y-85338890D01*
X169158890Y-85487900D01*
X169035043Y-85658364D01*
X168939379Y-85846112D01*
X168874262Y-86046519D01*
X168841300Y-86254636D01*
X168841300Y-86465363D01*
X168874262Y-86673480D01*
X168939379Y-86873887D01*
X168999007Y-86990911D01*
X169033450Y-87058510D01*
X169035043Y-87061635D01*
X169158890Y-87232099D01*
X169307900Y-87381109D01*
X169478366Y-87504958D01*
X169506936Y-87519516D01*
X169557732Y-87567491D01*
X169574526Y-87635312D01*
X169551988Y-87701447D01*
X169506936Y-87740484D01*
X169478366Y-87755041D01*
X169307900Y-87878890D01*
X169158890Y-88027900D01*
X169035043Y-88198364D01*
X168939379Y-88386112D01*
X168874262Y-88586519D01*
X168841300Y-88794636D01*
X168841300Y-89005363D01*
X168874262Y-89213480D01*
X168939379Y-89413887D01*
X168999007Y-89530911D01*
X169033450Y-89598510D01*
X169035043Y-89601635D01*
X169158890Y-89772099D01*
X169307900Y-89921109D01*
X169478366Y-90044958D01*
X169506936Y-90059516D01*
X169557732Y-90107491D01*
X169574526Y-90175312D01*
X169551988Y-90241447D01*
X169506936Y-90280484D01*
X169478366Y-90295041D01*
X169307900Y-90418890D01*
X169158890Y-90567900D01*
X169035043Y-90738364D01*
X168939379Y-90926112D01*
X168874262Y-91126519D01*
X168841300Y-91334636D01*
X168841300Y-91545363D01*
X168874262Y-91753480D01*
X168939379Y-91953887D01*
X168999288Y-92071463D01*
X169033728Y-92139056D01*
X169035043Y-92141635D01*
X169158890Y-92312099D01*
X169307900Y-92461109D01*
X169478366Y-92584958D01*
X169506936Y-92599516D01*
X169557732Y-92647491D01*
X169574526Y-92715312D01*
X169551988Y-92781447D01*
X169506936Y-92820484D01*
X169478366Y-92835041D01*
X169307900Y-92958890D01*
X169158890Y-93107900D01*
X169035043Y-93278364D01*
X168939379Y-93466112D01*
X168874262Y-93666519D01*
X168841300Y-93874636D01*
X168841300Y-94085363D01*
X168874262Y-94293480D01*
X168939379Y-94493887D01*
X168999288Y-94611463D01*
X169033728Y-94679056D01*
X169035043Y-94681635D01*
X169158890Y-94852099D01*
X169307900Y-95001109D01*
X169478366Y-95124958D01*
X169506936Y-95139516D01*
X169557732Y-95187491D01*
X169574526Y-95255312D01*
X169551988Y-95321447D01*
X169506936Y-95360484D01*
X169478366Y-95375041D01*
X169307900Y-95498890D01*
X169158890Y-95647900D01*
X169035043Y-95818364D01*
X168939379Y-96006112D01*
X168874262Y-96206519D01*
X168841300Y-96414636D01*
X168841300Y-96625363D01*
X168874262Y-96833480D01*
X168939379Y-97033887D01*
X168999007Y-97150911D01*
X169033450Y-97218510D01*
X169035043Y-97221635D01*
X169158890Y-97392099D01*
X169307900Y-97541109D01*
X169478366Y-97664958D01*
X169506936Y-97679516D01*
X169557732Y-97727491D01*
X169574526Y-97795312D01*
X169551988Y-97861447D01*
X169506936Y-97900484D01*
X169478366Y-97915041D01*
X169307900Y-98038890D01*
X169158890Y-98187900D01*
X169035043Y-98358364D01*
X168939379Y-98546112D01*
X168874262Y-98746519D01*
X168841300Y-98954636D01*
X168841300Y-99165363D01*
X168874262Y-99373480D01*
X168939379Y-99573887D01*
X168997268Y-99687499D01*
X169033450Y-99758510D01*
X169035043Y-99761635D01*
X169158890Y-99932099D01*
X169307900Y-100081109D01*
X169467415Y-100197001D01*
X169478368Y-100204959D01*
X169583558Y-100258556D01*
X169666112Y-100300620D01*
X169666114Y-100300620D01*
X169666117Y-100300622D01*
X169734537Y-100322853D01*
X169866519Y-100365737D01*
X170074637Y-100398700D01*
X170074642Y-100398700D01*
X170285363Y-100398700D01*
X170493474Y-100365738D01*
X170493474Y-100365737D01*
X170493480Y-100365737D01*
X170500331Y-100363510D01*
X170570167Y-100361508D01*
X170626338Y-100393757D01*
X171375575Y-101142994D01*
X171409060Y-101204317D01*
X171404076Y-101274009D01*
X171362204Y-101329942D01*
X171307292Y-101353148D01*
X171093948Y-101386938D01*
X170866325Y-101460898D01*
X170653080Y-101569554D01*
X170459467Y-101710221D01*
X170459462Y-101710225D01*
X170290225Y-101879462D01*
X170290221Y-101879467D01*
X170149554Y-102073080D01*
X170040898Y-102286325D01*
X169966939Y-102513948D01*
X169929500Y-102750328D01*
X169929500Y-102989671D01*
X169966939Y-103226051D01*
X170040898Y-103453674D01*
X170149554Y-103666919D01*
X170290221Y-103860532D01*
X170290225Y-103860537D01*
X170459462Y-104029774D01*
X170459467Y-104029778D01*
X170628347Y-104152476D01*
X170653084Y-104170448D01*
X170788961Y-104239681D01*
X170866325Y-104279101D01*
X170866327Y-104279101D01*
X170866330Y-104279103D01*
X171093949Y-104353061D01*
X171215735Y-104372349D01*
X171330329Y-104390500D01*
X171330334Y-104390500D01*
X171569671Y-104390500D01*
X171674135Y-104373953D01*
X171806051Y-104353061D01*
X172033670Y-104279103D01*
X172246916Y-104170448D01*
X172440539Y-104029773D01*
X172609773Y-103860539D01*
X172750448Y-103666916D01*
X172859103Y-103453670D01*
X172933061Y-103226051D01*
X172966851Y-103012707D01*
X172996780Y-102949573D01*
X173056091Y-102912641D01*
X173125954Y-102913639D01*
X173177005Y-102944424D01*
X176200400Y-105967819D01*
X176233885Y-106029142D01*
X176228901Y-106098834D01*
X176187029Y-106154767D01*
X176121565Y-106179184D01*
X176112719Y-106179500D01*
X155564500Y-106179500D01*
X155497461Y-106159815D01*
X155451706Y-106107011D01*
X155440500Y-106055500D01*
X155440500Y-101418234D01*
X156320000Y-101418234D01*
X156320000Y-101781765D01*
X156355632Y-102143556D01*
X156426550Y-102500090D01*
X156426553Y-102500101D01*
X156532086Y-102847997D01*
X156671207Y-103183864D01*
X156671209Y-103183869D01*
X156842570Y-103504462D01*
X156842581Y-103504480D01*
X157044551Y-103806750D01*
X157231678Y-104034765D01*
X157231679Y-104034766D01*
X158725747Y-102540697D01*
X158799588Y-102642330D01*
X158977670Y-102820412D01*
X159079301Y-102894251D01*
X157585232Y-104388319D01*
X157585233Y-104388320D01*
X157813249Y-104575448D01*
X158115519Y-104777418D01*
X158115537Y-104777429D01*
X158436130Y-104948790D01*
X158436135Y-104948792D01*
X158772002Y-105087913D01*
X159119898Y-105193446D01*
X159119909Y-105193449D01*
X159476443Y-105264367D01*
X159838234Y-105300000D01*
X160201766Y-105300000D01*
X160563556Y-105264367D01*
X160920090Y-105193449D01*
X160920101Y-105193446D01*
X161267997Y-105087913D01*
X161603864Y-104948792D01*
X161603869Y-104948790D01*
X161924462Y-104777429D01*
X161924480Y-104777418D01*
X162226736Y-104575457D01*
X162226750Y-104575447D01*
X162454765Y-104388320D01*
X162454766Y-104388319D01*
X160960698Y-102894251D01*
X161062330Y-102820412D01*
X161240412Y-102642330D01*
X161314251Y-102540698D01*
X162808319Y-104034766D01*
X162808320Y-104034765D01*
X162995447Y-103806750D01*
X162995457Y-103806736D01*
X163197418Y-103504480D01*
X163197429Y-103504462D01*
X163368790Y-103183869D01*
X163368792Y-103183864D01*
X163507913Y-102847997D01*
X163613446Y-102500101D01*
X163613449Y-102500090D01*
X163684367Y-102143556D01*
X163720000Y-101781765D01*
X163720000Y-101418234D01*
X163684367Y-101056443D01*
X163613449Y-100699909D01*
X163613446Y-100699898D01*
X163507913Y-100352002D01*
X163368792Y-100016135D01*
X163368790Y-100016130D01*
X163197429Y-99695537D01*
X163197418Y-99695519D01*
X162995448Y-99393249D01*
X162808320Y-99165233D01*
X162808319Y-99165232D01*
X161314251Y-100659300D01*
X161240412Y-100557670D01*
X161062330Y-100379588D01*
X160960698Y-100305748D01*
X162454766Y-98811679D01*
X162454765Y-98811678D01*
X162226750Y-98624551D01*
X161924480Y-98422581D01*
X161924462Y-98422570D01*
X161603869Y-98251209D01*
X161603864Y-98251207D01*
X161267997Y-98112086D01*
X160920101Y-98006553D01*
X160920090Y-98006550D01*
X160563556Y-97935632D01*
X160201766Y-97900000D01*
X159960870Y-97900000D01*
X159893831Y-97880315D01*
X159848076Y-97827511D01*
X159836870Y-97776000D01*
X159836870Y-93924310D01*
X159856555Y-93857271D01*
X159909359Y-93811516D01*
X159960870Y-93800310D01*
X162377196Y-93800310D01*
X162377196Y-73557285D01*
X159960870Y-73557285D01*
X159893831Y-73537600D01*
X159848076Y-73484796D01*
X159836870Y-73433285D01*
X159836870Y-68479010D01*
X157020844Y-68479010D01*
X157020844Y-97863163D01*
X158756653Y-97863163D01*
X158823692Y-97882848D01*
X158869447Y-97935652D01*
X158879391Y-98004810D01*
X158850366Y-98068366D01*
X158792649Y-98105824D01*
X158771999Y-98112087D01*
X158436135Y-98251207D01*
X158436130Y-98251209D01*
X158115537Y-98422570D01*
X158115519Y-98422581D01*
X157813258Y-98624545D01*
X157813254Y-98624548D01*
X157585233Y-98811679D01*
X157585233Y-98811680D01*
X159079301Y-100305748D01*
X158977670Y-100379588D01*
X158799588Y-100557670D01*
X158725748Y-100659301D01*
X157231680Y-99165233D01*
X157231679Y-99165233D01*
X157044548Y-99393254D01*
X157044545Y-99393258D01*
X156842581Y-99695519D01*
X156842570Y-99695537D01*
X156671209Y-100016130D01*
X156671207Y-100016135D01*
X156532086Y-100352002D01*
X156426553Y-100699898D01*
X156426550Y-100699909D01*
X156355632Y-101056443D01*
X156320000Y-101418234D01*
X155440500Y-101418234D01*
X155440500Y-58238234D01*
X156320000Y-58238234D01*
X156320000Y-58601765D01*
X156355632Y-58963556D01*
X156426550Y-59320090D01*
X156426553Y-59320101D01*
X156532086Y-59667997D01*
X156671207Y-60003864D01*
X156671209Y-60003869D01*
X156842570Y-60324462D01*
X156842581Y-60324480D01*
X157044551Y-60626750D01*
X157231678Y-60854765D01*
X157231679Y-60854766D01*
X158725747Y-59360697D01*
X158799588Y-59462330D01*
X158977670Y-59640412D01*
X159079301Y-59714251D01*
X157585232Y-61208319D01*
X157585233Y-61208320D01*
X157813249Y-61395448D01*
X158115519Y-61597418D01*
X158115537Y-61597429D01*
X158436130Y-61768790D01*
X158436135Y-61768792D01*
X158772002Y-61907913D01*
X159119898Y-62013446D01*
X159119909Y-62013449D01*
X159476443Y-62084367D01*
X159838234Y-62120000D01*
X160201766Y-62120000D01*
X160563556Y-62084367D01*
X160920090Y-62013449D01*
X160920101Y-62013446D01*
X161267997Y-61907913D01*
X161603864Y-61768792D01*
X161603869Y-61768790D01*
X161924462Y-61597429D01*
X161924480Y-61597418D01*
X162226736Y-61395457D01*
X162226750Y-61395447D01*
X162454765Y-61208320D01*
X162454766Y-61208319D01*
X160960698Y-59714251D01*
X161062330Y-59640412D01*
X161240412Y-59462330D01*
X161314251Y-59360698D01*
X162808319Y-60854766D01*
X162808320Y-60854766D01*
X162876978Y-60771106D01*
X162876978Y-60771105D01*
X162995447Y-60626750D01*
X162995457Y-60626736D01*
X163197418Y-60324480D01*
X163197429Y-60324462D01*
X163368790Y-60003869D01*
X163368792Y-60003864D01*
X163507913Y-59667997D01*
X163613446Y-59320101D01*
X163613449Y-59320090D01*
X163684367Y-58963556D01*
X163720000Y-58601765D01*
X163720000Y-58238234D01*
X163684367Y-57876443D01*
X163613449Y-57519909D01*
X163613446Y-57519898D01*
X163507913Y-57172002D01*
X163466870Y-57072915D01*
X163449230Y-57030328D01*
X169929500Y-57030328D01*
X169929500Y-57269671D01*
X169966939Y-57506051D01*
X170040898Y-57733674D01*
X170149554Y-57946919D01*
X170290221Y-58140532D01*
X170290225Y-58140537D01*
X170459462Y-58309774D01*
X170459467Y-58309778D01*
X170611173Y-58419998D01*
X170653084Y-58450448D01*
X170788961Y-58519681D01*
X170866325Y-58559101D01*
X170866327Y-58559101D01*
X170866330Y-58559103D01*
X171093949Y-58633061D01*
X171215735Y-58652349D01*
X171330329Y-58670500D01*
X171330334Y-58670500D01*
X171569671Y-58670500D01*
X171674135Y-58653953D01*
X171806051Y-58633061D01*
X172033670Y-58559103D01*
X172246916Y-58450448D01*
X172440539Y-58309773D01*
X172609773Y-58140539D01*
X172750448Y-57946916D01*
X172859103Y-57733670D01*
X172933061Y-57506051D01*
X172968687Y-57281115D01*
X172970500Y-57269671D01*
X172970500Y-57030328D01*
X187709500Y-57030328D01*
X187709500Y-57269671D01*
X187746939Y-57506051D01*
X187820898Y-57733674D01*
X187929554Y-57946919D01*
X188070221Y-58140532D01*
X188070225Y-58140537D01*
X188239462Y-58309774D01*
X188239467Y-58309778D01*
X188391173Y-58419998D01*
X188433084Y-58450448D01*
X188568961Y-58519681D01*
X188646325Y-58559101D01*
X188646327Y-58559101D01*
X188646330Y-58559103D01*
X188873949Y-58633061D01*
X188995735Y-58652349D01*
X189110329Y-58670500D01*
X189110334Y-58670500D01*
X189349671Y-58670500D01*
X189454135Y-58653953D01*
X189586051Y-58633061D01*
X189813670Y-58559103D01*
X190026916Y-58450448D01*
X190220539Y-58309773D01*
X190389773Y-58140539D01*
X190530448Y-57946916D01*
X190639103Y-57733670D01*
X190713061Y-57506051D01*
X190748687Y-57281115D01*
X190750500Y-57269671D01*
X190750500Y-57030328D01*
X190729887Y-56900185D01*
X190713061Y-56793949D01*
X190639103Y-56566330D01*
X190639101Y-56566327D01*
X190639101Y-56566325D01*
X190599681Y-56488961D01*
X190530448Y-56353084D01*
X190428856Y-56213254D01*
X190389778Y-56159467D01*
X190389774Y-56159462D01*
X190220537Y-55990225D01*
X190220532Y-55990221D01*
X190026919Y-55849554D01*
X190026918Y-55849553D01*
X190026916Y-55849552D01*
X189960324Y-55815621D01*
X189813674Y-55740898D01*
X189586051Y-55666939D01*
X189349671Y-55629500D01*
X189349666Y-55629500D01*
X189110334Y-55629500D01*
X189110329Y-55629500D01*
X188873948Y-55666939D01*
X188646325Y-55740898D01*
X188433080Y-55849554D01*
X188239467Y-55990221D01*
X188239462Y-55990225D01*
X188070225Y-56159462D01*
X188070221Y-56159467D01*
X187929554Y-56353080D01*
X187820898Y-56566325D01*
X187746939Y-56793948D01*
X187709500Y-57030328D01*
X172970500Y-57030328D01*
X172949887Y-56900185D01*
X172933061Y-56793949D01*
X172859103Y-56566330D01*
X172859101Y-56566327D01*
X172859101Y-56566325D01*
X172819681Y-56488961D01*
X172750448Y-56353084D01*
X172648856Y-56213254D01*
X172609778Y-56159467D01*
X172609774Y-56159462D01*
X172440537Y-55990225D01*
X172440532Y-55990221D01*
X172246919Y-55849554D01*
X172246918Y-55849553D01*
X172246916Y-55849552D01*
X172180324Y-55815621D01*
X172033674Y-55740898D01*
X171806051Y-55666939D01*
X171569671Y-55629500D01*
X171569666Y-55629500D01*
X171330334Y-55629500D01*
X171330329Y-55629500D01*
X171093948Y-55666939D01*
X170866325Y-55740898D01*
X170653080Y-55849554D01*
X170459467Y-55990221D01*
X170459462Y-55990225D01*
X170290225Y-56159462D01*
X170290221Y-56159467D01*
X170149554Y-56353080D01*
X170040898Y-56566325D01*
X169966939Y-56793948D01*
X169929500Y-57030328D01*
X163449230Y-57030328D01*
X163368792Y-56836135D01*
X163368790Y-56836130D01*
X163197429Y-56515537D01*
X163197418Y-56515519D01*
X162995448Y-56213249D01*
X162808320Y-55985233D01*
X162808319Y-55985232D01*
X161314251Y-57479300D01*
X161240412Y-57377670D01*
X161062330Y-57199588D01*
X160960698Y-57125748D01*
X162454766Y-55631679D01*
X162454765Y-55631678D01*
X162226750Y-55444551D01*
X161924480Y-55242581D01*
X161924462Y-55242570D01*
X161603869Y-55071209D01*
X161603864Y-55071207D01*
X161267997Y-54932086D01*
X160920101Y-54826553D01*
X160920090Y-54826550D01*
X160563556Y-54755632D01*
X160201766Y-54720000D01*
X159838234Y-54720000D01*
X159476443Y-54755632D01*
X159119909Y-54826550D01*
X159119898Y-54826553D01*
X158772002Y-54932086D01*
X158436135Y-55071207D01*
X158436130Y-55071209D01*
X158115537Y-55242570D01*
X158115519Y-55242581D01*
X157813258Y-55444545D01*
X157813254Y-55444548D01*
X157585233Y-55631679D01*
X157585233Y-55631680D01*
X159079301Y-57125748D01*
X158977670Y-57199588D01*
X158799588Y-57377670D01*
X158725748Y-57479301D01*
X157231680Y-55985233D01*
X157231679Y-55985233D01*
X157044548Y-56213254D01*
X157044545Y-56213258D01*
X156842581Y-56515519D01*
X156842570Y-56515537D01*
X156671209Y-56836130D01*
X156671207Y-56836135D01*
X156532086Y-57172002D01*
X156426553Y-57519898D01*
X156426550Y-57519909D01*
X156355632Y-57876443D01*
X156320000Y-58238234D01*
X155440500Y-58238234D01*
X155440500Y-53964500D01*
X155460185Y-53897461D01*
X155512989Y-53851706D01*
X155564500Y-53840500D01*
X220355500Y-53840500D01*
X220422539Y-53860185D01*
G37*
%TD.AperFunction*%
%TA.AperFunction,Conductor*%
G36*
X209846075Y-103947007D02*
G01*
X209812000Y-104074174D01*
X209812000Y-104205826D01*
X209846075Y-104332993D01*
X209878988Y-104390000D01*
X208205012Y-104390000D01*
X208237925Y-104332993D01*
X208272000Y-104205826D01*
X208272000Y-104074174D01*
X208237925Y-103947007D01*
X208205012Y-103890000D01*
X209878988Y-103890000D01*
X209846075Y-103947007D01*
G37*
%TD.AperFunction*%
%TA.AperFunction,Conductor*%
G36*
X210562000Y-103706988D02*
G01*
X210504993Y-103674075D01*
X210377826Y-103640000D01*
X210246174Y-103640000D01*
X210119007Y-103674075D01*
X210062000Y-103706988D01*
X210062000Y-102033012D01*
X210119007Y-102065925D01*
X210246174Y-102100000D01*
X210377826Y-102100000D01*
X210504993Y-102065925D01*
X210562000Y-102033012D01*
X210562000Y-103706988D01*
G37*
%TD.AperFunction*%
%TA.AperFunction,Conductor*%
G36*
X210562000Y-101166988D02*
G01*
X210504993Y-101134075D01*
X210377826Y-101100000D01*
X210246174Y-101100000D01*
X210119007Y-101134075D01*
X210062000Y-101166988D01*
X210062000Y-99493012D01*
X210119007Y-99525925D01*
X210246174Y-99560000D01*
X210377826Y-99560000D01*
X210504993Y-99525925D01*
X210562000Y-99493012D01*
X210562000Y-101166988D01*
G37*
%TD.AperFunction*%
%TA.AperFunction,Conductor*%
G36*
X210562000Y-98626988D02*
G01*
X210504993Y-98594075D01*
X210377826Y-98560000D01*
X210246174Y-98560000D01*
X210119007Y-98594075D01*
X210062000Y-98626988D01*
X210062000Y-96953012D01*
X210119007Y-96985925D01*
X210246174Y-97020000D01*
X210377826Y-97020000D01*
X210504993Y-96985925D01*
X210562000Y-96953012D01*
X210562000Y-98626988D01*
G37*
%TD.AperFunction*%
%TA.AperFunction,Conductor*%
G36*
X210562000Y-88466988D02*
G01*
X210504993Y-88434075D01*
X210377826Y-88400000D01*
X210246174Y-88400000D01*
X210119007Y-88434075D01*
X210062000Y-88466988D01*
X210062000Y-86793012D01*
X210119007Y-86825925D01*
X210246174Y-86860000D01*
X210377826Y-86860000D01*
X210504993Y-86825925D01*
X210562000Y-86793012D01*
X210562000Y-88466988D01*
G37*
%TD.AperFunction*%
%TA.AperFunction,Conductor*%
G36*
X210562000Y-85926988D02*
G01*
X210504993Y-85894075D01*
X210377826Y-85860000D01*
X210246174Y-85860000D01*
X210119007Y-85894075D01*
X210062000Y-85926988D01*
X210062000Y-84253012D01*
X210119007Y-84285925D01*
X210246174Y-84320000D01*
X210377826Y-84320000D01*
X210504993Y-84285925D01*
X210562000Y-84253012D01*
X210562000Y-85926988D01*
G37*
%TD.AperFunction*%
%TA.AperFunction,Conductor*%
G36*
X210562000Y-83386988D02*
G01*
X210504993Y-83354075D01*
X210377826Y-83320000D01*
X210246174Y-83320000D01*
X210119007Y-83354075D01*
X210062000Y-83386988D01*
X210062000Y-81713012D01*
X210119007Y-81745925D01*
X210246174Y-81780000D01*
X210377826Y-81780000D01*
X210504993Y-81745925D01*
X210562000Y-81713012D01*
X210562000Y-83386988D01*
G37*
%TD.AperFunction*%
%TA.AperFunction,Conductor*%
G36*
X210562000Y-80846988D02*
G01*
X210504993Y-80814075D01*
X210377826Y-80780000D01*
X210246174Y-80780000D01*
X210119007Y-80814075D01*
X210062000Y-80846988D01*
X210062000Y-79173012D01*
X210119007Y-79205925D01*
X210246174Y-79240000D01*
X210377826Y-79240000D01*
X210504993Y-79205925D01*
X210562000Y-79173012D01*
X210562000Y-80846988D01*
G37*
%TD.AperFunction*%
%TA.AperFunction,Conductor*%
G36*
X206495795Y-67865185D02*
G01*
X206541550Y-67917989D01*
X206551494Y-67987147D01*
X206539241Y-68025795D01*
X206520904Y-68061782D01*
X206455242Y-68263870D01*
X206455242Y-68263873D01*
X206444769Y-68330000D01*
X207338988Y-68330000D01*
X207306075Y-68387007D01*
X207272000Y-68514174D01*
X207272000Y-68645826D01*
X207306075Y-68772993D01*
X207338988Y-68830000D01*
X206444769Y-68830000D01*
X206455242Y-68896126D01*
X206455242Y-68896129D01*
X206478654Y-68968182D01*
X206480649Y-69038023D01*
X206444569Y-69097856D01*
X206381868Y-69128684D01*
X206360723Y-69130500D01*
X198756281Y-69130500D01*
X198689242Y-69110815D01*
X198643487Y-69058011D01*
X198633543Y-68988853D01*
X198662568Y-68925297D01*
X198668600Y-68918819D01*
X199221649Y-68365769D01*
X199282972Y-68332284D01*
X199352663Y-68337268D01*
X199408597Y-68379139D01*
X199423891Y-68405998D01*
X199442602Y-68451172D01*
X199442609Y-68451185D01*
X199530210Y-68582288D01*
X199530213Y-68582292D01*
X199641707Y-68693786D01*
X199641711Y-68693789D01*
X199772814Y-68781390D01*
X199772827Y-68781397D01*
X199863113Y-68818794D01*
X199918503Y-68841737D01*
X200073153Y-68872499D01*
X200073156Y-68872500D01*
X200073158Y-68872500D01*
X200230844Y-68872500D01*
X200230845Y-68872499D01*
X200385497Y-68841737D01*
X200531179Y-68781394D01*
X200662289Y-68693789D01*
X200773789Y-68582289D01*
X200861394Y-68451179D01*
X200921737Y-68305497D01*
X200943156Y-68197812D01*
X200975539Y-68135906D01*
X200976979Y-68134438D01*
X201229601Y-67881816D01*
X201290923Y-67848334D01*
X201317281Y-67845500D01*
X206428756Y-67845500D01*
X206495795Y-67865185D01*
G37*
%TD.AperFunction*%
%TA.AperFunction,Conductor*%
G36*
X206424898Y-56900185D02*
G01*
X206470653Y-56952989D01*
X206474030Y-56961140D01*
X206478204Y-56972331D01*
X206478205Y-56972332D01*
X206478206Y-56972335D01*
X206564452Y-57087544D01*
X206564455Y-57087547D01*
X206679665Y-57173794D01*
X206679667Y-57173794D01*
X206679669Y-57173796D01*
X206690830Y-57177958D01*
X206708557Y-57191227D01*
X206728703Y-57200428D01*
X206735983Y-57211756D01*
X206746764Y-57219826D01*
X206754504Y-57240576D01*
X206766477Y-57259206D01*
X206769627Y-57281115D01*
X206771184Y-57285289D01*
X206771500Y-57294141D01*
X206771500Y-57459800D01*
X206751815Y-57526839D01*
X206742506Y-57539365D01*
X206616951Y-57712179D01*
X206520444Y-57901585D01*
X206454753Y-58103760D01*
X206421500Y-58313713D01*
X206421500Y-58526286D01*
X206454753Y-58736239D01*
X206520444Y-58938414D01*
X206616951Y-59127820D01*
X206741890Y-59299786D01*
X206892213Y-59450109D01*
X207064179Y-59575048D01*
X207064181Y-59575049D01*
X207064184Y-59575051D01*
X207073493Y-59579794D01*
X207124290Y-59627766D01*
X207141087Y-59695587D01*
X207118552Y-59761722D01*
X207073502Y-59800762D01*
X207064443Y-59805378D01*
X206892540Y-59930272D01*
X206892535Y-59930276D01*
X206742276Y-60080535D01*
X206742272Y-60080540D01*
X206617379Y-60252442D01*
X206520904Y-60441782D01*
X206455242Y-60643870D01*
X206455242Y-60643873D01*
X206444769Y-60710000D01*
X207338988Y-60710000D01*
X207306075Y-60767007D01*
X207272000Y-60894174D01*
X207272000Y-61025826D01*
X207306075Y-61152993D01*
X207338988Y-61210000D01*
X206444769Y-61210000D01*
X206455242Y-61276126D01*
X206455242Y-61276129D01*
X206520904Y-61478217D01*
X206617379Y-61667557D01*
X206742272Y-61839459D01*
X206742276Y-61839464D01*
X206892535Y-61989723D01*
X206892540Y-61989727D01*
X207064444Y-62114622D01*
X207073495Y-62119234D01*
X207124292Y-62167208D01*
X207141087Y-62235029D01*
X207118550Y-62301164D01*
X207073499Y-62340202D01*
X207064182Y-62344949D01*
X206892213Y-62469890D01*
X206741890Y-62620213D01*
X206616949Y-62792181D01*
X206610525Y-62804792D01*
X206562552Y-62855589D01*
X206500039Y-62872500D01*
X202376195Y-62872500D01*
X202254970Y-62896613D01*
X202254960Y-62896616D01*
X202140773Y-62943913D01*
X202140760Y-62943920D01*
X202037992Y-63012588D01*
X202037988Y-63012591D01*
X201783992Y-63266589D01*
X198967834Y-66082745D01*
X198906511Y-66116230D01*
X198836819Y-66111246D01*
X198780886Y-66069374D01*
X198769668Y-66051359D01*
X198691859Y-65898650D01*
X198659474Y-65854077D01*
X198659474Y-65854076D01*
X197980000Y-66533551D01*
X197980000Y-66527339D01*
X197952741Y-66425606D01*
X197900080Y-66334394D01*
X197825606Y-66259920D01*
X197734394Y-66207259D01*
X197632661Y-66180000D01*
X197626446Y-66180000D01*
X198305922Y-65500524D01*
X198305921Y-65500523D01*
X198261359Y-65468147D01*
X198261350Y-65468141D01*
X198079031Y-65375244D01*
X197884417Y-65312009D01*
X197682317Y-65280000D01*
X197477683Y-65280000D01*
X197275582Y-65312009D01*
X197080965Y-65375245D01*
X196899791Y-65467558D01*
X196831122Y-65480454D01*
X196766382Y-65454177D01*
X196764757Y-65452865D01*
X196753200Y-65443365D01*
X196737546Y-65422454D01*
X196627939Y-65340402D01*
X196625760Y-65338611D01*
X196607631Y-65311951D01*
X196588318Y-65286151D01*
X196587679Y-65282610D01*
X196586471Y-65280834D01*
X196586321Y-65275085D01*
X196580500Y-65242819D01*
X196580500Y-62438629D01*
X196600185Y-62371590D01*
X196639402Y-62333090D01*
X196688656Y-62302712D01*
X196812712Y-62178656D01*
X196904814Y-62029334D01*
X196904814Y-62029331D01*
X196908448Y-62023441D01*
X196960395Y-61976716D01*
X197029358Y-61965493D01*
X197093440Y-61993336D01*
X197101668Y-62000856D01*
X197240535Y-62139723D01*
X197240540Y-62139727D01*
X197412442Y-62264620D01*
X197601782Y-62361095D01*
X197803871Y-62426757D01*
X197870000Y-62437231D01*
X197870000Y-61393012D01*
X197927007Y-61425925D01*
X198054174Y-61460000D01*
X198185826Y-61460000D01*
X198312993Y-61425925D01*
X198370000Y-61393012D01*
X198370000Y-62437230D01*
X198436126Y-62426757D01*
X198436129Y-62426757D01*
X198638217Y-62361095D01*
X198827557Y-62264620D01*
X198999459Y-62139727D01*
X198999464Y-62139723D01*
X199149723Y-61989464D01*
X199149727Y-61989459D01*
X199274620Y-61817557D01*
X199371095Y-61628217D01*
X199436757Y-61426130D01*
X199436757Y-61426127D01*
X199470000Y-61216246D01*
X199470000Y-61210000D01*
X198553012Y-61210000D01*
X198585925Y-61152993D01*
X198620000Y-61025826D01*
X198620000Y-60894174D01*
X198585925Y-60767007D01*
X198553012Y-60710000D01*
X199470000Y-60710000D01*
X199470000Y-60703753D01*
X199436757Y-60493872D01*
X199436757Y-60493869D01*
X199371095Y-60291782D01*
X199274620Y-60102442D01*
X199149727Y-59930540D01*
X199149723Y-59930535D01*
X198999464Y-59780276D01*
X198999459Y-59780272D01*
X198827557Y-59655379D01*
X198656334Y-59568135D01*
X198605538Y-59520160D01*
X198588743Y-59452339D01*
X198611281Y-59386204D01*
X198624935Y-59369984D01*
X201078101Y-56916819D01*
X201139424Y-56883334D01*
X201165782Y-56880500D01*
X206357859Y-56880500D01*
X206424898Y-56900185D01*
G37*
%TD.AperFunction*%
%TA.AperFunction,Conductor*%
G36*
X209846075Y-60767007D02*
G01*
X209812000Y-60894174D01*
X209812000Y-61025826D01*
X209846075Y-61152993D01*
X209878988Y-61210000D01*
X208205012Y-61210000D01*
X208237925Y-61152993D01*
X208272000Y-61025826D01*
X208272000Y-60894174D01*
X208237925Y-60767007D01*
X208205012Y-60710000D01*
X209878988Y-60710000D01*
X209846075Y-60767007D01*
G37*
%TD.AperFunction*%
%TD*%
M02*
