%TF.GenerationSoftware,KiCad,Pcbnew,9.0.0*%
%TF.CreationDate,2025-02-28T18:30:32-05:00*%
%TF.ProjectId,umich_balloons_processor,756d6963-685f-4626-916c-6c6f6f6e735f,rev?*%
%TF.SameCoordinates,Original*%
%TF.FileFunction,Soldermask,Top*%
%TF.FilePolarity,Negative*%
%FSLAX46Y46*%
G04 Gerber Fmt 4.6, Leading zero omitted, Abs format (unit mm)*
G04 Created by KiCad (PCBNEW 9.0.0) date 2025-02-28 18:30:32*
%MOMM*%
%LPD*%
G01*
G04 APERTURE LIST*
G04 Aperture macros list*
%AMRoundRect*
0 Rectangle with rounded corners*
0 $1 Rounding radius*
0 $2 $3 $4 $5 $6 $7 $8 $9 X,Y pos of 4 corners*
0 Add a 4 corners polygon primitive as box body*
4,1,4,$2,$3,$4,$5,$6,$7,$8,$9,$2,$3,0*
0 Add four circle primitives for the rounded corners*
1,1,$1+$1,$2,$3*
1,1,$1+$1,$4,$5*
1,1,$1+$1,$6,$7*
1,1,$1+$1,$8,$9*
0 Add four rect primitives between the rounded corners*
20,1,$1+$1,$2,$3,$4,$5,0*
20,1,$1+$1,$4,$5,$6,$7,0*
20,1,$1+$1,$6,$7,$8,$9,0*
20,1,$1+$1,$8,$9,$2,$3,0*%
G04 Aperture macros list end*
%ADD10O,1.700000X1.700000*%
%ADD11R,1.700000X1.700000*%
%ADD12C,2.540000*%
%ADD13C,1.778000*%
%ADD14C,0.800000*%
%ADD15C,6.400000*%
%ADD16RoundRect,0.250000X-0.600000X-0.750000X0.600000X-0.750000X0.600000X0.750000X-0.600000X0.750000X0*%
%ADD17O,1.700000X2.000000*%
%ADD18R,1.600000X1.600000*%
%ADD19C,1.600000*%
G04 APERTURE END LIST*
D10*
%TO.C,J2*%
X210312000Y-104140000D03*
X207772000Y-104140000D03*
X210312000Y-101600000D03*
X207772000Y-101600000D03*
X210312000Y-99060000D03*
X207772000Y-99060000D03*
X210312000Y-96520000D03*
X207772000Y-96520000D03*
X210312000Y-93980000D03*
X207772000Y-93980000D03*
X210312000Y-91440000D03*
X207772000Y-91440000D03*
X210312000Y-88900000D03*
X207772000Y-88900000D03*
X210312000Y-86360000D03*
X207772000Y-86360000D03*
X210312000Y-83820000D03*
X207772000Y-83820000D03*
X210312000Y-81280000D03*
X207772000Y-81280000D03*
X210312000Y-78740000D03*
X207772000Y-78740000D03*
X210312000Y-76200000D03*
X207772000Y-76200000D03*
X210312000Y-73660000D03*
X207772000Y-73660000D03*
X210312000Y-71120000D03*
X207772000Y-71120000D03*
X210312000Y-68580000D03*
X207772000Y-68580000D03*
X210312000Y-66040000D03*
X207772000Y-66040000D03*
X210312000Y-63500000D03*
X207772000Y-63500000D03*
X210312000Y-60960000D03*
X207772000Y-60960000D03*
X210312000Y-58420000D03*
X207772000Y-58420000D03*
X210312000Y-55880000D03*
D11*
X207772000Y-55880000D03*
%TD*%
D12*
%TO.C,U1*%
X189230000Y-57150000D03*
X171450000Y-57150000D03*
X189230000Y-102870000D03*
X171450000Y-102870000D03*
D13*
X190500000Y-71120000D03*
X190500000Y-73660000D03*
X190500000Y-76200000D03*
X190500000Y-78740000D03*
X190500000Y-81280000D03*
X190500000Y-83820000D03*
X190500000Y-86360000D03*
X190500000Y-88900000D03*
X190500000Y-91440000D03*
X190500000Y-93980000D03*
X190500000Y-96520000D03*
X190500000Y-99060000D03*
X170180000Y-99060000D03*
X170180000Y-96520000D03*
X170180000Y-93980000D03*
X170180000Y-91440000D03*
X170180000Y-88900000D03*
X170180000Y-86360000D03*
X170180000Y-83820000D03*
X170180000Y-81280000D03*
X170180000Y-78740000D03*
X170180000Y-76200000D03*
X170180000Y-73660000D03*
X170180000Y-71120000D03*
X170180000Y-68580000D03*
X170180000Y-66040000D03*
X170180000Y-63500000D03*
X170180000Y-60960000D03*
%TD*%
D14*
%TO.C,H4*%
X157620000Y-101600000D03*
X158322944Y-99902944D03*
X158322944Y-103297056D03*
X160020000Y-99200000D03*
D15*
X160020000Y-101600000D03*
D14*
X160020000Y-104000000D03*
X161717056Y-99902944D03*
X161717056Y-103297056D03*
X162420000Y-101600000D03*
%TD*%
%TO.C,H3*%
X213500000Y-101600000D03*
X214202944Y-99902944D03*
X214202944Y-103297056D03*
X215900000Y-99200000D03*
D15*
X215900000Y-101600000D03*
D14*
X215900000Y-104000000D03*
X217597056Y-99902944D03*
X217597056Y-103297056D03*
X218300000Y-101600000D03*
%TD*%
%TO.C,H2*%
X213500000Y-58420000D03*
X214202944Y-56722944D03*
X214202944Y-60117056D03*
X215900000Y-56020000D03*
D15*
X215900000Y-58420000D03*
D14*
X215900000Y-60820000D03*
X217597056Y-56722944D03*
X217597056Y-60117056D03*
X218300000Y-58420000D03*
%TD*%
%TO.C,H1*%
X157620000Y-58420000D03*
X158322944Y-56722944D03*
X158322944Y-60117056D03*
X160020000Y-56020000D03*
D15*
X160020000Y-58420000D03*
D14*
X160020000Y-60820000D03*
X161717056Y-56722944D03*
X161717056Y-60117056D03*
X162420000Y-58420000D03*
%TD*%
D16*
%TO.C,J1*%
X195620000Y-60960000D03*
D17*
X198120000Y-60960000D03*
%TD*%
D18*
%TO.C,C1*%
X195580000Y-66580000D03*
D19*
X197580000Y-66580000D03*
%TD*%
M02*
