%TF.GenerationSoftware,KiCad,Pcbnew,9.0.0*%
%TF.CreationDate,2025-02-28T18:30:32-05:00*%
%TF.ProjectId,umich_balloons_processor,756d6963-685f-4626-916c-6c6f6f6e735f,rev?*%
%TF.SameCoordinates,Original*%
%TF.FileFunction,Legend,Top*%
%TF.FilePolarity,Positive*%
%FSLAX46Y46*%
G04 Gerber Fmt 4.6, Leading zero omitted, Abs format (unit mm)*
G04 Created by KiCad (PCBNEW 9.0.0) date 2025-02-28 18:30:32*
%MOMM*%
%LPD*%
G01*
G04 APERTURE LIST*
%ADD10C,0.150000*%
%ADD11C,0.100000*%
%ADD12C,0.121920*%
%ADD13C,0.120000*%
%ADD14C,0.050000*%
G04 APERTURE END LIST*
D10*
X204644666Y-57874819D02*
X204644666Y-58589104D01*
X204644666Y-58589104D02*
X204597047Y-58731961D01*
X204597047Y-58731961D02*
X204501809Y-58827200D01*
X204501809Y-58827200D02*
X204358952Y-58874819D01*
X204358952Y-58874819D02*
X204263714Y-58874819D01*
X205073238Y-57970057D02*
X205120857Y-57922438D01*
X205120857Y-57922438D02*
X205216095Y-57874819D01*
X205216095Y-57874819D02*
X205454190Y-57874819D01*
X205454190Y-57874819D02*
X205549428Y-57922438D01*
X205549428Y-57922438D02*
X205597047Y-57970057D01*
X205597047Y-57970057D02*
X205644666Y-58065295D01*
X205644666Y-58065295D02*
X205644666Y-58160533D01*
X205644666Y-58160533D02*
X205597047Y-58303390D01*
X205597047Y-58303390D02*
X205025619Y-58874819D01*
X205025619Y-58874819D02*
X205644666Y-58874819D01*
D11*
X181196529Y-73404146D02*
X180387006Y-73404146D01*
X180387006Y-73404146D02*
X180291768Y-73451765D01*
X180291768Y-73451765D02*
X180244149Y-73499384D01*
X180244149Y-73499384D02*
X180196529Y-73594622D01*
X180196529Y-73594622D02*
X180196529Y-73785098D01*
X180196529Y-73785098D02*
X180244149Y-73880336D01*
X180244149Y-73880336D02*
X180291768Y-73927955D01*
X180291768Y-73927955D02*
X180387006Y-73975574D01*
X180387006Y-73975574D02*
X181196529Y-73975574D01*
X180196529Y-74975574D02*
X180196529Y-74404146D01*
X180196529Y-74689860D02*
X181196529Y-74689860D01*
X181196529Y-74689860D02*
X181053672Y-74594622D01*
X181053672Y-74594622D02*
X180958434Y-74499384D01*
X180958434Y-74499384D02*
X180910815Y-74404146D01*
D12*
X192651497Y-70439134D02*
X192608922Y-70566860D01*
X192608922Y-70566860D02*
X192566346Y-70609435D01*
X192566346Y-70609435D02*
X192481196Y-70652011D01*
X192481196Y-70652011D02*
X192353470Y-70652011D01*
X192353470Y-70652011D02*
X192268320Y-70609435D01*
X192268320Y-70609435D02*
X192225745Y-70566860D01*
X192225745Y-70566860D02*
X192183169Y-70481710D01*
X192183169Y-70481710D02*
X192183169Y-70141108D01*
X192183169Y-70141108D02*
X193077249Y-70141108D01*
X193077249Y-70141108D02*
X193077249Y-70439134D01*
X193077249Y-70439134D02*
X193034674Y-70524285D01*
X193034674Y-70524285D02*
X192992099Y-70566860D01*
X192992099Y-70566860D02*
X192906948Y-70609435D01*
X192906948Y-70609435D02*
X192821798Y-70609435D01*
X192821798Y-70609435D02*
X192736647Y-70566860D01*
X192736647Y-70566860D02*
X192694072Y-70524285D01*
X192694072Y-70524285D02*
X192651497Y-70439134D01*
X192651497Y-70439134D02*
X192651497Y-70141108D01*
X192438621Y-70992612D02*
X192438621Y-71418365D01*
X192183169Y-70907462D02*
X193077249Y-71205489D01*
X193077249Y-71205489D02*
X192183169Y-71503515D01*
X193077249Y-71673816D02*
X193077249Y-72184719D01*
X192183169Y-71929267D02*
X193077249Y-71929267D01*
X168002121Y-83181371D02*
X168002121Y-83607124D01*
X167746669Y-83096221D02*
X168640749Y-83394248D01*
X168640749Y-83394248D02*
X167746669Y-83692274D01*
X168640749Y-84416053D02*
X168640749Y-83990301D01*
X168640749Y-83990301D02*
X168214997Y-83947725D01*
X168214997Y-83947725D02*
X168257572Y-83990301D01*
X168257572Y-83990301D02*
X168300147Y-84075451D01*
X168300147Y-84075451D02*
X168300147Y-84288327D01*
X168300147Y-84288327D02*
X168257572Y-84373478D01*
X168257572Y-84373478D02*
X168214997Y-84416053D01*
X168214997Y-84416053D02*
X168129846Y-84458628D01*
X168129846Y-84458628D02*
X167916970Y-84458628D01*
X167916970Y-84458628D02*
X167831820Y-84416053D01*
X167831820Y-84416053D02*
X167789245Y-84373478D01*
X167789245Y-84373478D02*
X167746669Y-84288327D01*
X167746669Y-84288327D02*
X167746669Y-84075451D01*
X167746669Y-84075451D02*
X167789245Y-83990301D01*
X167789245Y-83990301D02*
X167831820Y-83947725D01*
X167670469Y-88133646D02*
X168564549Y-88133646D01*
X168564549Y-88133646D02*
X167925921Y-88431672D01*
X167925921Y-88431672D02*
X168564549Y-88729699D01*
X168564549Y-88729699D02*
X167670469Y-88729699D01*
X168564549Y-89325753D02*
X168564549Y-89496054D01*
X168564549Y-89496054D02*
X168521974Y-89581204D01*
X168521974Y-89581204D02*
X168436824Y-89666355D01*
X168436824Y-89666355D02*
X168266523Y-89708930D01*
X168266523Y-89708930D02*
X167968496Y-89708930D01*
X167968496Y-89708930D02*
X167798195Y-89666355D01*
X167798195Y-89666355D02*
X167713045Y-89581204D01*
X167713045Y-89581204D02*
X167670469Y-89496054D01*
X167670469Y-89496054D02*
X167670469Y-89325753D01*
X167670469Y-89325753D02*
X167713045Y-89240602D01*
X167713045Y-89240602D02*
X167798195Y-89155452D01*
X167798195Y-89155452D02*
X167968496Y-89112876D01*
X167968496Y-89112876D02*
X168266523Y-89112876D01*
X168266523Y-89112876D02*
X168436824Y-89155452D01*
X168436824Y-89155452D02*
X168521974Y-89240602D01*
X168521974Y-89240602D02*
X168564549Y-89325753D01*
X167746669Y-65464509D02*
X168640749Y-65464509D01*
X168640749Y-65464509D02*
X167746669Y-65975412D01*
X167746669Y-65975412D02*
X168640749Y-65975412D01*
X167831820Y-66912067D02*
X167789245Y-66869491D01*
X167789245Y-66869491D02*
X167746669Y-66741766D01*
X167746669Y-66741766D02*
X167746669Y-66656615D01*
X167746669Y-66656615D02*
X167789245Y-66528889D01*
X167789245Y-66528889D02*
X167874395Y-66443739D01*
X167874395Y-66443739D02*
X167959545Y-66401164D01*
X167959545Y-66401164D02*
X168129846Y-66358588D01*
X168129846Y-66358588D02*
X168257572Y-66358588D01*
X168257572Y-66358588D02*
X168427873Y-66401164D01*
X168427873Y-66401164D02*
X168513024Y-66443739D01*
X168513024Y-66443739D02*
X168598174Y-66528889D01*
X168598174Y-66528889D02*
X168640749Y-66656615D01*
X168640749Y-66656615D02*
X168640749Y-66741766D01*
X168640749Y-66741766D02*
X168598174Y-66869491D01*
X168598174Y-66869491D02*
X168555599Y-66912067D01*
X168640749Y-62945796D02*
X168640749Y-63499274D01*
X168640749Y-63499274D02*
X168300147Y-63201248D01*
X168300147Y-63201248D02*
X168300147Y-63328973D01*
X168300147Y-63328973D02*
X168257572Y-63414124D01*
X168257572Y-63414124D02*
X168214997Y-63456699D01*
X168214997Y-63456699D02*
X168129846Y-63499274D01*
X168129846Y-63499274D02*
X167916970Y-63499274D01*
X167916970Y-63499274D02*
X167831820Y-63456699D01*
X167831820Y-63456699D02*
X167789245Y-63414124D01*
X167789245Y-63414124D02*
X167746669Y-63328973D01*
X167746669Y-63328973D02*
X167746669Y-63073522D01*
X167746669Y-63073522D02*
X167789245Y-62988371D01*
X167789245Y-62988371D02*
X167831820Y-62945796D01*
X168640749Y-63754726D02*
X167746669Y-64052753D01*
X167746669Y-64052753D02*
X168640749Y-64350779D01*
X192183169Y-88734149D02*
X192183169Y-88223246D01*
X192183169Y-88478698D02*
X193077249Y-88478698D01*
X193077249Y-88478698D02*
X192949524Y-88393547D01*
X192949524Y-88393547D02*
X192864373Y-88308397D01*
X192864373Y-88308397D02*
X192821798Y-88223246D01*
X193077249Y-89543079D02*
X193077249Y-89117327D01*
X193077249Y-89117327D02*
X192651497Y-89074751D01*
X192651497Y-89074751D02*
X192694072Y-89117327D01*
X192694072Y-89117327D02*
X192736647Y-89202477D01*
X192736647Y-89202477D02*
X192736647Y-89415353D01*
X192736647Y-89415353D02*
X192694072Y-89500504D01*
X192694072Y-89500504D02*
X192651497Y-89543079D01*
X192651497Y-89543079D02*
X192566346Y-89585654D01*
X192566346Y-89585654D02*
X192353470Y-89585654D01*
X192353470Y-89585654D02*
X192268320Y-89543079D01*
X192268320Y-89543079D02*
X192225745Y-89500504D01*
X192225745Y-89500504D02*
X192183169Y-89415353D01*
X192183169Y-89415353D02*
X192183169Y-89202477D01*
X192183169Y-89202477D02*
X192225745Y-89117327D01*
X192225745Y-89117327D02*
X192268320Y-89074751D01*
X168628049Y-98348920D02*
X168628049Y-98902398D01*
X168628049Y-98902398D02*
X168287447Y-98604372D01*
X168287447Y-98604372D02*
X168287447Y-98732097D01*
X168287447Y-98732097D02*
X168244872Y-98817248D01*
X168244872Y-98817248D02*
X168202297Y-98859823D01*
X168202297Y-98859823D02*
X168117146Y-98902398D01*
X168117146Y-98902398D02*
X167904270Y-98902398D01*
X167904270Y-98902398D02*
X167819120Y-98859823D01*
X167819120Y-98859823D02*
X167776545Y-98817248D01*
X167776545Y-98817248D02*
X167733969Y-98732097D01*
X167733969Y-98732097D02*
X167733969Y-98476646D01*
X167733969Y-98476646D02*
X167776545Y-98391495D01*
X167776545Y-98391495D02*
X167819120Y-98348920D01*
X168628049Y-99200425D02*
X168628049Y-99796479D01*
X168628049Y-99796479D02*
X167733969Y-99413301D01*
X192992099Y-83143246D02*
X193034674Y-83185822D01*
X193034674Y-83185822D02*
X193077249Y-83270972D01*
X193077249Y-83270972D02*
X193077249Y-83483848D01*
X193077249Y-83483848D02*
X193034674Y-83568999D01*
X193034674Y-83568999D02*
X192992099Y-83611574D01*
X192992099Y-83611574D02*
X192906948Y-83654149D01*
X192906948Y-83654149D02*
X192821798Y-83654149D01*
X192821798Y-83654149D02*
X192694072Y-83611574D01*
X192694072Y-83611574D02*
X192183169Y-83100671D01*
X192183169Y-83100671D02*
X192183169Y-83654149D01*
X193077249Y-83952176D02*
X193077249Y-84548230D01*
X193077249Y-84548230D02*
X192183169Y-84165052D01*
X168598174Y-68025796D02*
X168640749Y-67940646D01*
X168640749Y-67940646D02*
X168640749Y-67812920D01*
X168640749Y-67812920D02*
X168598174Y-67685194D01*
X168598174Y-67685194D02*
X168513024Y-67600044D01*
X168513024Y-67600044D02*
X168427873Y-67557469D01*
X168427873Y-67557469D02*
X168257572Y-67514893D01*
X168257572Y-67514893D02*
X168129846Y-67514893D01*
X168129846Y-67514893D02*
X167959545Y-67557469D01*
X167959545Y-67557469D02*
X167874395Y-67600044D01*
X167874395Y-67600044D02*
X167789245Y-67685194D01*
X167789245Y-67685194D02*
X167746669Y-67812920D01*
X167746669Y-67812920D02*
X167746669Y-67898071D01*
X167746669Y-67898071D02*
X167789245Y-68025796D01*
X167789245Y-68025796D02*
X167831820Y-68068372D01*
X167831820Y-68068372D02*
X168129846Y-68068372D01*
X168129846Y-68068372D02*
X168129846Y-67898071D01*
X167746669Y-68451549D02*
X168640749Y-68451549D01*
X168640749Y-68451549D02*
X167746669Y-68962452D01*
X167746669Y-68962452D02*
X168640749Y-68962452D01*
X167746669Y-69388204D02*
X168640749Y-69388204D01*
X168640749Y-69388204D02*
X168640749Y-69601080D01*
X168640749Y-69601080D02*
X168598174Y-69728806D01*
X168598174Y-69728806D02*
X168513024Y-69813956D01*
X168513024Y-69813956D02*
X168427873Y-69856531D01*
X168427873Y-69856531D02*
X168257572Y-69899107D01*
X168257572Y-69899107D02*
X168129846Y-69899107D01*
X168129846Y-69899107D02*
X167959545Y-69856531D01*
X167959545Y-69856531D02*
X167874395Y-69813956D01*
X167874395Y-69813956D02*
X167789245Y-69728806D01*
X167789245Y-69728806D02*
X167746669Y-69601080D01*
X167746669Y-69601080D02*
X167746669Y-69388204D01*
X168002121Y-80704871D02*
X168002121Y-81130624D01*
X167746669Y-80619721D02*
X168640749Y-80917748D01*
X168640749Y-80917748D02*
X167746669Y-81215774D01*
X168342723Y-81896978D02*
X167746669Y-81896978D01*
X168683325Y-81684102D02*
X168044696Y-81471225D01*
X168044696Y-81471225D02*
X168044696Y-82024704D01*
X192289245Y-98080382D02*
X192246669Y-98208108D01*
X192246669Y-98208108D02*
X192246669Y-98420984D01*
X192246669Y-98420984D02*
X192289245Y-98506135D01*
X192289245Y-98506135D02*
X192331820Y-98548710D01*
X192331820Y-98548710D02*
X192416970Y-98591285D01*
X192416970Y-98591285D02*
X192502121Y-98591285D01*
X192502121Y-98591285D02*
X192587271Y-98548710D01*
X192587271Y-98548710D02*
X192629846Y-98506135D01*
X192629846Y-98506135D02*
X192672422Y-98420984D01*
X192672422Y-98420984D02*
X192714997Y-98250683D01*
X192714997Y-98250683D02*
X192757572Y-98165533D01*
X192757572Y-98165533D02*
X192800147Y-98122958D01*
X192800147Y-98122958D02*
X192885298Y-98080382D01*
X192885298Y-98080382D02*
X192970448Y-98080382D01*
X192970448Y-98080382D02*
X193055599Y-98122958D01*
X193055599Y-98122958D02*
X193098174Y-98165533D01*
X193098174Y-98165533D02*
X193140749Y-98250683D01*
X193140749Y-98250683D02*
X193140749Y-98463560D01*
X193140749Y-98463560D02*
X193098174Y-98591285D01*
X192246669Y-98974463D02*
X193140749Y-98974463D01*
X193140749Y-98974463D02*
X193140749Y-99187339D01*
X193140749Y-99187339D02*
X193098174Y-99315065D01*
X193098174Y-99315065D02*
X193013024Y-99400215D01*
X193013024Y-99400215D02*
X192927873Y-99442790D01*
X192927873Y-99442790D02*
X192757572Y-99485366D01*
X192757572Y-99485366D02*
X192629846Y-99485366D01*
X192629846Y-99485366D02*
X192459545Y-99442790D01*
X192459545Y-99442790D02*
X192374395Y-99400215D01*
X192374395Y-99400215D02*
X192289245Y-99315065D01*
X192289245Y-99315065D02*
X192246669Y-99187339D01*
X192246669Y-99187339D02*
X192246669Y-98974463D01*
X192502121Y-99825967D02*
X192502121Y-100251720D01*
X192246669Y-99740817D02*
X193140749Y-100038844D01*
X193140749Y-100038844D02*
X192246669Y-100336870D01*
X167683169Y-93830987D02*
X168108922Y-93532960D01*
X167683169Y-93320084D02*
X168577249Y-93320084D01*
X168577249Y-93320084D02*
X168577249Y-93660686D01*
X168577249Y-93660686D02*
X168534674Y-93745836D01*
X168534674Y-93745836D02*
X168492099Y-93788411D01*
X168492099Y-93788411D02*
X168406948Y-93830987D01*
X168406948Y-93830987D02*
X168279223Y-93830987D01*
X168279223Y-93830987D02*
X168194072Y-93788411D01*
X168194072Y-93788411D02*
X168151497Y-93745836D01*
X168151497Y-93745836D02*
X168108922Y-93660686D01*
X168108922Y-93660686D02*
X168108922Y-93320084D01*
X168577249Y-94129013D02*
X167683169Y-94725067D01*
X168577249Y-94725067D02*
X167683169Y-94129013D01*
X167670469Y-90890997D02*
X168564549Y-90890997D01*
X168564549Y-90890997D02*
X167925921Y-91189023D01*
X167925921Y-91189023D02*
X168564549Y-91487050D01*
X168564549Y-91487050D02*
X167670469Y-91487050D01*
X167670469Y-91912803D02*
X168564549Y-91912803D01*
X167951321Y-75662971D02*
X167951321Y-76088724D01*
X167695869Y-75577821D02*
X168589949Y-75875848D01*
X168589949Y-75875848D02*
X167695869Y-76173874D01*
X168504799Y-76429325D02*
X168547374Y-76471901D01*
X168547374Y-76471901D02*
X168589949Y-76557051D01*
X168589949Y-76557051D02*
X168589949Y-76769927D01*
X168589949Y-76769927D02*
X168547374Y-76855078D01*
X168547374Y-76855078D02*
X168504799Y-76897653D01*
X168504799Y-76897653D02*
X168419648Y-76940228D01*
X168419648Y-76940228D02*
X168334498Y-76940228D01*
X168334498Y-76940228D02*
X168206772Y-76897653D01*
X168206772Y-76897653D02*
X167695869Y-76386750D01*
X167695869Y-76386750D02*
X167695869Y-76940228D01*
X167976721Y-78202971D02*
X167976721Y-78628724D01*
X167721269Y-78117821D02*
X168615349Y-78415848D01*
X168615349Y-78415848D02*
X167721269Y-78713874D01*
X168615349Y-78926750D02*
X168615349Y-79480228D01*
X168615349Y-79480228D02*
X168274747Y-79182202D01*
X168274747Y-79182202D02*
X168274747Y-79309927D01*
X168274747Y-79309927D02*
X168232172Y-79395078D01*
X168232172Y-79395078D02*
X168189597Y-79437653D01*
X168189597Y-79437653D02*
X168104446Y-79480228D01*
X168104446Y-79480228D02*
X167891570Y-79480228D01*
X167891570Y-79480228D02*
X167806420Y-79437653D01*
X167806420Y-79437653D02*
X167763845Y-79395078D01*
X167763845Y-79395078D02*
X167721269Y-79309927D01*
X167721269Y-79309927D02*
X167721269Y-79054476D01*
X167721269Y-79054476D02*
X167763845Y-78969325D01*
X167763845Y-78969325D02*
X167806420Y-78926750D01*
X193077249Y-75177807D02*
X192353470Y-75177807D01*
X192353470Y-75177807D02*
X192268320Y-75220382D01*
X192268320Y-75220382D02*
X192225745Y-75262957D01*
X192225745Y-75262957D02*
X192183169Y-75348108D01*
X192183169Y-75348108D02*
X192183169Y-75518409D01*
X192183169Y-75518409D02*
X192225745Y-75603559D01*
X192225745Y-75603559D02*
X192268320Y-75646134D01*
X192268320Y-75646134D02*
X192353470Y-75688710D01*
X192353470Y-75688710D02*
X193077249Y-75688710D01*
X192225745Y-76071886D02*
X192183169Y-76199612D01*
X192183169Y-76199612D02*
X192183169Y-76412488D01*
X192183169Y-76412488D02*
X192225745Y-76497639D01*
X192225745Y-76497639D02*
X192268320Y-76540214D01*
X192268320Y-76540214D02*
X192353470Y-76582789D01*
X192353470Y-76582789D02*
X192438621Y-76582789D01*
X192438621Y-76582789D02*
X192523771Y-76540214D01*
X192523771Y-76540214D02*
X192566346Y-76497639D01*
X192566346Y-76497639D02*
X192608922Y-76412488D01*
X192608922Y-76412488D02*
X192651497Y-76242187D01*
X192651497Y-76242187D02*
X192694072Y-76157037D01*
X192694072Y-76157037D02*
X192736647Y-76114462D01*
X192736647Y-76114462D02*
X192821798Y-76071886D01*
X192821798Y-76071886D02*
X192906948Y-76071886D01*
X192906948Y-76071886D02*
X192992099Y-76114462D01*
X192992099Y-76114462D02*
X193034674Y-76157037D01*
X193034674Y-76157037D02*
X193077249Y-76242187D01*
X193077249Y-76242187D02*
X193077249Y-76455064D01*
X193077249Y-76455064D02*
X193034674Y-76582789D01*
X192651497Y-77263993D02*
X192608922Y-77391719D01*
X192608922Y-77391719D02*
X192566346Y-77434294D01*
X192566346Y-77434294D02*
X192481196Y-77476870D01*
X192481196Y-77476870D02*
X192353470Y-77476870D01*
X192353470Y-77476870D02*
X192268320Y-77434294D01*
X192268320Y-77434294D02*
X192225745Y-77391719D01*
X192225745Y-77391719D02*
X192183169Y-77306569D01*
X192183169Y-77306569D02*
X192183169Y-76965967D01*
X192183169Y-76965967D02*
X193077249Y-76965967D01*
X193077249Y-76965967D02*
X193077249Y-77263993D01*
X193077249Y-77263993D02*
X193034674Y-77349144D01*
X193034674Y-77349144D02*
X192992099Y-77391719D01*
X192992099Y-77391719D02*
X192906948Y-77434294D01*
X192906948Y-77434294D02*
X192821798Y-77434294D01*
X192821798Y-77434294D02*
X192736647Y-77391719D01*
X192736647Y-77391719D02*
X192694072Y-77349144D01*
X192694072Y-77349144D02*
X192651497Y-77263993D01*
X192651497Y-77263993D02*
X192651497Y-76965967D01*
X168002121Y-73148371D02*
X168002121Y-73574124D01*
X167746669Y-73063221D02*
X168640749Y-73361248D01*
X168640749Y-73361248D02*
X167746669Y-73659274D01*
X167746669Y-74425628D02*
X167746669Y-73914725D01*
X167746669Y-74170177D02*
X168640749Y-74170177D01*
X168640749Y-74170177D02*
X168513024Y-74085026D01*
X168513024Y-74085026D02*
X168427873Y-73999876D01*
X168427873Y-73999876D02*
X168385298Y-73914725D01*
X192289245Y-95371169D02*
X192246669Y-95498895D01*
X192246669Y-95498895D02*
X192246669Y-95711771D01*
X192246669Y-95711771D02*
X192289245Y-95796922D01*
X192289245Y-95796922D02*
X192331820Y-95839497D01*
X192331820Y-95839497D02*
X192416970Y-95882072D01*
X192416970Y-95882072D02*
X192502121Y-95882072D01*
X192502121Y-95882072D02*
X192587271Y-95839497D01*
X192587271Y-95839497D02*
X192629846Y-95796922D01*
X192629846Y-95796922D02*
X192672422Y-95711771D01*
X192672422Y-95711771D02*
X192714997Y-95541470D01*
X192714997Y-95541470D02*
X192757572Y-95456320D01*
X192757572Y-95456320D02*
X192800147Y-95413745D01*
X192800147Y-95413745D02*
X192885298Y-95371169D01*
X192885298Y-95371169D02*
X192970448Y-95371169D01*
X192970448Y-95371169D02*
X193055599Y-95413745D01*
X193055599Y-95413745D02*
X193098174Y-95456320D01*
X193098174Y-95456320D02*
X193140749Y-95541470D01*
X193140749Y-95541470D02*
X193140749Y-95754347D01*
X193140749Y-95754347D02*
X193098174Y-95882072D01*
X192331820Y-96776153D02*
X192289245Y-96733577D01*
X192289245Y-96733577D02*
X192246669Y-96605852D01*
X192246669Y-96605852D02*
X192246669Y-96520701D01*
X192246669Y-96520701D02*
X192289245Y-96392975D01*
X192289245Y-96392975D02*
X192374395Y-96307825D01*
X192374395Y-96307825D02*
X192459545Y-96265250D01*
X192459545Y-96265250D02*
X192629846Y-96222674D01*
X192629846Y-96222674D02*
X192757572Y-96222674D01*
X192757572Y-96222674D02*
X192927873Y-96265250D01*
X192927873Y-96265250D02*
X193013024Y-96307825D01*
X193013024Y-96307825D02*
X193098174Y-96392975D01*
X193098174Y-96392975D02*
X193140749Y-96520701D01*
X193140749Y-96520701D02*
X193140749Y-96605852D01*
X193140749Y-96605852D02*
X193098174Y-96733577D01*
X193098174Y-96733577D02*
X193055599Y-96776153D01*
X192246669Y-97585082D02*
X192246669Y-97159330D01*
X192246669Y-97159330D02*
X193140749Y-97159330D01*
X192183169Y-78675749D02*
X192183169Y-78164846D01*
X192183169Y-78420298D02*
X193077249Y-78420298D01*
X193077249Y-78420298D02*
X192949524Y-78335147D01*
X192949524Y-78335147D02*
X192864373Y-78249997D01*
X192864373Y-78249997D02*
X192821798Y-78164846D01*
X193077249Y-78973776D02*
X193077249Y-79527254D01*
X193077249Y-79527254D02*
X192736647Y-79229228D01*
X192736647Y-79229228D02*
X192736647Y-79356953D01*
X192736647Y-79356953D02*
X192694072Y-79442104D01*
X192694072Y-79442104D02*
X192651497Y-79484679D01*
X192651497Y-79484679D02*
X192566346Y-79527254D01*
X192566346Y-79527254D02*
X192353470Y-79527254D01*
X192353470Y-79527254D02*
X192268320Y-79484679D01*
X192268320Y-79484679D02*
X192225745Y-79442104D01*
X192225745Y-79442104D02*
X192183169Y-79356953D01*
X192183169Y-79356953D02*
X192183169Y-79101502D01*
X192183169Y-79101502D02*
X192225745Y-79016351D01*
X192225745Y-79016351D02*
X192268320Y-78973776D01*
X192157769Y-81190349D02*
X192157769Y-80679446D01*
X192157769Y-80934898D02*
X193051849Y-80934898D01*
X193051849Y-80934898D02*
X192924124Y-80849747D01*
X192924124Y-80849747D02*
X192838973Y-80764597D01*
X192838973Y-80764597D02*
X192796398Y-80679446D01*
X192966699Y-81530951D02*
X193009274Y-81573527D01*
X193009274Y-81573527D02*
X193051849Y-81658677D01*
X193051849Y-81658677D02*
X193051849Y-81871553D01*
X193051849Y-81871553D02*
X193009274Y-81956704D01*
X193009274Y-81956704D02*
X192966699Y-81999279D01*
X192966699Y-81999279D02*
X192881548Y-82041854D01*
X192881548Y-82041854D02*
X192796398Y-82041854D01*
X192796398Y-82041854D02*
X192668672Y-81999279D01*
X192668672Y-81999279D02*
X192157769Y-81488376D01*
X192157769Y-81488376D02*
X192157769Y-82041854D01*
X168002121Y-70735371D02*
X168002121Y-71161124D01*
X167746669Y-70650221D02*
X168640749Y-70948248D01*
X168640749Y-70948248D02*
X167746669Y-71246274D01*
X168640749Y-71714602D02*
X168640749Y-71799752D01*
X168640749Y-71799752D02*
X168598174Y-71884903D01*
X168598174Y-71884903D02*
X168555599Y-71927478D01*
X168555599Y-71927478D02*
X168470448Y-71970053D01*
X168470448Y-71970053D02*
X168300147Y-72012628D01*
X168300147Y-72012628D02*
X168087271Y-72012628D01*
X168087271Y-72012628D02*
X167916970Y-71970053D01*
X167916970Y-71970053D02*
X167831820Y-71927478D01*
X167831820Y-71927478D02*
X167789245Y-71884903D01*
X167789245Y-71884903D02*
X167746669Y-71799752D01*
X167746669Y-71799752D02*
X167746669Y-71714602D01*
X167746669Y-71714602D02*
X167789245Y-71629451D01*
X167789245Y-71629451D02*
X167831820Y-71586876D01*
X167831820Y-71586876D02*
X167916970Y-71544301D01*
X167916970Y-71544301D02*
X168087271Y-71501725D01*
X168087271Y-71501725D02*
X168300147Y-71501725D01*
X168300147Y-71501725D02*
X168470448Y-71544301D01*
X168470448Y-71544301D02*
X168555599Y-71586876D01*
X168555599Y-71586876D02*
X168598174Y-71629451D01*
X168598174Y-71629451D02*
X168640749Y-71714602D01*
X192259369Y-93750649D02*
X192259369Y-93239746D01*
X192259369Y-93495198D02*
X193153449Y-93495198D01*
X193153449Y-93495198D02*
X193025724Y-93410047D01*
X193025724Y-93410047D02*
X192940573Y-93324897D01*
X192940573Y-93324897D02*
X192897998Y-93239746D01*
X192855423Y-94517004D02*
X192259369Y-94517004D01*
X193196025Y-94304128D02*
X192557396Y-94091251D01*
X192557396Y-94091251D02*
X192557396Y-94644730D01*
X193064549Y-85615271D02*
X193064549Y-86168749D01*
X193064549Y-86168749D02*
X192723947Y-85870723D01*
X192723947Y-85870723D02*
X192723947Y-85998448D01*
X192723947Y-85998448D02*
X192681372Y-86083599D01*
X192681372Y-86083599D02*
X192638797Y-86126174D01*
X192638797Y-86126174D02*
X192553646Y-86168749D01*
X192553646Y-86168749D02*
X192340770Y-86168749D01*
X192340770Y-86168749D02*
X192255620Y-86126174D01*
X192255620Y-86126174D02*
X192213045Y-86083599D01*
X192213045Y-86083599D02*
X192170469Y-85998448D01*
X192170469Y-85998448D02*
X192170469Y-85742997D01*
X192170469Y-85742997D02*
X192213045Y-85657846D01*
X192213045Y-85657846D02*
X192255620Y-85615271D01*
X193064549Y-86466776D02*
X193064549Y-87020254D01*
X193064549Y-87020254D02*
X192723947Y-86722228D01*
X192723947Y-86722228D02*
X192723947Y-86849953D01*
X192723947Y-86849953D02*
X192681372Y-86935104D01*
X192681372Y-86935104D02*
X192638797Y-86977679D01*
X192638797Y-86977679D02*
X192553646Y-87020254D01*
X192553646Y-87020254D02*
X192340770Y-87020254D01*
X192340770Y-87020254D02*
X192255620Y-86977679D01*
X192255620Y-86977679D02*
X192213045Y-86935104D01*
X192213045Y-86935104D02*
X192170469Y-86849953D01*
X192170469Y-86849953D02*
X192170469Y-86594502D01*
X192170469Y-86594502D02*
X192213045Y-86509351D01*
X192213045Y-86509351D02*
X192255620Y-86466776D01*
X167725745Y-85146968D02*
X167683169Y-85274694D01*
X167683169Y-85274694D02*
X167683169Y-85487570D01*
X167683169Y-85487570D02*
X167725745Y-85572721D01*
X167725745Y-85572721D02*
X167768320Y-85615296D01*
X167768320Y-85615296D02*
X167853470Y-85657871D01*
X167853470Y-85657871D02*
X167938621Y-85657871D01*
X167938621Y-85657871D02*
X168023771Y-85615296D01*
X168023771Y-85615296D02*
X168066346Y-85572721D01*
X168066346Y-85572721D02*
X168108922Y-85487570D01*
X168108922Y-85487570D02*
X168151497Y-85317269D01*
X168151497Y-85317269D02*
X168194072Y-85232119D01*
X168194072Y-85232119D02*
X168236647Y-85189544D01*
X168236647Y-85189544D02*
X168321798Y-85146968D01*
X168321798Y-85146968D02*
X168406948Y-85146968D01*
X168406948Y-85146968D02*
X168492099Y-85189544D01*
X168492099Y-85189544D02*
X168534674Y-85232119D01*
X168534674Y-85232119D02*
X168577249Y-85317269D01*
X168577249Y-85317269D02*
X168577249Y-85530146D01*
X168577249Y-85530146D02*
X168534674Y-85657871D01*
X167768320Y-86551952D02*
X167725745Y-86509376D01*
X167725745Y-86509376D02*
X167683169Y-86381651D01*
X167683169Y-86381651D02*
X167683169Y-86296500D01*
X167683169Y-86296500D02*
X167725745Y-86168774D01*
X167725745Y-86168774D02*
X167810895Y-86083624D01*
X167810895Y-86083624D02*
X167896045Y-86041049D01*
X167896045Y-86041049D02*
X168066346Y-85998473D01*
X168066346Y-85998473D02*
X168194072Y-85998473D01*
X168194072Y-85998473D02*
X168364373Y-86041049D01*
X168364373Y-86041049D02*
X168449524Y-86083624D01*
X168449524Y-86083624D02*
X168534674Y-86168774D01*
X168534674Y-86168774D02*
X168577249Y-86296500D01*
X168577249Y-86296500D02*
X168577249Y-86381651D01*
X168577249Y-86381651D02*
X168534674Y-86509376D01*
X168534674Y-86509376D02*
X168492099Y-86551952D01*
X167683169Y-86935129D02*
X168577249Y-86935129D01*
X167683169Y-87446032D02*
X168194072Y-87062854D01*
X168577249Y-87446032D02*
X168066346Y-86935129D01*
X192651497Y-72979135D02*
X192651497Y-73277161D01*
X192183169Y-73404887D02*
X192183169Y-72979135D01*
X192183169Y-72979135D02*
X193077249Y-72979135D01*
X193077249Y-72979135D02*
X193077249Y-73404887D01*
X192183169Y-73788065D02*
X193077249Y-73788065D01*
X193077249Y-73788065D02*
X192183169Y-74298968D01*
X192183169Y-74298968D02*
X193077249Y-74298968D01*
X168577249Y-95813396D02*
X168577249Y-96324299D01*
X167683169Y-96068847D02*
X168577249Y-96068847D01*
X168577249Y-96537175D02*
X167683169Y-97133229D01*
X168577249Y-97133229D02*
X167683169Y-96537175D01*
X167746669Y-60470385D02*
X168172422Y-60172358D01*
X167746669Y-59959482D02*
X168640749Y-59959482D01*
X168640749Y-59959482D02*
X168640749Y-60300084D01*
X168640749Y-60300084D02*
X168598174Y-60385234D01*
X168598174Y-60385234D02*
X168555599Y-60427809D01*
X168555599Y-60427809D02*
X168470448Y-60470385D01*
X168470448Y-60470385D02*
X168342723Y-60470385D01*
X168342723Y-60470385D02*
X168257572Y-60427809D01*
X168257572Y-60427809D02*
X168214997Y-60385234D01*
X168214997Y-60385234D02*
X168172422Y-60300084D01*
X168172422Y-60300084D02*
X168172422Y-59959482D01*
X167789245Y-60810986D02*
X167746669Y-60938712D01*
X167746669Y-60938712D02*
X167746669Y-61151588D01*
X167746669Y-61151588D02*
X167789245Y-61236739D01*
X167789245Y-61236739D02*
X167831820Y-61279314D01*
X167831820Y-61279314D02*
X167916970Y-61321889D01*
X167916970Y-61321889D02*
X168002121Y-61321889D01*
X168002121Y-61321889D02*
X168087271Y-61279314D01*
X168087271Y-61279314D02*
X168129846Y-61236739D01*
X168129846Y-61236739D02*
X168172422Y-61151588D01*
X168172422Y-61151588D02*
X168214997Y-60981287D01*
X168214997Y-60981287D02*
X168257572Y-60896137D01*
X168257572Y-60896137D02*
X168300147Y-60853562D01*
X168300147Y-60853562D02*
X168385298Y-60810986D01*
X168385298Y-60810986D02*
X168470448Y-60810986D01*
X168470448Y-60810986D02*
X168555599Y-60853562D01*
X168555599Y-60853562D02*
X168598174Y-60896137D01*
X168598174Y-60896137D02*
X168640749Y-60981287D01*
X168640749Y-60981287D02*
X168640749Y-61194164D01*
X168640749Y-61194164D02*
X168598174Y-61321889D01*
X168640749Y-61577341D02*
X168640749Y-62088244D01*
X167746669Y-61832792D02*
X168640749Y-61832792D01*
X193077249Y-90695271D02*
X193077249Y-91248749D01*
X193077249Y-91248749D02*
X192736647Y-90950723D01*
X192736647Y-90950723D02*
X192736647Y-91078448D01*
X192736647Y-91078448D02*
X192694072Y-91163599D01*
X192694072Y-91163599D02*
X192651497Y-91206174D01*
X192651497Y-91206174D02*
X192566346Y-91248749D01*
X192566346Y-91248749D02*
X192353470Y-91248749D01*
X192353470Y-91248749D02*
X192268320Y-91206174D01*
X192268320Y-91206174D02*
X192225745Y-91163599D01*
X192225745Y-91163599D02*
X192183169Y-91078448D01*
X192183169Y-91078448D02*
X192183169Y-90822997D01*
X192183169Y-90822997D02*
X192225745Y-90737846D01*
X192225745Y-90737846D02*
X192268320Y-90695271D01*
X192992099Y-91589351D02*
X193034674Y-91631927D01*
X193034674Y-91631927D02*
X193077249Y-91717077D01*
X193077249Y-91717077D02*
X193077249Y-91929953D01*
X193077249Y-91929953D02*
X193034674Y-92015104D01*
X193034674Y-92015104D02*
X192992099Y-92057679D01*
X192992099Y-92057679D02*
X192906948Y-92100254D01*
X192906948Y-92100254D02*
X192821798Y-92100254D01*
X192821798Y-92100254D02*
X192694072Y-92057679D01*
X192694072Y-92057679D02*
X192183169Y-91546776D01*
X192183169Y-91546776D02*
X192183169Y-92100254D01*
D10*
X199477333Y-64621580D02*
X199429714Y-64669200D01*
X199429714Y-64669200D02*
X199286857Y-64716819D01*
X199286857Y-64716819D02*
X199191619Y-64716819D01*
X199191619Y-64716819D02*
X199048762Y-64669200D01*
X199048762Y-64669200D02*
X198953524Y-64573961D01*
X198953524Y-64573961D02*
X198905905Y-64478723D01*
X198905905Y-64478723D02*
X198858286Y-64288247D01*
X198858286Y-64288247D02*
X198858286Y-64145390D01*
X198858286Y-64145390D02*
X198905905Y-63954914D01*
X198905905Y-63954914D02*
X198953524Y-63859676D01*
X198953524Y-63859676D02*
X199048762Y-63764438D01*
X199048762Y-63764438D02*
X199191619Y-63716819D01*
X199191619Y-63716819D02*
X199286857Y-63716819D01*
X199286857Y-63716819D02*
X199429714Y-63764438D01*
X199429714Y-63764438D02*
X199477333Y-63812057D01*
X200429714Y-64716819D02*
X199858286Y-64716819D01*
X200144000Y-64716819D02*
X200144000Y-63716819D01*
X200144000Y-63716819D02*
X200048762Y-63859676D01*
X200048762Y-63859676D02*
X199953524Y-63954914D01*
X199953524Y-63954914D02*
X199858286Y-64002533D01*
D13*
%TO.C,J2*%
X211642000Y-54550000D02*
X211642000Y-105470000D01*
X209042000Y-57150000D02*
X209042000Y-54550000D01*
X209042000Y-54550000D02*
X211642000Y-54550000D01*
X206442000Y-105470000D02*
X211642000Y-105470000D01*
X206442000Y-57150000D02*
X209042000Y-57150000D01*
X206442000Y-57150000D02*
X206442000Y-105470000D01*
X206442000Y-55880000D02*
X206442000Y-54550000D01*
X206442000Y-54550000D02*
X207772000Y-54550000D01*
D14*
%TO.C,U1*%
X189230000Y-54610000D02*
X171450000Y-54610000D01*
X168910000Y-57150000D02*
X168910000Y-102870000D01*
X191770000Y-102870000D02*
X191770000Y-57150000D01*
X171450000Y-105410000D02*
X189230000Y-105410000D01*
X189230000Y-54610000D02*
G75*
G02*
X191770000Y-57150000I-1J-2540001D01*
G01*
X168910000Y-57150000D02*
G75*
G02*
X171450000Y-54610000I2540001J-1D01*
G01*
X191770000Y-102870000D02*
G75*
G02*
X189230000Y-105410002I-2540001J-1D01*
G01*
X171450000Y-105410000D02*
G75*
G02*
X168910000Y-102870000I-1J2539999D01*
G01*
D13*
%TO.C,J1*%
X193010000Y-54150000D02*
X200730000Y-54150000D01*
X193010000Y-55370000D02*
X194230000Y-55370000D01*
X193010000Y-62570000D02*
X193010000Y-54150000D01*
X194230000Y-55370000D02*
X194230000Y-60370000D01*
X194230000Y-59370000D02*
X199510000Y-59370000D01*
X194230000Y-60370000D02*
X193010000Y-60370000D01*
X194230000Y-60370000D02*
X194230000Y-62570000D01*
X194230000Y-62570000D02*
X193010000Y-62570000D01*
X195300000Y-55950000D02*
X195620000Y-55870000D01*
X195300000Y-59370000D02*
X195300000Y-55950000D01*
X195320000Y-63060000D02*
X195920000Y-63060000D01*
X195620000Y-55870000D02*
X195940000Y-55950000D01*
X195620000Y-59370000D02*
X195300000Y-59370000D01*
X195620000Y-62460000D02*
X195320000Y-63060000D01*
X195920000Y-63060000D02*
X195620000Y-62460000D01*
X195940000Y-55950000D02*
X195940000Y-59370000D01*
X195940000Y-59370000D02*
X195620000Y-59370000D01*
X196790000Y-60370000D02*
X196950000Y-60370000D01*
X197800000Y-55950000D02*
X198120000Y-55870000D01*
X197800000Y-59370000D02*
X197800000Y-55950000D01*
X198120000Y-55870000D02*
X198440000Y-55950000D01*
X198120000Y-59370000D02*
X197800000Y-59370000D01*
X198440000Y-55950000D02*
X198440000Y-59370000D01*
X198440000Y-59370000D02*
X198120000Y-59370000D01*
X199510000Y-55370000D02*
X199510000Y-60370000D01*
X199510000Y-60370000D02*
X200730000Y-60370000D01*
X199510000Y-62570000D02*
X199510000Y-60370000D01*
X200730000Y-54150000D02*
X200730000Y-62570000D01*
X200730000Y-55370000D02*
X199510000Y-55370000D01*
X200730000Y-62570000D02*
X199510000Y-62570000D01*
%TO.C,C1*%
X193775225Y-65105000D02*
X194275225Y-65105000D01*
X194025225Y-64855000D02*
X194025225Y-65355000D01*
X196580000Y-64000000D02*
X196580000Y-65540000D01*
X196580000Y-67620000D02*
X196580000Y-69160000D01*
X196620000Y-64000000D02*
X196620000Y-65540000D01*
X196620000Y-67620000D02*
X196620000Y-69160000D01*
X196660000Y-64001000D02*
X196660000Y-65540000D01*
X196660000Y-67620000D02*
X196660000Y-69159000D01*
X196700000Y-64002000D02*
X196700000Y-65540000D01*
X196700000Y-67620000D02*
X196700000Y-69158000D01*
X196740000Y-64004000D02*
X196740000Y-65540000D01*
X196740000Y-67620000D02*
X196740000Y-69156000D01*
X196780000Y-64007000D02*
X196780000Y-65540000D01*
X196780000Y-67620000D02*
X196780000Y-69153000D01*
X196820000Y-64011000D02*
X196820000Y-65540000D01*
X196820000Y-67620000D02*
X196820000Y-69149000D01*
X196860000Y-64015000D02*
X196860000Y-65540000D01*
X196860000Y-67620000D02*
X196860000Y-69145000D01*
X196900000Y-64019000D02*
X196900000Y-65540000D01*
X196900000Y-67620000D02*
X196900000Y-69141000D01*
X196940000Y-64024000D02*
X196940000Y-65540000D01*
X196940000Y-67620000D02*
X196940000Y-69136000D01*
X196980000Y-64030000D02*
X196980000Y-65540000D01*
X196980000Y-67620000D02*
X196980000Y-69130000D01*
X197020000Y-64037000D02*
X197020000Y-65540000D01*
X197020000Y-67620000D02*
X197020000Y-69123000D01*
X197060000Y-64044000D02*
X197060000Y-65540000D01*
X197060000Y-67620000D02*
X197060000Y-69116000D01*
X197100000Y-64052000D02*
X197100000Y-65540000D01*
X197100000Y-67620000D02*
X197100000Y-69108000D01*
X197140000Y-64060000D02*
X197140000Y-65540000D01*
X197140000Y-67620000D02*
X197140000Y-69100000D01*
X197180000Y-64069000D02*
X197180000Y-65540000D01*
X197180000Y-67620000D02*
X197180000Y-69091000D01*
X197220000Y-64079000D02*
X197220000Y-65540000D01*
X197220000Y-67620000D02*
X197220000Y-69081000D01*
X197260000Y-64089000D02*
X197260000Y-65540000D01*
X197260000Y-67620000D02*
X197260000Y-69071000D01*
X197301000Y-64100000D02*
X197301000Y-65540000D01*
X197301000Y-67620000D02*
X197301000Y-69060000D01*
X197341000Y-64112000D02*
X197341000Y-65540000D01*
X197341000Y-67620000D02*
X197341000Y-69048000D01*
X197381000Y-64125000D02*
X197381000Y-65540000D01*
X197381000Y-67620000D02*
X197381000Y-69035000D01*
X197421000Y-64138000D02*
X197421000Y-65540000D01*
X197421000Y-67620000D02*
X197421000Y-69022000D01*
X197461000Y-64152000D02*
X197461000Y-65540000D01*
X197461000Y-67620000D02*
X197461000Y-69008000D01*
X197501000Y-64166000D02*
X197501000Y-65540000D01*
X197501000Y-67620000D02*
X197501000Y-68994000D01*
X197541000Y-64182000D02*
X197541000Y-65540000D01*
X197541000Y-67620000D02*
X197541000Y-68978000D01*
X197581000Y-64198000D02*
X197581000Y-65540000D01*
X197581000Y-67620000D02*
X197581000Y-68962000D01*
X197621000Y-64215000D02*
X197621000Y-65540000D01*
X197621000Y-67620000D02*
X197621000Y-68945000D01*
X197661000Y-64232000D02*
X197661000Y-65540000D01*
X197661000Y-67620000D02*
X197661000Y-68928000D01*
X197701000Y-64251000D02*
X197701000Y-65540000D01*
X197701000Y-67620000D02*
X197701000Y-68909000D01*
X197741000Y-64270000D02*
X197741000Y-65540000D01*
X197741000Y-67620000D02*
X197741000Y-68890000D01*
X197781000Y-64290000D02*
X197781000Y-65540000D01*
X197781000Y-67620000D02*
X197781000Y-68870000D01*
X197821000Y-64312000D02*
X197821000Y-65540000D01*
X197821000Y-67620000D02*
X197821000Y-68848000D01*
X197861000Y-64333000D02*
X197861000Y-65540000D01*
X197861000Y-67620000D02*
X197861000Y-68827000D01*
X197901000Y-64356000D02*
X197901000Y-65540000D01*
X197901000Y-67620000D02*
X197901000Y-68804000D01*
X197941000Y-64380000D02*
X197941000Y-65540000D01*
X197941000Y-67620000D02*
X197941000Y-68780000D01*
X197981000Y-64405000D02*
X197981000Y-65540000D01*
X197981000Y-67620000D02*
X197981000Y-68755000D01*
X198021000Y-64431000D02*
X198021000Y-65540000D01*
X198021000Y-67620000D02*
X198021000Y-68729000D01*
X198061000Y-64458000D02*
X198061000Y-65540000D01*
X198061000Y-67620000D02*
X198061000Y-68702000D01*
X198101000Y-64485000D02*
X198101000Y-65540000D01*
X198101000Y-67620000D02*
X198101000Y-68675000D01*
X198141000Y-64515000D02*
X198141000Y-65540000D01*
X198141000Y-67620000D02*
X198141000Y-68645000D01*
X198181000Y-64545000D02*
X198181000Y-65540000D01*
X198181000Y-67620000D02*
X198181000Y-68615000D01*
X198221000Y-64576000D02*
X198221000Y-65540000D01*
X198221000Y-67620000D02*
X198221000Y-68584000D01*
X198261000Y-64609000D02*
X198261000Y-65540000D01*
X198261000Y-67620000D02*
X198261000Y-68551000D01*
X198301000Y-64643000D02*
X198301000Y-65540000D01*
X198301000Y-67620000D02*
X198301000Y-68517000D01*
X198341000Y-64679000D02*
X198341000Y-65540000D01*
X198341000Y-67620000D02*
X198341000Y-68481000D01*
X198381000Y-64716000D02*
X198381000Y-65540000D01*
X198381000Y-67620000D02*
X198381000Y-68444000D01*
X198421000Y-64754000D02*
X198421000Y-65540000D01*
X198421000Y-67620000D02*
X198421000Y-68406000D01*
X198461000Y-64795000D02*
X198461000Y-65540000D01*
X198461000Y-67620000D02*
X198461000Y-68365000D01*
X198501000Y-64837000D02*
X198501000Y-65540000D01*
X198501000Y-67620000D02*
X198501000Y-68323000D01*
X198541000Y-64881000D02*
X198541000Y-65540000D01*
X198541000Y-67620000D02*
X198541000Y-68279000D01*
X198581000Y-64927000D02*
X198581000Y-65540000D01*
X198581000Y-67620000D02*
X198581000Y-68233000D01*
X198621000Y-64975000D02*
X198621000Y-68185000D01*
X198661000Y-65026000D02*
X198661000Y-68134000D01*
X198701000Y-65080000D02*
X198701000Y-68080000D01*
X198741000Y-65137000D02*
X198741000Y-68023000D01*
X198781000Y-65197000D02*
X198781000Y-67963000D01*
X198821000Y-65261000D02*
X198821000Y-67899000D01*
X198861000Y-65329000D02*
X198861000Y-67831000D01*
X198901000Y-65402000D02*
X198901000Y-67758000D01*
X198941000Y-65482000D02*
X198941000Y-67678000D01*
X198981000Y-65569000D02*
X198981000Y-67591000D01*
X199021000Y-65665000D02*
X199021000Y-67495000D01*
X199061000Y-65775000D02*
X199061000Y-67385000D01*
X199101000Y-65903000D02*
X199101000Y-67257000D01*
X199141000Y-66062000D02*
X199141000Y-67098000D01*
X199181000Y-66296000D02*
X199181000Y-66864000D01*
X199200000Y-66580000D02*
G75*
G02*
X193960000Y-66580000I-2620000J0D01*
G01*
X193960000Y-66580000D02*
G75*
G02*
X199200000Y-66580000I2620000J0D01*
G01*
%TD*%
M02*
