%TF.GenerationSoftware,KiCad,Pcbnew,9.0.0*%
%TF.CreationDate,2025-03-18T11:03:33-04:00*%
%TF.ProjectId,umich_balloons_power,756d6963-685f-4626-916c-6c6f6f6e735f,rev?*%
%TF.SameCoordinates,Original*%
%TF.FileFunction,Copper,L1,Top*%
%TF.FilePolarity,Positive*%
%FSLAX46Y46*%
G04 Gerber Fmt 4.6, Leading zero omitted, Abs format (unit mm)*
G04 Created by KiCad (PCBNEW 9.0.0) date 2025-03-18 11:03:33*
%MOMM*%
%LPD*%
G01*
G04 APERTURE LIST*
G04 Aperture macros list*
%AMRoundRect*
0 Rectangle with rounded corners*
0 $1 Rounding radius*
0 $2 $3 $4 $5 $6 $7 $8 $9 X,Y pos of 4 corners*
0 Add a 4 corners polygon primitive as box body*
4,1,4,$2,$3,$4,$5,$6,$7,$8,$9,$2,$3,0*
0 Add four circle primitives for the rounded corners*
1,1,$1+$1,$2,$3*
1,1,$1+$1,$4,$5*
1,1,$1+$1,$6,$7*
1,1,$1+$1,$8,$9*
0 Add four rect primitives between the rounded corners*
20,1,$1+$1,$2,$3,$4,$5,0*
20,1,$1+$1,$4,$5,$6,$7,0*
20,1,$1+$1,$6,$7,$8,$9,0*
20,1,$1+$1,$8,$9,$2,$3,0*%
G04 Aperture macros list end*
%ADD10C,0.187500*%
%TA.AperFunction,NonConductor*%
%ADD11C,0.187500*%
%TD*%
%TA.AperFunction,SMDPad,CuDef*%
%ADD12RoundRect,0.200000X0.275000X-0.200000X0.275000X0.200000X-0.275000X0.200000X-0.275000X-0.200000X0*%
%TD*%
%TA.AperFunction,SMDPad,CuDef*%
%ADD13RoundRect,0.200000X-0.275000X0.200000X-0.275000X-0.200000X0.275000X-0.200000X0.275000X0.200000X0*%
%TD*%
%TA.AperFunction,SMDPad,CuDef*%
%ADD14RoundRect,0.025000X-0.275000X0.100000X-0.275000X-0.100000X0.275000X-0.100000X0.275000X0.100000X0*%
%TD*%
%TA.AperFunction,SMDPad,CuDef*%
%ADD15RoundRect,0.070000X0.280000X-0.355000X0.280000X0.355000X-0.280000X0.355000X-0.280000X-0.355000X0*%
%TD*%
%TA.AperFunction,SMDPad,CuDef*%
%ADD16RoundRect,0.035000X0.140000X-0.690000X0.140000X0.690000X-0.140000X0.690000X-0.140000X-0.690000X0*%
%TD*%
%TA.AperFunction,SMDPad,CuDef*%
%ADD17RoundRect,0.035000X0.140000X-0.865000X0.140000X0.865000X-0.140000X0.865000X-0.140000X-0.865000X0*%
%TD*%
%TA.AperFunction,SMDPad,CuDef*%
%ADD18RoundRect,0.070000X-0.280000X0.355000X-0.280000X-0.355000X0.280000X-0.355000X0.280000X0.355000X0*%
%TD*%
%TA.AperFunction,SMDPad,CuDef*%
%ADD19RoundRect,0.025000X0.275000X-0.100000X0.275000X0.100000X-0.275000X0.100000X-0.275000X-0.100000X0*%
%TD*%
%TA.AperFunction,SMDPad,CuDef*%
%ADD20RoundRect,0.025000X0.100000X0.275000X-0.100000X0.275000X-0.100000X-0.275000X0.100000X-0.275000X0*%
%TD*%
%TA.AperFunction,SMDPad,CuDef*%
%ADD21RoundRect,0.025000X-0.100000X-0.275000X0.100000X-0.275000X0.100000X0.275000X-0.100000X0.275000X0*%
%TD*%
%TA.AperFunction,SMDPad,CuDef*%
%ADD22RoundRect,0.225000X0.250000X-0.225000X0.250000X0.225000X-0.250000X0.225000X-0.250000X-0.225000X0*%
%TD*%
%TA.AperFunction,SMDPad,CuDef*%
%ADD23RoundRect,0.250000X0.250000X0.475000X-0.250000X0.475000X-0.250000X-0.475000X0.250000X-0.475000X0*%
%TD*%
%TA.AperFunction,SMDPad,CuDef*%
%ADD24RoundRect,0.250000X-0.250000X-0.475000X0.250000X-0.475000X0.250000X0.475000X-0.250000X0.475000X0*%
%TD*%
%TA.AperFunction,SMDPad,CuDef*%
%ADD25RoundRect,0.150000X-0.875000X-0.150000X0.875000X-0.150000X0.875000X0.150000X-0.875000X0.150000X0*%
%TD*%
%TA.AperFunction,SMDPad,CuDef*%
%ADD26RoundRect,0.200000X-0.200000X-0.275000X0.200000X-0.275000X0.200000X0.275000X-0.200000X0.275000X0*%
%TD*%
%TA.AperFunction,SMDPad,CuDef*%
%ADD27R,0.980000X3.400000*%
%TD*%
%TA.AperFunction,ComponentPad*%
%ADD28RoundRect,0.250000X0.600000X0.750000X-0.600000X0.750000X-0.600000X-0.750000X0.600000X-0.750000X0*%
%TD*%
%TA.AperFunction,ComponentPad*%
%ADD29O,1.700000X2.000000*%
%TD*%
%TA.AperFunction,ComponentPad*%
%ADD30R,1.700000X1.700000*%
%TD*%
%TA.AperFunction,ComponentPad*%
%ADD31O,1.700000X1.700000*%
%TD*%
%TA.AperFunction,ComponentPad*%
%ADD32RoundRect,0.200000X0.200000X0.450000X-0.200000X0.450000X-0.200000X-0.450000X0.200000X-0.450000X0*%
%TD*%
%TA.AperFunction,ComponentPad*%
%ADD33O,0.800000X1.300000*%
%TD*%
%TA.AperFunction,ComponentPad*%
%ADD34C,0.800000*%
%TD*%
%TA.AperFunction,ComponentPad*%
%ADD35C,6.400000*%
%TD*%
%TA.AperFunction,SMDPad,CuDef*%
%ADD36RoundRect,0.250000X0.475000X-0.250000X0.475000X0.250000X-0.475000X0.250000X-0.475000X-0.250000X0*%
%TD*%
%TA.AperFunction,SMDPad,CuDef*%
%ADD37RoundRect,0.250000X-0.475000X0.250000X-0.475000X-0.250000X0.475000X-0.250000X0.475000X0.250000X0*%
%TD*%
%TA.AperFunction,ViaPad*%
%ADD38C,0.600000*%
%TD*%
%TA.AperFunction,Conductor*%
%ADD39C,1.000000*%
%TD*%
%TA.AperFunction,Conductor*%
%ADD40C,0.200000*%
%TD*%
%TA.AperFunction,Conductor*%
%ADD41C,0.500000*%
%TD*%
%TA.AperFunction,Conductor*%
%ADD42C,0.400000*%
%TD*%
%TA.AperFunction,Conductor*%
%ADD43C,1.500000*%
%TD*%
%TA.AperFunction,Conductor*%
%ADD44C,1.200000*%
%TD*%
%TA.AperFunction,Conductor*%
%ADD45C,2.000000*%
%TD*%
%TA.AperFunction,Conductor*%
%ADD46C,0.250000*%
%TD*%
G04 APERTURE END LIST*
D10*
D11*
X213212246Y-86006502D02*
X214426532Y-86006502D01*
X214426532Y-86006502D02*
X214569389Y-85935073D01*
X214569389Y-85935073D02*
X214640818Y-85863645D01*
X214640818Y-85863645D02*
X214712246Y-85720787D01*
X214712246Y-85720787D02*
X214712246Y-85435073D01*
X214712246Y-85435073D02*
X214640818Y-85292216D01*
X214640818Y-85292216D02*
X214569389Y-85220787D01*
X214569389Y-85220787D02*
X214426532Y-85149359D01*
X214426532Y-85149359D02*
X213212246Y-85149359D01*
X214712246Y-84435073D02*
X213212246Y-84435073D01*
X213212246Y-84435073D02*
X214283675Y-83935073D01*
X214283675Y-83935073D02*
X213212246Y-83435073D01*
X213212246Y-83435073D02*
X214712246Y-83435073D01*
X214712246Y-82720787D02*
X213212246Y-82720787D01*
X214569389Y-81149358D02*
X214640818Y-81220786D01*
X214640818Y-81220786D02*
X214712246Y-81435072D01*
X214712246Y-81435072D02*
X214712246Y-81577929D01*
X214712246Y-81577929D02*
X214640818Y-81792215D01*
X214640818Y-81792215D02*
X214497960Y-81935072D01*
X214497960Y-81935072D02*
X214355103Y-82006501D01*
X214355103Y-82006501D02*
X214069389Y-82077929D01*
X214069389Y-82077929D02*
X213855103Y-82077929D01*
X213855103Y-82077929D02*
X213569389Y-82006501D01*
X213569389Y-82006501D02*
X213426532Y-81935072D01*
X213426532Y-81935072D02*
X213283675Y-81792215D01*
X213283675Y-81792215D02*
X213212246Y-81577929D01*
X213212246Y-81577929D02*
X213212246Y-81435072D01*
X213212246Y-81435072D02*
X213283675Y-81220786D01*
X213283675Y-81220786D02*
X213355103Y-81149358D01*
X214712246Y-80506501D02*
X213212246Y-80506501D01*
X213926532Y-80506501D02*
X213926532Y-79649358D01*
X214712246Y-79649358D02*
X213212246Y-79649358D01*
X213926532Y-77292215D02*
X213997960Y-77077929D01*
X213997960Y-77077929D02*
X214069389Y-77006500D01*
X214069389Y-77006500D02*
X214212246Y-76935072D01*
X214212246Y-76935072D02*
X214426532Y-76935072D01*
X214426532Y-76935072D02*
X214569389Y-77006500D01*
X214569389Y-77006500D02*
X214640818Y-77077929D01*
X214640818Y-77077929D02*
X214712246Y-77220786D01*
X214712246Y-77220786D02*
X214712246Y-77792215D01*
X214712246Y-77792215D02*
X213212246Y-77792215D01*
X213212246Y-77792215D02*
X213212246Y-77292215D01*
X213212246Y-77292215D02*
X213283675Y-77149358D01*
X213283675Y-77149358D02*
X213355103Y-77077929D01*
X213355103Y-77077929D02*
X213497960Y-77006500D01*
X213497960Y-77006500D02*
X213640818Y-77006500D01*
X213640818Y-77006500D02*
X213783675Y-77077929D01*
X213783675Y-77077929D02*
X213855103Y-77149358D01*
X213855103Y-77149358D02*
X213926532Y-77292215D01*
X213926532Y-77292215D02*
X213926532Y-77792215D01*
X214283675Y-76363643D02*
X214283675Y-75649358D01*
X214712246Y-76506500D02*
X213212246Y-76006500D01*
X213212246Y-76006500D02*
X214712246Y-75506500D01*
X214712246Y-74292215D02*
X214712246Y-75006501D01*
X214712246Y-75006501D02*
X213212246Y-75006501D01*
X214712246Y-73077929D02*
X214712246Y-73792215D01*
X214712246Y-73792215D02*
X213212246Y-73792215D01*
X213212246Y-72292214D02*
X213212246Y-72006500D01*
X213212246Y-72006500D02*
X213283675Y-71863643D01*
X213283675Y-71863643D02*
X213426532Y-71720786D01*
X213426532Y-71720786D02*
X213712246Y-71649357D01*
X213712246Y-71649357D02*
X214212246Y-71649357D01*
X214212246Y-71649357D02*
X214497960Y-71720786D01*
X214497960Y-71720786D02*
X214640818Y-71863643D01*
X214640818Y-71863643D02*
X214712246Y-72006500D01*
X214712246Y-72006500D02*
X214712246Y-72292214D01*
X214712246Y-72292214D02*
X214640818Y-72435072D01*
X214640818Y-72435072D02*
X214497960Y-72577929D01*
X214497960Y-72577929D02*
X214212246Y-72649357D01*
X214212246Y-72649357D02*
X213712246Y-72649357D01*
X213712246Y-72649357D02*
X213426532Y-72577929D01*
X213426532Y-72577929D02*
X213283675Y-72435072D01*
X213283675Y-72435072D02*
X213212246Y-72292214D01*
X213212246Y-70720785D02*
X213212246Y-70435071D01*
X213212246Y-70435071D02*
X213283675Y-70292214D01*
X213283675Y-70292214D02*
X213426532Y-70149357D01*
X213426532Y-70149357D02*
X213712246Y-70077928D01*
X213712246Y-70077928D02*
X214212246Y-70077928D01*
X214212246Y-70077928D02*
X214497960Y-70149357D01*
X214497960Y-70149357D02*
X214640818Y-70292214D01*
X214640818Y-70292214D02*
X214712246Y-70435071D01*
X214712246Y-70435071D02*
X214712246Y-70720785D01*
X214712246Y-70720785D02*
X214640818Y-70863643D01*
X214640818Y-70863643D02*
X214497960Y-71006500D01*
X214497960Y-71006500D02*
X214212246Y-71077928D01*
X214212246Y-71077928D02*
X213712246Y-71077928D01*
X213712246Y-71077928D02*
X213426532Y-71006500D01*
X213426532Y-71006500D02*
X213283675Y-70863643D01*
X213283675Y-70863643D02*
X213212246Y-70720785D01*
X214712246Y-69435071D02*
X213212246Y-69435071D01*
X213212246Y-69435071D02*
X214712246Y-68577928D01*
X214712246Y-68577928D02*
X213212246Y-68577928D01*
X214640818Y-67935070D02*
X214712246Y-67720785D01*
X214712246Y-67720785D02*
X214712246Y-67363642D01*
X214712246Y-67363642D02*
X214640818Y-67220785D01*
X214640818Y-67220785D02*
X214569389Y-67149356D01*
X214569389Y-67149356D02*
X214426532Y-67077927D01*
X214426532Y-67077927D02*
X214283675Y-67077927D01*
X214283675Y-67077927D02*
X214140818Y-67149356D01*
X214140818Y-67149356D02*
X214069389Y-67220785D01*
X214069389Y-67220785D02*
X213997960Y-67363642D01*
X213997960Y-67363642D02*
X213926532Y-67649356D01*
X213926532Y-67649356D02*
X213855103Y-67792213D01*
X213855103Y-67792213D02*
X213783675Y-67863642D01*
X213783675Y-67863642D02*
X213640818Y-67935070D01*
X213640818Y-67935070D02*
X213497960Y-67935070D01*
X213497960Y-67935070D02*
X213355103Y-67863642D01*
X213355103Y-67863642D02*
X213283675Y-67792213D01*
X213283675Y-67792213D02*
X213212246Y-67649356D01*
X213212246Y-67649356D02*
X213212246Y-67292213D01*
X213212246Y-67292213D02*
X213283675Y-67077927D01*
X217127162Y-86006502D02*
X215627162Y-86006502D01*
X215627162Y-86006502D02*
X215627162Y-85435073D01*
X215627162Y-85435073D02*
X215698591Y-85292216D01*
X215698591Y-85292216D02*
X215770019Y-85220787D01*
X215770019Y-85220787D02*
X215912876Y-85149359D01*
X215912876Y-85149359D02*
X216127162Y-85149359D01*
X216127162Y-85149359D02*
X216270019Y-85220787D01*
X216270019Y-85220787D02*
X216341448Y-85292216D01*
X216341448Y-85292216D02*
X216412876Y-85435073D01*
X216412876Y-85435073D02*
X216412876Y-86006502D01*
X215627162Y-84220787D02*
X215627162Y-83935073D01*
X215627162Y-83935073D02*
X215698591Y-83792216D01*
X215698591Y-83792216D02*
X215841448Y-83649359D01*
X215841448Y-83649359D02*
X216127162Y-83577930D01*
X216127162Y-83577930D02*
X216627162Y-83577930D01*
X216627162Y-83577930D02*
X216912876Y-83649359D01*
X216912876Y-83649359D02*
X217055734Y-83792216D01*
X217055734Y-83792216D02*
X217127162Y-83935073D01*
X217127162Y-83935073D02*
X217127162Y-84220787D01*
X217127162Y-84220787D02*
X217055734Y-84363645D01*
X217055734Y-84363645D02*
X216912876Y-84506502D01*
X216912876Y-84506502D02*
X216627162Y-84577930D01*
X216627162Y-84577930D02*
X216127162Y-84577930D01*
X216127162Y-84577930D02*
X215841448Y-84506502D01*
X215841448Y-84506502D02*
X215698591Y-84363645D01*
X215698591Y-84363645D02*
X215627162Y-84220787D01*
X215627162Y-83077930D02*
X217127162Y-82720787D01*
X217127162Y-82720787D02*
X216055734Y-82435073D01*
X216055734Y-82435073D02*
X217127162Y-82149358D01*
X217127162Y-82149358D02*
X215627162Y-81792216D01*
X216341448Y-81220787D02*
X216341448Y-80720787D01*
X217127162Y-80506501D02*
X217127162Y-81220787D01*
X217127162Y-81220787D02*
X215627162Y-81220787D01*
X215627162Y-81220787D02*
X215627162Y-80506501D01*
X217127162Y-79006501D02*
X216412876Y-79506501D01*
X217127162Y-79863644D02*
X215627162Y-79863644D01*
X215627162Y-79863644D02*
X215627162Y-79292215D01*
X215627162Y-79292215D02*
X215698591Y-79149358D01*
X215698591Y-79149358D02*
X215770019Y-79077929D01*
X215770019Y-79077929D02*
X215912876Y-79006501D01*
X215912876Y-79006501D02*
X216127162Y-79006501D01*
X216127162Y-79006501D02*
X216270019Y-79077929D01*
X216270019Y-79077929D02*
X216341448Y-79149358D01*
X216341448Y-79149358D02*
X216412876Y-79292215D01*
X216412876Y-79292215D02*
X216412876Y-79863644D01*
X215555734Y-76149358D02*
X217484305Y-77435072D01*
X217055734Y-74577929D02*
X217127162Y-74363644D01*
X217127162Y-74363644D02*
X217127162Y-74006501D01*
X217127162Y-74006501D02*
X217055734Y-73863644D01*
X217055734Y-73863644D02*
X216984305Y-73792215D01*
X216984305Y-73792215D02*
X216841448Y-73720786D01*
X216841448Y-73720786D02*
X216698591Y-73720786D01*
X216698591Y-73720786D02*
X216555734Y-73792215D01*
X216555734Y-73792215D02*
X216484305Y-73863644D01*
X216484305Y-73863644D02*
X216412876Y-74006501D01*
X216412876Y-74006501D02*
X216341448Y-74292215D01*
X216341448Y-74292215D02*
X216270019Y-74435072D01*
X216270019Y-74435072D02*
X216198591Y-74506501D01*
X216198591Y-74506501D02*
X216055734Y-74577929D01*
X216055734Y-74577929D02*
X215912876Y-74577929D01*
X215912876Y-74577929D02*
X215770019Y-74506501D01*
X215770019Y-74506501D02*
X215698591Y-74435072D01*
X215698591Y-74435072D02*
X215627162Y-74292215D01*
X215627162Y-74292215D02*
X215627162Y-73935072D01*
X215627162Y-73935072D02*
X215698591Y-73720786D01*
X217127162Y-73077930D02*
X215627162Y-73077930D01*
X215627162Y-73077930D02*
X215627162Y-72506501D01*
X215627162Y-72506501D02*
X215698591Y-72363644D01*
X215698591Y-72363644D02*
X215770019Y-72292215D01*
X215770019Y-72292215D02*
X215912876Y-72220787D01*
X215912876Y-72220787D02*
X216127162Y-72220787D01*
X216127162Y-72220787D02*
X216270019Y-72292215D01*
X216270019Y-72292215D02*
X216341448Y-72363644D01*
X216341448Y-72363644D02*
X216412876Y-72506501D01*
X216412876Y-72506501D02*
X216412876Y-73077930D01*
X217127162Y-71577930D02*
X215627162Y-71577930D01*
X216341448Y-69220787D02*
X216412876Y-69006501D01*
X216412876Y-69006501D02*
X216484305Y-68935072D01*
X216484305Y-68935072D02*
X216627162Y-68863644D01*
X216627162Y-68863644D02*
X216841448Y-68863644D01*
X216841448Y-68863644D02*
X216984305Y-68935072D01*
X216984305Y-68935072D02*
X217055734Y-69006501D01*
X217055734Y-69006501D02*
X217127162Y-69149358D01*
X217127162Y-69149358D02*
X217127162Y-69720787D01*
X217127162Y-69720787D02*
X215627162Y-69720787D01*
X215627162Y-69720787D02*
X215627162Y-69220787D01*
X215627162Y-69220787D02*
X215698591Y-69077930D01*
X215698591Y-69077930D02*
X215770019Y-69006501D01*
X215770019Y-69006501D02*
X215912876Y-68935072D01*
X215912876Y-68935072D02*
X216055734Y-68935072D01*
X216055734Y-68935072D02*
X216198591Y-69006501D01*
X216198591Y-69006501D02*
X216270019Y-69077930D01*
X216270019Y-69077930D02*
X216341448Y-69220787D01*
X216341448Y-69220787D02*
X216341448Y-69720787D01*
X215627162Y-67935072D02*
X215627162Y-67649358D01*
X215627162Y-67649358D02*
X215698591Y-67506501D01*
X215698591Y-67506501D02*
X215841448Y-67363644D01*
X215841448Y-67363644D02*
X216127162Y-67292215D01*
X216127162Y-67292215D02*
X216627162Y-67292215D01*
X216627162Y-67292215D02*
X216912876Y-67363644D01*
X216912876Y-67363644D02*
X217055734Y-67506501D01*
X217055734Y-67506501D02*
X217127162Y-67649358D01*
X217127162Y-67649358D02*
X217127162Y-67935072D01*
X217127162Y-67935072D02*
X217055734Y-68077930D01*
X217055734Y-68077930D02*
X216912876Y-68220787D01*
X216912876Y-68220787D02*
X216627162Y-68292215D01*
X216627162Y-68292215D02*
X216127162Y-68292215D01*
X216127162Y-68292215D02*
X215841448Y-68220787D01*
X215841448Y-68220787D02*
X215698591Y-68077930D01*
X215698591Y-68077930D02*
X215627162Y-67935072D01*
X216698591Y-66720786D02*
X216698591Y-66006501D01*
X217127162Y-66863643D02*
X215627162Y-66363643D01*
X215627162Y-66363643D02*
X217127162Y-65863643D01*
X217127162Y-64506501D02*
X216412876Y-65006501D01*
X217127162Y-65363644D02*
X215627162Y-65363644D01*
X215627162Y-65363644D02*
X215627162Y-64792215D01*
X215627162Y-64792215D02*
X215698591Y-64649358D01*
X215698591Y-64649358D02*
X215770019Y-64577929D01*
X215770019Y-64577929D02*
X215912876Y-64506501D01*
X215912876Y-64506501D02*
X216127162Y-64506501D01*
X216127162Y-64506501D02*
X216270019Y-64577929D01*
X216270019Y-64577929D02*
X216341448Y-64649358D01*
X216341448Y-64649358D02*
X216412876Y-64792215D01*
X216412876Y-64792215D02*
X216412876Y-65363644D01*
X217127162Y-63863644D02*
X215627162Y-63863644D01*
X215627162Y-63863644D02*
X215627162Y-63506501D01*
X215627162Y-63506501D02*
X215698591Y-63292215D01*
X215698591Y-63292215D02*
X215841448Y-63149358D01*
X215841448Y-63149358D02*
X215984305Y-63077929D01*
X215984305Y-63077929D02*
X216270019Y-63006501D01*
X216270019Y-63006501D02*
X216484305Y-63006501D01*
X216484305Y-63006501D02*
X216770019Y-63077929D01*
X216770019Y-63077929D02*
X216912876Y-63149358D01*
X216912876Y-63149358D02*
X217055734Y-63292215D01*
X217055734Y-63292215D02*
X217127162Y-63506501D01*
X217127162Y-63506501D02*
X217127162Y-63863644D01*
X218184935Y-86077930D02*
X218113507Y-86006502D01*
X218113507Y-86006502D02*
X218042078Y-85863645D01*
X218042078Y-85863645D02*
X218042078Y-85506502D01*
X218042078Y-85506502D02*
X218113507Y-85363645D01*
X218113507Y-85363645D02*
X218184935Y-85292216D01*
X218184935Y-85292216D02*
X218327792Y-85220787D01*
X218327792Y-85220787D02*
X218470650Y-85220787D01*
X218470650Y-85220787D02*
X218684935Y-85292216D01*
X218684935Y-85292216D02*
X219542078Y-86149359D01*
X219542078Y-86149359D02*
X219542078Y-85220787D01*
X218042078Y-84292216D02*
X218042078Y-84149359D01*
X218042078Y-84149359D02*
X218113507Y-84006502D01*
X218113507Y-84006502D02*
X218184935Y-83935074D01*
X218184935Y-83935074D02*
X218327792Y-83863645D01*
X218327792Y-83863645D02*
X218613507Y-83792216D01*
X218613507Y-83792216D02*
X218970650Y-83792216D01*
X218970650Y-83792216D02*
X219256364Y-83863645D01*
X219256364Y-83863645D02*
X219399221Y-83935074D01*
X219399221Y-83935074D02*
X219470650Y-84006502D01*
X219470650Y-84006502D02*
X219542078Y-84149359D01*
X219542078Y-84149359D02*
X219542078Y-84292216D01*
X219542078Y-84292216D02*
X219470650Y-84435074D01*
X219470650Y-84435074D02*
X219399221Y-84506502D01*
X219399221Y-84506502D02*
X219256364Y-84577931D01*
X219256364Y-84577931D02*
X218970650Y-84649359D01*
X218970650Y-84649359D02*
X218613507Y-84649359D01*
X218613507Y-84649359D02*
X218327792Y-84577931D01*
X218327792Y-84577931D02*
X218184935Y-84506502D01*
X218184935Y-84506502D02*
X218113507Y-84435074D01*
X218113507Y-84435074D02*
X218042078Y-84292216D01*
X218184935Y-83220788D02*
X218113507Y-83149360D01*
X218113507Y-83149360D02*
X218042078Y-83006503D01*
X218042078Y-83006503D02*
X218042078Y-82649360D01*
X218042078Y-82649360D02*
X218113507Y-82506503D01*
X218113507Y-82506503D02*
X218184935Y-82435074D01*
X218184935Y-82435074D02*
X218327792Y-82363645D01*
X218327792Y-82363645D02*
X218470650Y-82363645D01*
X218470650Y-82363645D02*
X218684935Y-82435074D01*
X218684935Y-82435074D02*
X219542078Y-83292217D01*
X219542078Y-83292217D02*
X219542078Y-82363645D01*
X218042078Y-81006503D02*
X218042078Y-81720789D01*
X218042078Y-81720789D02*
X218756364Y-81792217D01*
X218756364Y-81792217D02*
X218684935Y-81720789D01*
X218684935Y-81720789D02*
X218613507Y-81577932D01*
X218613507Y-81577932D02*
X218613507Y-81220789D01*
X218613507Y-81220789D02*
X218684935Y-81077932D01*
X218684935Y-81077932D02*
X218756364Y-81006503D01*
X218756364Y-81006503D02*
X218899221Y-80935074D01*
X218899221Y-80935074D02*
X219256364Y-80935074D01*
X219256364Y-80935074D02*
X219399221Y-81006503D01*
X219399221Y-81006503D02*
X219470650Y-81077932D01*
X219470650Y-81077932D02*
X219542078Y-81220789D01*
X219542078Y-81220789D02*
X219542078Y-81577932D01*
X219542078Y-81577932D02*
X219470650Y-81720789D01*
X219470650Y-81720789D02*
X219399221Y-81792217D01*
D12*
%TO.P,R4,2*%
%TO.N,FB*%
X195986400Y-69507600D03*
%TO.P,R4,1*%
%TO.N,3V_BUS*%
X195986400Y-71157600D03*
%TD*%
D13*
%TO.P,R3,2*%
%TO.N,GND*%
X194437000Y-71157600D03*
%TO.P,R3,1*%
%TO.N,FB*%
X194437000Y-69507600D03*
%TD*%
D14*
%TO.P,U1,15,VSEL*%
%TO.N,GND*%
X191140000Y-66378600D03*
%TO.P,U1,14,EN*%
%TO.N,Net-(U1-EN)*%
X191140000Y-65878600D03*
D15*
%TO.P,U1,12,VIN*%
%TO.N,uC_VBAT*%
X191140000Y-65128600D03*
D16*
%TO.P,U1,11,L1*%
%TO.N,Net-(U1-L1)*%
X192040000Y-64878600D03*
D17*
%TO.P,U1,10,PGND*%
%TO.N,GND*%
X192540000Y-65053600D03*
D16*
%TO.P,U1,9,L2*%
%TO.N,Net-(U1-L2)*%
X193040000Y-64878600D03*
D18*
%TO.P,U1,7,VOUT*%
%TO.N,3V_BUS*%
X193940000Y-65128600D03*
D19*
%TO.P,U1,6,FB2*%
%TO.N,GND*%
X193940000Y-65878600D03*
%TO.P,U1,5,FB*%
%TO.N,FB*%
X193940000Y-66378600D03*
D20*
%TO.P,U1,4,GND*%
%TO.N,GND*%
X193290000Y-66803600D03*
%TO.P,U1,3,VAUX*%
%TO.N,Net-(U1-VAUX)*%
X192790000Y-66803600D03*
D21*
%TO.P,U1,2,PG*%
%TO.N,unconnected-(U1-PG-Pad2)*%
X192290000Y-66803600D03*
%TO.P,U1,1,PS/SYNC*%
%TO.N,Net-(U1-PS{slash}SYNC)*%
X191790000Y-66803600D03*
%TD*%
D22*
%TO.P,C4,1*%
%TO.N,3V_BUS*%
X196088000Y-64376600D03*
%TO.P,C4,2*%
%TO.N,GND*%
X196088000Y-62826600D03*
%TD*%
%TO.P,C1,1*%
%TO.N,uC_VBAT*%
X189433200Y-63970200D03*
%TO.P,C1,2*%
%TO.N,GND*%
X189433200Y-62420200D03*
%TD*%
D23*
%TO.P,C2,1*%
%TO.N,Net-(U1-VAUX)*%
X191307800Y-72517000D03*
%TO.P,C2,2*%
%TO.N,GND*%
X189407800Y-72517000D03*
%TD*%
D24*
%TO.P,C6,2*%
%TO.N,GND*%
X199070000Y-67843400D03*
%TO.P,C6,1*%
%TO.N,3V_BUS*%
X197170000Y-67843400D03*
%TD*%
D25*
%TO.P,U2,1,SCL*%
%TO.N,uC_I2C_SCL*%
X188974200Y-86498700D03*
%TO.P,U2,2,SDA*%
%TO.N,uC_i2C_SDA*%
X188974200Y-87768700D03*
%TO.P,U2,3,A2*%
%TO.N,GND*%
X188974200Y-89038700D03*
%TO.P,U2,4,A1*%
X188974200Y-90308700D03*
%TO.P,U2,5,A0*%
X188974200Y-91578700D03*
%TO.P,U2,6,~{RESET}*%
%TO.N,Net-(U2-~{RESET})*%
X188974200Y-92848700D03*
%TO.P,U2,7,NC*%
%TO.N,unconnected-(U2-NC-Pad7)*%
X188974200Y-94118700D03*
%TO.P,U2,8,INT*%
%TO.N,unconnected-(U2-INT-Pad8)*%
X188974200Y-95388700D03*
%TO.P,U2,9,VSS*%
%TO.N,GND*%
X188974200Y-96658700D03*
%TO.P,U2,10,GP0*%
%TO.N,SD_CS*%
X198274200Y-96658700D03*
%TO.P,U2,11,GP1*%
%TO.N,LORA_CS*%
X198274200Y-95388700D03*
%TO.P,U2,12,GP2*%
%TO.N,LORA_RST*%
X198274200Y-94118700D03*
%TO.P,U2,13,GP3*%
%TO.N,CAMERA_CS*%
X198274200Y-92848700D03*
%TO.P,U2,14,GP4*%
%TO.N,unconnected-(U2-GP4-Pad14)*%
X198274200Y-91578700D03*
%TO.P,U2,15,GP5*%
%TO.N,unconnected-(U2-GP5-Pad15)*%
X198274200Y-90308700D03*
%TO.P,U2,16,GP6*%
%TO.N,unconnected-(U2-GP6-Pad16)*%
X198274200Y-89038700D03*
%TO.P,U2,17,GP7*%
%TO.N,STATUS_LED*%
X198274200Y-87768700D03*
%TO.P,U2,18,VDD*%
%TO.N,3V_BUS*%
X198274200Y-86498700D03*
%TD*%
D26*
%TO.P,R5,1*%
%TO.N,3V_BUS*%
X183502800Y-92862400D03*
%TO.P,R5,2*%
%TO.N,Net-(U2-~{RESET})*%
X185152800Y-92862400D03*
%TD*%
D12*
%TO.P,R2,1*%
%TO.N,uC_VBAT*%
X189382400Y-69963800D03*
%TO.P,R2,2*%
%TO.N,Net-(U1-EN)*%
X189382400Y-68313800D03*
%TD*%
%TO.P,R1,1*%
%TO.N,uC_VBAT*%
X190931800Y-69963800D03*
%TO.P,R1,2*%
%TO.N,Net-(U1-PS{slash}SYNC)*%
X190931800Y-68313800D03*
%TD*%
D27*
%TO.P,L1,1,1*%
%TO.N,Net-(U1-L1)*%
X191347000Y-60904800D03*
%TO.P,L1,2,2*%
%TO.N,Net-(U1-L2)*%
X193717000Y-60904800D03*
%TD*%
D28*
%TO.P,J7,1,Pin_1*%
%TO.N,uC_VBAT*%
X173538200Y-63800400D03*
D29*
%TO.P,J7,2,Pin_2*%
%TO.N,GND*%
X171038200Y-63800400D03*
%TD*%
D30*
%TO.P,J6,1,Pin_1*%
%TO.N,3V_BUS*%
X190246000Y-104140000D03*
D31*
%TO.P,J6,2,Pin_2*%
%TO.N,GND*%
X192786000Y-104140000D03*
%TO.P,J6,3,Pin_3*%
%TO.N,SPI2_SCK*%
X195326000Y-104140000D03*
%TO.P,J6,4,Pin_4*%
%TO.N,SPI2_MISO*%
X197866000Y-104140000D03*
%TO.P,J6,5,Pin_5*%
%TO.N,SPI2_MOSI*%
X200406000Y-104140000D03*
%TO.P,J6,6,Pin_6*%
%TO.N,CAMERA_CS*%
X202946000Y-104140000D03*
%TD*%
D30*
%TO.P,J5,1,Pin_1*%
%TO.N,3V_BUS*%
X181813200Y-80467200D03*
D31*
%TO.P,J5,2,Pin_2*%
%TO.N,GND*%
X184353200Y-80467200D03*
%TO.P,J5,3,Pin_3*%
%TO.N,unconnected-(J5-Pin_3-Pad3)*%
X186893200Y-80467200D03*
%TO.P,J5,4,Pin_4*%
%TO.N,LORA_IRQ*%
X189433200Y-80467200D03*
%TO.P,J5,5,Pin_5*%
%TO.N,SPI2_SCK*%
X191973200Y-80467200D03*
%TO.P,J5,6,Pin_6*%
%TO.N,SPI2_MISO*%
X194513200Y-80467200D03*
%TO.P,J5,7,Pin_7*%
%TO.N,SPI2_MOSI*%
X197053200Y-80467200D03*
%TO.P,J5,8,Pin_8*%
%TO.N,LORA_CS*%
X199593200Y-80467200D03*
%TO.P,J5,9,Pin_9*%
%TO.N,LORA_RST*%
X202133200Y-80467200D03*
%TD*%
D30*
%TO.P,J4,1,Pin_1*%
%TO.N,3V_BUS*%
X175488600Y-91262200D03*
D31*
%TO.P,J4,2,Pin_2*%
%TO.N,GND*%
X175488600Y-88722200D03*
%TO.P,J4,3,Pin_3*%
%TO.N,uC_SPI_SCK*%
X175488600Y-86182200D03*
%TO.P,J4,4,Pin_4*%
%TO.N,uC_SPI_MI*%
X175488600Y-83642200D03*
%TO.P,J4,5,Pin_5*%
%TO.N,uC_SPI_MO*%
X175488600Y-81102200D03*
%TO.P,J4,6,Pin_6*%
%TO.N,SD_CS*%
X175488600Y-78562200D03*
%TO.P,J4,7,Pin_7*%
%TO.N,unconnected-(J4-Pin_7-Pad7)*%
X175488600Y-76022200D03*
%TO.P,J4,8,Pin_8*%
%TO.N,unconnected-(J4-Pin_8-Pad8)*%
X175488600Y-73482200D03*
%TO.P,J4,9,Pin_9*%
%TO.N,unconnected-(J4-Pin_9-Pad9)*%
X175488600Y-70942200D03*
%TD*%
D32*
%TO.P,J3,1,Pin_1*%
%TO.N,uC_32_ROCKBLOCK_TX*%
X179264000Y-103378000D03*
D33*
%TO.P,J3,2,Pin_2*%
%TO.N,unconnected-(J3-Pin_2-Pad2)*%
X178014000Y-103378000D03*
%TO.P,J3,3,Pin_3*%
%TO.N,unconnected-(J3-Pin_3-Pad3)*%
X176764000Y-103378000D03*
%TO.P,J3,4,Pin_4*%
%TO.N,unconnected-(J3-Pin_4-Pad4)*%
X175514000Y-103378000D03*
%TO.P,J3,5,Pin_5*%
%TO.N,unconnected-(J3-Pin_5-Pad5)*%
X174264000Y-103378000D03*
%TO.P,J3,6,Pin_6*%
%TO.N,uC_15_ROCKBLOCK_RX*%
X173014000Y-103378000D03*
%TO.P,J3,7,Pin_7*%
%TO.N,uC_14*%
X171764000Y-103378000D03*
%TO.P,J3,8,Pin_8*%
%TO.N,uC_VBAT*%
X170514000Y-103378000D03*
%TO.P,J3,9,Pin_9*%
%TO.N,unconnected-(J3-Pin_9-Pad9)*%
X169264000Y-103378000D03*
%TO.P,J3,10,Pin_10*%
%TO.N,GND*%
X168014000Y-103378000D03*
%TD*%
D30*
%TO.P,J2,1,Pin_1*%
%TO.N,uC_VBAT*%
X207772000Y-55880000D03*
D31*
%TO.P,J2,2,Pin_2*%
%TO.N,3V_BUS*%
X210312000Y-55880000D03*
%TO.P,J2,3,Pin_3*%
%TO.N,uC_VBAT*%
X207772000Y-58420000D03*
%TO.P,J2,4,Pin_4*%
%TO.N,3V_BUS*%
X210312000Y-58420000D03*
%TO.P,J2,5,Pin_5*%
%TO.N,GND*%
X207772000Y-60960000D03*
%TO.P,J2,6,Pin_6*%
X210312000Y-60960000D03*
%TO.P,J2,7,Pin_7*%
%TO.N,uC_EN*%
X207772000Y-63500000D03*
%TO.P,J2,8,Pin_8*%
%TO.N,SPI2_SCK*%
X210312000Y-63500000D03*
%TO.P,J2,9,Pin_9*%
%TO.N,uC_VUSB*%
X207772000Y-66040000D03*
%TO.P,J2,10,Pin_10*%
%TO.N,SPI2_MISO*%
X210312000Y-66040000D03*
%TO.P,J2,11,Pin_11*%
%TO.N,GND*%
X207772000Y-68580000D03*
%TO.P,J2,12,Pin_12*%
%TO.N,LORA_IRQ*%
X210312000Y-68580000D03*
%TO.P,J2,13,Pin_13*%
%TO.N,uC_13_DRA818V_PTT*%
X207772000Y-71120000D03*
%TO.P,J2,14,Pin_14*%
%TO.N,uC_21_IONLY*%
X210312000Y-71120000D03*
%TO.P,J2,15,Pin_15*%
%TO.N,uC_12_DRA818V_PD*%
X207772000Y-73660000D03*
%TO.P,J2,16,Pin_16*%
%TO.N,uC_20_IONLY*%
X210312000Y-73660000D03*
%TO.P,J2,17,Pin_17*%
%TO.N,uC_27_DRA818V_MIC_IN*%
X207772000Y-76200000D03*
%TO.P,J2,18,Pin_18*%
%TO.N,SPI2_MOSI*%
X210312000Y-76200000D03*
%TO.P,J2,19,Pin_19*%
%TO.N,uC_32_DRA818V_HL*%
X207772000Y-78740000D03*
%TO.P,J2,20,Pin_20*%
%TO.N,GND*%
X210312000Y-78740000D03*
%TO.P,J2,21,Pin_21*%
%TO.N,uC_14*%
X207772000Y-81280000D03*
%TO.P,J2,22,Pin_22*%
%TO.N,GND*%
X210312000Y-81280000D03*
%TO.P,J2,23,Pin_23*%
%TO.N,uC_I2C_SCL*%
X207772000Y-83820000D03*
%TO.P,J2,24,Pin_24*%
%TO.N,GND*%
X210312000Y-83820000D03*
%TO.P,J2,25,Pin_25*%
%TO.N,uC_i2C_SDA*%
X207772000Y-86360000D03*
%TO.P,J2,26,Pin_26*%
%TO.N,GND*%
X210312000Y-86360000D03*
%TO.P,J2,27,Pin_27*%
%TO.N,uC_SPI_SCK*%
X207772000Y-88900000D03*
%TO.P,J2,28,Pin_28*%
%TO.N,GND*%
X210312000Y-88900000D03*
%TO.P,J2,29,Pin_29*%
%TO.N,uC_SPI_MO*%
X207772000Y-91440000D03*
%TO.P,J2,30,Pin_30*%
%TO.N,uC_15_ROCKBLOCK_RX*%
X210312000Y-91440000D03*
%TO.P,J2,31,Pin_31*%
%TO.N,uC_SPI_MI*%
X207772000Y-93980000D03*
%TO.P,J2,32,Pin_32*%
%TO.N,uC_32_ROCKBLOCK_TX*%
X210312000Y-93980000D03*
%TO.P,J2,33,Pin_33*%
%TO.N,uC_UART1_RX_DRA818V_TX*%
X207772000Y-96520000D03*
%TO.P,J2,34,Pin_34*%
%TO.N,GND*%
X210312000Y-96520000D03*
%TO.P,J2,35,Pin_35*%
%TO.N,uC_UART1_TX_DRA818V_RX*%
X207772000Y-99060000D03*
%TO.P,J2,36,Pin_36*%
%TO.N,GND*%
X210312000Y-99060000D03*
%TO.P,J2,37,Pin_37*%
%TO.N,uC_37*%
X207772000Y-101600000D03*
%TO.P,J2,38,Pin_38*%
%TO.N,GND*%
X210312000Y-101600000D03*
%TO.P,J2,39,Pin_39*%
X207772000Y-104140000D03*
%TO.P,J2,40,Pin_40*%
X210312000Y-104140000D03*
%TD*%
D30*
%TO.P,J1,1,Pin_1*%
%TO.N,STATUS_LED*%
X216662000Y-91445000D03*
D31*
%TO.P,J1,2,Pin_2*%
%TO.N,GND*%
X216662000Y-88905000D03*
%TD*%
D34*
%TO.P,H4,1,1*%
%TO.N,GND*%
X213500000Y-101600000D03*
X214202944Y-99902944D03*
X214202944Y-103297056D03*
X215900000Y-99200000D03*
D35*
X215900000Y-101600000D03*
D34*
X215900000Y-104000000D03*
X217597056Y-99902944D03*
X217597056Y-103297056D03*
X218300000Y-101600000D03*
%TD*%
%TO.P,H3,1,1*%
%TO.N,GND*%
X157620000Y-101600000D03*
X158322944Y-99902944D03*
X158322944Y-103297056D03*
X160020000Y-99200000D03*
D35*
X160020000Y-101600000D03*
D34*
X160020000Y-104000000D03*
X161717056Y-99902944D03*
X161717056Y-103297056D03*
X162420000Y-101600000D03*
%TD*%
%TO.P,H2,1,1*%
%TO.N,GND*%
X213500000Y-58420000D03*
X214202944Y-56722944D03*
X214202944Y-60117056D03*
X215900000Y-56020000D03*
D35*
X215900000Y-58420000D03*
D34*
X215900000Y-60820000D03*
X217597056Y-56722944D03*
X217597056Y-60117056D03*
X218300000Y-58420000D03*
%TD*%
%TO.P,H1,1,1*%
%TO.N,GND*%
X157620000Y-58420000D03*
X158322944Y-56722944D03*
X158322944Y-60117056D03*
X160020000Y-56020000D03*
D35*
X160020000Y-58420000D03*
D34*
X160020000Y-60820000D03*
X161717056Y-56722944D03*
X161717056Y-60117056D03*
X162420000Y-58420000D03*
%TD*%
D36*
%TO.P,C10,1*%
%TO.N,uC_VBAT*%
X186588400Y-62799000D03*
%TO.P,C10,2*%
%TO.N,GND*%
X186588400Y-60899000D03*
%TD*%
%TO.P,C9,1*%
%TO.N,uC_VBAT*%
X184556400Y-62799000D03*
%TO.P,C9,2*%
%TO.N,GND*%
X184556400Y-60899000D03*
%TD*%
%TO.P,C7,1*%
%TO.N,3V_BUS*%
X200050400Y-63180000D03*
%TO.P,C7,2*%
%TO.N,GND*%
X200050400Y-61280000D03*
%TD*%
%TO.P,C5,1*%
%TO.N,3V_BUS*%
X198018400Y-63205400D03*
%TO.P,C5,2*%
%TO.N,GND*%
X198018400Y-61305400D03*
%TD*%
D37*
%TO.P,C3,1*%
%TO.N,uC_VBAT*%
X187452000Y-67096600D03*
%TO.P,C3,2*%
%TO.N,GND*%
X187452000Y-68996600D03*
%TD*%
D38*
%TO.N,GND*%
X191871600Y-102336600D03*
X187299600Y-82346800D03*
X191592200Y-71069200D03*
X195351400Y-67462400D03*
X193624200Y-68097400D03*
%TO.N,3V_BUS*%
X205320900Y-61658500D03*
%TO.N,GND*%
X189433200Y-61391800D03*
X186588400Y-59359800D03*
X184556400Y-59563000D03*
X192004999Y-90824001D03*
X186893200Y-97459800D03*
X190500000Y-91465400D03*
X190982600Y-94183200D03*
X197002400Y-82702400D03*
X187350400Y-71043800D03*
X185394600Y-68935600D03*
X200050400Y-59410600D03*
X198018400Y-59512200D03*
X196062600Y-61569600D03*
X182499000Y-60807600D03*
X186563000Y-90779600D03*
X190372901Y-67157501D03*
X193573400Y-71170800D03*
X192532000Y-59182000D03*
X192532000Y-60325000D03*
X192532000Y-61493400D03*
X192557400Y-63220600D03*
X200253600Y-67868800D03*
%TO.N,LORA_CS*%
X199636800Y-96037400D03*
%TO.N,uC_SPI_MO*%
X204876400Y-87858600D03*
X203758800Y-85699600D03*
X195113200Y-84124800D03*
X192481200Y-84124800D03*
%TO.N,uC_SPI_SCK*%
X196316600Y-89738200D03*
X192252600Y-89916000D03*
%TO.N,3V_BUS*%
X184378600Y-99288600D03*
X184378600Y-102209600D03*
%TO.N,uC_SPI_MI*%
X204597000Y-93802200D03*
X199636800Y-92202000D03*
X178409600Y-86766400D03*
X180086000Y-88392000D03*
X194754500Y-95567500D03*
%TO.N,SD_CS*%
X179247800Y-85953600D03*
X181025800Y-87706200D03*
%TO.N,SPI2_MOSI*%
X201375996Y-85912400D03*
X201650600Y-89689000D03*
X200406000Y-85140800D03*
%TO.N,LORA_IRQ*%
X197993000Y-77952600D03*
%TO.N,SPI2_SCK*%
X193157996Y-85537600D03*
X193192400Y-87680800D03*
%TO.N,SPI2_MISO*%
X193885735Y-85869865D03*
X194106800Y-87655400D03*
%TO.N,CAMERA_CS*%
X200837800Y-97510600D03*
%TO.N,uC_i2C_SDA*%
X191617600Y-87833200D03*
%TO.N,uC_I2C_SCL*%
X191643000Y-86512400D03*
%TO.N,uC_14*%
X205536800Y-89509600D03*
X205536800Y-90889000D03*
%TO.N,3V_BUS*%
X206044800Y-59639200D03*
%TD*%
D39*
%TO.N,3V_BUS*%
X198145400Y-69951600D02*
X192735200Y-75361800D01*
X200482200Y-69951600D02*
X198145400Y-69951600D01*
X186918600Y-75361800D02*
X181813200Y-80467200D01*
X201549000Y-68884800D02*
X200482200Y-69951600D01*
X201549000Y-66192400D02*
X201549000Y-68884800D01*
X192735200Y-75361800D02*
X186918600Y-75361800D01*
D40*
%TO.N,FB*%
X194437000Y-66875600D02*
X194437000Y-69507600D01*
X193940000Y-66378600D02*
X194437000Y-66875600D01*
%TO.N,GND*%
X194276728Y-65878600D02*
X195351400Y-66953272D01*
X195351400Y-66953272D02*
X195351400Y-67462400D01*
X193940000Y-65878600D02*
X194276728Y-65878600D01*
X193290000Y-67763200D02*
X193624200Y-68097400D01*
X193290000Y-66803600D02*
X193290000Y-67763200D01*
%TO.N,3V_BUS*%
X195986400Y-71157600D02*
X195998600Y-71145400D01*
%TO.N,FB*%
X195986400Y-69507600D02*
X194437000Y-69507600D01*
%TO.N,GND*%
X196088000Y-61595000D02*
X196062600Y-61569600D01*
D41*
X196088000Y-62826600D02*
X196088000Y-61595000D01*
X189433200Y-62420200D02*
X189433200Y-61391800D01*
D42*
%TO.N,3V_BUS*%
X205975000Y-62249000D02*
X205943200Y-62280800D01*
X208252182Y-62249000D02*
X205975000Y-62249000D01*
X209023000Y-61478182D02*
X208252182Y-62249000D01*
X209023000Y-59709000D02*
X209023000Y-61478182D01*
X209067400Y-59664600D02*
X209023000Y-59709000D01*
X205943200Y-62280800D02*
X205320900Y-61658500D01*
X204952600Y-61290200D02*
X204952600Y-61214000D01*
X205320900Y-61658500D02*
X204952600Y-61290200D01*
D39*
X206502000Y-59664600D02*
X204952600Y-61214000D01*
D42*
X206527400Y-59690000D02*
X206502000Y-59664600D01*
X209067400Y-59664600D02*
X209042000Y-59690000D01*
X209042000Y-59690000D02*
X206527400Y-59690000D01*
D41*
%TO.N,GND*%
X200050400Y-61280000D02*
X200050400Y-59410600D01*
X198018400Y-61305400D02*
X198018400Y-59512200D01*
X184556400Y-60899000D02*
X184556400Y-59563000D01*
X186588400Y-60899000D02*
X186588400Y-59359800D01*
D40*
X196037200Y-61595000D02*
X196062600Y-61569600D01*
X190219698Y-89038700D02*
X192004999Y-90824001D01*
X188974200Y-89038700D02*
X190219698Y-89038700D01*
X187694300Y-96658700D02*
X188974200Y-96658700D01*
X186893200Y-97459800D02*
X187694300Y-96658700D01*
X189087500Y-91465400D02*
X188974200Y-91578700D01*
X190500000Y-91465400D02*
X189087500Y-91465400D01*
X190982600Y-95675299D02*
X190982600Y-94183200D01*
X189999199Y-96658700D02*
X190982600Y-95675299D01*
X188974200Y-96658700D02*
X189999199Y-96658700D01*
X187033900Y-90308700D02*
X186563000Y-90779600D01*
X188974200Y-90308700D02*
X187033900Y-90308700D01*
X188974200Y-90308700D02*
X188974200Y-91578700D01*
X191140000Y-66390402D02*
X190372901Y-67157501D01*
X191140000Y-66378600D02*
X191140000Y-66390402D01*
X192778273Y-66191872D02*
X193290000Y-66191872D01*
X192540000Y-65953599D02*
X192778273Y-66191872D01*
X192540000Y-65053600D02*
X192540000Y-65953599D01*
X193290000Y-66191872D02*
X193290000Y-66803600D01*
X193603272Y-65878600D02*
X193290000Y-66191872D01*
X193940000Y-65878600D02*
X193603272Y-65878600D01*
X192540000Y-63238000D02*
X192557400Y-63220600D01*
X192540000Y-65053600D02*
X192540000Y-63238000D01*
D43*
%TO.N,uC_VBAT*%
X186588400Y-62799000D02*
X186588400Y-64211200D01*
X184556400Y-62799000D02*
X184556400Y-63957200D01*
D40*
X188478000Y-69059400D02*
X188478000Y-68122600D01*
X188478000Y-68122600D02*
X187452000Y-67096600D01*
X189382400Y-69963800D02*
X188478000Y-69059400D01*
X190931800Y-69963800D02*
X189382400Y-69963800D01*
%TO.N,Net-(U1-VAUX)*%
X192303400Y-71521400D02*
X191307800Y-72517000D01*
X192303400Y-68641000D02*
X192303400Y-71521400D01*
D43*
%TO.N,3V_BUS*%
X200050400Y-63180000D02*
X200050400Y-64668400D01*
X198018400Y-63205400D02*
X198018400Y-64490600D01*
X197170000Y-67843400D02*
X197170000Y-66304200D01*
%TO.N,uC_VBAT*%
X187452000Y-67096600D02*
X187452000Y-65938400D01*
D40*
%TO.N,LORA_CS*%
X199636800Y-96037400D02*
X198922900Y-96037400D01*
X198922900Y-96037400D02*
X198274200Y-95388700D01*
%TO.N,uC_SPI_MO*%
X203758800Y-86741000D02*
X204876400Y-87858600D01*
X203758800Y-85699600D02*
X203758800Y-86741000D01*
X192481200Y-84124800D02*
X195113200Y-84124800D01*
%TO.N,uC_SPI_SCK*%
X192252600Y-89916000D02*
X196138800Y-89916000D01*
X196138800Y-89916000D02*
X196316600Y-89738200D01*
D41*
%TO.N,3V_BUS*%
X183502800Y-98108000D02*
X183502800Y-92862400D01*
X184378600Y-98983800D02*
X183502800Y-98108000D01*
D40*
X184378600Y-99288600D02*
X184378600Y-98983800D01*
D41*
X186309000Y-104140000D02*
X184378600Y-102209600D01*
X190246000Y-104140000D02*
X186309000Y-104140000D01*
D40*
%TO.N,uC_SPI_MI*%
X183613668Y-91919668D02*
X180086000Y-88392000D01*
X187648200Y-91919668D02*
X183613668Y-91919668D01*
X191366700Y-92179700D02*
X187908232Y-92179700D01*
X194754500Y-95567500D02*
X191366700Y-92179700D01*
X187908232Y-92179700D02*
X187648200Y-91919668D01*
X199636800Y-92202000D02*
X202996800Y-92202000D01*
X202996800Y-92202000D02*
X204597000Y-93802200D01*
X178409600Y-86563200D02*
X178409600Y-86766400D01*
X175488600Y-83642200D02*
X178409600Y-86563200D01*
%TO.N,SD_CS*%
X179247800Y-82321400D02*
X175488600Y-78562200D01*
X179247800Y-85953600D02*
X179247800Y-82321400D01*
X182959300Y-89639700D02*
X181025800Y-87706200D01*
X189972168Y-89639700D02*
X182959300Y-89639700D01*
X198274200Y-96658700D02*
X196991168Y-96658700D01*
X196991168Y-96658700D02*
X189972168Y-89639700D01*
%TO.N,SPI2_MOSI*%
X201375996Y-89414396D02*
X201650600Y-89689000D01*
X201375996Y-85912400D02*
X201375996Y-89414396D01*
X200406000Y-83820000D02*
X200406000Y-85140800D01*
X197053200Y-80467200D02*
X200406000Y-83820000D01*
X209161000Y-77351000D02*
X200169400Y-77351000D01*
X210312000Y-76200000D02*
X209161000Y-77351000D01*
X200169400Y-77351000D02*
X197053200Y-80467200D01*
%TO.N,LORA_IRQ*%
X206197200Y-69748400D02*
X197993000Y-77952600D01*
X209143600Y-69748400D02*
X206197200Y-69748400D01*
X210312000Y-68580000D02*
X209143600Y-69748400D01*
%TO.N,SPI2_SCK*%
X209161000Y-64651000D02*
X210312000Y-63500000D01*
X207533240Y-64651000D02*
X209161000Y-64651000D01*
X191973200Y-80211040D02*
X207533240Y-64651000D01*
X191973200Y-80467200D02*
X191973200Y-80211040D01*
%TO.N,SPI2_MISO*%
X209161000Y-67191000D02*
X210312000Y-66040000D01*
X194513200Y-79973040D02*
X207295240Y-67191000D01*
X207295240Y-67191000D02*
X209161000Y-67191000D01*
X194513200Y-80467200D02*
X194513200Y-79973040D01*
%TO.N,SPI2_SCK*%
X193192400Y-85572004D02*
X193157996Y-85537600D01*
X193192400Y-87680800D02*
X193192400Y-85572004D01*
%TO.N,SPI2_MISO*%
X194106800Y-86090930D02*
X193885735Y-85869865D01*
X194106800Y-87655400D02*
X194106800Y-86090930D01*
%TO.N,LORA_RST*%
X202133200Y-84306668D02*
X202133200Y-80467200D01*
X199340168Y-87099700D02*
X202133200Y-84306668D01*
X197276232Y-87099700D02*
X199340168Y-87099700D01*
X196948200Y-93817699D02*
X196948200Y-87427732D01*
X196948200Y-87427732D02*
X197276232Y-87099700D01*
X198274200Y-94118700D02*
X197249201Y-94118700D01*
X197249201Y-94118700D02*
X196948200Y-93817699D01*
%TO.N,CAMERA_CS*%
X200837800Y-95015332D02*
X198671168Y-92848700D01*
X198671168Y-92848700D02*
X198274200Y-92848700D01*
X200837800Y-97510600D02*
X200837800Y-95015332D01*
%TO.N,uC_i2C_SDA*%
X191553100Y-87768700D02*
X191617600Y-87833200D01*
X188974200Y-87768700D02*
X191553100Y-87768700D01*
%TO.N,uC_I2C_SCL*%
X191629300Y-86498700D02*
X191643000Y-86512400D01*
X188974200Y-86498700D02*
X191629300Y-86498700D01*
%TO.N,3V_BUS*%
X193802000Y-84937600D02*
X181813200Y-84937600D01*
X195363100Y-86498700D02*
X193802000Y-84937600D01*
X198274200Y-86498700D02*
X195363100Y-86498700D01*
%TO.N,uC_14*%
X205536800Y-83515200D02*
X207772000Y-81280000D01*
X205536800Y-89509600D02*
X205536800Y-83515200D01*
X176276000Y-99999800D02*
X199542400Y-99999800D01*
X199542400Y-99999800D02*
X205536800Y-94005400D01*
X175142200Y-99999800D02*
X176276000Y-99999800D01*
X171764000Y-103378000D02*
X175142200Y-99999800D01*
X205536800Y-94005400D02*
X205536800Y-90889000D01*
%TO.N,uC_15_ROCKBLOCK_RX*%
X209161000Y-92591000D02*
X210312000Y-91440000D01*
X207533240Y-92591000D02*
X209161000Y-92591000D01*
X199712640Y-100411600D02*
X207533240Y-92591000D01*
X175630400Y-100411600D02*
X199712640Y-100411600D01*
X173014000Y-103028000D02*
X175630400Y-100411600D01*
X173014000Y-103378000D02*
X173014000Y-103028000D01*
%TO.N,uC_32_ROCKBLOCK_TX*%
X209161000Y-95131000D02*
X210312000Y-93980000D01*
X207533240Y-95131000D02*
X209161000Y-95131000D01*
X201851640Y-100812600D02*
X207533240Y-95131000D01*
X181686200Y-100812600D02*
X201851640Y-100812600D01*
X179264000Y-103234800D02*
X181686200Y-100812600D01*
X179264000Y-103378000D02*
X179264000Y-103234800D01*
%TO.N,STATUS_LED*%
X198671168Y-87768700D02*
X198274200Y-87768700D01*
X201191468Y-90289000D02*
X198671168Y-87768700D01*
X215506000Y-90289000D02*
X201191468Y-90289000D01*
X216662000Y-91445000D02*
X215506000Y-90289000D01*
D44*
%TO.N,uC_VBAT*%
X170514000Y-103378000D02*
X170514000Y-67153800D01*
X170514000Y-67153800D02*
X173867400Y-63800400D01*
D39*
%TO.N,3V_BUS*%
X204952600Y-61214000D02*
X201498200Y-64668400D01*
X210312000Y-58420000D02*
X209067400Y-59664600D01*
D41*
X177088800Y-92862400D02*
X175488600Y-91262200D01*
X183502800Y-92862400D02*
X177088800Y-92862400D01*
D40*
%TO.N,Net-(U2-~{RESET})*%
X185166500Y-92848700D02*
X185152800Y-92862400D01*
X188974200Y-92848700D02*
X185166500Y-92848700D01*
D39*
%TO.N,3V_BUS*%
X181813200Y-84937600D02*
X175488600Y-91262200D01*
X181813200Y-80467200D02*
X181813200Y-84937600D01*
D45*
%TO.N,uC_VBAT*%
X182240600Y-63800400D02*
X183464200Y-65024000D01*
X173538200Y-63800400D02*
X182240600Y-63800400D01*
D40*
%TO.N,Net-(U1-EN)*%
X190803272Y-65878600D02*
X189382400Y-67299472D01*
X189382400Y-67299472D02*
X189382400Y-68313800D01*
X191140000Y-65878600D02*
X190803272Y-65878600D01*
%TO.N,Net-(U1-PS{slash}SYNC)*%
X191790000Y-67455600D02*
X190931800Y-68313800D01*
X191790000Y-66803600D02*
X191790000Y-67455600D01*
%TO.N,Net-(U1-VAUX)*%
X192790000Y-68154400D02*
X192303400Y-68641000D01*
X192790000Y-66803600D02*
X192790000Y-68154400D01*
D41*
%TO.N,Net-(U1-L2)*%
X193717000Y-63286621D02*
X193106710Y-63896911D01*
X193717000Y-60904800D02*
X193717000Y-63286621D01*
%TO.N,Net-(U1-L1)*%
X191347000Y-63286621D02*
X191944590Y-63884211D01*
X191347000Y-60904800D02*
X191347000Y-63286621D01*
D46*
X192040000Y-63802844D02*
X192032978Y-63795822D01*
X192040000Y-63871600D02*
X192040000Y-63802844D01*
%TO.N,Net-(U1-L2)*%
X193040000Y-63830200D02*
X193040000Y-63906400D01*
X193040000Y-64878600D02*
X193040000Y-63830200D01*
D39*
%TO.N,uC_VBAT*%
X207772000Y-58420000D02*
X207772000Y-55880000D01*
D45*
X173867400Y-63800400D02*
X181787800Y-55880000D01*
D40*
X173538200Y-63800400D02*
X173867400Y-63800400D01*
D46*
%TO.N,Net-(U1-L1)*%
X192040000Y-64878600D02*
X192040000Y-63871600D01*
D39*
%TO.N,uC_VBAT*%
X207772000Y-55880000D02*
X205079600Y-55880000D01*
D45*
X181787800Y-55880000D02*
X205079600Y-55880000D01*
%TD*%
%TA.AperFunction,Conductor*%
%TO.N,uC_VBAT*%
G36*
X189672645Y-63621285D02*
G01*
X189691009Y-63635698D01*
X190804800Y-64693800D01*
X191290500Y-64693800D01*
X191357539Y-64713485D01*
X191403294Y-64766289D01*
X191414500Y-64817800D01*
X191414500Y-64940210D01*
X191438535Y-65061044D01*
X191438539Y-65061058D01*
X191470841Y-65139043D01*
X191478310Y-65208512D01*
X191447034Y-65270991D01*
X191386945Y-65306643D01*
X191324189Y-65306270D01*
X191219057Y-65278100D01*
X190882329Y-65278100D01*
X190724214Y-65278100D01*
X190724212Y-65278100D01*
X190683291Y-65289064D01*
X190683291Y-65289065D01*
X190646023Y-65299051D01*
X190571486Y-65319023D01*
X190571481Y-65319026D01*
X190434562Y-65398075D01*
X190434554Y-65398081D01*
X190322752Y-65509884D01*
X190322750Y-65509886D01*
X189637237Y-66195400D01*
X189549556Y-66283081D01*
X189488233Y-66316566D01*
X189461875Y-66319400D01*
X183054800Y-66319400D01*
X182987761Y-66299715D01*
X182942006Y-66246911D01*
X182930800Y-66195400D01*
X182930800Y-63725600D01*
X182950485Y-63658561D01*
X183003289Y-63612806D01*
X183054800Y-63601600D01*
X189605606Y-63601600D01*
X189672645Y-63621285D01*
G37*
%TD.AperFunction*%
%TD*%
%TA.AperFunction,Conductor*%
%TO.N,GND*%
G36*
X209846075Y-103947007D02*
G01*
X209812000Y-104074174D01*
X209812000Y-104205826D01*
X209846075Y-104332993D01*
X209878988Y-104390000D01*
X208205012Y-104390000D01*
X208237925Y-104332993D01*
X208272000Y-104205826D01*
X208272000Y-104074174D01*
X208237925Y-103947007D01*
X208205012Y-103890000D01*
X209878988Y-103890000D01*
X209846075Y-103947007D01*
G37*
%TD.AperFunction*%
%TA.AperFunction,Conductor*%
G36*
X210562000Y-103706988D02*
G01*
X210504993Y-103674075D01*
X210377826Y-103640000D01*
X210246174Y-103640000D01*
X210119007Y-103674075D01*
X210062000Y-103706988D01*
X210062000Y-102033012D01*
X210119007Y-102065925D01*
X210246174Y-102100000D01*
X210377826Y-102100000D01*
X210504993Y-102065925D01*
X210562000Y-102033012D01*
X210562000Y-103706988D01*
G37*
%TD.AperFunction*%
%TA.AperFunction,Conductor*%
G36*
X181634750Y-65320585D02*
G01*
X181655392Y-65337219D01*
X182388981Y-66070808D01*
X182422466Y-66132131D01*
X182425300Y-66158489D01*
X182425300Y-66195400D01*
X182425301Y-66195409D01*
X182436852Y-66302850D01*
X182436854Y-66302862D01*
X182448060Y-66354372D01*
X182482183Y-66456897D01*
X182482186Y-66456903D01*
X182559971Y-66577937D01*
X182559979Y-66577948D01*
X182605723Y-66630740D01*
X182605726Y-66630743D01*
X182605730Y-66630747D01*
X182714464Y-66724967D01*
X182714467Y-66724968D01*
X182714468Y-66724969D01*
X182764503Y-66747820D01*
X182845341Y-66784738D01*
X182912380Y-66804423D01*
X182912384Y-66804424D01*
X183054800Y-66824900D01*
X186077500Y-66824900D01*
X186144539Y-66844585D01*
X186190294Y-66897389D01*
X186201500Y-66948900D01*
X186201500Y-67195021D01*
X186224973Y-67343227D01*
X186226500Y-67362622D01*
X186226500Y-67396600D01*
X186226501Y-67396618D01*
X186237001Y-67499397D01*
X186237001Y-67499399D01*
X186275793Y-67616463D01*
X186292186Y-67665934D01*
X186384288Y-67815256D01*
X186508344Y-67939312D01*
X186511655Y-67941354D01*
X186513447Y-67943346D01*
X186514008Y-67943790D01*
X186513932Y-67943885D01*
X186558380Y-67993299D01*
X186569604Y-68062261D01*
X186541762Y-68126344D01*
X186511661Y-68152429D01*
X186508658Y-68154281D01*
X186508655Y-68154283D01*
X186384684Y-68278254D01*
X186292643Y-68427475D01*
X186292641Y-68427480D01*
X186237494Y-68593902D01*
X186237493Y-68593909D01*
X186227000Y-68696613D01*
X186227000Y-68746600D01*
X187328000Y-68746600D01*
X187395039Y-68766285D01*
X187440794Y-68819089D01*
X187452000Y-68870600D01*
X187452000Y-68996600D01*
X187578000Y-68996600D01*
X187645039Y-69016285D01*
X187690794Y-69069089D01*
X187702000Y-69120600D01*
X187702000Y-69996599D01*
X187976972Y-69996599D01*
X187976986Y-69996598D01*
X188079697Y-69986105D01*
X188243896Y-69931695D01*
X188313724Y-69929293D01*
X188373766Y-69965025D01*
X188404959Y-70027545D01*
X188406900Y-70049401D01*
X188406900Y-70220413D01*
X188413313Y-70290992D01*
X188413313Y-70290994D01*
X188413314Y-70290996D01*
X188449804Y-70408100D01*
X188463922Y-70453406D01*
X188551930Y-70598988D01*
X188672211Y-70719269D01*
X188672213Y-70719270D01*
X188672215Y-70719272D01*
X188817794Y-70807278D01*
X188980204Y-70857886D01*
X189050784Y-70864300D01*
X189050787Y-70864300D01*
X189714013Y-70864300D01*
X189714016Y-70864300D01*
X189784596Y-70857886D01*
X189947006Y-70807278D01*
X190092585Y-70719272D01*
X190092587Y-70719269D01*
X190092949Y-70719051D01*
X190160504Y-70701214D01*
X190221251Y-70719051D01*
X190221612Y-70719269D01*
X190221615Y-70719272D01*
X190367194Y-70807278D01*
X190529604Y-70857886D01*
X190600184Y-70864300D01*
X190600187Y-70864300D01*
X191263413Y-70864300D01*
X191263416Y-70864300D01*
X191333996Y-70857886D01*
X191496406Y-70807278D01*
X191514749Y-70796188D01*
X191582304Y-70778352D01*
X191648778Y-70799869D01*
X191693066Y-70853909D01*
X191702900Y-70902305D01*
X191702900Y-71167500D01*
X191683215Y-71234539D01*
X191630411Y-71280294D01*
X191578900Y-71291500D01*
X191007798Y-71291500D01*
X191007780Y-71291501D01*
X190905003Y-71302000D01*
X190905000Y-71302001D01*
X190738468Y-71357185D01*
X190738463Y-71357187D01*
X190589142Y-71449289D01*
X190465088Y-71573343D01*
X190465083Y-71573349D01*
X190463041Y-71576661D01*
X190461047Y-71578453D01*
X190460607Y-71579011D01*
X190460511Y-71578935D01*
X190411091Y-71623383D01*
X190342128Y-71634602D01*
X190278047Y-71606755D01*
X190251968Y-71576656D01*
X190250119Y-71573659D01*
X190250116Y-71573655D01*
X190126145Y-71449684D01*
X189976924Y-71357643D01*
X189976919Y-71357641D01*
X189810497Y-71302494D01*
X189810490Y-71302493D01*
X189707786Y-71292000D01*
X189657800Y-71292000D01*
X189657800Y-73741999D01*
X189707772Y-73741999D01*
X189707786Y-73741998D01*
X189810497Y-73731505D01*
X189976919Y-73676358D01*
X189976924Y-73676356D01*
X190126145Y-73584315D01*
X190250118Y-73460342D01*
X190251965Y-73457348D01*
X190253769Y-73455724D01*
X190254598Y-73454677D01*
X190254776Y-73454818D01*
X190303910Y-73410621D01*
X190372873Y-73399396D01*
X190436956Y-73427236D01*
X190463043Y-73457341D01*
X190465088Y-73460656D01*
X190589144Y-73584712D01*
X190738466Y-73676814D01*
X190905003Y-73731999D01*
X191007791Y-73742500D01*
X191607808Y-73742499D01*
X191607816Y-73742498D01*
X191607819Y-73742498D01*
X191664102Y-73736748D01*
X191710597Y-73731999D01*
X191877134Y-73676814D01*
X192026456Y-73584712D01*
X192150512Y-73460656D01*
X192242614Y-73311334D01*
X192297799Y-73144797D01*
X192308300Y-73042009D01*
X192308299Y-72417095D01*
X192327983Y-72350057D01*
X192344613Y-72329420D01*
X192661906Y-72012128D01*
X192661911Y-72012124D01*
X192672114Y-72001920D01*
X192672116Y-72001920D01*
X192783920Y-71890116D01*
X192840114Y-71792785D01*
X192862977Y-71753185D01*
X192903901Y-71600457D01*
X192903901Y-71442343D01*
X192903901Y-71434748D01*
X192903900Y-71434730D01*
X192903900Y-71414182D01*
X193462001Y-71414182D01*
X193468408Y-71484702D01*
X193468409Y-71484707D01*
X193518981Y-71646996D01*
X193606927Y-71792477D01*
X193727122Y-71912672D01*
X193872604Y-72000619D01*
X193872603Y-72000619D01*
X194034894Y-72051190D01*
X194034892Y-72051190D01*
X194105418Y-72057599D01*
X194186999Y-72057598D01*
X194187000Y-72057598D01*
X194187000Y-71407600D01*
X193462001Y-71407600D01*
X193462001Y-71414182D01*
X192903900Y-71414182D01*
X192903900Y-68941096D01*
X192923585Y-68874057D01*
X192940215Y-68853419D01*
X193158713Y-68634921D01*
X193158716Y-68634920D01*
X193270520Y-68523116D01*
X193320639Y-68436304D01*
X193349577Y-68386185D01*
X193390500Y-68233458D01*
X193390500Y-68075343D01*
X193390500Y-67718475D01*
X193410185Y-67651436D01*
X193462989Y-67605681D01*
X193472650Y-67601751D01*
X193670650Y-67530761D01*
X193695522Y-67529300D01*
X193719804Y-67523700D01*
X193729798Y-67527286D01*
X193740400Y-67526664D01*
X193762115Y-67538883D01*
X193785567Y-67547299D01*
X193792036Y-67555720D01*
X193801291Y-67560928D01*
X193812952Y-67582945D01*
X193828133Y-67602707D01*
X193830703Y-67616463D01*
X193833992Y-67622673D01*
X193833330Y-67630520D01*
X193836500Y-67647485D01*
X193836500Y-68615884D01*
X193816815Y-68682923D01*
X193776652Y-68722000D01*
X193726811Y-68752130D01*
X193606530Y-68872411D01*
X193518522Y-69017993D01*
X193467913Y-69180407D01*
X193465376Y-69208328D01*
X193461899Y-69246600D01*
X193461500Y-69250986D01*
X193461500Y-69764213D01*
X193467913Y-69834792D01*
X193467913Y-69834794D01*
X193467914Y-69834796D01*
X193469198Y-69838915D01*
X193518522Y-69997206D01*
X193606530Y-70142788D01*
X193709015Y-70245273D01*
X193742500Y-70306596D01*
X193737516Y-70376288D01*
X193709015Y-70420635D01*
X193606928Y-70522721D01*
X193606927Y-70522722D01*
X193518980Y-70668204D01*
X193468409Y-70830493D01*
X193462000Y-70901027D01*
X193462000Y-70907600D01*
X194313000Y-70907600D01*
X194380039Y-70927285D01*
X194425794Y-70980089D01*
X194437000Y-71031600D01*
X194437000Y-71157600D01*
X194563000Y-71157600D01*
X194630039Y-71177285D01*
X194675794Y-71230089D01*
X194687000Y-71281600D01*
X194687000Y-71943717D01*
X194667315Y-72010756D01*
X194650681Y-72031398D01*
X192357099Y-74324981D01*
X192295776Y-74358466D01*
X192269418Y-74361300D01*
X186820058Y-74361300D01*
X186801126Y-74365066D01*
X186782194Y-74368832D01*
X186782193Y-74368832D01*
X186626767Y-74399747D01*
X186626759Y-74399750D01*
X186573434Y-74421837D01*
X186573434Y-74421838D01*
X186527915Y-74440692D01*
X186444689Y-74475166D01*
X186444679Y-74475171D01*
X186280819Y-74584659D01*
X186228231Y-74637248D01*
X186141461Y-74724018D01*
X186141458Y-74724021D01*
X181785097Y-79080381D01*
X181723774Y-79113866D01*
X181697416Y-79116700D01*
X180915329Y-79116700D01*
X180915323Y-79116701D01*
X180855716Y-79123108D01*
X180720871Y-79173402D01*
X180720864Y-79173406D01*
X180605655Y-79259652D01*
X180605652Y-79259655D01*
X180519406Y-79374864D01*
X180519402Y-79374871D01*
X180469108Y-79509717D01*
X180462701Y-79569316D01*
X180462700Y-79569335D01*
X180462700Y-81365070D01*
X180462701Y-81365076D01*
X180469108Y-81424683D01*
X180519402Y-81559528D01*
X180519406Y-81559535D01*
X180605652Y-81674744D01*
X180605655Y-81674747D01*
X180720865Y-81760994D01*
X180720867Y-81760994D01*
X180720869Y-81760996D01*
X180732030Y-81765158D01*
X180787964Y-81807026D01*
X180812384Y-81872489D01*
X180812700Y-81881341D01*
X180812700Y-84471817D01*
X180793015Y-84538856D01*
X180776381Y-84559498D01*
X180059981Y-85275898D01*
X179998658Y-85309383D01*
X179928966Y-85304399D01*
X179873033Y-85262527D01*
X179848616Y-85197063D01*
X179848300Y-85188217D01*
X179848300Y-82410460D01*
X179848301Y-82410447D01*
X179848301Y-82242344D01*
X179826093Y-82159464D01*
X179807377Y-82089616D01*
X179772601Y-82029381D01*
X179728324Y-81952690D01*
X179728318Y-81952682D01*
X178299797Y-80524161D01*
X176822356Y-79046721D01*
X176788872Y-78985399D01*
X176792107Y-78920723D01*
X176805846Y-78878443D01*
X176839100Y-78668487D01*
X176839100Y-78455913D01*
X176805846Y-78245957D01*
X176740157Y-78043788D01*
X176643651Y-77854384D01*
X176643649Y-77854381D01*
X176643648Y-77854379D01*
X176518709Y-77682413D01*
X176368386Y-77532090D01*
X176196420Y-77407151D01*
X176195715Y-77406791D01*
X176187654Y-77402685D01*
X176136859Y-77354712D01*
X176120063Y-77286892D01*
X176142599Y-77220756D01*
X176187654Y-77181715D01*
X176196416Y-77177251D01*
X176330558Y-77079792D01*
X176368386Y-77052309D01*
X176368388Y-77052306D01*
X176368392Y-77052304D01*
X176518704Y-76901992D01*
X176518706Y-76901988D01*
X176518709Y-76901986D01*
X176643648Y-76730020D01*
X176643647Y-76730020D01*
X176643651Y-76730016D01*
X176740157Y-76540612D01*
X176805846Y-76338443D01*
X176839100Y-76128487D01*
X176839100Y-75915913D01*
X176805846Y-75705957D01*
X176740157Y-75503788D01*
X176643651Y-75314384D01*
X176643649Y-75314381D01*
X176643648Y-75314379D01*
X176518709Y-75142413D01*
X176368386Y-74992090D01*
X176196420Y-74867151D01*
X176195715Y-74866791D01*
X176187654Y-74862685D01*
X176136859Y-74814712D01*
X176120063Y-74746892D01*
X176142599Y-74680756D01*
X176187654Y-74641715D01*
X176196416Y-74637251D01*
X176218389Y-74621286D01*
X176368386Y-74512309D01*
X176368388Y-74512306D01*
X176368392Y-74512304D01*
X176518704Y-74361992D01*
X176518706Y-74361988D01*
X176518709Y-74361986D01*
X176643648Y-74190020D01*
X176643647Y-74190020D01*
X176643651Y-74190016D01*
X176740157Y-74000612D01*
X176805846Y-73798443D01*
X176839100Y-73588487D01*
X176839100Y-73375913D01*
X176805846Y-73165957D01*
X176765565Y-73041986D01*
X188407801Y-73041986D01*
X188418294Y-73144697D01*
X188473441Y-73311119D01*
X188473443Y-73311124D01*
X188565484Y-73460345D01*
X188689454Y-73584315D01*
X188838675Y-73676356D01*
X188838680Y-73676358D01*
X189005102Y-73731505D01*
X189005109Y-73731506D01*
X189107819Y-73741999D01*
X189157799Y-73741998D01*
X189157800Y-73741998D01*
X189157800Y-72767000D01*
X188407801Y-72767000D01*
X188407801Y-73041986D01*
X176765565Y-73041986D01*
X176740157Y-72963788D01*
X176643651Y-72774384D01*
X176643649Y-72774381D01*
X176643648Y-72774379D01*
X176518709Y-72602413D01*
X176368386Y-72452090D01*
X176196420Y-72327151D01*
X176195715Y-72326791D01*
X176187654Y-72322685D01*
X176136859Y-72274712D01*
X176120063Y-72206892D01*
X176142599Y-72140756D01*
X176187654Y-72101715D01*
X176196416Y-72097251D01*
X176287056Y-72031398D01*
X176341265Y-71992013D01*
X188407800Y-71992013D01*
X188407800Y-72267000D01*
X189157800Y-72267000D01*
X189157800Y-71292000D01*
X189157799Y-71291999D01*
X189107829Y-71292000D01*
X189107811Y-71292001D01*
X189005102Y-71302494D01*
X188838680Y-71357641D01*
X188838675Y-71357643D01*
X188689454Y-71449684D01*
X188565484Y-71573654D01*
X188473443Y-71722875D01*
X188473441Y-71722880D01*
X188418294Y-71889302D01*
X188418293Y-71889309D01*
X188407800Y-71992013D01*
X176341265Y-71992013D01*
X176368386Y-71972309D01*
X176368388Y-71972306D01*
X176368392Y-71972304D01*
X176518704Y-71821992D01*
X176518706Y-71821988D01*
X176518709Y-71821986D01*
X176643648Y-71650020D01*
X176643647Y-71650020D01*
X176643651Y-71650016D01*
X176740157Y-71460612D01*
X176805846Y-71258443D01*
X176839100Y-71048487D01*
X176839100Y-70835913D01*
X176805846Y-70625957D01*
X176740157Y-70423788D01*
X176643651Y-70234384D01*
X176643649Y-70234381D01*
X176643648Y-70234379D01*
X176518709Y-70062413D01*
X176368386Y-69912090D01*
X176196420Y-69787151D01*
X176007014Y-69690644D01*
X176007013Y-69690643D01*
X176007012Y-69690643D01*
X175804843Y-69624954D01*
X175804841Y-69624953D01*
X175804840Y-69624953D01*
X175643557Y-69599408D01*
X175594887Y-69591700D01*
X175382313Y-69591700D01*
X175333642Y-69599408D01*
X175172360Y-69624953D01*
X174970185Y-69690644D01*
X174780779Y-69787151D01*
X174608813Y-69912090D01*
X174458490Y-70062413D01*
X174333551Y-70234379D01*
X174237044Y-70423785D01*
X174237043Y-70423787D01*
X174237043Y-70423788D01*
X174227348Y-70453627D01*
X174171353Y-70625960D01*
X174142635Y-70807278D01*
X174138100Y-70835913D01*
X174138100Y-71048487D01*
X174171354Y-71258443D01*
X174233492Y-71449684D01*
X174237044Y-71460614D01*
X174333551Y-71650020D01*
X174458490Y-71821986D01*
X174608813Y-71972309D01*
X174780782Y-72097250D01*
X174789546Y-72101716D01*
X174840342Y-72149691D01*
X174857136Y-72217512D01*
X174834598Y-72283647D01*
X174789546Y-72322684D01*
X174780782Y-72327149D01*
X174608813Y-72452090D01*
X174458490Y-72602413D01*
X174333551Y-72774379D01*
X174237044Y-72963785D01*
X174171353Y-73165960D01*
X174138100Y-73375913D01*
X174138100Y-73588486D01*
X174171353Y-73798439D01*
X174237044Y-74000614D01*
X174333551Y-74190020D01*
X174458490Y-74361986D01*
X174608813Y-74512309D01*
X174780782Y-74637250D01*
X174789546Y-74641716D01*
X174840342Y-74689691D01*
X174857136Y-74757512D01*
X174834598Y-74823647D01*
X174789546Y-74862684D01*
X174780782Y-74867149D01*
X174608813Y-74992090D01*
X174458490Y-75142413D01*
X174333551Y-75314379D01*
X174237044Y-75503785D01*
X174171353Y-75705960D01*
X174138100Y-75915913D01*
X174138100Y-76128487D01*
X174148134Y-76191844D01*
X174157097Y-76248432D01*
X174171354Y-76338443D01*
X174236460Y-76538819D01*
X174237044Y-76540614D01*
X174333551Y-76730020D01*
X174458490Y-76901986D01*
X174608813Y-77052309D01*
X174780782Y-77177250D01*
X174789546Y-77181716D01*
X174840342Y-77229691D01*
X174857136Y-77297512D01*
X174834598Y-77363647D01*
X174789546Y-77402684D01*
X174780782Y-77407149D01*
X174608813Y-77532090D01*
X174458490Y-77682413D01*
X174333551Y-77854379D01*
X174237044Y-78043785D01*
X174171353Y-78245960D01*
X174138100Y-78455913D01*
X174138100Y-78668486D01*
X174171353Y-78878439D01*
X174171353Y-78878441D01*
X174171354Y-78878443D01*
X174226031Y-79046722D01*
X174237044Y-79080614D01*
X174333551Y-79270020D01*
X174458490Y-79441986D01*
X174608813Y-79592309D01*
X174780782Y-79717250D01*
X174789546Y-79721716D01*
X174840342Y-79769691D01*
X174857136Y-79837512D01*
X174834598Y-79903647D01*
X174789546Y-79942684D01*
X174780782Y-79947149D01*
X174608813Y-80072090D01*
X174458490Y-80222413D01*
X174333551Y-80394379D01*
X174237044Y-80583785D01*
X174171353Y-80785960D01*
X174138100Y-80995913D01*
X174138100Y-81208486D01*
X174163945Y-81371668D01*
X174171354Y-81418443D01*
X174229126Y-81596247D01*
X174237044Y-81620614D01*
X174333551Y-81810020D01*
X174458490Y-81981986D01*
X174608813Y-82132309D01*
X174780782Y-82257250D01*
X174789546Y-82261716D01*
X174840342Y-82309691D01*
X174857136Y-82377512D01*
X174834598Y-82443647D01*
X174789546Y-82482684D01*
X174780782Y-82487149D01*
X174608813Y-82612090D01*
X174458490Y-82762413D01*
X174333551Y-82934379D01*
X174237044Y-83123785D01*
X174171353Y-83325960D01*
X174138100Y-83535913D01*
X174138100Y-83748486D01*
X174171353Y-83958439D01*
X174171353Y-83958441D01*
X174171354Y-83958443D01*
X174226031Y-84126722D01*
X174237044Y-84160614D01*
X174333551Y-84350020D01*
X174458490Y-84521986D01*
X174608813Y-84672309D01*
X174780782Y-84797250D01*
X174789546Y-84801716D01*
X174840342Y-84849691D01*
X174857136Y-84917512D01*
X174834598Y-84983647D01*
X174789546Y-85022684D01*
X174780782Y-85027149D01*
X174608813Y-85152090D01*
X174458490Y-85302413D01*
X174333551Y-85474379D01*
X174237044Y-85663785D01*
X174171353Y-85865960D01*
X174138100Y-86075913D01*
X174138100Y-86288486D01*
X174170359Y-86492165D01*
X174171354Y-86498443D01*
X174234180Y-86691802D01*
X174237044Y-86700614D01*
X174333551Y-86890020D01*
X174458490Y-87061986D01*
X174608813Y-87212309D01*
X174780779Y-87337248D01*
X174780781Y-87337249D01*
X174780784Y-87337251D01*
X174790093Y-87341994D01*
X174840890Y-87389966D01*
X174857687Y-87457787D01*
X174835152Y-87523922D01*
X174790102Y-87562962D01*
X174781043Y-87567578D01*
X174609140Y-87692472D01*
X174609135Y-87692476D01*
X174458876Y-87842735D01*
X174458872Y-87842740D01*
X174333979Y-88014642D01*
X174237504Y-88203982D01*
X174171842Y-88406070D01*
X174171842Y-88406073D01*
X174161369Y-88472200D01*
X175055588Y-88472200D01*
X175022675Y-88529207D01*
X174988600Y-88656374D01*
X174988600Y-88788026D01*
X175022675Y-88915193D01*
X175055588Y-88972200D01*
X174161369Y-88972200D01*
X174171842Y-89038326D01*
X174171842Y-89038329D01*
X174237504Y-89240417D01*
X174333979Y-89429757D01*
X174458872Y-89601659D01*
X174458876Y-89601664D01*
X174572546Y-89715334D01*
X174606031Y-89776657D01*
X174601047Y-89846349D01*
X174559175Y-89902282D01*
X174528198Y-89919197D01*
X174396271Y-89968402D01*
X174396264Y-89968406D01*
X174281055Y-90054652D01*
X174281052Y-90054655D01*
X174194806Y-90169864D01*
X174194802Y-90169871D01*
X174144508Y-90304717D01*
X174138101Y-90364316D01*
X174138100Y-90364335D01*
X174138100Y-92160070D01*
X174138101Y-92160076D01*
X174144508Y-92219683D01*
X174194802Y-92354528D01*
X174194806Y-92354535D01*
X174281052Y-92469744D01*
X174281055Y-92469747D01*
X174396264Y-92555993D01*
X174396271Y-92555997D01*
X174531117Y-92606291D01*
X174531116Y-92606291D01*
X174538044Y-92607035D01*
X174590727Y-92612700D01*
X175726369Y-92612699D01*
X175793408Y-92632384D01*
X175814050Y-92649018D01*
X176610379Y-93445347D01*
X176610386Y-93445353D01*
X176612861Y-93447007D01*
X176612867Y-93447010D01*
X176616144Y-93449200D01*
X176733305Y-93527484D01*
X176789880Y-93550918D01*
X176869888Y-93584059D01*
X176986041Y-93607163D01*
X177005268Y-93610987D01*
X177014881Y-93612900D01*
X177014882Y-93612900D01*
X177014883Y-93612900D01*
X177162718Y-93612900D01*
X182628300Y-93612900D01*
X182695339Y-93632585D01*
X182741094Y-93685389D01*
X182752300Y-93736900D01*
X182752300Y-98181918D01*
X182752300Y-98181920D01*
X182752299Y-98181920D01*
X182781140Y-98326907D01*
X182781143Y-98326917D01*
X182837714Y-98463491D01*
X182837716Y-98463495D01*
X182856457Y-98491544D01*
X182865704Y-98505383D01*
X182919849Y-98586418D01*
X182919852Y-98586421D01*
X183521052Y-99187619D01*
X183554537Y-99248942D01*
X183549553Y-99318633D01*
X183507682Y-99374567D01*
X183442217Y-99398984D01*
X183433371Y-99399300D01*
X176355057Y-99399300D01*
X175221257Y-99399300D01*
X175063142Y-99399300D01*
X174910415Y-99440223D01*
X174910414Y-99440223D01*
X174910412Y-99440224D01*
X174910409Y-99440225D01*
X174860296Y-99469159D01*
X174860295Y-99469160D01*
X174816889Y-99494220D01*
X174773485Y-99519279D01*
X174773482Y-99519281D01*
X174661678Y-99631086D01*
X172076862Y-102215901D01*
X172015539Y-102249386D01*
X171964990Y-102249837D01*
X171852694Y-102227500D01*
X171852691Y-102227500D01*
X171738500Y-102227500D01*
X171671461Y-102207815D01*
X171625706Y-102155011D01*
X171614500Y-102103500D01*
X171614500Y-69296586D01*
X186227001Y-69296586D01*
X186237494Y-69399297D01*
X186292641Y-69565719D01*
X186292643Y-69565724D01*
X186384684Y-69714945D01*
X186508654Y-69838915D01*
X186657875Y-69930956D01*
X186657880Y-69930958D01*
X186824302Y-69986105D01*
X186824309Y-69986106D01*
X186927019Y-69996599D01*
X187201999Y-69996599D01*
X187202000Y-69996598D01*
X187202000Y-69246600D01*
X186227001Y-69246600D01*
X186227001Y-69296586D01*
X171614500Y-69296586D01*
X171614500Y-67661004D01*
X171634185Y-67593965D01*
X171650819Y-67573323D01*
X173886923Y-65337219D01*
X173948246Y-65303734D01*
X173974604Y-65300900D01*
X173985492Y-65300900D01*
X181567711Y-65300900D01*
X181634750Y-65320585D01*
G37*
%TD.AperFunction*%
%TA.AperFunction,Conductor*%
G36*
X210562000Y-101166988D02*
G01*
X210504993Y-101134075D01*
X210377826Y-101100000D01*
X210246174Y-101100000D01*
X210119007Y-101134075D01*
X210062000Y-101166988D01*
X210062000Y-99493012D01*
X210119007Y-99525925D01*
X210246174Y-99560000D01*
X210377826Y-99560000D01*
X210504993Y-99525925D01*
X210562000Y-99493012D01*
X210562000Y-101166988D01*
G37*
%TD.AperFunction*%
%TA.AperFunction,Conductor*%
G36*
X191133642Y-92799885D02*
G01*
X191154284Y-92816519D01*
X193919925Y-95582160D01*
X193953410Y-95643483D01*
X193953861Y-95645649D01*
X193984761Y-95800991D01*
X193984764Y-95801001D01*
X194045102Y-95946672D01*
X194045109Y-95946685D01*
X194132710Y-96077788D01*
X194132713Y-96077792D01*
X194244207Y-96189286D01*
X194244211Y-96189289D01*
X194375314Y-96276890D01*
X194375327Y-96276897D01*
X194496194Y-96326961D01*
X194521003Y-96337237D01*
X194675653Y-96367999D01*
X194675656Y-96368000D01*
X194675658Y-96368000D01*
X194833344Y-96368000D01*
X194833345Y-96367999D01*
X194987997Y-96337237D01*
X195133679Y-96276894D01*
X195264789Y-96189289D01*
X195313634Y-96140444D01*
X195380597Y-96073482D01*
X195382572Y-96075457D01*
X195430272Y-96042825D01*
X195500113Y-96040813D01*
X195556299Y-96073066D01*
X196506307Y-97023074D01*
X196506317Y-97023085D01*
X196510647Y-97027415D01*
X196510648Y-97027416D01*
X196622452Y-97139220D01*
X196709263Y-97189339D01*
X196759383Y-97218277D01*
X196908949Y-97258353D01*
X196913655Y-97260031D01*
X196930699Y-97272405D01*
X196959706Y-97289153D01*
X196997329Y-97326776D01*
X196997333Y-97326779D01*
X196997335Y-97326781D01*
X197138802Y-97410444D01*
X197180424Y-97422536D01*
X197296626Y-97456297D01*
X197296629Y-97456297D01*
X197296631Y-97456298D01*
X197333506Y-97459200D01*
X197333514Y-97459200D01*
X199214886Y-97459200D01*
X199214894Y-97459200D01*
X199251769Y-97456298D01*
X199251771Y-97456297D01*
X199251773Y-97456297D01*
X199336235Y-97431758D01*
X199409598Y-97410444D01*
X199551065Y-97326781D01*
X199667281Y-97210565D01*
X199750944Y-97069098D01*
X199796798Y-96911269D01*
X199796829Y-96910867D01*
X199796909Y-96910657D01*
X199797937Y-96905033D01*
X199798979Y-96905223D01*
X199799489Y-96903885D01*
X199798820Y-96896439D01*
X199811758Y-96871680D01*
X199821702Y-96845577D01*
X199827717Y-96841139D01*
X199831179Y-96834515D01*
X199872990Y-96806021D01*
X200015979Y-96746794D01*
X200034734Y-96734262D01*
X200044409Y-96727798D01*
X200111086Y-96706920D01*
X200178466Y-96725404D01*
X200225157Y-96777383D01*
X200237300Y-96830900D01*
X200237300Y-96930834D01*
X200233822Y-96942677D01*
X200234928Y-96954974D01*
X200224162Y-96975576D01*
X200217615Y-96997873D01*
X200216402Y-96999725D01*
X200128409Y-97131414D01*
X200128402Y-97131427D01*
X200068064Y-97277098D01*
X200068061Y-97277110D01*
X200037300Y-97431753D01*
X200037300Y-97589446D01*
X200068061Y-97744089D01*
X200068064Y-97744101D01*
X200128402Y-97889772D01*
X200128409Y-97889785D01*
X200216010Y-98020888D01*
X200216013Y-98020892D01*
X200327507Y-98132386D01*
X200327510Y-98132388D01*
X200327511Y-98132389D01*
X200341589Y-98141796D01*
X200386395Y-98195405D01*
X200395105Y-98264730D01*
X200364952Y-98327758D01*
X200360382Y-98332580D01*
X199329984Y-99362981D01*
X199268661Y-99396466D01*
X199242303Y-99399300D01*
X185303100Y-99399300D01*
X185236061Y-99379615D01*
X185190306Y-99326811D01*
X185179100Y-99275300D01*
X185179100Y-99209755D01*
X185179099Y-99209753D01*
X185148339Y-99055111D01*
X185148338Y-99055108D01*
X185148337Y-99055103D01*
X185138537Y-99031444D01*
X185129100Y-98983996D01*
X185129100Y-98909879D01*
X185100259Y-98764892D01*
X185100258Y-98764891D01*
X185100258Y-98764887D01*
X185091554Y-98743873D01*
X185043687Y-98628311D01*
X185043680Y-98628298D01*
X184961551Y-98505383D01*
X184289619Y-97833451D01*
X184256134Y-97772128D01*
X184253300Y-97745770D01*
X184253300Y-96908701D01*
X187451904Y-96908701D01*
X187452099Y-96911186D01*
X187497918Y-97068898D01*
X187581514Y-97210252D01*
X187581521Y-97210261D01*
X187697638Y-97326378D01*
X187697647Y-97326385D01*
X187839003Y-97409982D01*
X187839006Y-97409983D01*
X187996704Y-97455799D01*
X187996710Y-97455800D01*
X188033550Y-97458699D01*
X188033566Y-97458700D01*
X188724200Y-97458700D01*
X189224200Y-97458700D01*
X189914834Y-97458700D01*
X189914849Y-97458699D01*
X189951689Y-97455800D01*
X189951695Y-97455799D01*
X190109393Y-97409983D01*
X190109396Y-97409982D01*
X190250752Y-97326385D01*
X190250761Y-97326378D01*
X190366878Y-97210261D01*
X190366885Y-97210252D01*
X190450481Y-97068898D01*
X190496300Y-96911186D01*
X190496495Y-96908701D01*
X190496495Y-96908700D01*
X189224200Y-96908700D01*
X189224200Y-97458700D01*
X188724200Y-97458700D01*
X188724200Y-96908700D01*
X187451905Y-96908700D01*
X187451904Y-96908701D01*
X184253300Y-96908701D01*
X184253300Y-93727920D01*
X184272985Y-93660881D01*
X184325789Y-93615126D01*
X184394947Y-93605182D01*
X184458503Y-93634207D01*
X184464981Y-93640239D01*
X184517611Y-93692869D01*
X184517613Y-93692870D01*
X184517615Y-93692872D01*
X184663194Y-93780878D01*
X184825604Y-93831486D01*
X184896184Y-93837900D01*
X184896187Y-93837900D01*
X185409413Y-93837900D01*
X185409416Y-93837900D01*
X185479996Y-93831486D01*
X185642406Y-93780878D01*
X185787985Y-93692872D01*
X185908272Y-93572585D01*
X185946680Y-93509049D01*
X185998208Y-93461862D01*
X186052797Y-93449200D01*
X187433293Y-93449200D01*
X187500332Y-93468885D01*
X187546087Y-93521689D01*
X187556031Y-93590847D01*
X187540025Y-93636320D01*
X187497457Y-93708299D01*
X187497454Y-93708306D01*
X187451602Y-93866126D01*
X187451601Y-93866132D01*
X187448700Y-93902998D01*
X187448700Y-94334401D01*
X187451601Y-94371267D01*
X187451602Y-94371273D01*
X187497454Y-94529093D01*
X187497455Y-94529096D01*
X187581117Y-94670562D01*
X187585902Y-94676731D01*
X187583456Y-94678627D01*
X187610057Y-94727342D01*
X187605073Y-94797034D01*
X187584269Y-94829403D01*
X187585902Y-94830669D01*
X187581117Y-94836837D01*
X187497455Y-94978303D01*
X187497454Y-94978306D01*
X187451602Y-95136126D01*
X187451601Y-95136132D01*
X187448700Y-95172998D01*
X187448700Y-95604401D01*
X187451601Y-95641267D01*
X187451602Y-95641273D01*
X187497454Y-95799093D01*
X187497455Y-95799096D01*
X187497456Y-95799098D01*
X187505195Y-95812184D01*
X187581117Y-95940562D01*
X187585902Y-95946731D01*
X187583569Y-95948540D01*
X187610410Y-95997695D01*
X187605426Y-96067387D01*
X187584670Y-96099721D01*
X187586297Y-96100983D01*
X187581513Y-96107149D01*
X187497918Y-96248501D01*
X187452099Y-96406213D01*
X187451904Y-96408698D01*
X187451905Y-96408700D01*
X190496495Y-96408700D01*
X190496495Y-96408698D01*
X190496300Y-96406213D01*
X190450481Y-96248501D01*
X190366885Y-96107147D01*
X190362100Y-96100978D01*
X190364566Y-96099064D01*
X190338002Y-96050476D01*
X190342949Y-95980782D01*
X190364056Y-95947932D01*
X190362501Y-95946726D01*
X190367277Y-95940568D01*
X190367281Y-95940565D01*
X190450944Y-95799098D01*
X190495324Y-95646342D01*
X190496797Y-95641273D01*
X190496798Y-95641267D01*
X190499699Y-95604401D01*
X190499700Y-95604394D01*
X190499700Y-95173006D01*
X190496798Y-95136131D01*
X190496484Y-95135051D01*
X190450945Y-94978306D01*
X190450944Y-94978303D01*
X190450944Y-94978302D01*
X190367281Y-94836835D01*
X190367278Y-94836832D01*
X190362498Y-94830669D01*
X190364950Y-94828766D01*
X190338355Y-94780121D01*
X190343304Y-94710426D01*
X190364140Y-94678004D01*
X190362498Y-94676731D01*
X190367275Y-94670570D01*
X190367281Y-94670565D01*
X190450944Y-94529098D01*
X190496798Y-94371269D01*
X190499700Y-94334394D01*
X190499700Y-93903006D01*
X190496798Y-93866131D01*
X190492383Y-93850935D01*
X190459759Y-93738642D01*
X190450944Y-93708302D01*
X190367281Y-93566835D01*
X190367278Y-93566832D01*
X190362498Y-93560669D01*
X190364950Y-93558766D01*
X190338355Y-93510121D01*
X190343304Y-93440426D01*
X190364140Y-93408004D01*
X190362498Y-93406731D01*
X190367275Y-93400570D01*
X190367281Y-93400565D01*
X190450944Y-93259098D01*
X190496798Y-93101269D01*
X190499700Y-93064394D01*
X190499700Y-92904200D01*
X190519385Y-92837161D01*
X190572189Y-92791406D01*
X190623700Y-92780200D01*
X191066603Y-92780200D01*
X191133642Y-92799885D01*
G37*
%TD.AperFunction*%
%TA.AperFunction,Conductor*%
G36*
X210562000Y-98626988D02*
G01*
X210504993Y-98594075D01*
X210377826Y-98560000D01*
X210246174Y-98560000D01*
X210119007Y-98594075D01*
X210062000Y-98626988D01*
X210062000Y-96953012D01*
X210119007Y-96985925D01*
X210246174Y-97020000D01*
X210377826Y-97020000D01*
X210504993Y-96985925D01*
X210562000Y-96953012D01*
X210562000Y-98626988D01*
G37*
%TD.AperFunction*%
%TA.AperFunction,Conductor*%
G36*
X196052147Y-90516501D02*
G01*
X196059743Y-90516501D01*
X196113946Y-90516501D01*
X196138136Y-90518883D01*
X196165873Y-90524401D01*
X196243733Y-90539889D01*
X196243400Y-90541562D01*
X196300627Y-90564661D01*
X196340994Y-90621690D01*
X196347700Y-90661915D01*
X196347700Y-93731029D01*
X196347699Y-93731047D01*
X196347699Y-93896753D01*
X196347698Y-93896753D01*
X196388623Y-94049484D01*
X196417558Y-94099599D01*
X196417559Y-94099603D01*
X196417560Y-94099603D01*
X196464768Y-94181372D01*
X196467679Y-94186413D01*
X196467681Y-94186416D01*
X196596920Y-94315655D01*
X196596926Y-94315660D01*
X196770883Y-94489618D01*
X196793246Y-94522524D01*
X196793485Y-94522384D01*
X196795722Y-94526167D01*
X196797004Y-94528053D01*
X196797457Y-94529101D01*
X196881116Y-94670561D01*
X196885902Y-94676731D01*
X196883456Y-94678627D01*
X196910057Y-94727342D01*
X196905073Y-94797034D01*
X196884269Y-94829403D01*
X196885902Y-94830669D01*
X196881117Y-94836837D01*
X196797455Y-94978303D01*
X196797454Y-94978306D01*
X196751602Y-95136126D01*
X196751601Y-95136132D01*
X196748700Y-95172998D01*
X196748700Y-95267635D01*
X196729015Y-95334674D01*
X196676211Y-95380429D01*
X196607053Y-95390373D01*
X196543497Y-95361348D01*
X196537019Y-95355316D01*
X192109884Y-90928181D01*
X192076399Y-90866858D01*
X192081383Y-90797166D01*
X192123255Y-90741233D01*
X192188719Y-90716816D01*
X192197565Y-90716500D01*
X192331444Y-90716500D01*
X192331445Y-90716499D01*
X192486097Y-90685737D01*
X192631779Y-90625394D01*
X192637322Y-90621690D01*
X192763475Y-90537398D01*
X192830153Y-90516520D01*
X192832366Y-90516500D01*
X196052131Y-90516500D01*
X196052147Y-90516501D01*
G37*
%TD.AperFunction*%
%TA.AperFunction,Conductor*%
G36*
X189167239Y-90259885D02*
G01*
X189212994Y-90312689D01*
X189224200Y-90364200D01*
X189224200Y-91328700D01*
X190496495Y-91328700D01*
X190496495Y-91328699D01*
X190495921Y-91321394D01*
X190510287Y-91253017D01*
X190559339Y-91203262D01*
X190627505Y-91187924D01*
X190693141Y-91211875D01*
X190707220Y-91223987D01*
X190850752Y-91367519D01*
X190884237Y-91428842D01*
X190879253Y-91498534D01*
X190837381Y-91554467D01*
X190771917Y-91578884D01*
X190763071Y-91579200D01*
X189025713Y-91579200D01*
X188847851Y-91578700D01*
X188814275Y-91568738D01*
X188781161Y-91559015D01*
X188781043Y-91558878D01*
X188780868Y-91558827D01*
X188758028Y-91532318D01*
X188735406Y-91506211D01*
X188735362Y-91506012D01*
X188735261Y-91505894D01*
X188735121Y-91504901D01*
X188724200Y-91454700D01*
X188724200Y-90558700D01*
X187451905Y-90558700D01*
X187451904Y-90558701D01*
X187452099Y-90561186D01*
X187497918Y-90718898D01*
X187581514Y-90860252D01*
X187586300Y-90866422D01*
X187583953Y-90868242D01*
X187610764Y-90917342D01*
X187605780Y-90987034D01*
X187584741Y-91019769D01*
X187586300Y-91020978D01*
X187581514Y-91027147D01*
X187497918Y-91168501D01*
X187480121Y-91229762D01*
X187442514Y-91288648D01*
X187379042Y-91317855D01*
X187361044Y-91319168D01*
X183913765Y-91319168D01*
X183846726Y-91299483D01*
X183826084Y-91282849D01*
X182995116Y-90451881D01*
X182961631Y-90390558D01*
X182966615Y-90320866D01*
X183008487Y-90264933D01*
X183073951Y-90240516D01*
X183082797Y-90240200D01*
X189100200Y-90240200D01*
X189167239Y-90259885D01*
G37*
%TD.AperFunction*%
%TA.AperFunction,Conductor*%
G36*
X187805730Y-85557785D02*
G01*
X187851485Y-85610589D01*
X187861429Y-85679747D01*
X187832404Y-85743303D01*
X187801813Y-85768831D01*
X187778335Y-85782716D01*
X187697337Y-85830617D01*
X187697329Y-85830623D01*
X187581123Y-85946829D01*
X187581117Y-85946837D01*
X187497455Y-86088303D01*
X187497454Y-86088306D01*
X187451602Y-86246126D01*
X187451601Y-86246132D01*
X187448700Y-86282998D01*
X187448700Y-86714401D01*
X187451601Y-86751267D01*
X187451602Y-86751273D01*
X187497454Y-86909093D01*
X187497455Y-86909096D01*
X187497456Y-86909098D01*
X187534881Y-86972381D01*
X187581117Y-87050562D01*
X187585902Y-87056731D01*
X187583456Y-87058627D01*
X187610057Y-87107342D01*
X187605073Y-87177034D01*
X187584269Y-87209403D01*
X187585902Y-87210669D01*
X187581117Y-87216837D01*
X187497455Y-87358303D01*
X187497454Y-87358306D01*
X187451602Y-87516126D01*
X187451601Y-87516132D01*
X187448700Y-87552998D01*
X187448700Y-87984401D01*
X187451601Y-88021267D01*
X187451602Y-88021273D01*
X187497454Y-88179093D01*
X187497455Y-88179096D01*
X187497456Y-88179098D01*
X187517138Y-88212378D01*
X187581117Y-88320562D01*
X187585902Y-88326731D01*
X187583569Y-88328540D01*
X187610410Y-88377695D01*
X187605426Y-88447387D01*
X187584670Y-88479721D01*
X187586297Y-88480983D01*
X187581513Y-88487149D01*
X187497918Y-88628501D01*
X187452099Y-88786213D01*
X187451904Y-88788698D01*
X187451905Y-88788700D01*
X190496495Y-88788700D01*
X190496495Y-88788698D01*
X190496300Y-88786213D01*
X190450481Y-88628501D01*
X190407794Y-88556321D01*
X190390611Y-88488597D01*
X190412771Y-88422335D01*
X190467237Y-88378571D01*
X190514526Y-88369200D01*
X190970160Y-88369200D01*
X191037199Y-88388885D01*
X191057842Y-88405520D01*
X191107307Y-88454986D01*
X191107311Y-88454989D01*
X191238414Y-88542590D01*
X191238427Y-88542597D01*
X191338078Y-88583873D01*
X191384103Y-88602937D01*
X191511787Y-88628335D01*
X191538753Y-88633699D01*
X191538756Y-88633700D01*
X191538758Y-88633700D01*
X191696444Y-88633700D01*
X191696445Y-88633699D01*
X191851097Y-88602937D01*
X191996779Y-88542594D01*
X192127889Y-88454989D01*
X192239389Y-88343489D01*
X192326994Y-88212379D01*
X192336887Y-88188492D01*
X192380727Y-88134090D01*
X192447021Y-88112024D01*
X192514721Y-88129302D01*
X192554551Y-88167054D01*
X192570610Y-88191088D01*
X192570613Y-88191092D01*
X192682107Y-88302586D01*
X192682111Y-88302589D01*
X192813214Y-88390190D01*
X192813227Y-88390197D01*
X192931231Y-88439075D01*
X192958903Y-88450537D01*
X193067810Y-88472200D01*
X193113553Y-88481299D01*
X193113556Y-88481300D01*
X193113558Y-88481300D01*
X193271244Y-88481300D01*
X193271245Y-88481299D01*
X193425897Y-88450537D01*
X193571579Y-88390194D01*
X193600249Y-88371036D01*
X193666922Y-88350157D01*
X193721627Y-88363343D01*
X193721992Y-88362463D01*
X193727584Y-88364779D01*
X193727603Y-88364784D01*
X193727615Y-88364790D01*
X193727621Y-88364794D01*
X193727627Y-88364796D01*
X193727628Y-88364797D01*
X193825943Y-88405520D01*
X193873303Y-88425137D01*
X193985161Y-88447387D01*
X194027953Y-88455899D01*
X194027956Y-88455900D01*
X194027958Y-88455900D01*
X194185644Y-88455900D01*
X194185645Y-88455899D01*
X194340297Y-88425137D01*
X194475342Y-88369200D01*
X194485972Y-88364797D01*
X194485972Y-88364796D01*
X194485979Y-88364794D01*
X194617089Y-88277189D01*
X194728589Y-88165689D01*
X194816194Y-88034579D01*
X194821706Y-88021273D01*
X194876535Y-87888901D01*
X194876537Y-87888897D01*
X194907300Y-87734242D01*
X194907300Y-87576558D01*
X194907300Y-87576555D01*
X194907299Y-87576553D01*
X194896830Y-87523922D01*
X194876537Y-87421903D01*
X194863366Y-87390104D01*
X194816197Y-87276227D01*
X194816190Y-87276214D01*
X194728198Y-87144525D01*
X194722547Y-87126478D01*
X194712323Y-87110569D01*
X194707871Y-87079607D01*
X194707320Y-87077847D01*
X194707300Y-87075634D01*
X194707300Y-86991497D01*
X194726985Y-86924458D01*
X194779789Y-86878703D01*
X194848947Y-86868759D01*
X194912503Y-86897784D01*
X194918956Y-86903792D01*
X194994384Y-86979220D01*
X195053664Y-87013445D01*
X195131311Y-87058275D01*
X195131312Y-87058275D01*
X195131315Y-87058277D01*
X195284043Y-87099201D01*
X195284046Y-87099201D01*
X195449754Y-87099201D01*
X195449770Y-87099200D01*
X196252946Y-87099200D01*
X196319985Y-87118885D01*
X196365740Y-87171689D01*
X196375684Y-87240847D01*
X196372721Y-87255290D01*
X196347699Y-87348675D01*
X196347699Y-87348677D01*
X196347699Y-87516778D01*
X196347700Y-87516791D01*
X196347700Y-88814484D01*
X196328015Y-88881523D01*
X196275211Y-88927278D01*
X196243591Y-88935802D01*
X196243732Y-88936511D01*
X196083110Y-88968461D01*
X196083098Y-88968464D01*
X195937427Y-89028802D01*
X195937414Y-89028809D01*
X195806311Y-89116410D01*
X195806307Y-89116413D01*
X195694813Y-89227907D01*
X195694810Y-89227911D01*
X195673108Y-89260391D01*
X195619495Y-89305196D01*
X195570006Y-89315500D01*
X192832366Y-89315500D01*
X192765327Y-89295815D01*
X192763475Y-89294602D01*
X192631785Y-89206609D01*
X192631772Y-89206602D01*
X192486101Y-89146264D01*
X192486089Y-89146261D01*
X192331445Y-89115500D01*
X192331442Y-89115500D01*
X192173758Y-89115500D01*
X192173755Y-89115500D01*
X192019110Y-89146261D01*
X192019098Y-89146264D01*
X191873427Y-89206602D01*
X191873414Y-89206609D01*
X191742311Y-89294210D01*
X191742307Y-89294213D01*
X191630813Y-89405707D01*
X191630810Y-89405711D01*
X191543209Y-89536814D01*
X191543202Y-89536827D01*
X191482864Y-89682498D01*
X191482861Y-89682510D01*
X191452100Y-89837153D01*
X191452100Y-89971035D01*
X191432415Y-90038074D01*
X191379611Y-90083829D01*
X191310453Y-90093773D01*
X191246897Y-90064748D01*
X191240419Y-90058716D01*
X190535013Y-89353310D01*
X190452689Y-89270986D01*
X190452688Y-89270984D01*
X190340884Y-89159180D01*
X190340882Y-89159179D01*
X190340877Y-89159175D01*
X190240796Y-89101394D01*
X190240795Y-89101393D01*
X190240795Y-89101394D01*
X190203953Y-89080123D01*
X190194205Y-89077511D01*
X190051225Y-89039199D01*
X189893111Y-89039199D01*
X189885515Y-89039199D01*
X189885499Y-89039200D01*
X183259397Y-89039200D01*
X183192358Y-89019515D01*
X183171716Y-89002881D01*
X181860374Y-87691539D01*
X181826889Y-87630216D01*
X181826438Y-87628049D01*
X181804304Y-87516778D01*
X181795537Y-87472703D01*
X181766241Y-87401975D01*
X181735197Y-87327027D01*
X181735190Y-87327014D01*
X181647589Y-87195911D01*
X181647586Y-87195907D01*
X181536092Y-87084413D01*
X181536088Y-87084410D01*
X181404985Y-86996809D01*
X181399609Y-86993936D01*
X181400812Y-86991683D01*
X181355084Y-86954811D01*
X181333038Y-86888511D01*
X181350336Y-86820816D01*
X181369275Y-86796443D01*
X182450978Y-85714741D01*
X182450982Y-85714739D01*
X182590339Y-85575382D01*
X182591303Y-85574418D01*
X182652626Y-85540934D01*
X182652626Y-85540933D01*
X182652632Y-85540933D01*
X182678984Y-85538100D01*
X187738691Y-85538100D01*
X187805730Y-85557785D01*
G37*
%TD.AperFunction*%
%TA.AperFunction,Conductor*%
G36*
X210562000Y-88466988D02*
G01*
X210504993Y-88434075D01*
X210377826Y-88400000D01*
X210246174Y-88400000D01*
X210119007Y-88434075D01*
X210062000Y-88466988D01*
X210062000Y-86793012D01*
X210119007Y-86825925D01*
X210246174Y-86860000D01*
X210377826Y-86860000D01*
X210504993Y-86825925D01*
X210562000Y-86793012D01*
X210562000Y-88466988D01*
G37*
%TD.AperFunction*%
%TA.AperFunction,Conductor*%
G36*
X210562000Y-85926988D02*
G01*
X210504993Y-85894075D01*
X210377826Y-85860000D01*
X210246174Y-85860000D01*
X210119007Y-85894075D01*
X210062000Y-85926988D01*
X210062000Y-84253012D01*
X210119007Y-84285925D01*
X210246174Y-84320000D01*
X210377826Y-84320000D01*
X210504993Y-84285925D01*
X210562000Y-84253012D01*
X210562000Y-85926988D01*
G37*
%TD.AperFunction*%
%TA.AperFunction,Conductor*%
G36*
X184603200Y-81794430D02*
G01*
X184669326Y-81783957D01*
X184669329Y-81783957D01*
X184871417Y-81718295D01*
X185060757Y-81621820D01*
X185232659Y-81496927D01*
X185232664Y-81496923D01*
X185382923Y-81346664D01*
X185382927Y-81346659D01*
X185507820Y-81174758D01*
X185512432Y-81165707D01*
X185560405Y-81114909D01*
X185628225Y-81098112D01*
X185694361Y-81120647D01*
X185733404Y-81165704D01*
X185738149Y-81175017D01*
X185863090Y-81346986D01*
X186013413Y-81497309D01*
X186185379Y-81622248D01*
X186185381Y-81622249D01*
X186185384Y-81622251D01*
X186374788Y-81718757D01*
X186576957Y-81784446D01*
X186786913Y-81817700D01*
X186786914Y-81817700D01*
X186999486Y-81817700D01*
X186999487Y-81817700D01*
X187209443Y-81784446D01*
X187411612Y-81718757D01*
X187601016Y-81622251D01*
X187687338Y-81559535D01*
X187772986Y-81497309D01*
X187772988Y-81497306D01*
X187772992Y-81497304D01*
X187923304Y-81346992D01*
X187923306Y-81346988D01*
X187923309Y-81346986D01*
X188048248Y-81175020D01*
X188048250Y-81175017D01*
X188048251Y-81175016D01*
X188052714Y-81166254D01*
X188100688Y-81115459D01*
X188168508Y-81098663D01*
X188234644Y-81121199D01*
X188273686Y-81166256D01*
X188278151Y-81175020D01*
X188403090Y-81346986D01*
X188553413Y-81497309D01*
X188725379Y-81622248D01*
X188725381Y-81622249D01*
X188725384Y-81622251D01*
X188914788Y-81718757D01*
X189116957Y-81784446D01*
X189326913Y-81817700D01*
X189326914Y-81817700D01*
X189539486Y-81817700D01*
X189539487Y-81817700D01*
X189749443Y-81784446D01*
X189951612Y-81718757D01*
X190141016Y-81622251D01*
X190227338Y-81559535D01*
X190312986Y-81497309D01*
X190312988Y-81497306D01*
X190312992Y-81497304D01*
X190463304Y-81346992D01*
X190463306Y-81346988D01*
X190463309Y-81346986D01*
X190588248Y-81175020D01*
X190588250Y-81175017D01*
X190588251Y-81175016D01*
X190592714Y-81166254D01*
X190640688Y-81115459D01*
X190708508Y-81098663D01*
X190774644Y-81121199D01*
X190813686Y-81166256D01*
X190818151Y-81175020D01*
X190943090Y-81346986D01*
X191093413Y-81497309D01*
X191265379Y-81622248D01*
X191265381Y-81622249D01*
X191265384Y-81622251D01*
X191454788Y-81718757D01*
X191656957Y-81784446D01*
X191866913Y-81817700D01*
X191866914Y-81817700D01*
X192079486Y-81817700D01*
X192079487Y-81817700D01*
X192289443Y-81784446D01*
X192491612Y-81718757D01*
X192681016Y-81622251D01*
X192767338Y-81559535D01*
X192852986Y-81497309D01*
X192852988Y-81497306D01*
X192852992Y-81497304D01*
X193003304Y-81346992D01*
X193003306Y-81346988D01*
X193003309Y-81346986D01*
X193128248Y-81175020D01*
X193128250Y-81175017D01*
X193128251Y-81175016D01*
X193132714Y-81166254D01*
X193180688Y-81115459D01*
X193248508Y-81098663D01*
X193314644Y-81121199D01*
X193353686Y-81166256D01*
X193358151Y-81175020D01*
X193483090Y-81346986D01*
X193633413Y-81497309D01*
X193805379Y-81622248D01*
X193805381Y-81622249D01*
X193805384Y-81622251D01*
X193994788Y-81718757D01*
X194196957Y-81784446D01*
X194406913Y-81817700D01*
X194406914Y-81817700D01*
X194619486Y-81817700D01*
X194619487Y-81817700D01*
X194829443Y-81784446D01*
X195031612Y-81718757D01*
X195221016Y-81622251D01*
X195307338Y-81559535D01*
X195392986Y-81497309D01*
X195392988Y-81497306D01*
X195392992Y-81497304D01*
X195543304Y-81346992D01*
X195543306Y-81346988D01*
X195543309Y-81346986D01*
X195668248Y-81175020D01*
X195668250Y-81175017D01*
X195668251Y-81175016D01*
X195672714Y-81166254D01*
X195720688Y-81115459D01*
X195788508Y-81098663D01*
X195854644Y-81121199D01*
X195893686Y-81166256D01*
X195898151Y-81175020D01*
X196023090Y-81346986D01*
X196173413Y-81497309D01*
X196345379Y-81622248D01*
X196345381Y-81622249D01*
X196345384Y-81622251D01*
X196534788Y-81718757D01*
X196736957Y-81784446D01*
X196946913Y-81817700D01*
X196946914Y-81817700D01*
X197159486Y-81817700D01*
X197159487Y-81817700D01*
X197369443Y-81784446D01*
X197411723Y-81770707D01*
X197481562Y-81768711D01*
X197537722Y-81800957D01*
X199769181Y-84032416D01*
X199802666Y-84093739D01*
X199805500Y-84120097D01*
X199805500Y-84561034D01*
X199785815Y-84628073D01*
X199784602Y-84629925D01*
X199696609Y-84761614D01*
X199696602Y-84761627D01*
X199636264Y-84907298D01*
X199636261Y-84907310D01*
X199605500Y-85061953D01*
X199605500Y-85219646D01*
X199636261Y-85374289D01*
X199636264Y-85374301D01*
X199696602Y-85519972D01*
X199696609Y-85519985D01*
X199785811Y-85653485D01*
X199786343Y-85653883D01*
X199786678Y-85654782D01*
X199787595Y-85656154D01*
X199787270Y-85656370D01*
X199797621Y-85684122D01*
X199810244Y-85713850D01*
X199809761Y-85716668D01*
X199810760Y-85719347D01*
X199803899Y-85750885D01*
X199798446Y-85782716D01*
X199796330Y-85785676D01*
X199795908Y-85787620D01*
X199774757Y-85815874D01*
X199743220Y-85847411D01*
X199681897Y-85880896D01*
X199612205Y-85875912D01*
X199567858Y-85847411D01*
X199551070Y-85830623D01*
X199551062Y-85830617D01*
X199462845Y-85778446D01*
X199409598Y-85746956D01*
X199409597Y-85746955D01*
X199409596Y-85746955D01*
X199409593Y-85746954D01*
X199251773Y-85701102D01*
X199251767Y-85701101D01*
X199214901Y-85698200D01*
X199214894Y-85698200D01*
X197333506Y-85698200D01*
X197333498Y-85698200D01*
X197296632Y-85701101D01*
X197296626Y-85701102D01*
X197138806Y-85746954D01*
X197138803Y-85746955D01*
X196997337Y-85830617D01*
X196997329Y-85830623D01*
X196966074Y-85861880D01*
X196904752Y-85895366D01*
X196878392Y-85898200D01*
X195663198Y-85898200D01*
X195596159Y-85878515D01*
X195575517Y-85861881D01*
X195233608Y-85519972D01*
X194829795Y-85116160D01*
X194796311Y-85054838D01*
X194801295Y-84985147D01*
X194843167Y-84929213D01*
X194908631Y-84904796D01*
X194941669Y-84906863D01*
X195034355Y-84925300D01*
X195034358Y-84925300D01*
X195192044Y-84925300D01*
X195192045Y-84925299D01*
X195346697Y-84894537D01*
X195492379Y-84834194D01*
X195623489Y-84746589D01*
X195734989Y-84635089D01*
X195822594Y-84503979D01*
X195882937Y-84358297D01*
X195913700Y-84203642D01*
X195913700Y-84045958D01*
X195913700Y-84045955D01*
X195913699Y-84045953D01*
X195896291Y-83958439D01*
X195882937Y-83891303D01*
X195826137Y-83754174D01*
X195822597Y-83745627D01*
X195822590Y-83745614D01*
X195734989Y-83614511D01*
X195734986Y-83614507D01*
X195623492Y-83503013D01*
X195623488Y-83503010D01*
X195492385Y-83415409D01*
X195492372Y-83415402D01*
X195346701Y-83355064D01*
X195346689Y-83355061D01*
X195192045Y-83324300D01*
X195192042Y-83324300D01*
X195034358Y-83324300D01*
X195034355Y-83324300D01*
X194879710Y-83355061D01*
X194879698Y-83355064D01*
X194734027Y-83415402D01*
X194734014Y-83415409D01*
X194602325Y-83503402D01*
X194535647Y-83524280D01*
X194533434Y-83524300D01*
X193060966Y-83524300D01*
X192993927Y-83504615D01*
X192992075Y-83503402D01*
X192860385Y-83415409D01*
X192860372Y-83415402D01*
X192714701Y-83355064D01*
X192714689Y-83355061D01*
X192560045Y-83324300D01*
X192560042Y-83324300D01*
X192402358Y-83324300D01*
X192402355Y-83324300D01*
X192247710Y-83355061D01*
X192247698Y-83355064D01*
X192102027Y-83415402D01*
X192102014Y-83415409D01*
X191970911Y-83503010D01*
X191970907Y-83503013D01*
X191859413Y-83614507D01*
X191859410Y-83614511D01*
X191771809Y-83745614D01*
X191771802Y-83745627D01*
X191711464Y-83891298D01*
X191711461Y-83891310D01*
X191680700Y-84045953D01*
X191680700Y-84209734D01*
X191678771Y-84209734D01*
X191667406Y-84269609D01*
X191619334Y-84320312D01*
X191557031Y-84337100D01*
X182937700Y-84337100D01*
X182870661Y-84317415D01*
X182824906Y-84264611D01*
X182813700Y-84213100D01*
X182813700Y-81881341D01*
X182833385Y-81814302D01*
X182886189Y-81768547D01*
X182894349Y-81765166D01*
X182905531Y-81760996D01*
X183020746Y-81674746D01*
X183106996Y-81559531D01*
X183156202Y-81427601D01*
X183198072Y-81371668D01*
X183263537Y-81347250D01*
X183331810Y-81362101D01*
X183360065Y-81383253D01*
X183473735Y-81496923D01*
X183473740Y-81496927D01*
X183645642Y-81621820D01*
X183834982Y-81718295D01*
X184037071Y-81783957D01*
X184103200Y-81794431D01*
X184103200Y-80900212D01*
X184160207Y-80933125D01*
X184287374Y-80967200D01*
X184419026Y-80967200D01*
X184546193Y-80933125D01*
X184603200Y-80900212D01*
X184603200Y-81794430D01*
G37*
%TD.AperFunction*%
%TA.AperFunction,Conductor*%
G36*
X210562000Y-83386988D02*
G01*
X210504993Y-83354075D01*
X210377826Y-83320000D01*
X210246174Y-83320000D01*
X210119007Y-83354075D01*
X210062000Y-83386988D01*
X210062000Y-81713012D01*
X210119007Y-81745925D01*
X210246174Y-81780000D01*
X210377826Y-81780000D01*
X210504993Y-81745925D01*
X210562000Y-81713012D01*
X210562000Y-83386988D01*
G37*
%TD.AperFunction*%
%TA.AperFunction,Conductor*%
G36*
X210562000Y-80846988D02*
G01*
X210504993Y-80814075D01*
X210377826Y-80780000D01*
X210246174Y-80780000D01*
X210119007Y-80814075D01*
X210062000Y-80846988D01*
X210062000Y-79173012D01*
X210119007Y-79205925D01*
X210246174Y-79240000D01*
X210377826Y-79240000D01*
X210504993Y-79205925D01*
X210562000Y-79173012D01*
X210562000Y-80846988D01*
G37*
%TD.AperFunction*%
%TA.AperFunction,Conductor*%
G36*
X200491539Y-67174785D02*
G01*
X200537294Y-67227589D01*
X200548500Y-67279100D01*
X200548500Y-68419018D01*
X200528815Y-68486057D01*
X200512181Y-68506699D01*
X200147674Y-68871205D01*
X200086351Y-68904690D01*
X200016659Y-68899706D01*
X199960726Y-68857834D01*
X199936309Y-68792370D01*
X199951161Y-68724097D01*
X199954455Y-68718426D01*
X200004355Y-68637526D01*
X200004358Y-68637519D01*
X200059505Y-68471097D01*
X200059506Y-68471090D01*
X200069999Y-68368386D01*
X200070000Y-68368373D01*
X200070000Y-68093400D01*
X199194000Y-68093400D01*
X199126961Y-68073715D01*
X199081206Y-68020911D01*
X199070000Y-67969400D01*
X199070000Y-67717400D01*
X199089685Y-67650361D01*
X199142489Y-67604606D01*
X199194000Y-67593400D01*
X200069999Y-67593400D01*
X200069999Y-67318428D01*
X200069997Y-67318408D01*
X200067270Y-67291700D01*
X200070072Y-67276628D01*
X200067890Y-67261453D01*
X200076328Y-67242974D01*
X200080041Y-67223007D01*
X200090545Y-67211843D01*
X200096915Y-67197897D01*
X200114003Y-67186914D01*
X200127922Y-67172124D01*
X200143672Y-67167847D01*
X200155693Y-67160123D01*
X200190628Y-67155100D01*
X200424500Y-67155100D01*
X200491539Y-67174785D01*
G37*
%TD.AperFunction*%
%TA.AperFunction,Conductor*%
G36*
X195242703Y-66710670D02*
G01*
X195249181Y-66716702D01*
X195444575Y-66912096D01*
X195446637Y-66914208D01*
X195465292Y-66933773D01*
X195465296Y-66933777D01*
X195471057Y-66939818D01*
X195508181Y-66978752D01*
X195508182Y-66978753D01*
X195600726Y-67055165D01*
X195600729Y-67055167D01*
X195731606Y-67114938D01*
X195798645Y-67134623D01*
X195798649Y-67134624D01*
X195813145Y-67136708D01*
X195876701Y-67165732D01*
X195914477Y-67224510D01*
X195919500Y-67259446D01*
X195919500Y-67941822D01*
X195950290Y-68136226D01*
X196011118Y-68323432D01*
X196063790Y-68426806D01*
X196076686Y-68495475D01*
X196050409Y-68560215D01*
X195993303Y-68600472D01*
X195953305Y-68607100D01*
X195654784Y-68607100D01*
X195635545Y-68608848D01*
X195584207Y-68613513D01*
X195421793Y-68664122D01*
X195331965Y-68718426D01*
X195276215Y-68752128D01*
X195276214Y-68752128D01*
X195275850Y-68752349D01*
X195261849Y-68756045D01*
X195249887Y-68764206D01*
X195228742Y-68764786D01*
X195208295Y-68770185D01*
X195193228Y-68765761D01*
X195180043Y-68766123D01*
X195147548Y-68752348D01*
X195147186Y-68752129D01*
X195147185Y-68752128D01*
X195097347Y-68721999D01*
X195050162Y-68670471D01*
X195037500Y-68615884D01*
X195037500Y-66804383D01*
X195057185Y-66737344D01*
X195109989Y-66691589D01*
X195179147Y-66681645D01*
X195242703Y-66710670D01*
G37*
%TD.AperFunction*%
%TA.AperFunction,Conductor*%
G36*
X190668241Y-66965378D02*
G01*
X190670397Y-66966205D01*
X190739532Y-66993468D01*
X190823898Y-67003600D01*
X191040748Y-67003600D01*
X191042438Y-67004096D01*
X191044143Y-67003646D01*
X191075849Y-67013907D01*
X191107787Y-67023285D01*
X191108940Y-67024616D01*
X191110618Y-67025159D01*
X191131739Y-67050927D01*
X191153542Y-67076089D01*
X191154149Y-67078268D01*
X191154910Y-67079196D01*
X191157575Y-67090553D01*
X191163923Y-67113320D01*
X191164500Y-67118297D01*
X191164500Y-67119744D01*
X191169345Y-67160096D01*
X191169393Y-67160503D01*
X191163511Y-67194727D01*
X191157781Y-67228909D01*
X191157592Y-67229173D01*
X191157560Y-67229363D01*
X191157101Y-67229863D01*
X191133900Y-67262463D01*
X191019385Y-67376980D01*
X190958062Y-67410466D01*
X190931703Y-67413300D01*
X190600184Y-67413300D01*
X190529604Y-67419714D01*
X190512798Y-67424951D01*
X190402387Y-67459355D01*
X190332527Y-67460505D01*
X190273135Y-67423703D01*
X190243067Y-67360634D01*
X190251871Y-67291321D01*
X190277814Y-67253291D01*
X190537229Y-66993877D01*
X190598549Y-66960394D01*
X190668241Y-66965378D01*
G37*
%TD.AperFunction*%
%TA.AperFunction,Conductor*%
G36*
X206379105Y-56886738D02*
G01*
X206401195Y-56888319D01*
X206411977Y-56896391D01*
X206424898Y-56900185D01*
X206439396Y-56916916D01*
X206457128Y-56930191D01*
X206467740Y-56949627D01*
X206470653Y-56952989D01*
X206474030Y-56961140D01*
X206478204Y-56972331D01*
X206478205Y-56972332D01*
X206478206Y-56972335D01*
X206564452Y-57087544D01*
X206564455Y-57087547D01*
X206679665Y-57173794D01*
X206679667Y-57173794D01*
X206679669Y-57173796D01*
X206690830Y-57177958D01*
X206708557Y-57191227D01*
X206728703Y-57200428D01*
X206735983Y-57211756D01*
X206746764Y-57219826D01*
X206754504Y-57240576D01*
X206766477Y-57259206D01*
X206769627Y-57281115D01*
X206771184Y-57285289D01*
X206771500Y-57294141D01*
X206771500Y-57459800D01*
X206751815Y-57526839D01*
X206742506Y-57539365D01*
X206616951Y-57712179D01*
X206520444Y-57901585D01*
X206454753Y-58103760D01*
X206421500Y-58313713D01*
X206421500Y-58526286D01*
X206423459Y-58538655D01*
X206414504Y-58607949D01*
X206369508Y-58661401D01*
X206325178Y-58679670D01*
X206210169Y-58702547D01*
X206210163Y-58702549D01*
X206028087Y-58777967D01*
X205945507Y-58833144D01*
X205900811Y-58851657D01*
X205811306Y-58869461D01*
X205811300Y-58869463D01*
X205665627Y-58929802D01*
X205665614Y-58929809D01*
X205534511Y-59017410D01*
X205534507Y-59017413D01*
X205423013Y-59128907D01*
X205423010Y-59128911D01*
X205335409Y-59260014D01*
X205335402Y-59260027D01*
X205275063Y-59405700D01*
X205275061Y-59405706D01*
X205264792Y-59457333D01*
X205232406Y-59519244D01*
X205230856Y-59520821D01*
X204314820Y-60436859D01*
X201512581Y-63239098D01*
X201498723Y-63246664D01*
X201487939Y-63258197D01*
X201468687Y-63263065D01*
X201451258Y-63272583D01*
X201435509Y-63271456D01*
X201420202Y-63275328D01*
X201401374Y-63269015D01*
X201381566Y-63267599D01*
X201368926Y-63258136D01*
X201353957Y-63253118D01*
X201341530Y-63237627D01*
X201325633Y-63225727D01*
X201319559Y-63210241D01*
X201310235Y-63198618D01*
X201305386Y-63174101D01*
X201301582Y-63164401D01*
X201300900Y-63157923D01*
X201300900Y-63081583D01*
X201276920Y-62930179D01*
X201276581Y-62926957D01*
X201276818Y-62925655D01*
X201275899Y-62913973D01*
X201275899Y-62879998D01*
X201275898Y-62879981D01*
X201265399Y-62777203D01*
X201265398Y-62777200D01*
X201263322Y-62770935D01*
X201210214Y-62610666D01*
X201118112Y-62461344D01*
X200994056Y-62337288D01*
X200990739Y-62335242D01*
X200988942Y-62333245D01*
X200988389Y-62332807D01*
X200988463Y-62332712D01*
X200944016Y-62283292D01*
X200932796Y-62214329D01*
X200960641Y-62150248D01*
X200990755Y-62124158D01*
X200993749Y-62122311D01*
X201117715Y-61998345D01*
X201209756Y-61849124D01*
X201209758Y-61849119D01*
X201264905Y-61682697D01*
X201264906Y-61682690D01*
X201275399Y-61579986D01*
X201275400Y-61579973D01*
X201275400Y-61530000D01*
X199364322Y-61530000D01*
X199322996Y-61552566D01*
X199296638Y-61555400D01*
X196793401Y-61555400D01*
X196793401Y-61605386D01*
X196803894Y-61708097D01*
X196833778Y-61798280D01*
X196836180Y-61868108D01*
X196800448Y-61928150D01*
X196737928Y-61959343D01*
X196668468Y-61951782D01*
X196650979Y-61942825D01*
X196646491Y-61940057D01*
X196646481Y-61940052D01*
X196485606Y-61886744D01*
X196386322Y-61876600D01*
X196338000Y-61876600D01*
X196338000Y-62702600D01*
X196318315Y-62769639D01*
X196265511Y-62815394D01*
X196214000Y-62826600D01*
X196088000Y-62826600D01*
X196088000Y-62952600D01*
X196068315Y-63019639D01*
X196015511Y-63065394D01*
X195964000Y-63076600D01*
X195113001Y-63076600D01*
X195113001Y-63099922D01*
X195123144Y-63199208D01*
X195153393Y-63290495D01*
X195155795Y-63360323D01*
X195120063Y-63420365D01*
X195057542Y-63451557D01*
X195042330Y-63453320D01*
X195023772Y-63454315D01*
X195018522Y-63454597D01*
X195018518Y-63454597D01*
X195018507Y-63454598D01*
X194992177Y-63457429D01*
X194992150Y-63457432D01*
X194938754Y-63466085D01*
X194938752Y-63466085D01*
X194803947Y-63516366D01*
X194803944Y-63516367D01*
X194803943Y-63516368D01*
X194788479Y-63524811D01*
X194742619Y-63549853D01*
X194742617Y-63549854D01*
X194634180Y-63631030D01*
X194568716Y-63655447D01*
X194500443Y-63640595D01*
X194451038Y-63591190D01*
X194436186Y-63522917D01*
X194438253Y-63507571D01*
X194467500Y-63360541D01*
X194467500Y-63097063D01*
X194487185Y-63030024D01*
X194517188Y-62997797D01*
X194564546Y-62962346D01*
X194650796Y-62847131D01*
X194701091Y-62712283D01*
X194707500Y-62652673D01*
X194707500Y-62553277D01*
X195113000Y-62553277D01*
X195113000Y-62576600D01*
X195838000Y-62576600D01*
X195838000Y-61876600D01*
X195837999Y-61876599D01*
X195789693Y-61876600D01*
X195789675Y-61876601D01*
X195690392Y-61886744D01*
X195529518Y-61940052D01*
X195529507Y-61940057D01*
X195385271Y-62029024D01*
X195385267Y-62029027D01*
X195265427Y-62148867D01*
X195265424Y-62148871D01*
X195176457Y-62293107D01*
X195176452Y-62293118D01*
X195123144Y-62453993D01*
X195113000Y-62553277D01*
X194707500Y-62553277D01*
X194707499Y-61005413D01*
X196793400Y-61005413D01*
X196793400Y-61055400D01*
X197768400Y-61055400D01*
X197768400Y-60305400D01*
X198268400Y-60305400D01*
X198268400Y-61055400D01*
X198704478Y-61055400D01*
X198745804Y-61032834D01*
X198772162Y-61030000D01*
X199800400Y-61030000D01*
X200300400Y-61030000D01*
X201275399Y-61030000D01*
X201275399Y-60980028D01*
X201275398Y-60980013D01*
X201264905Y-60877302D01*
X201209758Y-60710880D01*
X201209756Y-60710875D01*
X201117715Y-60561654D01*
X200993745Y-60437684D01*
X200844524Y-60345643D01*
X200844519Y-60345641D01*
X200678097Y-60290494D01*
X200678090Y-60290493D01*
X200575386Y-60280000D01*
X200300400Y-60280000D01*
X200300400Y-61030000D01*
X199800400Y-61030000D01*
X199800400Y-60280000D01*
X199525429Y-60280000D01*
X199525412Y-60280001D01*
X199422702Y-60290494D01*
X199256280Y-60345641D01*
X199256275Y-60345643D01*
X199107055Y-60437683D01*
X199105233Y-60439506D01*
X199103674Y-60440356D01*
X199101393Y-60442161D01*
X199101084Y-60441770D01*
X199043907Y-60472986D01*
X198974216Y-60467997D01*
X198952462Y-60457357D01*
X198812528Y-60371045D01*
X198812519Y-60371041D01*
X198646097Y-60315894D01*
X198646090Y-60315893D01*
X198543386Y-60305400D01*
X198268400Y-60305400D01*
X197768400Y-60305400D01*
X197493429Y-60305400D01*
X197493412Y-60305401D01*
X197390702Y-60315894D01*
X197224280Y-60371041D01*
X197224275Y-60371043D01*
X197075054Y-60463084D01*
X196951084Y-60587054D01*
X196859043Y-60736275D01*
X196859041Y-60736280D01*
X196803894Y-60902702D01*
X196803893Y-60902709D01*
X196793400Y-61005413D01*
X194707499Y-61005413D01*
X194707499Y-60902709D01*
X194707499Y-59156929D01*
X194707498Y-59156923D01*
X194707497Y-59156916D01*
X194701091Y-59097317D01*
X194651201Y-58963556D01*
X194650797Y-58962471D01*
X194650793Y-58962464D01*
X194564547Y-58847255D01*
X194564544Y-58847252D01*
X194449335Y-58761006D01*
X194449328Y-58761002D01*
X194314482Y-58710708D01*
X194314483Y-58710708D01*
X194254883Y-58704301D01*
X194254881Y-58704300D01*
X194254873Y-58704300D01*
X194254864Y-58704300D01*
X193179129Y-58704300D01*
X193179123Y-58704301D01*
X193119516Y-58710708D01*
X192984671Y-58761002D01*
X192984664Y-58761006D01*
X192869455Y-58847252D01*
X192869452Y-58847255D01*
X192783206Y-58962464D01*
X192783202Y-58962471D01*
X192732908Y-59097317D01*
X192729512Y-59128911D01*
X192726501Y-59156923D01*
X192726500Y-59156935D01*
X192726500Y-62652670D01*
X192726501Y-62652676D01*
X192732908Y-62712283D01*
X192783202Y-62847128D01*
X192783206Y-62847135D01*
X192852348Y-62939496D01*
X192876766Y-63004960D01*
X192861915Y-63073233D01*
X192840763Y-63101488D01*
X192619680Y-63322571D01*
X192558357Y-63356056D01*
X192488665Y-63351072D01*
X192444318Y-63322571D01*
X192223236Y-63101489D01*
X192189751Y-63040166D01*
X192194735Y-62970474D01*
X192211649Y-62939498D01*
X192280796Y-62847131D01*
X192331091Y-62712283D01*
X192337500Y-62652673D01*
X192337499Y-59156928D01*
X192331091Y-59097317D01*
X192281201Y-58963556D01*
X192280797Y-58962471D01*
X192280793Y-58962464D01*
X192194547Y-58847255D01*
X192194544Y-58847252D01*
X192079335Y-58761006D01*
X192079328Y-58761002D01*
X191944482Y-58710708D01*
X191944483Y-58710708D01*
X191884883Y-58704301D01*
X191884881Y-58704300D01*
X191884873Y-58704300D01*
X191884864Y-58704300D01*
X190809129Y-58704300D01*
X190809123Y-58704301D01*
X190749516Y-58710708D01*
X190614671Y-58761002D01*
X190614664Y-58761006D01*
X190499455Y-58847252D01*
X190499452Y-58847255D01*
X190413206Y-58962464D01*
X190413202Y-58962471D01*
X190362908Y-59097317D01*
X190359512Y-59128911D01*
X190356501Y-59156923D01*
X190356500Y-59156935D01*
X190356500Y-61543833D01*
X190336815Y-61610872D01*
X190284011Y-61656627D01*
X190214853Y-61666571D01*
X190151297Y-61637546D01*
X190144819Y-61631514D01*
X190135932Y-61622627D01*
X190135928Y-61622624D01*
X189991692Y-61533657D01*
X189991681Y-61533652D01*
X189830806Y-61480344D01*
X189731522Y-61470200D01*
X189683200Y-61470200D01*
X189683200Y-62296200D01*
X189663515Y-62363239D01*
X189610711Y-62408994D01*
X189559200Y-62420200D01*
X189433200Y-62420200D01*
X189433200Y-62546200D01*
X189413515Y-62613239D01*
X189360711Y-62658994D01*
X189309200Y-62670200D01*
X188458201Y-62670200D01*
X188458201Y-62693522D01*
X188468344Y-62792807D01*
X188514831Y-62933096D01*
X188517233Y-63002925D01*
X188481501Y-63062966D01*
X188418980Y-63094159D01*
X188397125Y-63096100D01*
X187962900Y-63096100D01*
X187895861Y-63076415D01*
X187850106Y-63023611D01*
X187838900Y-62972100D01*
X187838900Y-62700577D01*
X187815426Y-62552371D01*
X187813899Y-62532973D01*
X187813899Y-62498998D01*
X187813898Y-62498981D01*
X187803399Y-62396203D01*
X187803398Y-62396200D01*
X187793254Y-62365587D01*
X187748214Y-62229666D01*
X187697150Y-62146877D01*
X188458200Y-62146877D01*
X188458200Y-62170200D01*
X189183200Y-62170200D01*
X189183200Y-61470200D01*
X189183199Y-61470199D01*
X189134893Y-61470200D01*
X189134875Y-61470201D01*
X189035592Y-61480344D01*
X188874718Y-61533652D01*
X188874707Y-61533657D01*
X188730471Y-61622624D01*
X188730467Y-61622627D01*
X188610627Y-61742467D01*
X188610624Y-61742471D01*
X188521657Y-61886707D01*
X188521652Y-61886718D01*
X188468344Y-62047593D01*
X188458200Y-62146877D01*
X187697150Y-62146877D01*
X187656112Y-62080344D01*
X187532056Y-61956288D01*
X187528739Y-61954242D01*
X187526942Y-61952245D01*
X187526389Y-61951807D01*
X187526463Y-61951712D01*
X187482016Y-61902292D01*
X187470796Y-61833329D01*
X187498641Y-61769248D01*
X187528755Y-61743158D01*
X187531749Y-61741311D01*
X187655715Y-61617345D01*
X187747756Y-61468124D01*
X187747758Y-61468119D01*
X187802905Y-61301697D01*
X187802906Y-61301690D01*
X187813399Y-61198986D01*
X187813400Y-61198973D01*
X187813400Y-61149000D01*
X183331401Y-61149000D01*
X183331401Y-61198986D01*
X183341894Y-61301697D01*
X183397041Y-61468119D01*
X183397043Y-61468124D01*
X183489084Y-61617345D01*
X183613055Y-61741316D01*
X183616048Y-61743162D01*
X183617671Y-61744966D01*
X183618723Y-61745798D01*
X183618580Y-61745977D01*
X183662777Y-61795106D01*
X183674004Y-61864068D01*
X183646165Y-61928152D01*
X183616064Y-61954239D01*
X183612746Y-61956285D01*
X183488687Y-62080345D01*
X183396587Y-62229663D01*
X183396585Y-62229668D01*
X183381102Y-62276393D01*
X183341401Y-62396203D01*
X183341401Y-62396204D01*
X183341400Y-62396204D01*
X183330898Y-62499000D01*
X183330806Y-62500824D01*
X183330674Y-62501201D01*
X183330579Y-62502132D01*
X183330356Y-62502109D01*
X183307736Y-62566775D01*
X183252672Y-62609783D01*
X183183097Y-62616195D01*
X183134081Y-62594832D01*
X183116064Y-62581742D01*
X183027034Y-62517057D01*
X182991591Y-62498998D01*
X182816596Y-62409833D01*
X182591968Y-62336846D01*
X182358697Y-62299900D01*
X182358692Y-62299900D01*
X177789289Y-62299900D01*
X177722250Y-62280215D01*
X177676495Y-62227411D01*
X177666551Y-62158253D01*
X177695576Y-62094697D01*
X177701608Y-62088219D01*
X179190814Y-60599013D01*
X183331400Y-60599013D01*
X183331400Y-60649000D01*
X184306400Y-60649000D01*
X184806400Y-60649000D01*
X186338400Y-60649000D01*
X186838400Y-60649000D01*
X187813399Y-60649000D01*
X187813399Y-60599028D01*
X187813398Y-60599013D01*
X187802905Y-60496302D01*
X187747758Y-60329880D01*
X187747756Y-60329875D01*
X187655715Y-60180654D01*
X187531745Y-60056684D01*
X187382524Y-59964643D01*
X187382519Y-59964641D01*
X187216097Y-59909494D01*
X187216090Y-59909493D01*
X187113386Y-59899000D01*
X186838400Y-59899000D01*
X186838400Y-60649000D01*
X186338400Y-60649000D01*
X186338400Y-59899000D01*
X186063429Y-59899000D01*
X186063412Y-59899001D01*
X185960702Y-59909494D01*
X185794280Y-59964641D01*
X185794275Y-59964643D01*
X185638909Y-60060475D01*
X185637449Y-60058108D01*
X185584488Y-60079461D01*
X185515849Y-60066406D01*
X185506098Y-60060139D01*
X185505891Y-60060475D01*
X185350524Y-59964643D01*
X185350519Y-59964641D01*
X185184097Y-59909494D01*
X185184090Y-59909493D01*
X185081386Y-59899000D01*
X184806400Y-59899000D01*
X184806400Y-60649000D01*
X184306400Y-60649000D01*
X184306400Y-59899000D01*
X184031429Y-59899000D01*
X184031412Y-59899001D01*
X183928702Y-59909494D01*
X183762280Y-59964641D01*
X183762275Y-59964643D01*
X183613054Y-60056684D01*
X183489084Y-60180654D01*
X183397043Y-60329875D01*
X183397041Y-60329880D01*
X183341894Y-60496302D01*
X183341893Y-60496309D01*
X183331400Y-60599013D01*
X179190814Y-60599013D01*
X182373008Y-57416819D01*
X182434331Y-57383334D01*
X182460689Y-57380500D01*
X205197697Y-57380500D01*
X205430968Y-57343553D01*
X205655592Y-57270568D01*
X205866033Y-57163343D01*
X206057110Y-57024517D01*
X206164808Y-56916819D01*
X206226131Y-56883334D01*
X206252489Y-56880500D01*
X206357859Y-56880500D01*
X206379105Y-56886738D01*
G37*
%TD.AperFunction*%
%TA.AperFunction,Conductor*%
G36*
X209846075Y-60767007D02*
G01*
X209812000Y-60894174D01*
X209812000Y-61025826D01*
X209846075Y-61152993D01*
X209878988Y-61210000D01*
X209847500Y-61210000D01*
X209780461Y-61190315D01*
X209734706Y-61137511D01*
X209723500Y-61086000D01*
X209723500Y-60834000D01*
X209743185Y-60766961D01*
X209795989Y-60721206D01*
X209847500Y-60710000D01*
X209878988Y-60710000D01*
X209846075Y-60767007D01*
G37*
%TD.AperFunction*%
%TA.AperFunction,Conductor*%
G36*
X208265539Y-60729685D02*
G01*
X208311294Y-60782489D01*
X208322500Y-60834000D01*
X208322500Y-61086000D01*
X208302815Y-61153039D01*
X208250011Y-61198794D01*
X208205947Y-61208379D01*
X208237925Y-61152993D01*
X208272000Y-61025826D01*
X208272000Y-60894174D01*
X208237925Y-60767007D01*
X208206341Y-60712302D01*
X208265539Y-60729685D01*
G37*
%TD.AperFunction*%
%TA.AperFunction,Conductor*%
G36*
X220422539Y-53860185D02*
G01*
X220468294Y-53912989D01*
X220479500Y-53964500D01*
X220479500Y-106055500D01*
X220459815Y-106122539D01*
X220407011Y-106168294D01*
X220355500Y-106179500D01*
X155564500Y-106179500D01*
X155497461Y-106159815D01*
X155451706Y-106107011D01*
X155440500Y-106055500D01*
X155440500Y-101418234D01*
X156320000Y-101418234D01*
X156320000Y-101781765D01*
X156355632Y-102143556D01*
X156426550Y-102500090D01*
X156426553Y-102500101D01*
X156532086Y-102847997D01*
X156671207Y-103183864D01*
X156671209Y-103183869D01*
X156842570Y-103504462D01*
X156842581Y-103504480D01*
X157044551Y-103806750D01*
X157231678Y-104034765D01*
X157231679Y-104034766D01*
X158725747Y-102540697D01*
X158799588Y-102642330D01*
X158977670Y-102820412D01*
X159079301Y-102894251D01*
X157585232Y-104388319D01*
X157585233Y-104388320D01*
X157813249Y-104575448D01*
X158115519Y-104777418D01*
X158115537Y-104777429D01*
X158436130Y-104948790D01*
X158436135Y-104948792D01*
X158772002Y-105087913D01*
X159119898Y-105193446D01*
X159119909Y-105193449D01*
X159476443Y-105264367D01*
X159838234Y-105300000D01*
X160201766Y-105300000D01*
X160563556Y-105264367D01*
X160920090Y-105193449D01*
X160920101Y-105193446D01*
X161267997Y-105087913D01*
X161603864Y-104948792D01*
X161603869Y-104948790D01*
X161924462Y-104777429D01*
X161924480Y-104777418D01*
X162226736Y-104575457D01*
X162226750Y-104575447D01*
X162454765Y-104388320D01*
X162454766Y-104388319D01*
X160960698Y-102894251D01*
X161062330Y-102820412D01*
X161240412Y-102642330D01*
X161314251Y-102540698D01*
X162808319Y-104034766D01*
X162808320Y-104034765D01*
X162995447Y-103806750D01*
X162995457Y-103806736D01*
X163055653Y-103716646D01*
X167114000Y-103716646D01*
X167148584Y-103890512D01*
X167148586Y-103890520D01*
X167216428Y-104054307D01*
X167216433Y-104054316D01*
X167314923Y-104201716D01*
X167314926Y-104201720D01*
X167440279Y-104327073D01*
X167440283Y-104327076D01*
X167587683Y-104425566D01*
X167587693Y-104425571D01*
X167751476Y-104493412D01*
X167751483Y-104493415D01*
X167764000Y-104495904D01*
X167764000Y-103628000D01*
X167114000Y-103628000D01*
X167114000Y-103716646D01*
X163055653Y-103716646D01*
X163195236Y-103507747D01*
X163195236Y-103507746D01*
X163197415Y-103504485D01*
X163197429Y-103504462D01*
X163291605Y-103328272D01*
X167764000Y-103328272D01*
X167764000Y-103427728D01*
X167802060Y-103519614D01*
X167872386Y-103589940D01*
X167964272Y-103628000D01*
X168063728Y-103628000D01*
X168155614Y-103589940D01*
X168225940Y-103519614D01*
X168264000Y-103427728D01*
X168264000Y-104495903D01*
X168276516Y-104493415D01*
X168276523Y-104493412D01*
X168440306Y-104425571D01*
X168440315Y-104425566D01*
X168569659Y-104339141D01*
X168636336Y-104318263D01*
X168703716Y-104336747D01*
X168707441Y-104339141D01*
X168836791Y-104425571D01*
X168837453Y-104426013D01*
X168837455Y-104426014D01*
X168837459Y-104426016D01*
X168910435Y-104456243D01*
X169001334Y-104493894D01*
X169001336Y-104493894D01*
X169001341Y-104493896D01*
X169175304Y-104528499D01*
X169175307Y-104528500D01*
X169175309Y-104528500D01*
X169352693Y-104528500D01*
X169352694Y-104528499D01*
X169410682Y-104516964D01*
X169526658Y-104493896D01*
X169526661Y-104493894D01*
X169526666Y-104493894D01*
X169690547Y-104426013D01*
X169820110Y-104339440D01*
X169886784Y-104318563D01*
X169954164Y-104337047D01*
X169957890Y-104339441D01*
X170086791Y-104425571D01*
X170087453Y-104426013D01*
X170087455Y-104426014D01*
X170087459Y-104426016D01*
X170160435Y-104456243D01*
X170251334Y-104493894D01*
X170251336Y-104493894D01*
X170251341Y-104493896D01*
X170425304Y-104528499D01*
X170425307Y-104528500D01*
X170425309Y-104528500D01*
X170602693Y-104528500D01*
X170602694Y-104528499D01*
X170660682Y-104516964D01*
X170776658Y-104493896D01*
X170776661Y-104493894D01*
X170776666Y-104493894D01*
X170940547Y-104426013D01*
X171070110Y-104339440D01*
X171136785Y-104318564D01*
X171204165Y-104337048D01*
X171207890Y-104339442D01*
X171337446Y-104426009D01*
X171337459Y-104426016D01*
X171410435Y-104456243D01*
X171501334Y-104493894D01*
X171501336Y-104493894D01*
X171501341Y-104493896D01*
X171675304Y-104528499D01*
X171675307Y-104528500D01*
X171675309Y-104528500D01*
X171852693Y-104528500D01*
X171852694Y-104528499D01*
X171910682Y-104516964D01*
X172026658Y-104493896D01*
X172026661Y-104493894D01*
X172026666Y-104493894D01*
X172190547Y-104426013D01*
X172320109Y-104339442D01*
X172386786Y-104318564D01*
X172454166Y-104337048D01*
X172457891Y-104339442D01*
X172587446Y-104426008D01*
X172587453Y-104426013D01*
X172587455Y-104426014D01*
X172587459Y-104426016D01*
X172660435Y-104456243D01*
X172751334Y-104493894D01*
X172751336Y-104493894D01*
X172751341Y-104493896D01*
X172925304Y-104528499D01*
X172925307Y-104528500D01*
X172925309Y-104528500D01*
X173102693Y-104528500D01*
X173102694Y-104528499D01*
X173160682Y-104516964D01*
X173276658Y-104493896D01*
X173276661Y-104493894D01*
X173276666Y-104493894D01*
X173440547Y-104426013D01*
X173570109Y-104339442D01*
X173636786Y-104318564D01*
X173704166Y-104337048D01*
X173707891Y-104339442D01*
X173837446Y-104426008D01*
X173837453Y-104426013D01*
X173837455Y-104426014D01*
X173837459Y-104426016D01*
X173910435Y-104456243D01*
X174001334Y-104493894D01*
X174001336Y-104493894D01*
X174001341Y-104493896D01*
X174175304Y-104528499D01*
X174175307Y-104528500D01*
X174175309Y-104528500D01*
X174352693Y-104528500D01*
X174352694Y-104528499D01*
X174410682Y-104516964D01*
X174526658Y-104493896D01*
X174526661Y-104493894D01*
X174526666Y-104493894D01*
X174690547Y-104426013D01*
X174820109Y-104339442D01*
X174886786Y-104318564D01*
X174954166Y-104337048D01*
X174957891Y-104339442D01*
X175087446Y-104426008D01*
X175087453Y-104426013D01*
X175087455Y-104426014D01*
X175087459Y-104426016D01*
X175160435Y-104456243D01*
X175251334Y-104493894D01*
X175251336Y-104493894D01*
X175251341Y-104493896D01*
X175425304Y-104528499D01*
X175425307Y-104528500D01*
X175425309Y-104528500D01*
X175602693Y-104528500D01*
X175602694Y-104528499D01*
X175660682Y-104516964D01*
X175776658Y-104493896D01*
X175776661Y-104493894D01*
X175776666Y-104493894D01*
X175940547Y-104426013D01*
X176070109Y-104339442D01*
X176136786Y-104318564D01*
X176204166Y-104337048D01*
X176207891Y-104339442D01*
X176337446Y-104426008D01*
X176337453Y-104426013D01*
X176337455Y-104426014D01*
X176337459Y-104426016D01*
X176410435Y-104456243D01*
X176501334Y-104493894D01*
X176501336Y-104493894D01*
X176501341Y-104493896D01*
X176675304Y-104528499D01*
X176675307Y-104528500D01*
X176675309Y-104528500D01*
X176852693Y-104528500D01*
X176852694Y-104528499D01*
X176910682Y-104516964D01*
X177026658Y-104493896D01*
X177026661Y-104493894D01*
X177026666Y-104493894D01*
X177190547Y-104426013D01*
X177320109Y-104339442D01*
X177386786Y-104318564D01*
X177454166Y-104337048D01*
X177457891Y-104339442D01*
X177587446Y-104426008D01*
X177587453Y-104426013D01*
X177587455Y-104426014D01*
X177587459Y-104426016D01*
X177660435Y-104456243D01*
X177751334Y-104493894D01*
X177751336Y-104493894D01*
X177751341Y-104493896D01*
X177925304Y-104528499D01*
X177925307Y-104528500D01*
X177925309Y-104528500D01*
X178102693Y-104528500D01*
X178102694Y-104528499D01*
X178160682Y-104516964D01*
X178276658Y-104493896D01*
X178276661Y-104493894D01*
X178276666Y-104493894D01*
X178440547Y-104426013D01*
X178497838Y-104387731D01*
X178564510Y-104366854D01*
X178630873Y-104384716D01*
X178774394Y-104471478D01*
X178936804Y-104522086D01*
X179007384Y-104528500D01*
X179007387Y-104528500D01*
X179520613Y-104528500D01*
X179520616Y-104528500D01*
X179591196Y-104522086D01*
X179753606Y-104471478D01*
X179899185Y-104383472D01*
X180019472Y-104263185D01*
X180107478Y-104117606D01*
X180158086Y-103955196D01*
X180164500Y-103884616D01*
X180164500Y-103234897D01*
X180184185Y-103167858D01*
X180200819Y-103147216D01*
X181898616Y-101449419D01*
X181959939Y-101415934D01*
X181986297Y-101413100D01*
X183743659Y-101413100D01*
X183810698Y-101432785D01*
X183856453Y-101485589D01*
X183866397Y-101554747D01*
X183837372Y-101618303D01*
X183831340Y-101624781D01*
X183756813Y-101699307D01*
X183756810Y-101699311D01*
X183669209Y-101830414D01*
X183669202Y-101830427D01*
X183608864Y-101976098D01*
X183608861Y-101976110D01*
X183578100Y-102130753D01*
X183578100Y-102288446D01*
X183608861Y-102443089D01*
X183608864Y-102443101D01*
X183669202Y-102588772D01*
X183669209Y-102588785D01*
X183756810Y-102719888D01*
X183756813Y-102719892D01*
X183868310Y-102831389D01*
X183996805Y-102917246D01*
X183999421Y-102918994D01*
X184023075Y-102928791D01*
X184063303Y-102955671D01*
X185830586Y-104722954D01*
X185860058Y-104742645D01*
X185904270Y-104772186D01*
X185953505Y-104805084D01*
X185953506Y-104805084D01*
X185953507Y-104805085D01*
X185953509Y-104805086D01*
X186056679Y-104847820D01*
X186090087Y-104861658D01*
X186090091Y-104861658D01*
X186090092Y-104861659D01*
X186235079Y-104890500D01*
X186235082Y-104890500D01*
X186235083Y-104890500D01*
X186382918Y-104890500D01*
X188771501Y-104890500D01*
X188838540Y-104910185D01*
X188884295Y-104962989D01*
X188895501Y-105014500D01*
X188895501Y-105037876D01*
X188901908Y-105097483D01*
X188952202Y-105232328D01*
X188952206Y-105232335D01*
X189038452Y-105347544D01*
X189038455Y-105347547D01*
X189153664Y-105433793D01*
X189153671Y-105433797D01*
X189288517Y-105484091D01*
X189288516Y-105484091D01*
X189295444Y-105484835D01*
X189348127Y-105490500D01*
X191143872Y-105490499D01*
X191203483Y-105484091D01*
X191338331Y-105433796D01*
X191453546Y-105347546D01*
X191539796Y-105232331D01*
X191589002Y-105100401D01*
X191630872Y-105044468D01*
X191696337Y-105020050D01*
X191764610Y-105034901D01*
X191792865Y-105056053D01*
X191906535Y-105169723D01*
X191906540Y-105169727D01*
X192078442Y-105294620D01*
X192267782Y-105391095D01*
X192469871Y-105456757D01*
X192536000Y-105467231D01*
X192536000Y-104573012D01*
X192593007Y-104605925D01*
X192720174Y-104640000D01*
X192851826Y-104640000D01*
X192978993Y-104605925D01*
X193036000Y-104573012D01*
X193036000Y-105467230D01*
X193102126Y-105456757D01*
X193102129Y-105456757D01*
X193304217Y-105391095D01*
X193493557Y-105294620D01*
X193665459Y-105169727D01*
X193665464Y-105169723D01*
X193815723Y-105019464D01*
X193815727Y-105019459D01*
X193940620Y-104847558D01*
X193945232Y-104838507D01*
X193993205Y-104787709D01*
X194061025Y-104770912D01*
X194127161Y-104793447D01*
X194166204Y-104838504D01*
X194170949Y-104847817D01*
X194295890Y-105019786D01*
X194446213Y-105170109D01*
X194618179Y-105295048D01*
X194618181Y-105295049D01*
X194618184Y-105295051D01*
X194807588Y-105391557D01*
X195009757Y-105457246D01*
X195219713Y-105490500D01*
X195219714Y-105490500D01*
X195432286Y-105490500D01*
X195432287Y-105490500D01*
X195642243Y-105457246D01*
X195844412Y-105391557D01*
X196033816Y-105295051D01*
X196120138Y-105232335D01*
X196205786Y-105170109D01*
X196205788Y-105170106D01*
X196205792Y-105170104D01*
X196356104Y-105019792D01*
X196356106Y-105019788D01*
X196356109Y-105019786D01*
X196481048Y-104847820D01*
X196481050Y-104847817D01*
X196481051Y-104847816D01*
X196485514Y-104839054D01*
X196533488Y-104788259D01*
X196601308Y-104771463D01*
X196667444Y-104793999D01*
X196706486Y-104839056D01*
X196710951Y-104847820D01*
X196835890Y-105019786D01*
X196986213Y-105170109D01*
X197158179Y-105295048D01*
X197158181Y-105295049D01*
X197158184Y-105295051D01*
X197347588Y-105391557D01*
X197549757Y-105457246D01*
X197759713Y-105490500D01*
X197759714Y-105490500D01*
X197972286Y-105490500D01*
X197972287Y-105490500D01*
X198182243Y-105457246D01*
X198384412Y-105391557D01*
X198573816Y-105295051D01*
X198660138Y-105232335D01*
X198745786Y-105170109D01*
X198745788Y-105170106D01*
X198745792Y-105170104D01*
X198896104Y-105019792D01*
X198896106Y-105019788D01*
X198896109Y-105019786D01*
X199021048Y-104847820D01*
X199021050Y-104847817D01*
X199021051Y-104847816D01*
X199025514Y-104839054D01*
X199073488Y-104788259D01*
X199141308Y-104771463D01*
X199207444Y-104793999D01*
X199246486Y-104839056D01*
X199250951Y-104847820D01*
X199375890Y-105019786D01*
X199526213Y-105170109D01*
X199698179Y-105295048D01*
X199698181Y-105295049D01*
X199698184Y-105295051D01*
X199887588Y-105391557D01*
X200089757Y-105457246D01*
X200299713Y-105490500D01*
X200299714Y-105490500D01*
X200512286Y-105490500D01*
X200512287Y-105490500D01*
X200722243Y-105457246D01*
X200924412Y-105391557D01*
X201113816Y-105295051D01*
X201200138Y-105232335D01*
X201285786Y-105170109D01*
X201285788Y-105170106D01*
X201285792Y-105170104D01*
X201436104Y-105019792D01*
X201436106Y-105019788D01*
X201436109Y-105019786D01*
X201561048Y-104847820D01*
X201561050Y-104847817D01*
X201561051Y-104847816D01*
X201565514Y-104839054D01*
X201613488Y-104788259D01*
X201681308Y-104771463D01*
X201747444Y-104793999D01*
X201786486Y-104839056D01*
X201790951Y-104847820D01*
X201915890Y-105019786D01*
X202066213Y-105170109D01*
X202238179Y-105295048D01*
X202238181Y-105295049D01*
X202238184Y-105295051D01*
X202427588Y-105391557D01*
X202629757Y-105457246D01*
X202839713Y-105490500D01*
X202839714Y-105490500D01*
X203052286Y-105490500D01*
X203052287Y-105490500D01*
X203262243Y-105457246D01*
X203464412Y-105391557D01*
X203653816Y-105295051D01*
X203740138Y-105232335D01*
X203825786Y-105170109D01*
X203825788Y-105170106D01*
X203825792Y-105170104D01*
X203976104Y-105019792D01*
X203976106Y-105019788D01*
X203976109Y-105019786D01*
X204101048Y-104847820D01*
X204101050Y-104847817D01*
X204101051Y-104847816D01*
X204197557Y-104658412D01*
X204263246Y-104456243D01*
X204281746Y-104339441D01*
X204282681Y-104333538D01*
X204282681Y-104333537D01*
X204296500Y-104246287D01*
X204296500Y-104033713D01*
X204272885Y-103884616D01*
X204263246Y-103823757D01*
X204197557Y-103621588D01*
X204101051Y-103432184D01*
X204101049Y-103432181D01*
X204101048Y-103432179D01*
X203976109Y-103260213D01*
X203825786Y-103109890D01*
X203653820Y-102984951D01*
X203464414Y-102888444D01*
X203464413Y-102888443D01*
X203464412Y-102888443D01*
X203262243Y-102822754D01*
X203262241Y-102822753D01*
X203262240Y-102822753D01*
X203100957Y-102797208D01*
X203052287Y-102789500D01*
X202839713Y-102789500D01*
X202791042Y-102797208D01*
X202629760Y-102822753D01*
X202427585Y-102888444D01*
X202238179Y-102984951D01*
X202066213Y-103109890D01*
X201915890Y-103260213D01*
X201790949Y-103432182D01*
X201786484Y-103440946D01*
X201738509Y-103491742D01*
X201670688Y-103508536D01*
X201604553Y-103485998D01*
X201565516Y-103440946D01*
X201561050Y-103432182D01*
X201436109Y-103260213D01*
X201285786Y-103109890D01*
X201113820Y-102984951D01*
X200924414Y-102888444D01*
X200924413Y-102888443D01*
X200924412Y-102888443D01*
X200722243Y-102822754D01*
X200722241Y-102822753D01*
X200722240Y-102822753D01*
X200560957Y-102797208D01*
X200512287Y-102789500D01*
X200299713Y-102789500D01*
X200251042Y-102797208D01*
X200089760Y-102822753D01*
X199887585Y-102888444D01*
X199698179Y-102984951D01*
X199526213Y-103109890D01*
X199375890Y-103260213D01*
X199250949Y-103432182D01*
X199246484Y-103440946D01*
X199198509Y-103491742D01*
X199130688Y-103508536D01*
X199064553Y-103485998D01*
X199025516Y-103440946D01*
X199021050Y-103432182D01*
X198896109Y-103260213D01*
X198745786Y-103109890D01*
X198573820Y-102984951D01*
X198384414Y-102888444D01*
X198384413Y-102888443D01*
X198384412Y-102888443D01*
X198182243Y-102822754D01*
X198182241Y-102822753D01*
X198182240Y-102822753D01*
X198020957Y-102797208D01*
X197972287Y-102789500D01*
X197759713Y-102789500D01*
X197711042Y-102797208D01*
X197549760Y-102822753D01*
X197347585Y-102888444D01*
X197158179Y-102984951D01*
X196986213Y-103109890D01*
X196835890Y-103260213D01*
X196710949Y-103432182D01*
X196706484Y-103440946D01*
X196658509Y-103491742D01*
X196590688Y-103508536D01*
X196524553Y-103485998D01*
X196485516Y-103440946D01*
X196481050Y-103432182D01*
X196356109Y-103260213D01*
X196205786Y-103109890D01*
X196033820Y-102984951D01*
X195844414Y-102888444D01*
X195844413Y-102888443D01*
X195844412Y-102888443D01*
X195642243Y-102822754D01*
X195642241Y-102822753D01*
X195642240Y-102822753D01*
X195480957Y-102797208D01*
X195432287Y-102789500D01*
X195219713Y-102789500D01*
X195171042Y-102797208D01*
X195009760Y-102822753D01*
X194807585Y-102888444D01*
X194618179Y-102984951D01*
X194446213Y-103109890D01*
X194295890Y-103260213D01*
X194170949Y-103432182D01*
X194166202Y-103441499D01*
X194118227Y-103492293D01*
X194050405Y-103509087D01*
X193984271Y-103486548D01*
X193945234Y-103441495D01*
X193940622Y-103432444D01*
X193815727Y-103260540D01*
X193815723Y-103260535D01*
X193665464Y-103110276D01*
X193665459Y-103110272D01*
X193493557Y-102985379D01*
X193304215Y-102888903D01*
X193102124Y-102823241D01*
X193036000Y-102812768D01*
X193036000Y-103706988D01*
X192978993Y-103674075D01*
X192851826Y-103640000D01*
X192720174Y-103640000D01*
X192593007Y-103674075D01*
X192536000Y-103706988D01*
X192536000Y-102812768D01*
X192535999Y-102812768D01*
X192469875Y-102823241D01*
X192267784Y-102888903D01*
X192078442Y-102985379D01*
X191906541Y-103110271D01*
X191792865Y-103223947D01*
X191731542Y-103257431D01*
X191661850Y-103252447D01*
X191605917Y-103210575D01*
X191589002Y-103179598D01*
X191584623Y-103167858D01*
X191539796Y-103047669D01*
X191539795Y-103047668D01*
X191539793Y-103047664D01*
X191453547Y-102932455D01*
X191453544Y-102932452D01*
X191338335Y-102846206D01*
X191338328Y-102846202D01*
X191203482Y-102795908D01*
X191203483Y-102795908D01*
X191143883Y-102789501D01*
X191143881Y-102789500D01*
X191143873Y-102789500D01*
X191143864Y-102789500D01*
X189348129Y-102789500D01*
X189348123Y-102789501D01*
X189288516Y-102795908D01*
X189153671Y-102846202D01*
X189153664Y-102846206D01*
X189038455Y-102932452D01*
X189038452Y-102932455D01*
X188952206Y-103047664D01*
X188952202Y-103047671D01*
X188901908Y-103182517D01*
X188895501Y-103242116D01*
X188895500Y-103242135D01*
X188895500Y-103265500D01*
X188875815Y-103332539D01*
X188823011Y-103378294D01*
X188771500Y-103389500D01*
X186671230Y-103389500D01*
X186604191Y-103369815D01*
X186583549Y-103353181D01*
X185124671Y-101894303D01*
X185097791Y-101854075D01*
X185087994Y-101830421D01*
X185087989Y-101830414D01*
X185000389Y-101699310D01*
X184925860Y-101624781D01*
X184892375Y-101563458D01*
X184897359Y-101493766D01*
X184939231Y-101437833D01*
X185004695Y-101413416D01*
X185013541Y-101413100D01*
X201764971Y-101413100D01*
X201764987Y-101413101D01*
X201772583Y-101413101D01*
X201930694Y-101413101D01*
X201930697Y-101413101D01*
X202083425Y-101372177D01*
X202133544Y-101343239D01*
X202220356Y-101293120D01*
X202332160Y-101181316D01*
X202332160Y-101181314D01*
X202342368Y-101171107D01*
X202342369Y-101171104D01*
X206384444Y-97129030D01*
X206445765Y-97095547D01*
X206515457Y-97100531D01*
X206571390Y-97142403D01*
X206582608Y-97160418D01*
X206616817Y-97227557D01*
X206616951Y-97227819D01*
X206741890Y-97399786D01*
X206892213Y-97550109D01*
X207064182Y-97675050D01*
X207072946Y-97679516D01*
X207123742Y-97727491D01*
X207140536Y-97795312D01*
X207117998Y-97861447D01*
X207072946Y-97900484D01*
X207064182Y-97904949D01*
X206892213Y-98029890D01*
X206741890Y-98180213D01*
X206616951Y-98352179D01*
X206520444Y-98541585D01*
X206454753Y-98743760D01*
X206421500Y-98953713D01*
X206421500Y-99166286D01*
X206454488Y-99374567D01*
X206454754Y-99376243D01*
X206501229Y-99519279D01*
X206520444Y-99578414D01*
X206616951Y-99767820D01*
X206741890Y-99939786D01*
X206892213Y-100090109D01*
X207064182Y-100215050D01*
X207072946Y-100219516D01*
X207123742Y-100267491D01*
X207140536Y-100335312D01*
X207117998Y-100401447D01*
X207072946Y-100440484D01*
X207064182Y-100444949D01*
X206892213Y-100569890D01*
X206741890Y-100720213D01*
X206616951Y-100892179D01*
X206520444Y-101081585D01*
X206454753Y-101283760D01*
X206421500Y-101493713D01*
X206421500Y-101706286D01*
X206454753Y-101916239D01*
X206520444Y-102118414D01*
X206616951Y-102307820D01*
X206741890Y-102479786D01*
X206892213Y-102630109D01*
X207064179Y-102755048D01*
X207064181Y-102755049D01*
X207064184Y-102755051D01*
X207073493Y-102759794D01*
X207124290Y-102807766D01*
X207141087Y-102875587D01*
X207118552Y-102941722D01*
X207073502Y-102980762D01*
X207064443Y-102985378D01*
X206892540Y-103110272D01*
X206892535Y-103110276D01*
X206742276Y-103260535D01*
X206742272Y-103260540D01*
X206617379Y-103432442D01*
X206520904Y-103621782D01*
X206455242Y-103823870D01*
X206455242Y-103823873D01*
X206444769Y-103890000D01*
X207338988Y-103890000D01*
X207306075Y-103947007D01*
X207272000Y-104074174D01*
X207272000Y-104205826D01*
X207306075Y-104332993D01*
X207338988Y-104390000D01*
X206444769Y-104390000D01*
X206455242Y-104456126D01*
X206455242Y-104456129D01*
X206520904Y-104658217D01*
X206617379Y-104847557D01*
X206742272Y-105019459D01*
X206742276Y-105019464D01*
X206892535Y-105169723D01*
X206892540Y-105169727D01*
X207064442Y-105294620D01*
X207253782Y-105391095D01*
X207455871Y-105456757D01*
X207522000Y-105467231D01*
X207522000Y-104573012D01*
X207579007Y-104605925D01*
X207706174Y-104640000D01*
X207837826Y-104640000D01*
X207964993Y-104605925D01*
X208022000Y-104573012D01*
X208022000Y-105467230D01*
X208088126Y-105456757D01*
X208088129Y-105456757D01*
X208290217Y-105391095D01*
X208479557Y-105294620D01*
X208651459Y-105169727D01*
X208651464Y-105169723D01*
X208801723Y-105019464D01*
X208801727Y-105019459D01*
X208926620Y-104847558D01*
X208931514Y-104837954D01*
X208979488Y-104787157D01*
X209047308Y-104770361D01*
X209113444Y-104792897D01*
X209152486Y-104837954D01*
X209157379Y-104847558D01*
X209282272Y-105019459D01*
X209282276Y-105019464D01*
X209432535Y-105169723D01*
X209432540Y-105169727D01*
X209604442Y-105294620D01*
X209793782Y-105391095D01*
X209995871Y-105456757D01*
X210062000Y-105467231D01*
X210062000Y-104573012D01*
X210119007Y-104605925D01*
X210246174Y-104640000D01*
X210377826Y-104640000D01*
X210504993Y-104605925D01*
X210562000Y-104573012D01*
X210562000Y-105467230D01*
X210628126Y-105456757D01*
X210628129Y-105456757D01*
X210830217Y-105391095D01*
X211019557Y-105294620D01*
X211191459Y-105169727D01*
X211191464Y-105169723D01*
X211341723Y-105019464D01*
X211341727Y-105019459D01*
X211466620Y-104847557D01*
X211563095Y-104658217D01*
X211628757Y-104456129D01*
X211628757Y-104456126D01*
X211639231Y-104390000D01*
X210745012Y-104390000D01*
X210777925Y-104332993D01*
X210812000Y-104205826D01*
X210812000Y-104074174D01*
X210777925Y-103947007D01*
X210745012Y-103890000D01*
X211639231Y-103890000D01*
X211628757Y-103823873D01*
X211628757Y-103823870D01*
X211563095Y-103621782D01*
X211466620Y-103432442D01*
X211341727Y-103260540D01*
X211341723Y-103260535D01*
X211191464Y-103110276D01*
X211191459Y-103110272D01*
X211019558Y-102985379D01*
X211009954Y-102980486D01*
X210959157Y-102932512D01*
X210942361Y-102864692D01*
X210964897Y-102798556D01*
X211009954Y-102759514D01*
X211019558Y-102754620D01*
X211191459Y-102629727D01*
X211191464Y-102629723D01*
X211341723Y-102479464D01*
X211341727Y-102479459D01*
X211466620Y-102307557D01*
X211563095Y-102118217D01*
X211628757Y-101916129D01*
X211628757Y-101916126D01*
X211639231Y-101850000D01*
X210745012Y-101850000D01*
X210777925Y-101792993D01*
X210812000Y-101665826D01*
X210812000Y-101534174D01*
X210780933Y-101418234D01*
X212200000Y-101418234D01*
X212200000Y-101781765D01*
X212235632Y-102143556D01*
X212306550Y-102500090D01*
X212306553Y-102500101D01*
X212412086Y-102847997D01*
X212551207Y-103183864D01*
X212551209Y-103183869D01*
X212722570Y-103504462D01*
X212722581Y-103504480D01*
X212924551Y-103806750D01*
X213111678Y-104034765D01*
X213111679Y-104034766D01*
X214605747Y-102540697D01*
X214679588Y-102642330D01*
X214857670Y-102820412D01*
X214959301Y-102894251D01*
X213465232Y-104388319D01*
X213465233Y-104388320D01*
X213693249Y-104575448D01*
X213995519Y-104777418D01*
X213995537Y-104777429D01*
X214316130Y-104948790D01*
X214316135Y-104948792D01*
X214652002Y-105087913D01*
X214999898Y-105193446D01*
X214999909Y-105193449D01*
X215356443Y-105264367D01*
X215718234Y-105300000D01*
X216081766Y-105300000D01*
X216443556Y-105264367D01*
X216800090Y-105193449D01*
X216800101Y-105193446D01*
X217147997Y-105087913D01*
X217483864Y-104948792D01*
X217483869Y-104948790D01*
X217804462Y-104777429D01*
X217804480Y-104777418D01*
X218106736Y-104575457D01*
X218106750Y-104575447D01*
X218334765Y-104388320D01*
X218334766Y-104388319D01*
X216840698Y-102894251D01*
X216942330Y-102820412D01*
X217120412Y-102642330D01*
X217194251Y-102540698D01*
X218688319Y-104034766D01*
X218688320Y-104034765D01*
X218875447Y-103806750D01*
X218875457Y-103806736D01*
X219077418Y-103504480D01*
X219077429Y-103504462D01*
X219248790Y-103183869D01*
X219248792Y-103183864D01*
X219387913Y-102847997D01*
X219493446Y-102500101D01*
X219493449Y-102500090D01*
X219564367Y-102143556D01*
X219600000Y-101781765D01*
X219600000Y-101418234D01*
X219564367Y-101056443D01*
X219493449Y-100699909D01*
X219493446Y-100699898D01*
X219387913Y-100352002D01*
X219248792Y-100016135D01*
X219248790Y-100016130D01*
X219077429Y-99695537D01*
X219077418Y-99695519D01*
X218875448Y-99393249D01*
X218688320Y-99165233D01*
X218688319Y-99165232D01*
X217194251Y-100659300D01*
X217120412Y-100557670D01*
X216942330Y-100379588D01*
X216840698Y-100305748D01*
X218334766Y-98811679D01*
X218334765Y-98811678D01*
X218106750Y-98624551D01*
X217804480Y-98422581D01*
X217804462Y-98422570D01*
X217483869Y-98251209D01*
X217483864Y-98251207D01*
X217147997Y-98112086D01*
X216800101Y-98006553D01*
X216800090Y-98006550D01*
X216443556Y-97935632D01*
X216081766Y-97900000D01*
X215718234Y-97900000D01*
X215356443Y-97935632D01*
X214999909Y-98006550D01*
X214999898Y-98006553D01*
X214652002Y-98112086D01*
X214316135Y-98251207D01*
X214316130Y-98251209D01*
X213995537Y-98422570D01*
X213995519Y-98422581D01*
X213693258Y-98624545D01*
X213693254Y-98624548D01*
X213465233Y-98811679D01*
X213465233Y-98811680D01*
X214959301Y-100305748D01*
X214857670Y-100379588D01*
X214679588Y-100557670D01*
X214605748Y-100659301D01*
X213111680Y-99165233D01*
X213111679Y-99165233D01*
X212924548Y-99393254D01*
X212924545Y-99393258D01*
X212722581Y-99695519D01*
X212722570Y-99695537D01*
X212551209Y-100016130D01*
X212551207Y-100016135D01*
X212412086Y-100352002D01*
X212306553Y-100699898D01*
X212306550Y-100699909D01*
X212235632Y-101056443D01*
X212200000Y-101418234D01*
X210780933Y-101418234D01*
X210777925Y-101407007D01*
X210745012Y-101350000D01*
X211639231Y-101350000D01*
X211639231Y-101349999D01*
X211628757Y-101283873D01*
X211628757Y-101283870D01*
X211563095Y-101081782D01*
X211466620Y-100892442D01*
X211341727Y-100720540D01*
X211341723Y-100720535D01*
X211191464Y-100570276D01*
X211191459Y-100570272D01*
X211019558Y-100445379D01*
X211009954Y-100440486D01*
X210959157Y-100392512D01*
X210942361Y-100324692D01*
X210964897Y-100258556D01*
X211009954Y-100219514D01*
X211019558Y-100214620D01*
X211191459Y-100089727D01*
X211191464Y-100089723D01*
X211341723Y-99939464D01*
X211341727Y-99939459D01*
X211466620Y-99767557D01*
X211563095Y-99578217D01*
X211628757Y-99376129D01*
X211628757Y-99376126D01*
X211639231Y-99310000D01*
X210745012Y-99310000D01*
X210777925Y-99252993D01*
X210812000Y-99125826D01*
X210812000Y-98994174D01*
X210777925Y-98867007D01*
X210745012Y-98810000D01*
X211639231Y-98810000D01*
X211628757Y-98743873D01*
X211628757Y-98743870D01*
X211563095Y-98541782D01*
X211466620Y-98352442D01*
X211341727Y-98180540D01*
X211341723Y-98180535D01*
X211191464Y-98030276D01*
X211191459Y-98030272D01*
X211019558Y-97905379D01*
X211009954Y-97900486D01*
X210959157Y-97852512D01*
X210942361Y-97784692D01*
X210964897Y-97718556D01*
X211009954Y-97679514D01*
X211019558Y-97674620D01*
X211191459Y-97549727D01*
X211191464Y-97549723D01*
X211341723Y-97399464D01*
X211341727Y-97399459D01*
X211466620Y-97227557D01*
X211563095Y-97038217D01*
X211628757Y-96836129D01*
X211628757Y-96836126D01*
X211639231Y-96770000D01*
X210745012Y-96770000D01*
X210777925Y-96712993D01*
X210812000Y-96585826D01*
X210812000Y-96454174D01*
X210777925Y-96327007D01*
X210745012Y-96270000D01*
X211639231Y-96270000D01*
X211628757Y-96203873D01*
X211628757Y-96203870D01*
X211563095Y-96001782D01*
X211466620Y-95812442D01*
X211341727Y-95640540D01*
X211341723Y-95640535D01*
X211191464Y-95490276D01*
X211191459Y-95490272D01*
X211019555Y-95365377D01*
X211010500Y-95360763D01*
X210959706Y-95312788D01*
X210942912Y-95244966D01*
X210965451Y-95178832D01*
X211010508Y-95139793D01*
X211019816Y-95135051D01*
X211131194Y-95054131D01*
X211191786Y-95010109D01*
X211191788Y-95010106D01*
X211191792Y-95010104D01*
X211342104Y-94859792D01*
X211342106Y-94859788D01*
X211342109Y-94859786D01*
X211467048Y-94687820D01*
X211467049Y-94687819D01*
X211467051Y-94687816D01*
X211563557Y-94498412D01*
X211629246Y-94296243D01*
X211662500Y-94086287D01*
X211662500Y-93873713D01*
X211629246Y-93663757D01*
X211563557Y-93461588D01*
X211467051Y-93272184D01*
X211467049Y-93272181D01*
X211467048Y-93272179D01*
X211342109Y-93100213D01*
X211191786Y-92949890D01*
X211019820Y-92824951D01*
X211014391Y-92822185D01*
X211011054Y-92820485D01*
X210960259Y-92772512D01*
X210943463Y-92704692D01*
X210965999Y-92638556D01*
X211011054Y-92599515D01*
X211019816Y-92595051D01*
X211099256Y-92537335D01*
X211191786Y-92470109D01*
X211191788Y-92470106D01*
X211191792Y-92470104D01*
X211342104Y-92319792D01*
X211342106Y-92319788D01*
X211342109Y-92319786D01*
X211467048Y-92147820D01*
X211467047Y-92147820D01*
X211467051Y-92147816D01*
X211563557Y-91958412D01*
X211629246Y-91756243D01*
X211662500Y-91546287D01*
X211662500Y-91333713D01*
X211629246Y-91123757D01*
X211605870Y-91051816D01*
X211603876Y-90981977D01*
X211639956Y-90922144D01*
X211702657Y-90891316D01*
X211723802Y-90889500D01*
X215187500Y-90889500D01*
X215254539Y-90909185D01*
X215300294Y-90961989D01*
X215311500Y-91013500D01*
X215311500Y-92342870D01*
X215311501Y-92342876D01*
X215317908Y-92402483D01*
X215368202Y-92537328D01*
X215368206Y-92537335D01*
X215454452Y-92652544D01*
X215454455Y-92652547D01*
X215569664Y-92738793D01*
X215569671Y-92738797D01*
X215704517Y-92789091D01*
X215704516Y-92789091D01*
X215711444Y-92789835D01*
X215764127Y-92795500D01*
X217559872Y-92795499D01*
X217619483Y-92789091D01*
X217754331Y-92738796D01*
X217869546Y-92652546D01*
X217955796Y-92537331D01*
X218006091Y-92402483D01*
X218012500Y-92342873D01*
X218012499Y-90547128D01*
X218006091Y-90487517D01*
X217983254Y-90426289D01*
X217955797Y-90352671D01*
X217955793Y-90352664D01*
X217869547Y-90237455D01*
X217869544Y-90237452D01*
X217754335Y-90151206D01*
X217754328Y-90151202D01*
X217622401Y-90101997D01*
X217566467Y-90060126D01*
X217542050Y-89994662D01*
X217556902Y-89926389D01*
X217578053Y-89898133D01*
X217691728Y-89784458D01*
X217816620Y-89612557D01*
X217913095Y-89423217D01*
X217978757Y-89221129D01*
X217978757Y-89221126D01*
X217989231Y-89155000D01*
X217095012Y-89155000D01*
X217127925Y-89097993D01*
X217162000Y-88970826D01*
X217162000Y-88839174D01*
X217127925Y-88712007D01*
X217095012Y-88655000D01*
X217989231Y-88655000D01*
X217978757Y-88588873D01*
X217978757Y-88588870D01*
X217913095Y-88386782D01*
X217816620Y-88197442D01*
X217691727Y-88025540D01*
X217691723Y-88025535D01*
X217541464Y-87875276D01*
X217541459Y-87875272D01*
X217369557Y-87750379D01*
X217180215Y-87653903D01*
X216978124Y-87588241D01*
X216912000Y-87577768D01*
X216912000Y-88471988D01*
X216854993Y-88439075D01*
X216727826Y-88405000D01*
X216596174Y-88405000D01*
X216469007Y-88439075D01*
X216412000Y-88471988D01*
X216412000Y-87577768D01*
X216411999Y-87577768D01*
X216345875Y-87588241D01*
X216143784Y-87653903D01*
X215954442Y-87750379D01*
X215782540Y-87875272D01*
X215782535Y-87875276D01*
X215632276Y-88025535D01*
X215632272Y-88025540D01*
X215507379Y-88197442D01*
X215410904Y-88386782D01*
X215345242Y-88588870D01*
X215345242Y-88588873D01*
X215334769Y-88655000D01*
X216228988Y-88655000D01*
X216196075Y-88712007D01*
X216162000Y-88839174D01*
X216162000Y-88970826D01*
X216196075Y-89097993D01*
X216228988Y-89155000D01*
X215334769Y-89155000D01*
X215345242Y-89221126D01*
X215345242Y-89221129D01*
X215410904Y-89423217D01*
X215454208Y-89508205D01*
X215467104Y-89576874D01*
X215440828Y-89641615D01*
X215383721Y-89681872D01*
X215343723Y-89688500D01*
X211627729Y-89688500D01*
X211560690Y-89668815D01*
X211514935Y-89616011D01*
X211504991Y-89546853D01*
X211517244Y-89508205D01*
X211563095Y-89418217D01*
X211628757Y-89216129D01*
X211628757Y-89216126D01*
X211639231Y-89150000D01*
X210745012Y-89150000D01*
X210777925Y-89092993D01*
X210812000Y-88965826D01*
X210812000Y-88834174D01*
X210777925Y-88707007D01*
X210745012Y-88650000D01*
X211639231Y-88650000D01*
X211628757Y-88583873D01*
X211628757Y-88583870D01*
X211563095Y-88381782D01*
X211466620Y-88192442D01*
X211341727Y-88020540D01*
X211341723Y-88020535D01*
X211191464Y-87870276D01*
X211191459Y-87870272D01*
X211019558Y-87745379D01*
X211009954Y-87740486D01*
X210959157Y-87692512D01*
X210942361Y-87624692D01*
X210964897Y-87558556D01*
X211009954Y-87519514D01*
X211019558Y-87514620D01*
X211191459Y-87389727D01*
X211191464Y-87389723D01*
X211341723Y-87239464D01*
X211341727Y-87239459D01*
X211466620Y-87067557D01*
X211563095Y-86878217D01*
X211605207Y-86748609D01*
X212611432Y-86748609D01*
X220142402Y-86748609D01*
X220142402Y-62405581D01*
X212611432Y-62405581D01*
X212611432Y-86748609D01*
X211605207Y-86748609D01*
X211628757Y-86676129D01*
X211628757Y-86676126D01*
X211639231Y-86610000D01*
X210745012Y-86610000D01*
X210777925Y-86552993D01*
X210812000Y-86425826D01*
X210812000Y-86294174D01*
X210777925Y-86167007D01*
X210745012Y-86110000D01*
X211639231Y-86110000D01*
X211628757Y-86043873D01*
X211628757Y-86043870D01*
X211563095Y-85841782D01*
X211466620Y-85652442D01*
X211341727Y-85480540D01*
X211341723Y-85480535D01*
X211191464Y-85330276D01*
X211191459Y-85330272D01*
X211019558Y-85205379D01*
X211009954Y-85200486D01*
X210959157Y-85152512D01*
X210942361Y-85084692D01*
X210964897Y-85018556D01*
X211009954Y-84979514D01*
X211019558Y-84974620D01*
X211191459Y-84849727D01*
X211191464Y-84849723D01*
X211341723Y-84699464D01*
X211341727Y-84699459D01*
X211466620Y-84527557D01*
X211563095Y-84338217D01*
X211628757Y-84136129D01*
X211628757Y-84136126D01*
X211639231Y-84070000D01*
X210745012Y-84070000D01*
X210777925Y-84012993D01*
X210812000Y-83885826D01*
X210812000Y-83754174D01*
X210777925Y-83627007D01*
X210745012Y-83570000D01*
X211639231Y-83570000D01*
X211628757Y-83503873D01*
X211628757Y-83503870D01*
X211563095Y-83301782D01*
X211466620Y-83112442D01*
X211341727Y-82940540D01*
X211341723Y-82940535D01*
X211191464Y-82790276D01*
X211191459Y-82790272D01*
X211019558Y-82665379D01*
X211009954Y-82660486D01*
X210959157Y-82612512D01*
X210942361Y-82544692D01*
X210964897Y-82478556D01*
X211009954Y-82439514D01*
X211019558Y-82434620D01*
X211191459Y-82309727D01*
X211191464Y-82309723D01*
X211341723Y-82159464D01*
X211341727Y-82159459D01*
X211466620Y-81987557D01*
X211563095Y-81798217D01*
X211628757Y-81596129D01*
X211628757Y-81596126D01*
X211639231Y-81530000D01*
X210745012Y-81530000D01*
X210777925Y-81472993D01*
X210812000Y-81345826D01*
X210812000Y-81214174D01*
X210777925Y-81087007D01*
X210745012Y-81030000D01*
X211639231Y-81030000D01*
X211628757Y-80963873D01*
X211628757Y-80963870D01*
X211563095Y-80761782D01*
X211466620Y-80572442D01*
X211341727Y-80400540D01*
X211341723Y-80400535D01*
X211191464Y-80250276D01*
X211191459Y-80250272D01*
X211019558Y-80125379D01*
X211009954Y-80120486D01*
X210959157Y-80072512D01*
X210942361Y-80004692D01*
X210964897Y-79938556D01*
X211009954Y-79899514D01*
X211019558Y-79894620D01*
X211191459Y-79769727D01*
X211191464Y-79769723D01*
X211341723Y-79619464D01*
X211341727Y-79619459D01*
X211466620Y-79447557D01*
X211563095Y-79258217D01*
X211628757Y-79056129D01*
X211628757Y-79056126D01*
X211639231Y-78990000D01*
X210745012Y-78990000D01*
X210777925Y-78932993D01*
X210812000Y-78805826D01*
X210812000Y-78674174D01*
X210777925Y-78547007D01*
X210745012Y-78490000D01*
X211639231Y-78490000D01*
X211628757Y-78423873D01*
X211628757Y-78423870D01*
X211563095Y-78221782D01*
X211466620Y-78032442D01*
X211341727Y-77860540D01*
X211341723Y-77860535D01*
X211191464Y-77710276D01*
X211191459Y-77710272D01*
X211019555Y-77585377D01*
X211010500Y-77580763D01*
X210959706Y-77532788D01*
X210942912Y-77464966D01*
X210965451Y-77398832D01*
X211010508Y-77359793D01*
X211019816Y-77355051D01*
X211106324Y-77292200D01*
X211191786Y-77230109D01*
X211191788Y-77230106D01*
X211191792Y-77230104D01*
X211342104Y-77079792D01*
X211342106Y-77079788D01*
X211342109Y-77079786D01*
X211467048Y-76907820D01*
X211467047Y-76907820D01*
X211467051Y-76907816D01*
X211563557Y-76718412D01*
X211629246Y-76516243D01*
X211662500Y-76306287D01*
X211662500Y-76093713D01*
X211629246Y-75883757D01*
X211563557Y-75681588D01*
X211467051Y-75492184D01*
X211467049Y-75492181D01*
X211467048Y-75492179D01*
X211342109Y-75320213D01*
X211191786Y-75169890D01*
X211019820Y-75044951D01*
X211019115Y-75044591D01*
X211011054Y-75040485D01*
X210960259Y-74992512D01*
X210943463Y-74924692D01*
X210965999Y-74858556D01*
X211011054Y-74819515D01*
X211019816Y-74815051D01*
X211080939Y-74770643D01*
X211191786Y-74690109D01*
X211191788Y-74690106D01*
X211191792Y-74690104D01*
X211342104Y-74539792D01*
X211342106Y-74539788D01*
X211342109Y-74539786D01*
X211467048Y-74367820D01*
X211467047Y-74367820D01*
X211467051Y-74367816D01*
X211563557Y-74178412D01*
X211629246Y-73976243D01*
X211662500Y-73766287D01*
X211662500Y-73553713D01*
X211629246Y-73343757D01*
X211563557Y-73141588D01*
X211467051Y-72952184D01*
X211467049Y-72952181D01*
X211467048Y-72952179D01*
X211342109Y-72780213D01*
X211191786Y-72629890D01*
X211019820Y-72504951D01*
X211019115Y-72504591D01*
X211011054Y-72500485D01*
X210960259Y-72452512D01*
X210943463Y-72384692D01*
X210965999Y-72318556D01*
X211011054Y-72279515D01*
X211019816Y-72275051D01*
X211080939Y-72230643D01*
X211191786Y-72150109D01*
X211191788Y-72150106D01*
X211191792Y-72150104D01*
X211342104Y-71999792D01*
X211342106Y-71999788D01*
X211342109Y-71999786D01*
X211467048Y-71827820D01*
X211467047Y-71827820D01*
X211467051Y-71827816D01*
X211563557Y-71638412D01*
X211629246Y-71436243D01*
X211662500Y-71226287D01*
X211662500Y-71013713D01*
X211629246Y-70803757D01*
X211563557Y-70601588D01*
X211467051Y-70412184D01*
X211467049Y-70412181D01*
X211467048Y-70412179D01*
X211342109Y-70240213D01*
X211191786Y-70089890D01*
X211019820Y-69964951D01*
X211019115Y-69964591D01*
X211011054Y-69960485D01*
X210960259Y-69912512D01*
X210943463Y-69844692D01*
X210965999Y-69778556D01*
X211011054Y-69739515D01*
X211019816Y-69735051D01*
X211047490Y-69714945D01*
X211191786Y-69610109D01*
X211191788Y-69610106D01*
X211191792Y-69610104D01*
X211342104Y-69459792D01*
X211342106Y-69459788D01*
X211342109Y-69459786D01*
X211467048Y-69287820D01*
X211467047Y-69287820D01*
X211467051Y-69287816D01*
X211563557Y-69098412D01*
X211629246Y-68896243D01*
X211662500Y-68686287D01*
X211662500Y-68473713D01*
X211629246Y-68263757D01*
X211563557Y-68061588D01*
X211467051Y-67872184D01*
X211467049Y-67872181D01*
X211467048Y-67872179D01*
X211342109Y-67700213D01*
X211191786Y-67549890D01*
X211019820Y-67424951D01*
X211019115Y-67424591D01*
X211011054Y-67420485D01*
X210960259Y-67372512D01*
X210943463Y-67304692D01*
X210965999Y-67238556D01*
X211011054Y-67199515D01*
X211019816Y-67195051D01*
X211057259Y-67167847D01*
X211191786Y-67070109D01*
X211191788Y-67070106D01*
X211191792Y-67070104D01*
X211342104Y-66919792D01*
X211342106Y-66919788D01*
X211342109Y-66919786D01*
X211467048Y-66747820D01*
X211467047Y-66747820D01*
X211467051Y-66747816D01*
X211563557Y-66558412D01*
X211629246Y-66356243D01*
X211662500Y-66146287D01*
X211662500Y-65933713D01*
X211629246Y-65723757D01*
X211563557Y-65521588D01*
X211467051Y-65332184D01*
X211467049Y-65332181D01*
X211467048Y-65332179D01*
X211342109Y-65160213D01*
X211191786Y-65009890D01*
X211019820Y-64884951D01*
X211019115Y-64884591D01*
X211011054Y-64880485D01*
X210960259Y-64832512D01*
X210943463Y-64764692D01*
X210965999Y-64698556D01*
X211011054Y-64659515D01*
X211019816Y-64655051D01*
X211131194Y-64574131D01*
X211191786Y-64530109D01*
X211191788Y-64530106D01*
X211191792Y-64530104D01*
X211342104Y-64379792D01*
X211342106Y-64379788D01*
X211342109Y-64379786D01*
X211467048Y-64207820D01*
X211467047Y-64207820D01*
X211467051Y-64207816D01*
X211563557Y-64018412D01*
X211629246Y-63816243D01*
X211662500Y-63606287D01*
X211662500Y-63393713D01*
X211629246Y-63183757D01*
X211563557Y-62981588D01*
X211467051Y-62792184D01*
X211467049Y-62792181D01*
X211467048Y-62792179D01*
X211342109Y-62620213D01*
X211191788Y-62469892D01*
X211171408Y-62455086D01*
X211171396Y-62455077D01*
X211019816Y-62344949D01*
X211002619Y-62336186D01*
X210995388Y-62331093D01*
X210978933Y-62310387D01*
X210959707Y-62292230D01*
X210957536Y-62283463D01*
X210951917Y-62276393D01*
X210949268Y-62250079D01*
X210942912Y-62224409D01*
X210945825Y-62215859D01*
X210944921Y-62206874D01*
X210956918Y-62183307D01*
X210965449Y-62158274D01*
X210972987Y-62151741D01*
X210976619Y-62144609D01*
X210990740Y-62136359D01*
X211010507Y-62119232D01*
X211019558Y-62114620D01*
X211191459Y-61989727D01*
X211191464Y-61989723D01*
X211341723Y-61839464D01*
X211341727Y-61839459D01*
X211466620Y-61667557D01*
X211563097Y-61478214D01*
X211628757Y-61276129D01*
X211628757Y-61276126D01*
X211639231Y-61210000D01*
X210745012Y-61210000D01*
X210777925Y-61152993D01*
X210812000Y-61025826D01*
X210812000Y-60894174D01*
X210777925Y-60767007D01*
X210745012Y-60710000D01*
X211639231Y-60710000D01*
X211628757Y-60643873D01*
X211628757Y-60643870D01*
X211563095Y-60441782D01*
X211466620Y-60252442D01*
X211341727Y-60080540D01*
X211341723Y-60080535D01*
X211191464Y-59930276D01*
X211191459Y-59930272D01*
X211019555Y-59805377D01*
X211010500Y-59800763D01*
X210959706Y-59752788D01*
X210942912Y-59684966D01*
X210965451Y-59618832D01*
X211010508Y-59579793D01*
X211019816Y-59575051D01*
X211131066Y-59494224D01*
X211191786Y-59450109D01*
X211191788Y-59450106D01*
X211191792Y-59450104D01*
X211342104Y-59299792D01*
X211342106Y-59299788D01*
X211342109Y-59299786D01*
X211467048Y-59127820D01*
X211467047Y-59127820D01*
X211467051Y-59127816D01*
X211563557Y-58938412D01*
X211629246Y-58736243D01*
X211662500Y-58526287D01*
X211662500Y-58313713D01*
X211650545Y-58238234D01*
X212200000Y-58238234D01*
X212200000Y-58601765D01*
X212235632Y-58963556D01*
X212306550Y-59320090D01*
X212306553Y-59320101D01*
X212412086Y-59667997D01*
X212551207Y-60003864D01*
X212551209Y-60003869D01*
X212722570Y-60324462D01*
X212722581Y-60324480D01*
X212924551Y-60626750D01*
X213111678Y-60854765D01*
X213111679Y-60854766D01*
X214605747Y-59360697D01*
X214679588Y-59462330D01*
X214857670Y-59640412D01*
X214959301Y-59714251D01*
X213465232Y-61208319D01*
X213465233Y-61208320D01*
X213693249Y-61395448D01*
X213995519Y-61597418D01*
X213995537Y-61597429D01*
X214316130Y-61768790D01*
X214316135Y-61768792D01*
X214652002Y-61907913D01*
X214999898Y-62013446D01*
X214999909Y-62013449D01*
X215356443Y-62084367D01*
X215718234Y-62120000D01*
X216081766Y-62120000D01*
X216443556Y-62084367D01*
X216800090Y-62013449D01*
X216800101Y-62013446D01*
X217147997Y-61907913D01*
X217483864Y-61768792D01*
X217483869Y-61768790D01*
X217804462Y-61597429D01*
X217804480Y-61597418D01*
X218106736Y-61395457D01*
X218106750Y-61395447D01*
X218334765Y-61208320D01*
X218334766Y-61208319D01*
X216840698Y-59714251D01*
X216942330Y-59640412D01*
X217120412Y-59462330D01*
X217194251Y-59360698D01*
X218688319Y-60854766D01*
X218688320Y-60854765D01*
X218875447Y-60626750D01*
X218875457Y-60626736D01*
X219077418Y-60324480D01*
X219077429Y-60324462D01*
X219248790Y-60003869D01*
X219248792Y-60003864D01*
X219387913Y-59667997D01*
X219493446Y-59320101D01*
X219493449Y-59320090D01*
X219564367Y-58963556D01*
X219600000Y-58601765D01*
X219600000Y-58238234D01*
X219564367Y-57876443D01*
X219493449Y-57519909D01*
X219493446Y-57519898D01*
X219387913Y-57172002D01*
X219248792Y-56836135D01*
X219248790Y-56836130D01*
X219077429Y-56515537D01*
X219077418Y-56515519D01*
X218875448Y-56213249D01*
X218688320Y-55985233D01*
X218688319Y-55985232D01*
X217194251Y-57479300D01*
X217120412Y-57377670D01*
X216942330Y-57199588D01*
X216840698Y-57125748D01*
X218334766Y-55631679D01*
X218334765Y-55631678D01*
X218106750Y-55444551D01*
X217804480Y-55242581D01*
X217804462Y-55242570D01*
X217483869Y-55071209D01*
X217483864Y-55071207D01*
X217147997Y-54932086D01*
X216800101Y-54826553D01*
X216800090Y-54826550D01*
X216443556Y-54755632D01*
X216081766Y-54720000D01*
X215718234Y-54720000D01*
X215356443Y-54755632D01*
X214999909Y-54826550D01*
X214999898Y-54826553D01*
X214652002Y-54932086D01*
X214316135Y-55071207D01*
X214316130Y-55071209D01*
X213995537Y-55242570D01*
X213995519Y-55242581D01*
X213693258Y-55444545D01*
X213693254Y-55444548D01*
X213465233Y-55631679D01*
X213465233Y-55631680D01*
X214959301Y-57125748D01*
X214857670Y-57199588D01*
X214679588Y-57377670D01*
X214605748Y-57479301D01*
X213111680Y-55985233D01*
X213111679Y-55985233D01*
X212924548Y-56213254D01*
X212924545Y-56213258D01*
X212722581Y-56515519D01*
X212722570Y-56515537D01*
X212551209Y-56836130D01*
X212551207Y-56836135D01*
X212412086Y-57172002D01*
X212306553Y-57519898D01*
X212306550Y-57519909D01*
X212235632Y-57876443D01*
X212200000Y-58238234D01*
X211650545Y-58238234D01*
X211629246Y-58103757D01*
X211563557Y-57901588D01*
X211467051Y-57712184D01*
X211467049Y-57712181D01*
X211467048Y-57712179D01*
X211342109Y-57540213D01*
X211191786Y-57389890D01*
X211019820Y-57264951D01*
X211019115Y-57264591D01*
X211011054Y-57260485D01*
X210960259Y-57212512D01*
X210943463Y-57144692D01*
X210965999Y-57078556D01*
X211011054Y-57039515D01*
X211019816Y-57035051D01*
X211106138Y-56972335D01*
X211191786Y-56910109D01*
X211191788Y-56910106D01*
X211191792Y-56910104D01*
X211342104Y-56759792D01*
X211342106Y-56759788D01*
X211342109Y-56759786D01*
X211467048Y-56587820D01*
X211467047Y-56587820D01*
X211467051Y-56587816D01*
X211563557Y-56398412D01*
X211629246Y-56196243D01*
X211662500Y-55986287D01*
X211662500Y-55773713D01*
X211629246Y-55563757D01*
X211563557Y-55361588D01*
X211467051Y-55172184D01*
X211467049Y-55172181D01*
X211467048Y-55172179D01*
X211342109Y-55000213D01*
X211191786Y-54849890D01*
X211019820Y-54724951D01*
X210830414Y-54628444D01*
X210830413Y-54628443D01*
X210830412Y-54628443D01*
X210628243Y-54562754D01*
X210628241Y-54562753D01*
X210628240Y-54562753D01*
X210466957Y-54537208D01*
X210418287Y-54529500D01*
X210205713Y-54529500D01*
X210157042Y-54537208D01*
X209995760Y-54562753D01*
X209793585Y-54628444D01*
X209604179Y-54724951D01*
X209432215Y-54849889D01*
X209318673Y-54963431D01*
X209257350Y-54996915D01*
X209187658Y-54991931D01*
X209131725Y-54950059D01*
X209114810Y-54919082D01*
X209065797Y-54787671D01*
X209065793Y-54787664D01*
X208979547Y-54672455D01*
X208979544Y-54672452D01*
X208864335Y-54586206D01*
X208864328Y-54586202D01*
X208729482Y-54535908D01*
X208729483Y-54535908D01*
X208669883Y-54529501D01*
X208669881Y-54529500D01*
X208669873Y-54529500D01*
X208669864Y-54529500D01*
X206874129Y-54529500D01*
X206874123Y-54529501D01*
X206814516Y-54535908D01*
X206679671Y-54586202D01*
X206679664Y-54586206D01*
X206564455Y-54672452D01*
X206564452Y-54672455D01*
X206478206Y-54787664D01*
X206478204Y-54787668D01*
X206478204Y-54787669D01*
X206474039Y-54798834D01*
X206460771Y-54816558D01*
X206451572Y-54836703D01*
X206440241Y-54843984D01*
X206432171Y-54854766D01*
X206411422Y-54862504D01*
X206392794Y-54874477D01*
X206370878Y-54877628D01*
X206366707Y-54879184D01*
X206357859Y-54879500D01*
X206252489Y-54879500D01*
X206185450Y-54859815D01*
X206164808Y-54843181D01*
X206057112Y-54735485D01*
X206057111Y-54735484D01*
X206057110Y-54735483D01*
X205866033Y-54596657D01*
X205799493Y-54562753D01*
X205655596Y-54489433D01*
X205430968Y-54416446D01*
X205197697Y-54379500D01*
X205197692Y-54379500D01*
X181905892Y-54379500D01*
X181669708Y-54379500D01*
X181669703Y-54379500D01*
X181436434Y-54416446D01*
X181211805Y-54489433D01*
X181001365Y-54596657D01*
X180810288Y-54735484D01*
X180810287Y-54735485D01*
X173282190Y-62263581D01*
X173220867Y-62297066D01*
X173194509Y-62299900D01*
X172888199Y-62299900D01*
X172888180Y-62299901D01*
X172785403Y-62310400D01*
X172785400Y-62310401D01*
X172618868Y-62365585D01*
X172618863Y-62365587D01*
X172469542Y-62457689D01*
X172345489Y-62581742D01*
X172249751Y-62736959D01*
X172197803Y-62783683D01*
X172128840Y-62794906D01*
X172064758Y-62767062D01*
X172056531Y-62759543D01*
X171917664Y-62620676D01*
X171917659Y-62620672D01*
X171745757Y-62495779D01*
X171556415Y-62399303D01*
X171354324Y-62333641D01*
X171288200Y-62323168D01*
X171288200Y-63367388D01*
X171231193Y-63334475D01*
X171104026Y-63300400D01*
X170972374Y-63300400D01*
X170845207Y-63334475D01*
X170788200Y-63367388D01*
X170788200Y-62323168D01*
X170788199Y-62323168D01*
X170722075Y-62333641D01*
X170519984Y-62399303D01*
X170330642Y-62495779D01*
X170158740Y-62620672D01*
X170158735Y-62620676D01*
X170008476Y-62770935D01*
X170008472Y-62770940D01*
X169883579Y-62942842D01*
X169787104Y-63132182D01*
X169721442Y-63334269D01*
X169721442Y-63334272D01*
X169688200Y-63544153D01*
X169688200Y-63550400D01*
X170605188Y-63550400D01*
X170572275Y-63607407D01*
X170538200Y-63734574D01*
X170538200Y-63866226D01*
X170572275Y-63993393D01*
X170605188Y-64050400D01*
X169688200Y-64050400D01*
X169688200Y-64056646D01*
X169721442Y-64266527D01*
X169721442Y-64266530D01*
X169787104Y-64468617D01*
X169883579Y-64657957D01*
X170008472Y-64829859D01*
X170008476Y-64829864D01*
X170158735Y-64980123D01*
X170158740Y-64980127D01*
X170330642Y-65105020D01*
X170519982Y-65201495D01*
X170621878Y-65234603D01*
X170679553Y-65274040D01*
X170706752Y-65338399D01*
X170694838Y-65407245D01*
X170671241Y-65440215D01*
X169797072Y-66314386D01*
X169674588Y-66436869D01*
X169674588Y-66436870D01*
X169674586Y-66436872D01*
X169630859Y-66497056D01*
X169572768Y-66577011D01*
X169494128Y-66731352D01*
X169440597Y-66896102D01*
X169413500Y-67067189D01*
X169413500Y-102103500D01*
X169393815Y-102170539D01*
X169341011Y-102216294D01*
X169289500Y-102227500D01*
X169175306Y-102227500D01*
X169001341Y-102262103D01*
X169001332Y-102262106D01*
X168837459Y-102329983D01*
X168837446Y-102329990D01*
X168707441Y-102416858D01*
X168640764Y-102437736D01*
X168573383Y-102419252D01*
X168569659Y-102416858D01*
X168440316Y-102330433D01*
X168440307Y-102330428D01*
X168276519Y-102262585D01*
X168264000Y-102260094D01*
X168264000Y-103328272D01*
X168225940Y-103236386D01*
X168155614Y-103166060D01*
X168063728Y-103128000D01*
X167964272Y-103128000D01*
X167872386Y-103166060D01*
X167802060Y-103236386D01*
X167764000Y-103328272D01*
X163291605Y-103328272D01*
X163368790Y-103183869D01*
X163368792Y-103183864D01*
X163428651Y-103039353D01*
X167114000Y-103039353D01*
X167114000Y-103128000D01*
X167764000Y-103128000D01*
X167764000Y-102260095D01*
X167763999Y-102260094D01*
X167751480Y-102262585D01*
X167587692Y-102330428D01*
X167587683Y-102330433D01*
X167440283Y-102428923D01*
X167440279Y-102428926D01*
X167314926Y-102554279D01*
X167314923Y-102554283D01*
X167216433Y-102701683D01*
X167216428Y-102701692D01*
X167148586Y-102865479D01*
X167148584Y-102865487D01*
X167114000Y-103039353D01*
X163428651Y-103039353D01*
X163450828Y-102985813D01*
X163507913Y-102847997D01*
X163613446Y-102500101D01*
X163613449Y-102500090D01*
X163684367Y-102143556D01*
X163720000Y-101781765D01*
X163720000Y-101418234D01*
X163684367Y-101056443D01*
X163613449Y-100699909D01*
X163613446Y-100699898D01*
X163507913Y-100352002D01*
X163368792Y-100016135D01*
X163368790Y-100016130D01*
X163197429Y-99695537D01*
X163197418Y-99695519D01*
X162995448Y-99393249D01*
X162808320Y-99165233D01*
X162808319Y-99165232D01*
X161314251Y-100659300D01*
X161240412Y-100557670D01*
X161062330Y-100379588D01*
X160960698Y-100305748D01*
X162454766Y-98811679D01*
X162454765Y-98811678D01*
X162226750Y-98624551D01*
X161924480Y-98422581D01*
X161924462Y-98422570D01*
X161603869Y-98251209D01*
X161603864Y-98251207D01*
X161267997Y-98112086D01*
X160920101Y-98006553D01*
X160920090Y-98006550D01*
X160563556Y-97935632D01*
X160201766Y-97900000D01*
X159838234Y-97900000D01*
X159476443Y-97935632D01*
X159119909Y-98006550D01*
X159119898Y-98006553D01*
X158772002Y-98112086D01*
X158436135Y-98251207D01*
X158436130Y-98251209D01*
X158115537Y-98422570D01*
X158115519Y-98422581D01*
X157813258Y-98624545D01*
X157813254Y-98624548D01*
X157585233Y-98811679D01*
X157585233Y-98811680D01*
X159079301Y-100305748D01*
X158977670Y-100379588D01*
X158799588Y-100557670D01*
X158725748Y-100659301D01*
X157231680Y-99165233D01*
X157231679Y-99165233D01*
X157044548Y-99393254D01*
X157044545Y-99393258D01*
X156842581Y-99695519D01*
X156842570Y-99695537D01*
X156671209Y-100016130D01*
X156671207Y-100016135D01*
X156532086Y-100352002D01*
X156426553Y-100699898D01*
X156426550Y-100699909D01*
X156355632Y-101056443D01*
X156320000Y-101418234D01*
X155440500Y-101418234D01*
X155440500Y-58238234D01*
X156320000Y-58238234D01*
X156320000Y-58601765D01*
X156355632Y-58963556D01*
X156426550Y-59320090D01*
X156426553Y-59320101D01*
X156532086Y-59667997D01*
X156671207Y-60003864D01*
X156671209Y-60003869D01*
X156842570Y-60324462D01*
X156842581Y-60324480D01*
X157044551Y-60626750D01*
X157231678Y-60854765D01*
X157231679Y-60854766D01*
X158725747Y-59360697D01*
X158799588Y-59462330D01*
X158977670Y-59640412D01*
X159079301Y-59714251D01*
X157585232Y-61208319D01*
X157585233Y-61208320D01*
X157813249Y-61395448D01*
X158115519Y-61597418D01*
X158115537Y-61597429D01*
X158436130Y-61768790D01*
X158436135Y-61768792D01*
X158772002Y-61907913D01*
X159119898Y-62013446D01*
X159119909Y-62013449D01*
X159476443Y-62084367D01*
X159838234Y-62120000D01*
X160201766Y-62120000D01*
X160563556Y-62084367D01*
X160920090Y-62013449D01*
X160920101Y-62013446D01*
X161267997Y-61907913D01*
X161603864Y-61768792D01*
X161603869Y-61768790D01*
X161924462Y-61597429D01*
X161924480Y-61597418D01*
X162226736Y-61395457D01*
X162226750Y-61395447D01*
X162454765Y-61208320D01*
X162454766Y-61208319D01*
X160960698Y-59714251D01*
X161062330Y-59640412D01*
X161240412Y-59462330D01*
X161314251Y-59360698D01*
X162808319Y-60854766D01*
X162808320Y-60854765D01*
X162995447Y-60626750D01*
X162995457Y-60626736D01*
X163197418Y-60324480D01*
X163197429Y-60324462D01*
X163368790Y-60003869D01*
X163368792Y-60003864D01*
X163507913Y-59667997D01*
X163613446Y-59320101D01*
X163613449Y-59320090D01*
X163684367Y-58963556D01*
X163720000Y-58601765D01*
X163720000Y-58238234D01*
X163684367Y-57876443D01*
X163613449Y-57519909D01*
X163613446Y-57519898D01*
X163507913Y-57172002D01*
X163368792Y-56836135D01*
X163368790Y-56836130D01*
X163197429Y-56515537D01*
X163197418Y-56515519D01*
X162995448Y-56213249D01*
X162808320Y-55985233D01*
X162808319Y-55985232D01*
X161314251Y-57479300D01*
X161240412Y-57377670D01*
X161062330Y-57199588D01*
X160960698Y-57125748D01*
X162454766Y-55631679D01*
X162454765Y-55631678D01*
X162226750Y-55444551D01*
X161924480Y-55242581D01*
X161924462Y-55242570D01*
X161603869Y-55071209D01*
X161603864Y-55071207D01*
X161267997Y-54932086D01*
X160920101Y-54826553D01*
X160920090Y-54826550D01*
X160563556Y-54755632D01*
X160201766Y-54720000D01*
X159838234Y-54720000D01*
X159476443Y-54755632D01*
X159119909Y-54826550D01*
X159119898Y-54826553D01*
X158772002Y-54932086D01*
X158436135Y-55071207D01*
X158436130Y-55071209D01*
X158115537Y-55242570D01*
X158115519Y-55242581D01*
X157813258Y-55444545D01*
X157813254Y-55444548D01*
X157585233Y-55631679D01*
X157585233Y-55631680D01*
X159079301Y-57125748D01*
X158977670Y-57199588D01*
X158799588Y-57377670D01*
X158725748Y-57479301D01*
X157231680Y-55985233D01*
X157231679Y-55985233D01*
X157044548Y-56213254D01*
X157044545Y-56213258D01*
X156842581Y-56515519D01*
X156842570Y-56515537D01*
X156671209Y-56836130D01*
X156671207Y-56836135D01*
X156532086Y-57172002D01*
X156426553Y-57519898D01*
X156426550Y-57519909D01*
X156355632Y-57876443D01*
X156320000Y-58238234D01*
X155440500Y-58238234D01*
X155440500Y-53964500D01*
X155460185Y-53897461D01*
X155512989Y-53851706D01*
X155564500Y-53840500D01*
X220355500Y-53840500D01*
X220422539Y-53860185D01*
G37*
%TD.AperFunction*%
%TD*%
%TA.AperFunction,Conductor*%
%TO.N,3V_BUS*%
G36*
X202000039Y-63976885D02*
G01*
X202045794Y-64029689D01*
X202057000Y-64081200D01*
X202057000Y-66525600D01*
X202037315Y-66592639D01*
X201984511Y-66638394D01*
X201933000Y-66649600D01*
X199556781Y-66649600D01*
X199517778Y-66643306D01*
X199472799Y-66628401D01*
X199472795Y-66628400D01*
X199370010Y-66617900D01*
X198769998Y-66617900D01*
X198769980Y-66617901D01*
X198667203Y-66628400D01*
X198637046Y-66638394D01*
X198622221Y-66643306D01*
X198583219Y-66649600D01*
X195941065Y-66649600D01*
X195874026Y-66629915D01*
X195836902Y-66590981D01*
X195836870Y-66591007D01*
X195836636Y-66590702D01*
X195833679Y-66587601D01*
X195831924Y-66584562D01*
X195831918Y-66584554D01*
X194764318Y-65516955D01*
X194764316Y-65516952D01*
X194645445Y-65398081D01*
X194645444Y-65398080D01*
X194558632Y-65347960D01*
X194558632Y-65347959D01*
X194558628Y-65347958D01*
X194508513Y-65319023D01*
X194355785Y-65278099D01*
X194197671Y-65278099D01*
X194190075Y-65278099D01*
X194190059Y-65278100D01*
X193737138Y-65278100D01*
X193670099Y-65258415D01*
X193624344Y-65205611D01*
X193614400Y-65136453D01*
X193622577Y-65106648D01*
X193633094Y-65081254D01*
X193641463Y-65061052D01*
X193665500Y-64940206D01*
X193665500Y-64817800D01*
X193685185Y-64750761D01*
X193737989Y-64705006D01*
X193789500Y-64693800D01*
X194284600Y-64693800D01*
X194984881Y-63993519D01*
X195046204Y-63960034D01*
X195072562Y-63957200D01*
X201933000Y-63957200D01*
X202000039Y-63976885D01*
G37*
%TD.AperFunction*%
%TD*%
M02*
