M48
; DRILL file {KiCad 9.0.0} date 2025-03-18T11:03:31-0400
; FORMAT={-:-/ absolute / inch / decimal}
; #@! TF.CreationDate,2025-03-18T11:03:31-04:00
; #@! TF.GenerationSoftware,Kicad,Pcbnew,9.0.0
; #@! TF.FileFunction,Plated,1,2,PTH
FMAT,2
INCH
; #@! TA.AperFunction,Plated,PTH,ViaDrill
T1C0.0118
; #@! TA.AperFunction,Plated,PTH,ComponentDrill
T2C0.0197
; #@! TA.AperFunction,Plated,PTH,ComponentDrill
T3C0.0394
; #@! TA.AperFunction,Plated,PTH,ComponentDrill
T4C0.1260
%
G90
G05
T1
X7.024Y-3.416
X7.057Y-3.384
X7.09Y-3.48
X7.127Y-3.453
X7.185Y-2.394
X7.259Y-3.909
X7.259Y-4.024
X7.266Y-2.345
X7.299Y-2.714
X7.345Y-3.574
X7.346Y-2.337
X7.358Y-3.837
X7.374Y-3.242
X7.376Y-2.797
X7.458Y-2.417
X7.495Y-2.644
X7.5Y-3.601
X7.519Y-3.708
X7.543Y-2.798
X7.544Y-3.458
X7.545Y-3.406
X7.554Y-4.029
X7.5593Y-3.5757
X7.569Y-3.54
X7.578Y-3.312
X7.58Y-2.33
X7.58Y-2.375
X7.58Y-2.421
X7.581Y-2.489
X7.6046Y-3.3676
X7.606Y-3.452
X7.621Y-2.802
X7.623Y-2.681
X7.6333Y-3.3807
X7.642Y-3.451
X7.6675Y-3.7625
X7.6816Y-3.312
X7.691Y-2.656
X7.719Y-2.424
X7.729Y-3.533
X7.756Y-3.256
X7.795Y-3.069
X7.796Y-2.343
X7.8597Y-3.63
X7.8597Y-3.781
X7.876Y-2.339
X7.884Y-2.672
X7.89Y-3.352
X7.907Y-3.839
X7.9282Y-3.3824
X7.939Y-3.5311
X8.022Y-3.374
X8.055Y-3.693
X8.066Y-3.459
X8.0835Y-2.4275
X8.092Y-3.524
X8.092Y-3.5783
X8.112Y-2.348
T2
X6.2055Y-2.3
X6.2055Y-4.0
X6.2332Y-2.2332
X6.2332Y-2.3668
X6.2332Y-3.9332
X6.2332Y-4.0668
X6.3Y-2.2055
X6.3Y-2.3945
X6.3Y-3.9055
X6.3Y-4.0945
X6.3668Y-2.2332
X6.3668Y-2.3668
X6.3668Y-3.9332
X6.3668Y-4.0668
X6.3945Y-2.3
X6.3945Y-4.0
X6.6147Y-4.07
X6.6639Y-4.07
X6.7131Y-4.07
X6.7624Y-4.07
X6.8116Y-4.07
X6.8608Y-4.07
X6.91Y-4.07
X6.9592Y-4.07
X7.0084Y-4.07
X7.0576Y-4.07
X8.4055Y-2.3
X8.4055Y-4.0
X8.4332Y-2.2332
X8.4332Y-2.3668
X8.4332Y-3.9332
X8.4332Y-4.0668
X8.5Y-2.2055
X8.5Y-2.3945
X8.5Y-3.9055
X8.5Y-4.0945
X8.5668Y-2.2332
X8.5668Y-2.3668
X8.5668Y-3.9332
X8.5668Y-4.0668
X8.5945Y-2.3
X8.5945Y-4.0
T3
X6.7338Y-2.5118
X6.8322Y-2.5118
X6.909Y-2.793
X6.909Y-2.893
X6.909Y-2.993
X6.909Y-3.093
X6.909Y-3.193
X6.909Y-3.293
X6.909Y-3.393
X6.909Y-3.493
X6.909Y-3.593
X7.158Y-3.168
X7.258Y-3.168
X7.358Y-3.168
X7.458Y-3.168
X7.49Y-4.1
X7.558Y-3.168
X7.59Y-4.1
X7.658Y-3.168
X7.69Y-4.1
X7.758Y-3.168
X7.79Y-4.1
X7.858Y-3.168
X7.89Y-4.1
X7.958Y-3.168
X7.99Y-4.1
X8.18Y-2.2
X8.18Y-2.3
X8.18Y-2.4
X8.18Y-2.5
X8.18Y-2.6
X8.18Y-2.7
X8.18Y-2.8
X8.18Y-2.9
X8.18Y-3.0
X8.18Y-3.1
X8.18Y-3.2
X8.18Y-3.3
X8.18Y-3.4
X8.18Y-3.5
X8.18Y-3.6
X8.18Y-3.7
X8.18Y-3.8
X8.18Y-3.9
X8.18Y-4.0
X8.18Y-4.1
X8.28Y-2.2
X8.28Y-2.3
X8.28Y-2.4
X8.28Y-2.5
X8.28Y-2.6
X8.28Y-2.7
X8.28Y-2.8
X8.28Y-2.9
X8.28Y-3.0
X8.28Y-3.1
X8.28Y-3.2
X8.28Y-3.3
X8.28Y-3.4
X8.28Y-3.5
X8.28Y-3.6
X8.28Y-3.7
X8.28Y-3.8
X8.28Y-3.9
X8.28Y-4.0
X8.28Y-4.1
X8.53Y-3.5002
X8.53Y-3.6002
T4
X6.3Y-2.3
X6.3Y-4.0
X8.5Y-2.3
X8.5Y-4.0
M30
