%TF.GenerationSoftware,KiCad,Pcbnew,9.0.0*%
%TF.CreationDate,2025-03-18T11:03:33-04:00*%
%TF.ProjectId,umich_balloons_power,756d6963-685f-4626-916c-6c6f6f6e735f,rev?*%
%TF.SameCoordinates,Original*%
%TF.FileFunction,Soldermask,Top*%
%TF.FilePolarity,Negative*%
%FSLAX46Y46*%
G04 Gerber Fmt 4.6, Leading zero omitted, Abs format (unit mm)*
G04 Created by KiCad (PCBNEW 9.0.0) date 2025-03-18 11:03:33*
%MOMM*%
%LPD*%
G01*
G04 APERTURE LIST*
G04 Aperture macros list*
%AMRoundRect*
0 Rectangle with rounded corners*
0 $1 Rounding radius*
0 $2 $3 $4 $5 $6 $7 $8 $9 X,Y pos of 4 corners*
0 Add a 4 corners polygon primitive as box body*
4,1,4,$2,$3,$4,$5,$6,$7,$8,$9,$2,$3,0*
0 Add four circle primitives for the rounded corners*
1,1,$1+$1,$2,$3*
1,1,$1+$1,$4,$5*
1,1,$1+$1,$6,$7*
1,1,$1+$1,$8,$9*
0 Add four rect primitives between the rounded corners*
20,1,$1+$1,$2,$3,$4,$5,0*
20,1,$1+$1,$4,$5,$6,$7,0*
20,1,$1+$1,$6,$7,$8,$9,0*
20,1,$1+$1,$8,$9,$2,$3,0*%
G04 Aperture macros list end*
%ADD10C,0.000000*%
%ADD11RoundRect,0.200000X0.275000X-0.200000X0.275000X0.200000X-0.275000X0.200000X-0.275000X-0.200000X0*%
%ADD12RoundRect,0.200000X-0.275000X0.200000X-0.275000X-0.200000X0.275000X-0.200000X0.275000X0.200000X0*%
%ADD13RoundRect,0.025000X-0.275000X0.100000X-0.275000X-0.100000X0.275000X-0.100000X0.275000X0.100000X0*%
%ADD14RoundRect,0.025000X0.275000X-0.100000X0.275000X0.100000X-0.275000X0.100000X-0.275000X-0.100000X0*%
%ADD15RoundRect,0.025000X0.100000X0.275000X-0.100000X0.275000X-0.100000X-0.275000X0.100000X-0.275000X0*%
%ADD16RoundRect,0.025000X-0.100000X-0.275000X0.100000X-0.275000X0.100000X0.275000X-0.100000X0.275000X0*%
%ADD17RoundRect,0.025000X0.100000X-0.650000X0.100000X0.650000X-0.100000X0.650000X-0.100000X-0.650000X0*%
%ADD18RoundRect,0.025000X0.100000X-0.825000X0.100000X0.825000X-0.100000X0.825000X-0.100000X-0.825000X0*%
%ADD19RoundRect,0.225000X0.250000X-0.225000X0.250000X0.225000X-0.250000X0.225000X-0.250000X-0.225000X0*%
%ADD20RoundRect,0.250000X0.250000X0.475000X-0.250000X0.475000X-0.250000X-0.475000X0.250000X-0.475000X0*%
%ADD21RoundRect,0.250000X-0.250000X-0.475000X0.250000X-0.475000X0.250000X0.475000X-0.250000X0.475000X0*%
%ADD22RoundRect,0.150000X-0.875000X-0.150000X0.875000X-0.150000X0.875000X0.150000X-0.875000X0.150000X0*%
%ADD23RoundRect,0.200000X-0.200000X-0.275000X0.200000X-0.275000X0.200000X0.275000X-0.200000X0.275000X0*%
%ADD24R,0.980000X3.400000*%
%ADD25RoundRect,0.250000X0.600000X0.750000X-0.600000X0.750000X-0.600000X-0.750000X0.600000X-0.750000X0*%
%ADD26O,1.700000X2.000000*%
%ADD27R,1.700000X1.700000*%
%ADD28O,1.700000X1.700000*%
%ADD29RoundRect,0.200000X0.200000X0.450000X-0.200000X0.450000X-0.200000X-0.450000X0.200000X-0.450000X0*%
%ADD30O,0.800000X1.300000*%
%ADD31C,0.800000*%
%ADD32C,6.400000*%
%ADD33RoundRect,0.250000X0.475000X-0.250000X0.475000X0.250000X-0.475000X0.250000X-0.475000X-0.250000X0*%
%ADD34RoundRect,0.250000X-0.475000X0.250000X-0.475000X-0.250000X0.475000X-0.250000X0.475000X0.250000X0*%
G04 APERTURE END LIST*
D10*
%TO.C,U1*%
G36*
X194240000Y-65003600D02*
G01*
X193890000Y-65003600D01*
X193890000Y-65253600D01*
X194240000Y-65253600D01*
X194240000Y-65503600D01*
X193640000Y-65503600D01*
X193640000Y-65003600D01*
X193640000Y-64753600D01*
X194240000Y-64753600D01*
X194240000Y-65003600D01*
G37*
G36*
X191440000Y-65253600D02*
G01*
X191440000Y-65503600D01*
X190840000Y-65503600D01*
X190840000Y-65253600D01*
X191190000Y-65253600D01*
X191190000Y-65003600D01*
X190840000Y-65003600D01*
X190840000Y-64753600D01*
X191440000Y-64753600D01*
X191440000Y-65253600D01*
G37*
%TD*%
D11*
%TO.C,R4*%
X195986400Y-69507600D03*
X195986400Y-71157600D03*
%TD*%
D12*
%TO.C,R3*%
X194437000Y-71157600D03*
X194437000Y-69507600D03*
%TD*%
D13*
%TO.C,U1*%
X191140000Y-66378600D03*
X191140000Y-65878600D03*
D14*
X193940000Y-65878600D03*
X193940000Y-66378600D03*
D15*
X193290000Y-66803600D03*
X192790000Y-66803600D03*
D16*
X192290000Y-66803600D03*
X191790000Y-66803600D03*
D17*
X193040000Y-64878600D03*
X192040000Y-64878600D03*
D18*
X192540000Y-65053600D03*
%TD*%
D19*
%TO.C,C4*%
X196088000Y-64376600D03*
X196088000Y-62826600D03*
%TD*%
%TO.C,C1*%
X189433200Y-63970200D03*
X189433200Y-62420200D03*
%TD*%
D20*
%TO.C,C2*%
X191307800Y-72517000D03*
X189407800Y-72517000D03*
%TD*%
D21*
%TO.C,C6*%
X199070000Y-67843400D03*
X197170000Y-67843400D03*
%TD*%
D22*
%TO.C,U2*%
X188974200Y-86498700D03*
X188974200Y-87768700D03*
X188974200Y-89038700D03*
X188974200Y-90308700D03*
X188974200Y-91578700D03*
X188974200Y-92848700D03*
X188974200Y-94118700D03*
X188974200Y-95388700D03*
X188974200Y-96658700D03*
X198274200Y-96658700D03*
X198274200Y-95388700D03*
X198274200Y-94118700D03*
X198274200Y-92848700D03*
X198274200Y-91578700D03*
X198274200Y-90308700D03*
X198274200Y-89038700D03*
X198274200Y-87768700D03*
X198274200Y-86498700D03*
%TD*%
D23*
%TO.C,R5*%
X183502800Y-92862400D03*
X185152800Y-92862400D03*
%TD*%
D11*
%TO.C,R2*%
X189382400Y-69963800D03*
X189382400Y-68313800D03*
%TD*%
%TO.C,R1*%
X190931800Y-69963800D03*
X190931800Y-68313800D03*
%TD*%
D24*
%TO.C,L1*%
X191347000Y-60904800D03*
X193717000Y-60904800D03*
%TD*%
D25*
%TO.C,J7*%
X173538200Y-63800400D03*
D26*
X171038200Y-63800400D03*
%TD*%
D27*
%TO.C,J6*%
X190246000Y-104140000D03*
D28*
X192786000Y-104140000D03*
X195326000Y-104140000D03*
X197866000Y-104140000D03*
X200406000Y-104140000D03*
X202946000Y-104140000D03*
%TD*%
D27*
%TO.C,J5*%
X181813200Y-80467200D03*
D28*
X184353200Y-80467200D03*
X186893200Y-80467200D03*
X189433200Y-80467200D03*
X191973200Y-80467200D03*
X194513200Y-80467200D03*
X197053200Y-80467200D03*
X199593200Y-80467200D03*
X202133200Y-80467200D03*
%TD*%
D27*
%TO.C,J4*%
X175488600Y-91262200D03*
D28*
X175488600Y-88722200D03*
X175488600Y-86182200D03*
X175488600Y-83642200D03*
X175488600Y-81102200D03*
X175488600Y-78562200D03*
X175488600Y-76022200D03*
X175488600Y-73482200D03*
X175488600Y-70942200D03*
%TD*%
D29*
%TO.C,J3*%
X179264000Y-103378000D03*
D30*
X178014000Y-103378000D03*
X176764000Y-103378000D03*
X175514000Y-103378000D03*
X174264000Y-103378000D03*
X173014000Y-103378000D03*
X171764000Y-103378000D03*
X170514000Y-103378000D03*
X169264000Y-103378000D03*
X168014000Y-103378000D03*
%TD*%
D27*
%TO.C,J2*%
X207772000Y-55880000D03*
D28*
X210312000Y-55880000D03*
X207772000Y-58420000D03*
X210312000Y-58420000D03*
X207772000Y-60960000D03*
X210312000Y-60960000D03*
X207772000Y-63500000D03*
X210312000Y-63500000D03*
X207772000Y-66040000D03*
X210312000Y-66040000D03*
X207772000Y-68580000D03*
X210312000Y-68580000D03*
X207772000Y-71120000D03*
X210312000Y-71120000D03*
X207772000Y-73660000D03*
X210312000Y-73660000D03*
X207772000Y-76200000D03*
X210312000Y-76200000D03*
X207772000Y-78740000D03*
X210312000Y-78740000D03*
X207772000Y-81280000D03*
X210312000Y-81280000D03*
X207772000Y-83820000D03*
X210312000Y-83820000D03*
X207772000Y-86360000D03*
X210312000Y-86360000D03*
X207772000Y-88900000D03*
X210312000Y-88900000D03*
X207772000Y-91440000D03*
X210312000Y-91440000D03*
X207772000Y-93980000D03*
X210312000Y-93980000D03*
X207772000Y-96520000D03*
X210312000Y-96520000D03*
X207772000Y-99060000D03*
X210312000Y-99060000D03*
X207772000Y-101600000D03*
X210312000Y-101600000D03*
X207772000Y-104140000D03*
X210312000Y-104140000D03*
%TD*%
D27*
%TO.C,J1*%
X216662000Y-91445000D03*
D28*
X216662000Y-88905000D03*
%TD*%
D31*
%TO.C,H4*%
X213500000Y-101600000D03*
X214202944Y-99902944D03*
X214202944Y-103297056D03*
X215900000Y-99200000D03*
D32*
X215900000Y-101600000D03*
D31*
X215900000Y-104000000D03*
X217597056Y-99902944D03*
X217597056Y-103297056D03*
X218300000Y-101600000D03*
%TD*%
%TO.C,H3*%
X157620000Y-101600000D03*
X158322944Y-99902944D03*
X158322944Y-103297056D03*
X160020000Y-99200000D03*
D32*
X160020000Y-101600000D03*
D31*
X160020000Y-104000000D03*
X161717056Y-99902944D03*
X161717056Y-103297056D03*
X162420000Y-101600000D03*
%TD*%
%TO.C,H2*%
X213500000Y-58420000D03*
X214202944Y-56722944D03*
X214202944Y-60117056D03*
X215900000Y-56020000D03*
D32*
X215900000Y-58420000D03*
D31*
X215900000Y-60820000D03*
X217597056Y-56722944D03*
X217597056Y-60117056D03*
X218300000Y-58420000D03*
%TD*%
%TO.C,H1*%
X157620000Y-58420000D03*
X158322944Y-56722944D03*
X158322944Y-60117056D03*
X160020000Y-56020000D03*
D32*
X160020000Y-58420000D03*
D31*
X160020000Y-60820000D03*
X161717056Y-56722944D03*
X161717056Y-60117056D03*
X162420000Y-58420000D03*
%TD*%
D33*
%TO.C,C10*%
X186588400Y-62799000D03*
X186588400Y-60899000D03*
%TD*%
%TO.C,C9*%
X184556400Y-62799000D03*
X184556400Y-60899000D03*
%TD*%
%TO.C,C7*%
X200050400Y-63180000D03*
X200050400Y-61280000D03*
%TD*%
%TO.C,C5*%
X198018400Y-63205400D03*
X198018400Y-61305400D03*
%TD*%
D34*
%TO.C,C3*%
X187452000Y-67096600D03*
X187452000Y-68996600D03*
%TD*%
M02*
