%TF.GenerationSoftware,KiCad,Pcbnew,9.0.0*%
%TF.CreationDate,2025-03-24T21:12:25-04:00*%
%TF.ProjectId,umich_balloons_external,756d6963-685f-4626-916c-6c6f6f6e735f,rev?*%
%TF.SameCoordinates,Original*%
%TF.FileFunction,Copper,L1,Top*%
%TF.FilePolarity,Positive*%
%FSLAX46Y46*%
G04 Gerber Fmt 4.6, Leading zero omitted, Abs format (unit mm)*
G04 Created by KiCad (PCBNEW 9.0.0) date 2025-03-24 21:12:25*
%MOMM*%
%LPD*%
G01*
G04 APERTURE LIST*
G04 Aperture macros list*
%AMRoundRect*
0 Rectangle with rounded corners*
0 $1 Rounding radius*
0 $2 $3 $4 $5 $6 $7 $8 $9 X,Y pos of 4 corners*
0 Add a 4 corners polygon primitive as box body*
4,1,4,$2,$3,$4,$5,$6,$7,$8,$9,$2,$3,0*
0 Add four circle primitives for the rounded corners*
1,1,$1+$1,$2,$3*
1,1,$1+$1,$4,$5*
1,1,$1+$1,$6,$7*
1,1,$1+$1,$8,$9*
0 Add four rect primitives between the rounded corners*
20,1,$1+$1,$2,$3,$4,$5,0*
20,1,$1+$1,$4,$5,$6,$7,0*
20,1,$1+$1,$6,$7,$8,$9,0*
20,1,$1+$1,$8,$9,$2,$3,0*%
G04 Aperture macros list end*
%ADD10C,0.300000*%
%TA.AperFunction,NonConductor*%
%ADD11C,0.300000*%
%TD*%
%TA.AperFunction,ComponentPad*%
%ADD12C,0.800000*%
%TD*%
%TA.AperFunction,ComponentPad*%
%ADD13C,6.400000*%
%TD*%
%TA.AperFunction,ComponentPad*%
%ADD14C,2.800000*%
%TD*%
%TA.AperFunction,ComponentPad*%
%ADD15C,1.800000*%
%TD*%
%TA.AperFunction,ComponentPad*%
%ADD16R,1.800000X1.800000*%
%TD*%
%TA.AperFunction,ComponentPad*%
%ADD17C,1.600000*%
%TD*%
%TA.AperFunction,ComponentPad*%
%ADD18O,1.600000X1.600000*%
%TD*%
%TA.AperFunction,ComponentPad*%
%ADD19RoundRect,0.250000X-0.725000X0.600000X-0.725000X-0.600000X0.725000X-0.600000X0.725000X0.600000X0*%
%TD*%
%TA.AperFunction,ComponentPad*%
%ADD20O,1.950000X1.700000*%
%TD*%
%TA.AperFunction,Conductor*%
%ADD21C,0.200000*%
%TD*%
%TA.AperFunction,Conductor*%
%ADD22C,1.500000*%
%TD*%
G04 APERTURE END LIST*
D10*
D11*
X92502510Y-73355912D02*
X92502510Y-74570198D01*
X92502510Y-74570198D02*
X92573939Y-74713055D01*
X92573939Y-74713055D02*
X92645368Y-74784484D01*
X92645368Y-74784484D02*
X92788225Y-74855912D01*
X92788225Y-74855912D02*
X93073939Y-74855912D01*
X93073939Y-74855912D02*
X93216796Y-74784484D01*
X93216796Y-74784484D02*
X93288225Y-74713055D01*
X93288225Y-74713055D02*
X93359653Y-74570198D01*
X93359653Y-74570198D02*
X93359653Y-73355912D01*
X94073939Y-74855912D02*
X94073939Y-73355912D01*
X94073939Y-73355912D02*
X94573939Y-74427341D01*
X94573939Y-74427341D02*
X95073939Y-73355912D01*
X95073939Y-73355912D02*
X95073939Y-74855912D01*
X95788225Y-74855912D02*
X95788225Y-73355912D01*
X97359654Y-74713055D02*
X97288226Y-74784484D01*
X97288226Y-74784484D02*
X97073940Y-74855912D01*
X97073940Y-74855912D02*
X96931083Y-74855912D01*
X96931083Y-74855912D02*
X96716797Y-74784484D01*
X96716797Y-74784484D02*
X96573940Y-74641626D01*
X96573940Y-74641626D02*
X96502511Y-74498769D01*
X96502511Y-74498769D02*
X96431083Y-74213055D01*
X96431083Y-74213055D02*
X96431083Y-73998769D01*
X96431083Y-73998769D02*
X96502511Y-73713055D01*
X96502511Y-73713055D02*
X96573940Y-73570198D01*
X96573940Y-73570198D02*
X96716797Y-73427341D01*
X96716797Y-73427341D02*
X96931083Y-73355912D01*
X96931083Y-73355912D02*
X97073940Y-73355912D01*
X97073940Y-73355912D02*
X97288226Y-73427341D01*
X97288226Y-73427341D02*
X97359654Y-73498769D01*
X98002511Y-74855912D02*
X98002511Y-73355912D01*
X98002511Y-74070198D02*
X98859654Y-74070198D01*
X98859654Y-74855912D02*
X98859654Y-73355912D01*
X101216797Y-74070198D02*
X101431083Y-74141626D01*
X101431083Y-74141626D02*
X101502512Y-74213055D01*
X101502512Y-74213055D02*
X101573940Y-74355912D01*
X101573940Y-74355912D02*
X101573940Y-74570198D01*
X101573940Y-74570198D02*
X101502512Y-74713055D01*
X101502512Y-74713055D02*
X101431083Y-74784484D01*
X101431083Y-74784484D02*
X101288226Y-74855912D01*
X101288226Y-74855912D02*
X100716797Y-74855912D01*
X100716797Y-74855912D02*
X100716797Y-73355912D01*
X100716797Y-73355912D02*
X101216797Y-73355912D01*
X101216797Y-73355912D02*
X101359655Y-73427341D01*
X101359655Y-73427341D02*
X101431083Y-73498769D01*
X101431083Y-73498769D02*
X101502512Y-73641626D01*
X101502512Y-73641626D02*
X101502512Y-73784484D01*
X101502512Y-73784484D02*
X101431083Y-73927341D01*
X101431083Y-73927341D02*
X101359655Y-73998769D01*
X101359655Y-73998769D02*
X101216797Y-74070198D01*
X101216797Y-74070198D02*
X100716797Y-74070198D01*
X102145369Y-74427341D02*
X102859655Y-74427341D01*
X102002512Y-74855912D02*
X102502512Y-73355912D01*
X102502512Y-73355912D02*
X103002512Y-74855912D01*
X104216797Y-74855912D02*
X103502511Y-74855912D01*
X103502511Y-74855912D02*
X103502511Y-73355912D01*
X105431083Y-74855912D02*
X104716797Y-74855912D01*
X104716797Y-74855912D02*
X104716797Y-73355912D01*
X106216798Y-73355912D02*
X106502512Y-73355912D01*
X106502512Y-73355912D02*
X106645369Y-73427341D01*
X106645369Y-73427341D02*
X106788226Y-73570198D01*
X106788226Y-73570198D02*
X106859655Y-73855912D01*
X106859655Y-73855912D02*
X106859655Y-74355912D01*
X106859655Y-74355912D02*
X106788226Y-74641626D01*
X106788226Y-74641626D02*
X106645369Y-74784484D01*
X106645369Y-74784484D02*
X106502512Y-74855912D01*
X106502512Y-74855912D02*
X106216798Y-74855912D01*
X106216798Y-74855912D02*
X106073941Y-74784484D01*
X106073941Y-74784484D02*
X105931083Y-74641626D01*
X105931083Y-74641626D02*
X105859655Y-74355912D01*
X105859655Y-74355912D02*
X105859655Y-73855912D01*
X105859655Y-73855912D02*
X105931083Y-73570198D01*
X105931083Y-73570198D02*
X106073941Y-73427341D01*
X106073941Y-73427341D02*
X106216798Y-73355912D01*
X107788227Y-73355912D02*
X108073941Y-73355912D01*
X108073941Y-73355912D02*
X108216798Y-73427341D01*
X108216798Y-73427341D02*
X108359655Y-73570198D01*
X108359655Y-73570198D02*
X108431084Y-73855912D01*
X108431084Y-73855912D02*
X108431084Y-74355912D01*
X108431084Y-74355912D02*
X108359655Y-74641626D01*
X108359655Y-74641626D02*
X108216798Y-74784484D01*
X108216798Y-74784484D02*
X108073941Y-74855912D01*
X108073941Y-74855912D02*
X107788227Y-74855912D01*
X107788227Y-74855912D02*
X107645370Y-74784484D01*
X107645370Y-74784484D02*
X107502512Y-74641626D01*
X107502512Y-74641626D02*
X107431084Y-74355912D01*
X107431084Y-74355912D02*
X107431084Y-73855912D01*
X107431084Y-73855912D02*
X107502512Y-73570198D01*
X107502512Y-73570198D02*
X107645370Y-73427341D01*
X107645370Y-73427341D02*
X107788227Y-73355912D01*
X109073941Y-74855912D02*
X109073941Y-73355912D01*
X109073941Y-73355912D02*
X109931084Y-74855912D01*
X109931084Y-74855912D02*
X109931084Y-73355912D01*
X110573942Y-74784484D02*
X110788228Y-74855912D01*
X110788228Y-74855912D02*
X111145370Y-74855912D01*
X111145370Y-74855912D02*
X111288228Y-74784484D01*
X111288228Y-74784484D02*
X111359656Y-74713055D01*
X111359656Y-74713055D02*
X111431085Y-74570198D01*
X111431085Y-74570198D02*
X111431085Y-74427341D01*
X111431085Y-74427341D02*
X111359656Y-74284484D01*
X111359656Y-74284484D02*
X111288228Y-74213055D01*
X111288228Y-74213055D02*
X111145370Y-74141626D01*
X111145370Y-74141626D02*
X110859656Y-74070198D01*
X110859656Y-74070198D02*
X110716799Y-73998769D01*
X110716799Y-73998769D02*
X110645370Y-73927341D01*
X110645370Y-73927341D02*
X110573942Y-73784484D01*
X110573942Y-73784484D02*
X110573942Y-73641626D01*
X110573942Y-73641626D02*
X110645370Y-73498769D01*
X110645370Y-73498769D02*
X110716799Y-73427341D01*
X110716799Y-73427341D02*
X110859656Y-73355912D01*
X110859656Y-73355912D02*
X111216799Y-73355912D01*
X111216799Y-73355912D02*
X111431085Y-73427341D01*
X92502510Y-76485114D02*
X93002510Y-76485114D01*
X93216796Y-77270828D02*
X92502510Y-77270828D01*
X92502510Y-77270828D02*
X92502510Y-75770828D01*
X92502510Y-75770828D02*
X93216796Y-75770828D01*
X93716796Y-75770828D02*
X94716796Y-77270828D01*
X94716796Y-75770828D02*
X93716796Y-77270828D01*
X95073939Y-75770828D02*
X95931082Y-75770828D01*
X95502510Y-77270828D02*
X95502510Y-75770828D01*
X96431081Y-76485114D02*
X96931081Y-76485114D01*
X97145367Y-77270828D02*
X96431081Y-77270828D01*
X96431081Y-77270828D02*
X96431081Y-75770828D01*
X96431081Y-75770828D02*
X97145367Y-75770828D01*
X98645367Y-77270828D02*
X98145367Y-76556542D01*
X97788224Y-77270828D02*
X97788224Y-75770828D01*
X97788224Y-75770828D02*
X98359653Y-75770828D01*
X98359653Y-75770828D02*
X98502510Y-75842257D01*
X98502510Y-75842257D02*
X98573939Y-75913685D01*
X98573939Y-75913685D02*
X98645367Y-76056542D01*
X98645367Y-76056542D02*
X98645367Y-76270828D01*
X98645367Y-76270828D02*
X98573939Y-76413685D01*
X98573939Y-76413685D02*
X98502510Y-76485114D01*
X98502510Y-76485114D02*
X98359653Y-76556542D01*
X98359653Y-76556542D02*
X97788224Y-76556542D01*
X99288224Y-77270828D02*
X99288224Y-75770828D01*
X99288224Y-75770828D02*
X100145367Y-77270828D01*
X100145367Y-77270828D02*
X100145367Y-75770828D01*
X100788225Y-76842257D02*
X101502511Y-76842257D01*
X100645368Y-77270828D02*
X101145368Y-75770828D01*
X101145368Y-75770828D02*
X101645368Y-77270828D01*
X102859653Y-77270828D02*
X102145367Y-77270828D01*
X102145367Y-77270828D02*
X102145367Y-75770828D01*
X105002510Y-76485114D02*
X105216796Y-76556542D01*
X105216796Y-76556542D02*
X105288225Y-76627971D01*
X105288225Y-76627971D02*
X105359653Y-76770828D01*
X105359653Y-76770828D02*
X105359653Y-76985114D01*
X105359653Y-76985114D02*
X105288225Y-77127971D01*
X105288225Y-77127971D02*
X105216796Y-77199400D01*
X105216796Y-77199400D02*
X105073939Y-77270828D01*
X105073939Y-77270828D02*
X104502510Y-77270828D01*
X104502510Y-77270828D02*
X104502510Y-75770828D01*
X104502510Y-75770828D02*
X105002510Y-75770828D01*
X105002510Y-75770828D02*
X105145368Y-75842257D01*
X105145368Y-75842257D02*
X105216796Y-75913685D01*
X105216796Y-75913685D02*
X105288225Y-76056542D01*
X105288225Y-76056542D02*
X105288225Y-76199400D01*
X105288225Y-76199400D02*
X105216796Y-76342257D01*
X105216796Y-76342257D02*
X105145368Y-76413685D01*
X105145368Y-76413685D02*
X105002510Y-76485114D01*
X105002510Y-76485114D02*
X104502510Y-76485114D01*
X106288225Y-75770828D02*
X106573939Y-75770828D01*
X106573939Y-75770828D02*
X106716796Y-75842257D01*
X106716796Y-75842257D02*
X106859653Y-75985114D01*
X106859653Y-75985114D02*
X106931082Y-76270828D01*
X106931082Y-76270828D02*
X106931082Y-76770828D01*
X106931082Y-76770828D02*
X106859653Y-77056542D01*
X106859653Y-77056542D02*
X106716796Y-77199400D01*
X106716796Y-77199400D02*
X106573939Y-77270828D01*
X106573939Y-77270828D02*
X106288225Y-77270828D01*
X106288225Y-77270828D02*
X106145368Y-77199400D01*
X106145368Y-77199400D02*
X106002510Y-77056542D01*
X106002510Y-77056542D02*
X105931082Y-76770828D01*
X105931082Y-76770828D02*
X105931082Y-76270828D01*
X105931082Y-76270828D02*
X106002510Y-75985114D01*
X106002510Y-75985114D02*
X106145368Y-75842257D01*
X106145368Y-75842257D02*
X106288225Y-75770828D01*
X107502511Y-76842257D02*
X108216797Y-76842257D01*
X107359654Y-77270828D02*
X107859654Y-75770828D01*
X107859654Y-75770828D02*
X108359654Y-77270828D01*
X109716796Y-77270828D02*
X109216796Y-76556542D01*
X108859653Y-77270828D02*
X108859653Y-75770828D01*
X108859653Y-75770828D02*
X109431082Y-75770828D01*
X109431082Y-75770828D02*
X109573939Y-75842257D01*
X109573939Y-75842257D02*
X109645368Y-75913685D01*
X109645368Y-75913685D02*
X109716796Y-76056542D01*
X109716796Y-76056542D02*
X109716796Y-76270828D01*
X109716796Y-76270828D02*
X109645368Y-76413685D01*
X109645368Y-76413685D02*
X109573939Y-76485114D01*
X109573939Y-76485114D02*
X109431082Y-76556542D01*
X109431082Y-76556542D02*
X108859653Y-76556542D01*
X110359653Y-77270828D02*
X110359653Y-75770828D01*
X110359653Y-75770828D02*
X110716796Y-75770828D01*
X110716796Y-75770828D02*
X110931082Y-75842257D01*
X110931082Y-75842257D02*
X111073939Y-75985114D01*
X111073939Y-75985114D02*
X111145368Y-76127971D01*
X111145368Y-76127971D02*
X111216796Y-76413685D01*
X111216796Y-76413685D02*
X111216796Y-76627971D01*
X111216796Y-76627971D02*
X111145368Y-76913685D01*
X111145368Y-76913685D02*
X111073939Y-77056542D01*
X111073939Y-77056542D02*
X110931082Y-77199400D01*
X110931082Y-77199400D02*
X110716796Y-77270828D01*
X110716796Y-77270828D02*
X110359653Y-77270828D01*
D12*
%TO.P,H2,1,1*%
%TO.N,GND*%
X136512000Y-81280000D03*
X135809056Y-82977056D03*
X135809056Y-79582944D03*
X134112000Y-83680000D03*
D13*
X134112000Y-81280000D03*
D12*
X134112000Y-78880000D03*
X132414944Y-82977056D03*
X132414944Y-79582944D03*
X131712000Y-81280000D03*
%TD*%
%TO.P,H1,1,1*%
%TO.N,GND*%
X93840000Y-81280000D03*
X93137056Y-82977056D03*
X93137056Y-79582944D03*
X91440000Y-83680000D03*
D13*
X91440000Y-81280000D03*
D12*
X91440000Y-78880000D03*
X89742944Y-82977056D03*
X89742944Y-79582944D03*
X89040000Y-81280000D03*
%TD*%
D14*
%TO.P,SW1,1,A*%
%TO.N,unconnected-(SW1-A-Pad1)*%
X116582000Y-82804000D03*
%TO.P,SW1,2,B*%
%TO.N,Net-(J1-Pin_5)*%
X117602000Y-75034000D03*
%TO.P,SW1,3,C*%
%TO.N,Net-(J1-Pin_4)*%
X121562000Y-78994000D03*
%TD*%
D15*
%TO.P,D2,2,A*%
%TO.N,Net-(D2-A)*%
X107950000Y-80010000D03*
D16*
%TO.P,D2,1,K*%
%TO.N,Net-(D2-K)*%
X107950000Y-82550000D03*
%TD*%
D17*
%TO.P,R2,1*%
%TO.N,Net-(D1-K)*%
X98552000Y-87884000D03*
D18*
%TO.P,R2,2*%
%TO.N,GND*%
X108712000Y-87884000D03*
%TD*%
D17*
%TO.P,R1,1*%
%TO.N,Net-(D2-K)*%
X111252000Y-87884000D03*
D18*
%TO.P,R1,2*%
%TO.N,GND*%
X121412000Y-87884000D03*
%TD*%
D19*
%TO.P,J1,1,Pin_1*%
%TO.N,GND*%
X125730000Y-76280000D03*
D20*
%TO.P,J1,2,Pin_2*%
%TO.N,Net-(D2-A)*%
X125730000Y-78780000D03*
%TO.P,J1,3,Pin_3*%
%TO.N,Net-(D1-A)*%
X125730000Y-81280000D03*
%TO.P,J1,4,Pin_4*%
%TO.N,Net-(J1-Pin_4)*%
X125730000Y-83780000D03*
%TO.P,J1,5,Pin_5*%
%TO.N,Net-(J1-Pin_5)*%
X125730000Y-86280000D03*
%TD*%
D16*
%TO.P,D1,1,K*%
%TO.N,Net-(D1-K)*%
X99822000Y-82550000D03*
D15*
%TO.P,D1,2,A*%
%TO.N,Net-(D1-A)*%
X99822000Y-80010000D03*
%TD*%
D21*
%TO.N,Net-(D1-K)*%
X99822000Y-86614000D02*
X98552000Y-87884000D01*
X99822000Y-82550000D02*
X99822000Y-86614000D01*
%TO.N,Net-(D2-K)*%
X107950000Y-84582000D02*
X111252000Y-87884000D01*
X107950000Y-82550000D02*
X107950000Y-84582000D01*
D22*
%TO.N,Net-(J1-Pin_4)*%
X121562000Y-80973898D02*
X124368102Y-83780000D01*
X124368102Y-83780000D02*
X125730000Y-83780000D01*
X121562000Y-78994000D02*
X121562000Y-80973898D01*
%TO.N,Net-(J1-Pin_5)*%
X123618000Y-86280000D02*
X125730000Y-86280000D01*
X117602000Y-80264000D02*
X123618000Y-86280000D01*
X117602000Y-80264000D02*
X117602000Y-75034000D01*
%TD*%
%TA.AperFunction,Conductor*%
%TO.N,GND*%
G36*
X117498368Y-72910185D02*
G01*
X117544123Y-72962989D01*
X117554067Y-73032147D01*
X117525042Y-73095703D01*
X117466264Y-73133477D01*
X117447514Y-73137439D01*
X117230438Y-73166017D01*
X116989792Y-73230498D01*
X116759638Y-73325830D01*
X116759623Y-73325837D01*
X116543873Y-73450400D01*
X116346225Y-73602060D01*
X116346218Y-73602066D01*
X116170066Y-73778218D01*
X116170060Y-73778225D01*
X116018400Y-73975873D01*
X115893837Y-74191623D01*
X115893830Y-74191638D01*
X115798498Y-74421792D01*
X115734017Y-74662438D01*
X115701501Y-74909424D01*
X115701500Y-74909441D01*
X115701500Y-75158558D01*
X115701501Y-75158575D01*
X115734017Y-75405561D01*
X115798498Y-75646207D01*
X115893830Y-75876361D01*
X115893837Y-75876376D01*
X116018400Y-76092126D01*
X116170060Y-76289774D01*
X116170066Y-76289781D01*
X116315181Y-76434896D01*
X116348666Y-76496219D01*
X116351500Y-76522577D01*
X116351500Y-80362422D01*
X116382290Y-80556826D01*
X116417541Y-80665316D01*
X116443116Y-80744026D01*
X116443118Y-80744029D01*
X116443119Y-80744033D01*
X116444660Y-80747755D01*
X116452120Y-80817226D01*
X116420838Y-80879701D01*
X116360744Y-80915346D01*
X116346279Y-80918133D01*
X116210438Y-80936017D01*
X115969792Y-81000498D01*
X115739638Y-81095830D01*
X115739623Y-81095837D01*
X115523873Y-81220400D01*
X115326225Y-81372060D01*
X115326218Y-81372066D01*
X115150066Y-81548218D01*
X115150060Y-81548225D01*
X114998400Y-81745873D01*
X114873837Y-81961623D01*
X114873830Y-81961638D01*
X114778498Y-82191792D01*
X114714017Y-82432438D01*
X114681501Y-82679424D01*
X114681500Y-82679441D01*
X114681500Y-82928558D01*
X114681501Y-82928575D01*
X114714017Y-83175561D01*
X114778498Y-83416207D01*
X114873830Y-83646361D01*
X114873837Y-83646376D01*
X114998400Y-83862126D01*
X115150060Y-84059774D01*
X115150066Y-84059781D01*
X115326218Y-84235933D01*
X115326225Y-84235939D01*
X115523873Y-84387599D01*
X115739623Y-84512162D01*
X115739638Y-84512169D01*
X115838825Y-84553253D01*
X115969793Y-84607502D01*
X116210435Y-84671982D01*
X116457435Y-84704500D01*
X116457442Y-84704500D01*
X116706558Y-84704500D01*
X116706565Y-84704500D01*
X116953565Y-84671982D01*
X117194207Y-84607502D01*
X117424373Y-84512164D01*
X117640127Y-84387599D01*
X117837776Y-84235938D01*
X118013938Y-84059776D01*
X118165599Y-83862127D01*
X118290164Y-83646373D01*
X118385502Y-83416207D01*
X118449982Y-83175565D01*
X118451493Y-83164083D01*
X118479757Y-83100189D01*
X118538080Y-83061716D01*
X118607945Y-83060882D01*
X118662113Y-83092587D01*
X122046784Y-86477259D01*
X122080269Y-86538582D01*
X122075285Y-86608274D01*
X122033413Y-86664207D01*
X121967949Y-86688624D01*
X121915845Y-86680182D01*
X121915661Y-86680749D01*
X121911999Y-86679559D01*
X121911658Y-86679504D01*
X121911034Y-86679245D01*
X121716413Y-86616009D01*
X121662000Y-86607390D01*
X121662000Y-87568314D01*
X121657606Y-87563920D01*
X121566394Y-87511259D01*
X121464661Y-87484000D01*
X121359339Y-87484000D01*
X121257606Y-87511259D01*
X121166394Y-87563920D01*
X121162000Y-87568314D01*
X121162000Y-86607390D01*
X121107586Y-86616009D01*
X120912970Y-86679244D01*
X120730650Y-86772140D01*
X120565105Y-86892417D01*
X120565104Y-86892417D01*
X120420417Y-87037104D01*
X120420417Y-87037105D01*
X120300140Y-87202650D01*
X120207244Y-87384970D01*
X120144009Y-87579586D01*
X120135391Y-87634000D01*
X121096314Y-87634000D01*
X121091920Y-87638394D01*
X121039259Y-87729606D01*
X121012000Y-87831339D01*
X121012000Y-87936661D01*
X121039259Y-88038394D01*
X121091920Y-88129606D01*
X121096314Y-88134000D01*
X120135391Y-88134000D01*
X120144009Y-88188413D01*
X120207244Y-88383029D01*
X120300140Y-88565349D01*
X120420417Y-88730894D01*
X120420417Y-88730895D01*
X120565104Y-88875582D01*
X120730650Y-88995859D01*
X120912968Y-89088754D01*
X121107578Y-89151988D01*
X121162000Y-89160607D01*
X121162000Y-88199686D01*
X121166394Y-88204080D01*
X121257606Y-88256741D01*
X121359339Y-88284000D01*
X121464661Y-88284000D01*
X121566394Y-88256741D01*
X121657606Y-88204080D01*
X121662000Y-88199686D01*
X121662000Y-89160606D01*
X121716421Y-89151988D01*
X121911031Y-89088754D01*
X122093349Y-88995859D01*
X122258894Y-88875582D01*
X122258895Y-88875582D01*
X122403582Y-88730895D01*
X122403582Y-88730894D01*
X122523859Y-88565349D01*
X122616755Y-88383029D01*
X122679990Y-88188413D01*
X122688609Y-88134000D01*
X121727686Y-88134000D01*
X121732080Y-88129606D01*
X121784741Y-88038394D01*
X121812000Y-87936661D01*
X121812000Y-87831339D01*
X121784741Y-87729606D01*
X121732080Y-87638394D01*
X121727686Y-87634000D01*
X122688609Y-87634000D01*
X122679990Y-87579586D01*
X122616756Y-87384973D01*
X122615125Y-87381034D01*
X122607655Y-87311565D01*
X122638928Y-87249085D01*
X122699016Y-87213431D01*
X122768842Y-87215924D01*
X122802570Y-87233261D01*
X122962590Y-87349521D01*
X122962592Y-87349522D01*
X122962595Y-87349524D01*
X123024437Y-87381034D01*
X123137969Y-87438882D01*
X123137971Y-87438882D01*
X123137974Y-87438884D01*
X123213599Y-87463456D01*
X123325173Y-87499709D01*
X123519578Y-87530500D01*
X123519583Y-87530500D01*
X123519584Y-87530500D01*
X123716417Y-87530500D01*
X125063694Y-87530500D01*
X125102012Y-87536569D01*
X125141712Y-87549468D01*
X125288757Y-87597246D01*
X125498713Y-87630500D01*
X125498714Y-87630500D01*
X125961286Y-87630500D01*
X125961287Y-87630500D01*
X126171243Y-87597246D01*
X126373412Y-87531557D01*
X126562816Y-87435051D01*
X126680539Y-87349521D01*
X126734786Y-87310109D01*
X126734788Y-87310106D01*
X126734792Y-87310104D01*
X126885104Y-87159792D01*
X126885106Y-87159788D01*
X126885109Y-87159786D01*
X127010048Y-86987820D01*
X127010047Y-86987820D01*
X127010051Y-86987816D01*
X127106557Y-86798412D01*
X127172246Y-86596243D01*
X127205500Y-86386287D01*
X127205500Y-86173713D01*
X127172246Y-85963757D01*
X127106557Y-85761588D01*
X127010051Y-85572184D01*
X127010049Y-85572181D01*
X127010048Y-85572179D01*
X126885109Y-85400213D01*
X126734792Y-85249896D01*
X126570204Y-85130316D01*
X126527540Y-85074989D01*
X126521561Y-85005376D01*
X126554166Y-84943580D01*
X126570199Y-84929686D01*
X126734792Y-84810104D01*
X126885104Y-84659792D01*
X126885106Y-84659788D01*
X126885109Y-84659786D01*
X127010048Y-84487820D01*
X127010047Y-84487820D01*
X127010051Y-84487816D01*
X127106557Y-84298412D01*
X127172246Y-84096243D01*
X127205500Y-83886287D01*
X127205500Y-83673713D01*
X127172246Y-83463757D01*
X127106557Y-83261588D01*
X127010051Y-83072184D01*
X127010049Y-83072181D01*
X127010048Y-83072179D01*
X126885109Y-82900213D01*
X126734792Y-82749896D01*
X126637818Y-82679441D01*
X126570204Y-82630316D01*
X126527540Y-82574989D01*
X126521561Y-82505376D01*
X126554166Y-82443580D01*
X126570199Y-82429686D01*
X126734792Y-82310104D01*
X126885104Y-82159792D01*
X126885106Y-82159788D01*
X126885109Y-82159786D01*
X127010048Y-81987820D01*
X127010047Y-81987820D01*
X127010051Y-81987816D01*
X127106557Y-81798412D01*
X127172246Y-81596243D01*
X127205500Y-81386287D01*
X127205500Y-81173713D01*
X127172246Y-80963757D01*
X127106557Y-80761588D01*
X127010051Y-80572184D01*
X127010049Y-80572181D01*
X127010048Y-80572179D01*
X126885109Y-80400213D01*
X126734792Y-80249896D01*
X126717964Y-80237670D01*
X126570204Y-80130316D01*
X126527540Y-80074989D01*
X126521561Y-80005376D01*
X126554166Y-79943580D01*
X126570199Y-79929686D01*
X126734792Y-79810104D01*
X126885104Y-79659792D01*
X126885106Y-79659788D01*
X126885109Y-79659786D01*
X127010048Y-79487820D01*
X127010047Y-79487820D01*
X127010051Y-79487816D01*
X127106557Y-79298412D01*
X127172246Y-79096243D01*
X127205500Y-78886287D01*
X127205500Y-78673713D01*
X127176669Y-78491680D01*
X127172247Y-78463761D01*
X127172246Y-78463760D01*
X127172246Y-78463757D01*
X127106557Y-78261588D01*
X127010051Y-78072184D01*
X127010049Y-78072181D01*
X127010048Y-78072179D01*
X126885109Y-77900213D01*
X126745931Y-77761035D01*
X126712446Y-77699712D01*
X126717430Y-77630020D01*
X126759302Y-77574087D01*
X126768516Y-77567815D01*
X126923343Y-77472317D01*
X127047315Y-77348345D01*
X127139356Y-77199124D01*
X127139358Y-77199119D01*
X127194505Y-77032697D01*
X127194506Y-77032690D01*
X127204999Y-76929986D01*
X127205000Y-76929973D01*
X127205000Y-76530000D01*
X126134146Y-76530000D01*
X126172630Y-76463343D01*
X126205000Y-76342535D01*
X126205000Y-76217465D01*
X126172630Y-76096657D01*
X126134146Y-76030000D01*
X127204999Y-76030000D01*
X127204999Y-75630028D01*
X127204998Y-75630013D01*
X127194505Y-75527302D01*
X127139358Y-75360880D01*
X127139356Y-75360875D01*
X127047315Y-75211654D01*
X126923345Y-75087684D01*
X126774124Y-74995643D01*
X126774119Y-74995641D01*
X126607697Y-74940494D01*
X126607690Y-74940493D01*
X126504986Y-74930000D01*
X125980000Y-74930000D01*
X125980000Y-75875854D01*
X125913343Y-75837370D01*
X125792535Y-75805000D01*
X125667465Y-75805000D01*
X125546657Y-75837370D01*
X125480000Y-75875854D01*
X125480000Y-74930000D01*
X124955028Y-74930000D01*
X124955012Y-74930001D01*
X124852302Y-74940494D01*
X124685880Y-74995641D01*
X124685875Y-74995643D01*
X124536654Y-75087684D01*
X124412684Y-75211654D01*
X124320643Y-75360875D01*
X124320641Y-75360880D01*
X124265494Y-75527302D01*
X124265493Y-75527309D01*
X124255000Y-75630013D01*
X124255000Y-76030000D01*
X125325854Y-76030000D01*
X125287370Y-76096657D01*
X125255000Y-76217465D01*
X125255000Y-76342535D01*
X125287370Y-76463343D01*
X125325854Y-76530000D01*
X124255001Y-76530000D01*
X124255001Y-76929986D01*
X124265494Y-77032697D01*
X124320641Y-77199119D01*
X124320643Y-77199124D01*
X124412684Y-77348345D01*
X124536654Y-77472315D01*
X124691484Y-77567815D01*
X124738208Y-77619763D01*
X124749431Y-77688726D01*
X124721587Y-77752808D01*
X124714069Y-77761035D01*
X124574889Y-77900215D01*
X124449951Y-78072179D01*
X124353444Y-78261585D01*
X124287753Y-78463760D01*
X124264670Y-78609500D01*
X124254500Y-78673713D01*
X124254500Y-78886287D01*
X124263286Y-78941758D01*
X124284113Y-79073258D01*
X124287754Y-79096243D01*
X124349786Y-79287158D01*
X124353444Y-79298414D01*
X124449951Y-79487820D01*
X124574890Y-79659786D01*
X124725209Y-79810105D01*
X124725214Y-79810109D01*
X124889793Y-79929682D01*
X124932459Y-79985011D01*
X124938438Y-80054625D01*
X124905833Y-80116420D01*
X124889793Y-80130318D01*
X124725214Y-80249890D01*
X124725209Y-80249894D01*
X124574890Y-80400213D01*
X124449951Y-80572179D01*
X124353444Y-80761585D01*
X124287753Y-80963760D01*
X124254500Y-81173713D01*
X124254500Y-81386286D01*
X124287753Y-81596240D01*
X124287753Y-81596241D01*
X124289355Y-81601170D01*
X124291348Y-81671011D01*
X124255266Y-81730843D01*
X124192565Y-81761669D01*
X124123151Y-81753703D01*
X124083742Y-81727166D01*
X122887826Y-80531250D01*
X122854341Y-80469927D01*
X122859325Y-80400235D01*
X122887824Y-80355889D01*
X122993938Y-80249776D01*
X123145599Y-80052127D01*
X123270164Y-79836373D01*
X123365502Y-79606207D01*
X123429982Y-79365565D01*
X123462500Y-79118565D01*
X123462500Y-78869435D01*
X123429982Y-78622435D01*
X123365502Y-78381793D01*
X123270164Y-78151627D01*
X123241847Y-78102581D01*
X123145599Y-77935873D01*
X122993939Y-77738225D01*
X122993933Y-77738218D01*
X122817781Y-77562066D01*
X122817774Y-77562060D01*
X122620126Y-77410400D01*
X122404376Y-77285837D01*
X122404361Y-77285830D01*
X122174207Y-77190498D01*
X121933561Y-77126017D01*
X121686575Y-77093501D01*
X121686570Y-77093500D01*
X121686565Y-77093500D01*
X121437435Y-77093500D01*
X121437429Y-77093500D01*
X121437424Y-77093501D01*
X121190438Y-77126017D01*
X120949792Y-77190498D01*
X120719638Y-77285830D01*
X120719623Y-77285837D01*
X120503873Y-77410400D01*
X120306225Y-77562060D01*
X120306218Y-77562066D01*
X120130066Y-77738218D01*
X120130060Y-77738225D01*
X119978400Y-77935873D01*
X119853837Y-78151623D01*
X119853830Y-78151638D01*
X119758498Y-78381792D01*
X119694017Y-78622438D01*
X119661501Y-78869424D01*
X119661500Y-78869441D01*
X119661500Y-79118558D01*
X119661501Y-79118575D01*
X119694017Y-79365561D01*
X119758498Y-79606207D01*
X119853830Y-79836361D01*
X119853837Y-79836376D01*
X119978400Y-80052126D01*
X120130060Y-80249774D01*
X120130066Y-80249781D01*
X120275181Y-80394896D01*
X120308666Y-80456219D01*
X120311500Y-80482577D01*
X120311500Y-80905663D01*
X120291815Y-80972702D01*
X120239011Y-81018457D01*
X120169853Y-81028401D01*
X120106297Y-80999376D01*
X120099819Y-80993344D01*
X118888819Y-79782344D01*
X118855334Y-79721021D01*
X118852500Y-79694663D01*
X118852500Y-76522577D01*
X118872185Y-76455538D01*
X118888819Y-76434896D01*
X119033933Y-76289781D01*
X119033938Y-76289776D01*
X119185599Y-76092127D01*
X119310164Y-75876373D01*
X119405502Y-75646207D01*
X119469982Y-75405565D01*
X119502500Y-75158565D01*
X119502500Y-74909435D01*
X119469982Y-74662435D01*
X119405502Y-74421793D01*
X119310164Y-74191627D01*
X119185599Y-73975873D01*
X119033938Y-73778224D01*
X119033933Y-73778218D01*
X118857781Y-73602066D01*
X118857774Y-73602060D01*
X118660126Y-73450400D01*
X118444376Y-73325837D01*
X118444361Y-73325830D01*
X118214207Y-73230498D01*
X117973561Y-73166017D01*
X117756486Y-73137439D01*
X117692589Y-73109173D01*
X117654118Y-73050848D01*
X117653287Y-72980983D01*
X117690359Y-72921760D01*
X117753565Y-72891981D01*
X117772671Y-72890500D01*
X137297500Y-72890500D01*
X137364539Y-72910185D01*
X137410294Y-72962989D01*
X137421500Y-73014500D01*
X137421500Y-79164420D01*
X137401815Y-79231459D01*
X137349011Y-79277214D01*
X137279853Y-79287158D01*
X137216297Y-79258133D01*
X137194398Y-79233311D01*
X137087448Y-79073249D01*
X136900320Y-78845233D01*
X136900319Y-78845232D01*
X135406251Y-80339300D01*
X135332412Y-80237670D01*
X135154330Y-80059588D01*
X135052698Y-79985748D01*
X136546766Y-78491679D01*
X136546765Y-78491678D01*
X136318750Y-78304551D01*
X136016480Y-78102581D01*
X136016462Y-78102570D01*
X135695869Y-77931209D01*
X135695864Y-77931207D01*
X135359997Y-77792086D01*
X135012101Y-77686553D01*
X135012090Y-77686550D01*
X134655556Y-77615632D01*
X134293766Y-77580000D01*
X133930234Y-77580000D01*
X133568443Y-77615632D01*
X133211909Y-77686550D01*
X133211898Y-77686553D01*
X132864002Y-77792086D01*
X132528135Y-77931207D01*
X132528130Y-77931209D01*
X132207537Y-78102570D01*
X132207519Y-78102581D01*
X131905258Y-78304545D01*
X131905254Y-78304548D01*
X131677233Y-78491679D01*
X131677233Y-78491680D01*
X133171301Y-79985748D01*
X133069670Y-80059588D01*
X132891588Y-80237670D01*
X132817748Y-80339301D01*
X131323680Y-78845233D01*
X131323679Y-78845233D01*
X131136548Y-79073254D01*
X131136545Y-79073258D01*
X130934581Y-79375519D01*
X130934570Y-79375537D01*
X130763209Y-79696130D01*
X130763207Y-79696135D01*
X130624086Y-80032002D01*
X130518553Y-80379898D01*
X130518550Y-80379909D01*
X130447632Y-80736443D01*
X130412000Y-81098234D01*
X130412000Y-81461765D01*
X130447632Y-81823556D01*
X130518550Y-82180090D01*
X130518553Y-82180101D01*
X130624086Y-82527997D01*
X130763207Y-82863864D01*
X130763209Y-82863869D01*
X130934570Y-83184462D01*
X130934581Y-83184480D01*
X131136551Y-83486750D01*
X131323678Y-83714765D01*
X131323679Y-83714766D01*
X132817747Y-82220697D01*
X132891588Y-82322330D01*
X133069670Y-82500412D01*
X133171301Y-82574251D01*
X131677232Y-84068319D01*
X131677233Y-84068320D01*
X131905249Y-84255448D01*
X132207519Y-84457418D01*
X132207537Y-84457429D01*
X132528130Y-84628790D01*
X132528135Y-84628792D01*
X132864002Y-84767913D01*
X133211898Y-84873446D01*
X133211909Y-84873449D01*
X133568443Y-84944367D01*
X133930234Y-84980000D01*
X134293766Y-84980000D01*
X134655556Y-84944367D01*
X135012090Y-84873449D01*
X135012101Y-84873446D01*
X135359997Y-84767913D01*
X135695864Y-84628792D01*
X135695869Y-84628790D01*
X136016462Y-84457429D01*
X136016480Y-84457418D01*
X136318736Y-84255457D01*
X136318750Y-84255447D01*
X136546765Y-84068320D01*
X136546766Y-84068319D01*
X135052698Y-82574251D01*
X135154330Y-82500412D01*
X135332412Y-82322330D01*
X135406251Y-82220698D01*
X136900319Y-83714766D01*
X136900320Y-83714765D01*
X137087447Y-83486750D01*
X137087464Y-83486727D01*
X137194398Y-83326689D01*
X137248010Y-83281883D01*
X137317335Y-83273176D01*
X137380362Y-83303330D01*
X137417082Y-83362773D01*
X137421500Y-83395579D01*
X137421500Y-89545500D01*
X137401815Y-89612539D01*
X137349011Y-89658294D01*
X137297500Y-89669500D01*
X88254500Y-89669500D01*
X88187461Y-89649815D01*
X88141706Y-89597011D01*
X88130500Y-89545500D01*
X88130500Y-87781648D01*
X97251500Y-87781648D01*
X97251500Y-87986351D01*
X97283522Y-88188534D01*
X97346781Y-88383223D01*
X97439715Y-88565613D01*
X97560028Y-88731213D01*
X97704786Y-88875971D01*
X97859749Y-88988556D01*
X97870390Y-88996287D01*
X97986607Y-89055503D01*
X98052776Y-89089218D01*
X98052778Y-89089218D01*
X98052781Y-89089220D01*
X98157137Y-89123127D01*
X98247465Y-89152477D01*
X98348557Y-89168488D01*
X98449648Y-89184500D01*
X98449649Y-89184500D01*
X98654351Y-89184500D01*
X98654352Y-89184500D01*
X98856534Y-89152477D01*
X99051219Y-89089220D01*
X99233610Y-88996287D01*
X99326590Y-88928732D01*
X99399213Y-88875971D01*
X99399215Y-88875968D01*
X99399219Y-88875966D01*
X99543966Y-88731219D01*
X99543968Y-88731215D01*
X99543971Y-88731213D01*
X99596732Y-88658590D01*
X99664287Y-88565610D01*
X99757220Y-88383219D01*
X99820477Y-88188534D01*
X99852500Y-87986352D01*
X99852500Y-87781648D01*
X99820477Y-87579466D01*
X99813321Y-87557443D01*
X99811841Y-87549468D01*
X99814607Y-87522458D01*
X99813832Y-87495312D01*
X99818158Y-87487776D01*
X99818959Y-87479962D01*
X99832123Y-87463456D01*
X99846075Y-87439158D01*
X100180506Y-87104728D01*
X100180511Y-87104724D01*
X100190714Y-87094520D01*
X100190716Y-87094520D01*
X100302520Y-86982716D01*
X100354654Y-86892417D01*
X100354875Y-86892035D01*
X100354875Y-86892034D01*
X100381577Y-86845785D01*
X100422500Y-86693058D01*
X100422500Y-86534943D01*
X100422500Y-84074499D01*
X100442185Y-84007460D01*
X100494989Y-83961705D01*
X100546500Y-83950499D01*
X100769871Y-83950499D01*
X100769872Y-83950499D01*
X100829483Y-83944091D01*
X100964331Y-83893796D01*
X101079546Y-83807546D01*
X101165796Y-83692331D01*
X101216091Y-83557483D01*
X101222500Y-83497873D01*
X101222499Y-81602128D01*
X101216705Y-81548225D01*
X101216091Y-81542516D01*
X101165797Y-81407671D01*
X101165793Y-81407664D01*
X101079547Y-81292455D01*
X101079544Y-81292452D01*
X100964335Y-81206206D01*
X100964328Y-81206202D01*
X100884419Y-81176398D01*
X100828485Y-81134527D01*
X100804068Y-81069062D01*
X100818920Y-81000789D01*
X100840069Y-80972537D01*
X100890242Y-80922365D01*
X101019815Y-80744022D01*
X101119895Y-80547606D01*
X101188015Y-80337951D01*
X101222500Y-80120222D01*
X101222500Y-79899778D01*
X106549500Y-79899778D01*
X106549500Y-80120221D01*
X106583985Y-80337952D01*
X106652103Y-80547603D01*
X106652104Y-80547606D01*
X106712335Y-80665813D01*
X106748323Y-80736443D01*
X106752187Y-80744025D01*
X106881752Y-80922358D01*
X106881756Y-80922363D01*
X106931928Y-80972535D01*
X106965413Y-81033858D01*
X106960429Y-81103550D01*
X106918557Y-81159483D01*
X106887581Y-81176398D01*
X106807669Y-81206203D01*
X106807664Y-81206206D01*
X106692455Y-81292452D01*
X106692452Y-81292455D01*
X106606206Y-81407664D01*
X106606202Y-81407671D01*
X106555908Y-81542517D01*
X106549603Y-81601170D01*
X106549501Y-81602123D01*
X106549500Y-81602135D01*
X106549500Y-83497870D01*
X106549501Y-83497876D01*
X106555908Y-83557483D01*
X106606202Y-83692328D01*
X106606206Y-83692335D01*
X106692452Y-83807544D01*
X106692455Y-83807547D01*
X106807664Y-83893793D01*
X106807671Y-83893797D01*
X106852618Y-83910561D01*
X106942517Y-83944091D01*
X107002127Y-83950500D01*
X107225500Y-83950499D01*
X107292539Y-83970183D01*
X107338294Y-84022987D01*
X107349500Y-84074499D01*
X107349500Y-84495330D01*
X107349499Y-84495348D01*
X107349499Y-84661054D01*
X107349498Y-84661054D01*
X107390424Y-84813789D01*
X107390425Y-84813790D01*
X107411056Y-84849523D01*
X107411057Y-84849524D01*
X107469477Y-84950712D01*
X107469481Y-84950717D01*
X107588349Y-85069585D01*
X107588355Y-85069590D01*
X108955684Y-86436919D01*
X108989169Y-86498242D01*
X108984185Y-86567934D01*
X108962000Y-86599644D01*
X108962000Y-87568314D01*
X108957606Y-87563920D01*
X108866394Y-87511259D01*
X108764661Y-87484000D01*
X108659339Y-87484000D01*
X108557606Y-87511259D01*
X108466394Y-87563920D01*
X108462000Y-87568314D01*
X108462000Y-86607390D01*
X108407586Y-86616009D01*
X108212970Y-86679244D01*
X108030650Y-86772140D01*
X107865105Y-86892417D01*
X107865104Y-86892417D01*
X107720417Y-87037104D01*
X107720417Y-87037105D01*
X107600140Y-87202650D01*
X107507244Y-87384970D01*
X107444009Y-87579586D01*
X107435391Y-87634000D01*
X108396314Y-87634000D01*
X108391920Y-87638394D01*
X108339259Y-87729606D01*
X108312000Y-87831339D01*
X108312000Y-87936661D01*
X108339259Y-88038394D01*
X108391920Y-88129606D01*
X108396314Y-88134000D01*
X107435391Y-88134000D01*
X107444009Y-88188413D01*
X107507244Y-88383029D01*
X107600140Y-88565349D01*
X107720417Y-88730894D01*
X107720417Y-88730895D01*
X107865104Y-88875582D01*
X108030650Y-88995859D01*
X108212968Y-89088754D01*
X108407578Y-89151988D01*
X108462000Y-89160607D01*
X108462000Y-88199686D01*
X108466394Y-88204080D01*
X108557606Y-88256741D01*
X108659339Y-88284000D01*
X108764661Y-88284000D01*
X108866394Y-88256741D01*
X108957606Y-88204080D01*
X108962000Y-88199686D01*
X108962000Y-89160606D01*
X109016421Y-89151988D01*
X109211031Y-89088754D01*
X109393349Y-88995859D01*
X109558894Y-88875582D01*
X109558895Y-88875582D01*
X109703582Y-88730895D01*
X109703582Y-88730894D01*
X109823861Y-88565347D01*
X109871234Y-88472371D01*
X109919208Y-88421575D01*
X109987028Y-88404779D01*
X110053164Y-88427316D01*
X110092203Y-88472369D01*
X110139713Y-88565611D01*
X110260028Y-88731213D01*
X110404786Y-88875971D01*
X110559749Y-88988556D01*
X110570390Y-88996287D01*
X110686607Y-89055503D01*
X110752776Y-89089218D01*
X110752778Y-89089218D01*
X110752781Y-89089220D01*
X110857137Y-89123127D01*
X110947465Y-89152477D01*
X111048557Y-89168488D01*
X111149648Y-89184500D01*
X111149649Y-89184500D01*
X111354351Y-89184500D01*
X111354352Y-89184500D01*
X111556534Y-89152477D01*
X111751219Y-89089220D01*
X111933610Y-88996287D01*
X112026590Y-88928732D01*
X112099213Y-88875971D01*
X112099215Y-88875968D01*
X112099219Y-88875966D01*
X112243966Y-88731219D01*
X112243968Y-88731215D01*
X112243971Y-88731213D01*
X112296732Y-88658590D01*
X112364287Y-88565610D01*
X112457220Y-88383219D01*
X112520477Y-88188534D01*
X112552500Y-87986352D01*
X112552500Y-87781648D01*
X112520477Y-87579466D01*
X112457220Y-87384781D01*
X112457218Y-87384778D01*
X112457218Y-87384776D01*
X112423503Y-87318607D01*
X112364287Y-87202390D01*
X112333334Y-87159786D01*
X112243971Y-87036786D01*
X112099213Y-86892028D01*
X111933613Y-86771715D01*
X111933612Y-86771714D01*
X111933610Y-86771713D01*
X111876653Y-86742691D01*
X111751223Y-86678781D01*
X111556534Y-86615522D01*
X111381995Y-86587878D01*
X111354352Y-86583500D01*
X111149648Y-86583500D01*
X111111599Y-86589526D01*
X110947468Y-86615522D01*
X110938717Y-86618365D01*
X110933154Y-86620173D01*
X110863313Y-86622167D01*
X110807157Y-86589922D01*
X108586819Y-84369584D01*
X108572115Y-84342656D01*
X108555523Y-84316838D01*
X108554631Y-84310637D01*
X108553334Y-84308261D01*
X108550500Y-84281903D01*
X108550500Y-84074499D01*
X108570185Y-84007460D01*
X108622989Y-83961705D01*
X108674500Y-83950499D01*
X108897871Y-83950499D01*
X108897872Y-83950499D01*
X108957483Y-83944091D01*
X109092331Y-83893796D01*
X109207546Y-83807546D01*
X109293796Y-83692331D01*
X109344091Y-83557483D01*
X109350500Y-83497873D01*
X109350499Y-81602128D01*
X109344705Y-81548225D01*
X109344091Y-81542516D01*
X109293797Y-81407671D01*
X109293793Y-81407664D01*
X109207547Y-81292455D01*
X109207544Y-81292452D01*
X109092335Y-81206206D01*
X109092328Y-81206202D01*
X109012419Y-81176398D01*
X108956485Y-81134527D01*
X108932068Y-81069062D01*
X108946920Y-81000789D01*
X108968069Y-80972537D01*
X109018242Y-80922365D01*
X109147815Y-80744022D01*
X109247895Y-80547606D01*
X109316015Y-80337951D01*
X109350500Y-80120222D01*
X109350500Y-79899778D01*
X109316015Y-79682049D01*
X109247895Y-79472394D01*
X109247895Y-79472393D01*
X109193460Y-79365561D01*
X109147815Y-79275978D01*
X109033456Y-79118575D01*
X109018247Y-79097641D01*
X109018243Y-79097636D01*
X108862363Y-78941756D01*
X108862358Y-78941752D01*
X108684025Y-78812187D01*
X108684024Y-78812186D01*
X108684022Y-78812185D01*
X108621096Y-78780122D01*
X108487606Y-78712104D01*
X108487603Y-78712103D01*
X108277952Y-78643985D01*
X108141890Y-78622435D01*
X108060222Y-78609500D01*
X107839778Y-78609500D01*
X107767201Y-78620995D01*
X107622047Y-78643985D01*
X107412396Y-78712103D01*
X107412393Y-78712104D01*
X107215974Y-78812187D01*
X107037641Y-78941752D01*
X107037636Y-78941756D01*
X106881756Y-79097636D01*
X106881752Y-79097641D01*
X106752187Y-79275974D01*
X106652104Y-79472393D01*
X106652103Y-79472396D01*
X106583985Y-79682047D01*
X106549500Y-79899778D01*
X101222500Y-79899778D01*
X101188015Y-79682049D01*
X101119895Y-79472394D01*
X101119895Y-79472393D01*
X101065460Y-79365561D01*
X101019815Y-79275978D01*
X100905456Y-79118575D01*
X100890247Y-79097641D01*
X100890243Y-79097636D01*
X100734363Y-78941756D01*
X100734358Y-78941752D01*
X100556025Y-78812187D01*
X100556024Y-78812186D01*
X100556022Y-78812185D01*
X100493096Y-78780122D01*
X100359606Y-78712104D01*
X100359603Y-78712103D01*
X100149952Y-78643985D01*
X100013890Y-78622435D01*
X99932222Y-78609500D01*
X99711778Y-78609500D01*
X99639201Y-78620995D01*
X99494047Y-78643985D01*
X99284396Y-78712103D01*
X99284393Y-78712104D01*
X99087974Y-78812187D01*
X98909641Y-78941752D01*
X98909636Y-78941756D01*
X98753756Y-79097636D01*
X98753752Y-79097641D01*
X98624187Y-79275974D01*
X98524104Y-79472393D01*
X98524103Y-79472396D01*
X98455985Y-79682047D01*
X98421500Y-79899778D01*
X98421500Y-80120221D01*
X98455985Y-80337952D01*
X98524103Y-80547603D01*
X98524104Y-80547606D01*
X98584335Y-80665813D01*
X98620323Y-80736443D01*
X98624187Y-80744025D01*
X98753752Y-80922358D01*
X98753756Y-80922363D01*
X98803928Y-80972535D01*
X98837413Y-81033858D01*
X98832429Y-81103550D01*
X98790557Y-81159483D01*
X98759581Y-81176398D01*
X98679669Y-81206203D01*
X98679664Y-81206206D01*
X98564455Y-81292452D01*
X98564452Y-81292455D01*
X98478206Y-81407664D01*
X98478202Y-81407671D01*
X98427908Y-81542517D01*
X98421603Y-81601170D01*
X98421501Y-81602123D01*
X98421500Y-81602135D01*
X98421500Y-83497870D01*
X98421501Y-83497876D01*
X98427908Y-83557483D01*
X98478202Y-83692328D01*
X98478206Y-83692335D01*
X98564452Y-83807544D01*
X98564455Y-83807547D01*
X98679664Y-83893793D01*
X98679671Y-83893797D01*
X98724618Y-83910561D01*
X98814517Y-83944091D01*
X98874127Y-83950500D01*
X99097500Y-83950499D01*
X99164539Y-83970183D01*
X99210294Y-84022987D01*
X99221500Y-84074499D01*
X99221500Y-86313902D01*
X99201815Y-86380941D01*
X99185181Y-86401583D01*
X98996842Y-86589922D01*
X98935519Y-86623407D01*
X98870843Y-86620172D01*
X98856534Y-86615523D01*
X98805185Y-86607390D01*
X98654352Y-86583500D01*
X98449648Y-86583500D01*
X98425329Y-86587351D01*
X98247465Y-86615522D01*
X98052776Y-86678781D01*
X97870386Y-86771715D01*
X97704786Y-86892028D01*
X97560028Y-87036786D01*
X97439715Y-87202386D01*
X97346781Y-87384776D01*
X97283522Y-87579465D01*
X97251500Y-87781648D01*
X88130500Y-87781648D01*
X88130500Y-83395579D01*
X88150185Y-83328540D01*
X88202989Y-83282785D01*
X88272147Y-83272841D01*
X88335703Y-83301866D01*
X88357602Y-83326689D01*
X88464545Y-83486743D01*
X88464549Y-83486748D01*
X88651678Y-83714765D01*
X88651679Y-83714766D01*
X90145747Y-82220697D01*
X90219588Y-82322330D01*
X90397670Y-82500412D01*
X90499301Y-82574251D01*
X89005232Y-84068319D01*
X89005233Y-84068320D01*
X89233249Y-84255448D01*
X89535519Y-84457418D01*
X89535537Y-84457429D01*
X89856130Y-84628790D01*
X89856135Y-84628792D01*
X90192002Y-84767913D01*
X90539898Y-84873446D01*
X90539909Y-84873449D01*
X90896443Y-84944367D01*
X91258234Y-84980000D01*
X91621766Y-84980000D01*
X91983556Y-84944367D01*
X92340090Y-84873449D01*
X92340101Y-84873446D01*
X92687997Y-84767913D01*
X93023864Y-84628792D01*
X93023869Y-84628790D01*
X93344462Y-84457429D01*
X93344480Y-84457418D01*
X93646736Y-84255457D01*
X93646750Y-84255447D01*
X93874765Y-84068320D01*
X93874766Y-84068319D01*
X92380698Y-82574251D01*
X92482330Y-82500412D01*
X92660412Y-82322330D01*
X92734251Y-82220698D01*
X94228319Y-83714766D01*
X94228320Y-83714765D01*
X94415447Y-83486750D01*
X94415457Y-83486736D01*
X94617418Y-83184480D01*
X94617429Y-83184462D01*
X94788790Y-82863869D01*
X94788792Y-82863864D01*
X94927913Y-82527997D01*
X95033446Y-82180101D01*
X95033449Y-82180090D01*
X95104367Y-81823556D01*
X95140000Y-81461765D01*
X95140000Y-81098234D01*
X95104367Y-80736443D01*
X95033449Y-80379909D01*
X95033446Y-80379898D01*
X94927913Y-80032002D01*
X94788792Y-79696135D01*
X94788790Y-79696130D01*
X94617429Y-79375537D01*
X94617418Y-79375519D01*
X94415448Y-79073249D01*
X94228320Y-78845233D01*
X94228319Y-78845232D01*
X92734251Y-80339300D01*
X92660412Y-80237670D01*
X92482330Y-80059588D01*
X92380698Y-79985748D01*
X93874766Y-78491679D01*
X93874765Y-78491678D01*
X93646750Y-78304551D01*
X93424837Y-78156274D01*
X93380032Y-78102662D01*
X93371325Y-78033337D01*
X93401479Y-77970310D01*
X93460922Y-77933590D01*
X93493728Y-77929172D01*
X112088310Y-77929172D01*
X112088310Y-73014500D01*
X112107995Y-72947461D01*
X112160799Y-72901706D01*
X112212310Y-72890500D01*
X117431329Y-72890500D01*
X117498368Y-72910185D01*
G37*
%TD.AperFunction*%
%TA.AperFunction,Conductor*%
G36*
X91788324Y-72910185D02*
G01*
X91834079Y-72962989D01*
X91845285Y-73014500D01*
X91845285Y-77465201D01*
X91825600Y-77532240D01*
X91772796Y-77577995D01*
X91709132Y-77588604D01*
X91621767Y-77580000D01*
X91258234Y-77580000D01*
X90896443Y-77615632D01*
X90539909Y-77686550D01*
X90539898Y-77686553D01*
X90192002Y-77792086D01*
X89856135Y-77931207D01*
X89856130Y-77931209D01*
X89535537Y-78102570D01*
X89535519Y-78102581D01*
X89233258Y-78304545D01*
X89233254Y-78304548D01*
X89005233Y-78491679D01*
X89005233Y-78491680D01*
X90499301Y-79985748D01*
X90397670Y-80059588D01*
X90219588Y-80237670D01*
X90145748Y-80339301D01*
X88651680Y-78845233D01*
X88651679Y-78845233D01*
X88464548Y-79073254D01*
X88464545Y-79073258D01*
X88357602Y-79233311D01*
X88303990Y-79278116D01*
X88234665Y-79286823D01*
X88171638Y-79256669D01*
X88134918Y-79197226D01*
X88130500Y-79164420D01*
X88130500Y-73014500D01*
X88150185Y-72947461D01*
X88202989Y-72901706D01*
X88254500Y-72890500D01*
X91721285Y-72890500D01*
X91788324Y-72910185D01*
G37*
%TD.AperFunction*%
%TD*%
M02*
