M48
; DRILL file {KiCad 9.0.0} date 2025-03-24T21:12:24-0400
; FORMAT={-:-/ absolute / inch / decimal}
; #@! TF.CreationDate,2025-03-24T21:12:24-04:00
; #@! TF.GenerationSoftware,Kicad,Pcbnew,9.0.0
; #@! TF.FileFunction,Plated,1,2,PTH
FMAT,2
INCH
; #@! TA.AperFunction,Plated,PTH,ComponentDrill
T1C0.0197
; #@! TA.AperFunction,Plated,PTH,ComponentDrill
T2C0.0315
; #@! TA.AperFunction,Plated,PTH,ComponentDrill
T3C0.0354
; #@! TA.AperFunction,Plated,PTH,ComponentDrill
T4C0.0374
; #@! TA.AperFunction,Plated,PTH,ComponentDrill
T5C0.0618
; #@! TA.AperFunction,Plated,PTH,ComponentDrill
T6C0.1260
%
G90
G05
T1
X3.5055Y-3.2
X3.5332Y-3.1332
X3.5332Y-3.2668
X3.6Y-3.1055
X3.6Y-3.2945
X3.6668Y-3.1332
X3.6668Y-3.2668
X3.6945Y-3.2
X5.1855Y-3.2
X5.2132Y-3.1332
X5.2132Y-3.2668
X5.28Y-3.1055
X5.28Y-3.2945
X5.3468Y-3.1332
X5.3468Y-3.2668
X5.3745Y-3.2
T2
X3.88Y-3.46
X4.28Y-3.46
X4.38Y-3.46
X4.78Y-3.46
T3
X3.93Y-3.15
X3.93Y-3.25
X4.25Y-3.15
X4.25Y-3.25
T4
X4.95Y-3.0031
X4.95Y-3.1016
X4.95Y-3.2
X4.95Y-3.2984
X4.95Y-3.3969
T5
X4.5898Y-3.26
X4.63Y-2.9541
X4.7859Y-3.11
T6
X3.6Y-3.2
X5.28Y-3.2
M30
