%TF.GenerationSoftware,KiCad,Pcbnew,9.0.0*%
%TF.CreationDate,2025-03-24T21:12:25-04:00*%
%TF.ProjectId,umich_balloons_external,756d6963-685f-4626-916c-6c6f6f6e735f,rev?*%
%TF.SameCoordinates,Original*%
%TF.FileFunction,Legend,Top*%
%TF.FilePolarity,Positive*%
%FSLAX46Y46*%
G04 Gerber Fmt 4.6, Leading zero omitted, Abs format (unit mm)*
G04 Created by KiCad (PCBNEW 9.0.0) date 2025-03-24 21:12:25*
%MOMM*%
%LPD*%
G01*
G04 APERTURE LIST*
%ADD10C,0.100000*%
%ADD11C,0.150000*%
%ADD12C,0.120000*%
G04 APERTURE END LIST*
D10*
X113220667Y-78133800D02*
X113363524Y-78181419D01*
X113363524Y-78181419D02*
X113601619Y-78181419D01*
X113601619Y-78181419D02*
X113696857Y-78133800D01*
X113696857Y-78133800D02*
X113744476Y-78086180D01*
X113744476Y-78086180D02*
X113792095Y-77990942D01*
X113792095Y-77990942D02*
X113792095Y-77895704D01*
X113792095Y-77895704D02*
X113744476Y-77800466D01*
X113744476Y-77800466D02*
X113696857Y-77752847D01*
X113696857Y-77752847D02*
X113601619Y-77705228D01*
X113601619Y-77705228D02*
X113411143Y-77657609D01*
X113411143Y-77657609D02*
X113315905Y-77609990D01*
X113315905Y-77609990D02*
X113268286Y-77562371D01*
X113268286Y-77562371D02*
X113220667Y-77467133D01*
X113220667Y-77467133D02*
X113220667Y-77371895D01*
X113220667Y-77371895D02*
X113268286Y-77276657D01*
X113268286Y-77276657D02*
X113315905Y-77229038D01*
X113315905Y-77229038D02*
X113411143Y-77181419D01*
X113411143Y-77181419D02*
X113649238Y-77181419D01*
X113649238Y-77181419D02*
X113792095Y-77229038D01*
X114125429Y-77181419D02*
X114363524Y-78181419D01*
X114363524Y-78181419D02*
X114554000Y-77467133D01*
X114554000Y-77467133D02*
X114744476Y-78181419D01*
X114744476Y-78181419D02*
X114982572Y-77181419D01*
X115887333Y-78181419D02*
X115315905Y-78181419D01*
X115601619Y-78181419D02*
X115601619Y-77181419D01*
X115601619Y-77181419D02*
X115506381Y-77324276D01*
X115506381Y-77324276D02*
X115411143Y-77419514D01*
X115411143Y-77419514D02*
X115315905Y-77467133D01*
D11*
X104444819Y-82018094D02*
X103444819Y-82018094D01*
X103444819Y-82018094D02*
X103444819Y-81779999D01*
X103444819Y-81779999D02*
X103492438Y-81637142D01*
X103492438Y-81637142D02*
X103587676Y-81541904D01*
X103587676Y-81541904D02*
X103682914Y-81494285D01*
X103682914Y-81494285D02*
X103873390Y-81446666D01*
X103873390Y-81446666D02*
X104016247Y-81446666D01*
X104016247Y-81446666D02*
X104206723Y-81494285D01*
X104206723Y-81494285D02*
X104301961Y-81541904D01*
X104301961Y-81541904D02*
X104397200Y-81637142D01*
X104397200Y-81637142D02*
X104444819Y-81779999D01*
X104444819Y-81779999D02*
X104444819Y-82018094D01*
X103540057Y-81065713D02*
X103492438Y-81018094D01*
X103492438Y-81018094D02*
X103444819Y-80922856D01*
X103444819Y-80922856D02*
X103444819Y-80684761D01*
X103444819Y-80684761D02*
X103492438Y-80589523D01*
X103492438Y-80589523D02*
X103540057Y-80541904D01*
X103540057Y-80541904D02*
X103635295Y-80494285D01*
X103635295Y-80494285D02*
X103730533Y-80494285D01*
X103730533Y-80494285D02*
X103873390Y-80541904D01*
X103873390Y-80541904D02*
X104444819Y-81113332D01*
X104444819Y-81113332D02*
X104444819Y-80494285D01*
X103465333Y-85968819D02*
X103132000Y-85492628D01*
X102893905Y-85968819D02*
X102893905Y-84968819D01*
X102893905Y-84968819D02*
X103274857Y-84968819D01*
X103274857Y-84968819D02*
X103370095Y-85016438D01*
X103370095Y-85016438D02*
X103417714Y-85064057D01*
X103417714Y-85064057D02*
X103465333Y-85159295D01*
X103465333Y-85159295D02*
X103465333Y-85302152D01*
X103465333Y-85302152D02*
X103417714Y-85397390D01*
X103417714Y-85397390D02*
X103370095Y-85445009D01*
X103370095Y-85445009D02*
X103274857Y-85492628D01*
X103274857Y-85492628D02*
X102893905Y-85492628D01*
X103846286Y-85064057D02*
X103893905Y-85016438D01*
X103893905Y-85016438D02*
X103989143Y-84968819D01*
X103989143Y-84968819D02*
X104227238Y-84968819D01*
X104227238Y-84968819D02*
X104322476Y-85016438D01*
X104322476Y-85016438D02*
X104370095Y-85064057D01*
X104370095Y-85064057D02*
X104417714Y-85159295D01*
X104417714Y-85159295D02*
X104417714Y-85254533D01*
X104417714Y-85254533D02*
X104370095Y-85397390D01*
X104370095Y-85397390D02*
X103798667Y-85968819D01*
X103798667Y-85968819D02*
X104417714Y-85968819D01*
X116165333Y-85968819D02*
X115832000Y-85492628D01*
X115593905Y-85968819D02*
X115593905Y-84968819D01*
X115593905Y-84968819D02*
X115974857Y-84968819D01*
X115974857Y-84968819D02*
X116070095Y-85016438D01*
X116070095Y-85016438D02*
X116117714Y-85064057D01*
X116117714Y-85064057D02*
X116165333Y-85159295D01*
X116165333Y-85159295D02*
X116165333Y-85302152D01*
X116165333Y-85302152D02*
X116117714Y-85397390D01*
X116117714Y-85397390D02*
X116070095Y-85445009D01*
X116070095Y-85445009D02*
X115974857Y-85492628D01*
X115974857Y-85492628D02*
X115593905Y-85492628D01*
X117117714Y-85968819D02*
X116546286Y-85968819D01*
X116832000Y-85968819D02*
X116832000Y-84968819D01*
X116832000Y-84968819D02*
X116736762Y-85111676D01*
X116736762Y-85111676D02*
X116641524Y-85206914D01*
X116641524Y-85206914D02*
X116546286Y-85254533D01*
X96316819Y-82018094D02*
X95316819Y-82018094D01*
X95316819Y-82018094D02*
X95316819Y-81779999D01*
X95316819Y-81779999D02*
X95364438Y-81637142D01*
X95364438Y-81637142D02*
X95459676Y-81541904D01*
X95459676Y-81541904D02*
X95554914Y-81494285D01*
X95554914Y-81494285D02*
X95745390Y-81446666D01*
X95745390Y-81446666D02*
X95888247Y-81446666D01*
X95888247Y-81446666D02*
X96078723Y-81494285D01*
X96078723Y-81494285D02*
X96173961Y-81541904D01*
X96173961Y-81541904D02*
X96269200Y-81637142D01*
X96269200Y-81637142D02*
X96316819Y-81779999D01*
X96316819Y-81779999D02*
X96316819Y-82018094D01*
X96316819Y-80494285D02*
X96316819Y-81065713D01*
X96316819Y-80779999D02*
X95316819Y-80779999D01*
X95316819Y-80779999D02*
X95459676Y-80875237D01*
X95459676Y-80875237D02*
X95554914Y-80970475D01*
X95554914Y-80970475D02*
X95602533Y-81065713D01*
D10*
%TO.C,SW1*%
X123102000Y-78994000D02*
G75*
G02*
X112102000Y-78994000I-5500000J0D01*
G01*
X112102000Y-78994000D02*
G75*
G02*
X123102000Y-78994000I5500000J0D01*
G01*
D12*
%TO.C,D2*%
X110450000Y-81280000D02*
G75*
G02*
X105450000Y-81280000I-2500000J0D01*
G01*
X105450000Y-81280000D02*
G75*
G02*
X110450000Y-81280000I2500000J0D01*
G01*
X107950048Y-78290000D02*
G75*
G02*
X109494830Y-83840000I-48J-2990000D01*
G01*
X106405170Y-83840000D02*
G75*
G02*
X107949952Y-78290000I1544830J2560000D01*
G01*
X106405000Y-83840000D02*
X109495000Y-83840000D01*
%TO.C,R2*%
X99592000Y-87884000D02*
X100362000Y-87884000D01*
X100362000Y-86514000D02*
X100362000Y-89254000D01*
X100362000Y-89254000D02*
X106902000Y-89254000D01*
X106902000Y-86514000D02*
X100362000Y-86514000D01*
X106902000Y-89254000D02*
X106902000Y-86514000D01*
X107672000Y-87884000D02*
X106902000Y-87884000D01*
%TO.C,R1*%
X112292000Y-87884000D02*
X113062000Y-87884000D01*
X113062000Y-86514000D02*
X113062000Y-89254000D01*
X113062000Y-89254000D02*
X119602000Y-89254000D01*
X119602000Y-86514000D02*
X113062000Y-86514000D01*
X119602000Y-89254000D02*
X119602000Y-86514000D01*
X120372000Y-87884000D02*
X119602000Y-87884000D01*
%TO.C,D1*%
X98277000Y-83840000D02*
X101367000Y-83840000D01*
X98277170Y-83840000D02*
G75*
G02*
X99821952Y-78290000I1544830J2560000D01*
G01*
X99822048Y-78290000D02*
G75*
G02*
X101366830Y-83840000I-48J-2990000D01*
G01*
X102322000Y-81280000D02*
G75*
G02*
X97322000Y-81280000I-2500000J0D01*
G01*
X97322000Y-81280000D02*
G75*
G02*
X102322000Y-81280000I2500000J0D01*
G01*
%TD*%
M02*
